<?xml version="1.0" encoding="utf-8"?>
<!-- Generator: Adobe Illustrator 16.0.0, SVG Export Plug-In . SVG Version: 6.00 Build 0)  -->
<!DOCTYPE svg PUBLIC "-//W3C//DTD SVG 1.1//EN" "http://www.w3.org/Graphics/SVG/1.1/DTD/svg11.dtd">
<svg version="1.1" id="Layer_1" xmlns="http://www.w3.org/2000/svg" xmlns:xlink="http://www.w3.org/1999/xlink" x="0px" y="0px"
	 width="197.594px" height="197px" viewBox="0 0 197.594 197" enable-background="new 0 0 197.594 197" xml:space="preserve">
<g>
	<defs>
		<circle id="SVGID_1_" cx="99.365" cy="98.886" r="95.365"/>
	</defs>
	<use xlink:href="#SVGID_1_"  overflow="visible" fill="#FDB515"/>
	<clipPath id="SVGID_2_">
		<use xlink:href="#SVGID_1_"  overflow="visible"/>
	</clipPath>
	<g clip-path="url(#SVGID_2_)">
		<g>
			<defs>
				<rect id="SVGID_3_" x="-17.697" y="11.863" width="234.124" height="207.592"/>
			</defs>
			<clipPath id="SVGID_4_">
				<use xlink:href="#SVGID_3_"  overflow="visible"/>
			</clipPath>
			<path clip-path="url(#SVGID_4_)" fill="#FFFFFF" d="M207.725,185.465c-0.037-9.973-7.037-10.213-15.395-13.553l-39.021-15.624
				c-0.672-0.267-1.346-0.561-2.006-0.853v-0.013c-6.936-3.136-13.059-7.505-15.307-10.577l-0.088-0.105l-0.025-0.049
				c-0.127-0.191-0.268-0.395-0.381-0.598l-0.09-0.154l-0.025-0.049l-0.076-0.09v-0.014c-1.041-1.561-2.096-2.259-2.973-1.954
				l-0.062,0.025h-0.025v0.011l-0.051,0.014l-0.039,0.012l-0.051,0.04c-1.055,0.56-0.838-0.052-1.27-1.206
				c-1.055-2.858-2.795-8.282-3.061-9.082c-0.408-1.486-1.5,2.35-1.246-1.791l0.445-7.496c0.711-0.775,1.295-1.396,1.689-1.828
				c2.539-2.91,2.719-10.593,3.988-12.46c1.283-1.88,3.836-2.286,6.377-11c2.553-8.727,5.664-21.188,2.387-21.39
				c-0.812-0.053-1.727,0.469-2.666,1.307c0.57-3.213,1.789-10.479,2.07-15.84c0.355-7.062-0.814-25.174-4.828-31.805
				c-2.514-4.153-7.582-8.256-12.625-11.47c-3.023-1.931-6.047-3.519-8.51-4.598c-7.355-3.265-30.549-1.766-38.399,0
				c-8.942,1.994-15.219,7.606-19.219,14.25c-4.002,6.644-5.777,26.56-5.424,33.622c0.167,3.178,2.059,8.523,2.541,11.787
				c0.279,1.704,0.533,1.717,0.736,2.924c-0.33-0.127-0.646-0.191-0.952-0.166c-3.277,0.189-0.178,12.651,2.36,21.378
				c2.554,8.714,5.096,9.12,6.379,11c1.27,1.867,1.449,9.55,4.015,12.46c0.393,0.458,1.015,1.131,1.775,1.943l0.484,6.11l0.865,3.39
				c-0.397-0.977-1.17-1.6-1.538-0.328c-1.093,3.339-2.198,6.668-3.29,10.009c-0.114-0.167-0.294-0.267-0.509-0.279
				c-1.054-0.94-2.49-0.127-3.785,2.045c-1.931,3.212-8.307,7.823-15.712,11.179l-0.205,0.787l-0.034,0.163
				c-0.586,0.255-1.171,0.51-1.766,0.738L4.164,171.912c-8.36,3.353-15.357,3.58-15.397,13.564l-6.464,33.979h234.124
				L207.725,185.465z M207.725,185.465"/>
		</g>
	</g>
	<use xlink:href="#SVGID_1_"  overflow="visible" fill="none" stroke="#FDB515" stroke-width="5" stroke-miterlimit="2"/>
</g>
</svg>
