<?xml version="1.0" encoding="utf-8"?>
<!-- Generator: Adobe Illustrator 16.0.0, SVG Export Plug-In . SVG Version: 6.00 Build 0)  -->
<!DOCTYPE svg PUBLIC "-//W3C//DTD SVG 1.1//EN" "http://www.w3.org/Graphics/SVG/1.1/DTD/svg11.dtd">
<svg version="1.1" id="Layer_1" xmlns="http://www.w3.org/2000/svg" xmlns:xlink="http://www.w3.org/1999/xlink" x="0px" y="0px"
	 width="323.75px" height="82.5px" viewBox="0 0 323.75 82.5" enable-background="new 0 0 323.75 82.5" xml:space="preserve">
<g>
	<g>
		<g>
			<path fill="#1D1D1B" d="M207.805,56.549c0,0.217-0.074,0.414-0.23,0.59c-0.16,0.176-0.354,0.266-0.582,0.266h-2.746
				c-0.262,0-0.475-0.078-0.65-0.234c-0.178-0.154-0.264-0.361-0.264-0.621l0.285-28.229c0-0.256,0.092-0.464,0.275-0.621
				c0.182-0.155,0.381-0.233,0.596-0.233h2.176c0.221,0,0.412,0.087,0.58,0.264c0.17,0.177,0.256,0.388,0.256,0.63L207.805,56.549z"
				/>
			<path fill="#1D1D1B" d="M255.153,50.469c-0.385,1.139-0.893,2.162-1.537,3.072c-0.643,0.908-1.4,1.681-2.27,2.314
				c-0.867,0.641-1.838,1.132-2.904,1.479c-1.072,0.344-2.229,0.515-3.459,0.515c-1.586,0-3.053-0.276-4.393-0.832
				c-1.342-0.555-2.498-1.33-3.471-2.318c-0.965-0.99-1.723-2.17-2.268-3.54c-0.541-1.369-0.811-2.868-0.811-4.493
				c0-1.547,0.24-3.012,0.73-4.395c0.486-1.38,1.201-2.589,2.137-3.619c0.932-1.032,2.09-1.849,3.455-2.452
				c1.373-0.604,2.947-0.904,4.719-0.904c1.197,0,2.297,0.177,3.309,0.529c1.008,0.352,1.91,0.817,2.707,1.394
				c0.787,0.578,1.469,1.244,2.028,2.002c0.562,0.759,0.999,1.545,1.293,2.358c0.122,0.354,0.087,0.649-0.112,0.886
				c-0.191,0.236-0.438,0.356-0.725,0.356h-2.684c-0.15,0-0.291-0.035-0.424-0.102c-0.135-0.069-0.23-0.177-0.285-0.326
				c-0.299-0.582-0.648-1.081-1.061-1.495c-0.404-0.413-0.835-0.755-1.289-1.026c-0.453-0.272-0.921-0.474-1.396-0.601
				c-0.471-0.128-0.926-0.193-1.361-0.193c-1.055,0-1.992,0.202-2.816,0.6c-0.822,0.399-1.508,0.937-2.064,1.616
				c-0.553,0.679-0.979,1.464-1.262,2.359c-0.279,0.895-0.422,1.838-0.422,2.828c0,1.248,0.154,2.32,0.465,3.225
				c0.311,0.902,0.756,1.643,1.326,2.225c0.567,0.584,1.252,1.014,2.061,1.295c0.807,0.276,1.711,0.415,2.713,0.415
				c0.543,0,1.092-0.079,1.641-0.235c0.543-0.153,1.076-0.395,1.571-0.72c0.505-0.329,0.976-0.735,1.415-1.22
				c0.445-0.492,0.828-1.065,1.152-1.73c0.107-0.285,0.361-0.445,0.77-0.487h2.668c0.202,0.012,0.365,0.067,0.498,0.159
				c0.129,0.097,0.225,0.205,0.291,0.328c0.07,0.121,0.105,0.25,0.117,0.387C255.206,50.258,255.194,50.375,255.153,50.469z"/>
			<path fill="#1D1D1B" d="M277.301,56.549c0,0.217-0.08,0.414-0.236,0.59c-0.154,0.176-0.348,0.266-0.574,0.266h-2.748
				c-0.26,0-0.475-0.078-0.652-0.234c-0.178-0.154-0.262-0.361-0.262-0.621l0.139-12.956c0-0.636-0.078-1.228-0.234-1.778
				c-0.156-0.548-0.397-1.027-0.719-1.434c-0.322-0.406-0.734-0.725-1.213-0.957c-0.482-0.229-1.037-0.345-1.676-0.345
				c-0.764,0-1.494,0.156-2.193,0.469c-0.707,0.312-1.336,0.748-1.879,1.311c-0.539,0.565-0.977,1.237-1.302,2.023
				c-0.323,0.788-0.478,1.654-0.462,2.604l0.117,11.062c0,0.217-0.078,0.414-0.232,0.59c-0.158,0.176-0.346,0.266-0.578,0.266
				h-2.748c-0.256,0-0.477-0.078-0.646-0.234c-0.18-0.154-0.268-0.361-0.268-0.621l0.285-28.229c0-0.256,0.092-0.464,0.271-0.621
				c0.186-0.155,0.385-0.233,0.604-0.233h2.176c0.219,0,0.412,0.087,0.582,0.264c0.164,0.177,0.246,0.388,0.246,0.63l0.107,9.376
				c0,0.097,0.031,0.178,0.092,0.244c0.061,0.067,0.131,0.12,0.225,0.153c0.086,0.035,0.176,0.051,0.266,0.051
				c0.086,0,0.162-0.035,0.229-0.103c0.778-0.948,1.676-1.65,2.711-2.105c1.027-0.454,2.258-0.681,3.68-0.681
				c0.988,0,1.893,0.177,2.713,0.529c0.822,0.352,1.531,0.839,2.131,1.463c0.588,0.625,1.055,1.364,1.387,2.216
				c0.336,0.859,0.512,1.778,0.521,2.767L277.301,56.549z"/>
			<path fill="#1D1D1B" d="M322.756,48.924c-0.395-0.691-0.91-1.287-1.547-1.777c-0.637-0.498-1.365-0.912-2.188-1.243
				c-0.822-0.333-1.652-0.631-2.5-0.896s-1.682-0.507-2.504-0.721c-0.818-0.22-1.547-0.451-2.184-0.703
				c-0.639-0.252-1.154-0.542-1.547-0.874c-0.391-0.333-0.59-0.743-0.59-1.231c0-0.541,0.16-0.973,0.475-1.291
				c0.322-0.318,0.701-0.56,1.143-0.723c0.441-0.162,0.885-0.268,1.334-0.316c0.445-0.047,0.793-0.071,1.035-0.071
				c0.473,0,0.953,0.04,1.432,0.121c0.484,0.083,0.936,0.219,1.357,0.407c0.418,0.19,0.799,0.452,1.127,0.786
				c0.334,0.331,0.576,0.748,0.742,1.248c0.152,0.286,0.393,0.427,0.73,0.427h2.482c0.094,0,0.209-0.01,0.346-0.031
				c0.139-0.02,0.256-0.062,0.365-0.131c0.107-0.067,0.191-0.167,0.244-0.295c0.055-0.129,0.055-0.303,0-0.518
				c-0.301-1.058-0.736-1.957-1.322-2.696c-0.582-0.738-1.26-1.338-2.021-1.799c-0.768-0.46-1.605-0.793-2.512-0.996
				c-0.91-0.207-1.84-0.306-2.791-0.306c-1.094,0.026-2.154,0.183-3.182,0.467c-1.023,0.286-1.926,0.692-2.711,1.221
				c-0.791,0.529-1.414,1.176-1.881,1.941c-0.471,0.767-0.701,1.651-0.701,2.654c0,0.977,0.191,1.81,0.578,2.502
				c0.385,0.689,0.893,1.281,1.527,1.77c0.627,0.487,1.346,0.896,2.156,1.221c0.801,0.324,1.631,0.61,2.477,0.854
				c0.85,0.244,1.674,0.468,2.482,0.671c0.807,0.203,1.525,0.429,2.16,0.673c0.627,0.244,1.133,0.527,1.521,0.854
				c0.389,0.325,0.582,0.732,0.582,1.22c0,0.407-0.133,0.753-0.398,1.038c-0.264,0.285-0.615,0.521-1.061,0.712
				c-0.438,0.19-0.939,0.329-1.502,0.415c-0.566,0.088-1.152,0.134-1.758,0.134c-0.49,0-0.982-0.04-1.477-0.124
				c-0.6-0.015-0.648,0.533-0.682,0.533c-0.027,0,0,2.773,0,2.773s-0.102,0.767,0.604,0.881c0.602,0.094,1.199,0.145,1.795,0.145
				c2.902,0,5.119-0.562,6.652-1.695s2.301-2.717,2.301-4.75C323.348,50.441,323.146,49.613,322.756,48.924z"/>
			<path fill="#1D1D1B" d="M149.354,41.805c-0.544-1.411-1.287-2.6-2.235-3.568c-0.95-0.97-2.058-1.703-3.327-2.197
				c-1.269-0.494-2.633-0.742-4.096-0.742c-0.532,0-1.072,0.04-1.619,0.122c-0.549,0.082-1.094,0.223-1.637,0.427
				c-0.541,0.204-1.074,0.486-1.597,0.845c-0.524,0.358-1.011,0.81-1.476,1.354c-0.051,0.065-0.127,0.107-0.223,0.119
				c-0.096,0.016-0.189,0.012-0.287-0.009c-0.092-0.02-0.174-0.062-0.24-0.121c-0.068-0.06-0.102-0.146-0.102-0.254l-0.021-1.302
				c0-0.189-0.094-0.373-0.275-0.55c-0.18-0.175-0.379-0.263-0.578-0.263h-2.342c-0.215,0-0.41,0.088-0.588,0.263
				c-0.175,0.177-0.265,0.361-0.265,0.55l-0.326,29.186c0,0.201,0.082,0.386,0.248,0.548c0.162,0.161,0.343,0.244,0.547,0.244h3.01
				c0.206,0,0.393-0.083,0.57-0.244c0.178-0.162,0.264-0.347,0.264-0.548l-0.044-7.656l-0.005-0.002l-0.134-11.309
				c0-1.018,0.147-1.989,0.44-2.913c0.289-0.923,0.729-1.729,1.322-2.421c0.588-0.694,1.316-1.248,2.184-1.661
				c0.867-0.415,1.883-0.621,3.049-0.621c1.059,0,1.971,0.204,2.734,0.609c0.771,0.409,1.401,0.955,1.902,1.641
				c0.503,0.687,0.874,1.469,1.12,2.353c0.245,0.883,0.365,1.793,0.365,2.729c0,1.101-0.181,2.094-0.549,2.982
				c-0.366,0.891-0.843,1.651-1.434,2.284c-0.591,0.631-1.259,1.119-2.005,1.465c-0.744,0.346-1.496,0.519-2.256,0.519
				c-0.475,0-0.936-0.054-1.389-0.145c-0.787,0-0.824,0.714-0.824,0.714v2.703c0,0,0.037,0.815,0.578,0.815
				c0.533,0.081,1.068,0.122,1.596,0.122c1.612,0,3.08-0.298,4.402-0.895c1.323-0.595,2.451-1.405,3.395-2.428
				c0.943-1.027,1.674-2.218,2.188-3.574c0.515-1.355,0.771-2.789,0.771-4.309C150.167,44.836,149.899,43.215,149.354,41.805z"/>
			<path fill="#1D1D1B" d="M174.94,41.805c-0.539-1.411-1.283-2.6-2.236-3.568c-0.947-0.97-2.059-1.703-3.324-2.197
				c-1.268-0.494-2.635-0.742-4.1-0.742c-0.528,0-1.064,0.04-1.611,0.122c-0.553,0.082-1.098,0.223-1.638,0.427
				c-0.545,0.204-1.079,0.486-1.601,0.845c-0.521,0.358-1.012,0.81-1.473,1.354c-0.053,0.065-0.129,0.107-0.224,0.119
				c-0.1,0.016-0.192,0.012-0.288-0.009c-0.094-0.02-0.173-0.062-0.24-0.121c-0.071-0.06-0.104-0.146-0.104-0.254l-0.018-1.302
				c0-0.189-0.094-0.373-0.275-0.55c-0.183-0.175-0.379-0.263-0.58-0.263h-2.342c-0.215,0-0.414,0.088-0.59,0.263
				c-0.174,0.177-0.262,0.361-0.262,0.55l-0.326,29.186c0,0.201,0.081,0.386,0.243,0.548c0.163,0.161,0.345,0.244,0.553,0.244h3.006
				c0.204,0,0.396-0.083,0.573-0.244c0.174-0.162,0.262-0.347,0.262-0.548l-0.045-7.656l-0.008-0.002l-0.132-11.309
				c0-1.018,0.147-1.989,0.44-2.913c0.289-0.923,0.729-1.729,1.319-2.421c0.591-0.694,1.319-1.248,2.185-1.661
				c0.871-0.415,1.887-0.621,3.051-0.621c1.061,0,1.973,0.204,2.74,0.609c0.768,0.409,1.397,0.955,1.9,1.641
				c0.5,0.687,0.869,1.469,1.121,2.353c0.24,0.883,0.363,1.793,0.363,2.729c0,1.101-0.184,2.094-0.549,2.982
				c-0.367,0.891-0.846,1.651-1.436,2.284c-0.592,0.631-1.256,1.119-2.004,1.465c-0.74,0.346-1.494,0.519-2.256,0.519
				c-0.477,0-0.938-0.054-1.389-0.145c-0.791,0-0.826,0.714-0.826,0.714v2.703c0,0,0.035,0.815,0.578,0.815
				c0.537,0.081,1.068,0.122,1.598,0.122c1.613,0,3.078-0.298,4.4-0.895c1.322-0.595,2.457-1.405,3.396-2.428
				c0.944-1.027,1.671-2.218,2.188-3.574c0.516-1.355,0.773-2.789,0.773-4.309C175.756,44.836,175.483,43.215,174.94,41.805z"/>
			<path fill="#1D1D1B" d="M198.067,41.906c-0.014-1.002-0.238-1.912-0.674-2.725c-0.433-0.813-1.025-1.509-1.771-2.085
				c-0.745-0.575-1.613-1.02-2.598-1.333c-0.994-0.311-2.051-0.467-3.178-0.467c-1.018,0-2.023,0.133-3.025,0.396
				c-1.01,0.264-1.936,0.651-2.789,1.16c-0.854,0.506-1.592,1.128-2.219,1.86c-0.623,0.733-1.055,1.566-1.303,2.502
				c-0.146,0.598-0.119,0.99,0.094,1.18c0.209,0.189,0.533,0.283,0.967,0.283l1.77-0.021c0.352,0,0.641-0.065,0.863-0.202
				c0.223-0.135,0.404-0.365,0.537-0.691c0.232-0.568,0.529-1.032,0.898-1.383c0.367-0.352,0.768-0.627,1.209-0.825
				c0.441-0.193,0.896-0.325,1.373-0.383c0.475-0.063,0.934-0.094,1.385-0.094c0.527,0,1.051,0.051,1.566,0.152
				c0.514,0.103,0.973,0.259,1.379,0.469c0.412,0.21,0.734,0.468,0.98,0.773c0.24,0.303,0.363,0.661,0.363,1.066
				c-0.016,0.435-0.123,0.83-0.336,1.191c-0.209,0.359-0.596,0.674-1.17,0.943c-0.516,0.203-1.125,0.357-1.838,0.459
				c-0.716,0.104-1.467,0.199-2.26,0.296c-0.797,0.093-1.598,0.214-2.408,0.355c-0.814,0.144-1.58,0.352-2.299,0.62
				c-0.559,0.203-1.092,0.473-1.605,0.803c-0.516,0.334-0.975,0.743-1.375,1.231c-0.4,0.487-0.723,1.061-0.963,1.717
				c-0.25,0.657-0.377,1.422-0.391,2.29c-0.012,0.881,0.109,1.711,0.369,2.49c0.256,0.781,0.648,1.463,1.178,2.043
				c0.529,0.586,1.201,1.041,2.014,1.375c0.814,0.331,1.781,0.496,2.904,0.496c0.557,0,1.12-0.025,1.691-0.08
				c0.262-0.025,0.523-0.065,0.787-0.121c0.799-0.131,0.812-1.115,0.812-1.115s0.008-2.084,0.008-2.412
				c0-0.326-0.277-0.63-0.785-0.553c-0.514,0.079-0.881,0.099-1.32,0.104c-0.617,0.006-1.176-0.064-1.668-0.215
				c-0.494-0.146-0.893-0.396-1.199-0.742c-0.301-0.347-0.457-0.814-0.457-1.411c0-0.569,0.135-1.034,0.404-1.395
				c0.275-0.358,0.643-0.649,1.105-0.874c0.471-0.225,1.014-0.4,1.635-0.53c0.615-0.13,1.271-0.25,1.969-0.366
				c0.699-0.114,1.418-0.236,2.158-0.365s1.469-0.302,2.184-0.52c0.217-0.066,0.404-0.051,0.561,0.052s0.234,0.288,0.234,0.56
				c0,0.143-0.008,0.35-0.023,0.592L193.75,55.6c0,0.006,0.004,0.01,0.004,0.016v0.934c0,0.26,0.084,0.467,0.262,0.621
				c0.178,0.156,0.395,0.234,0.652,0.234h2.746c0.232,0,0.421-0.09,0.576-0.266c0.16-0.176,0.238-0.373,0.238-0.59L198.067,41.906z"
				/>
			<path fill="#1D1D1B" d="M231.063,41.906c-0.012-1.002-0.238-1.912-0.672-2.725c-0.436-0.813-1.023-1.509-1.773-2.085
				c-0.742-0.575-1.613-1.02-2.598-1.333c-0.992-0.311-2.049-0.467-3.176-0.467c-1.016,0-2.023,0.133-3.027,0.396
				c-1.008,0.264-1.934,0.651-2.791,1.16c-0.85,0.506-1.594,1.128-2.215,1.86c-0.623,0.733-1.055,1.566-1.305,2.502
				c-0.146,0.598-0.117,0.99,0.096,1.18c0.209,0.189,0.533,0.283,0.965,0.283l1.773-0.021c0.348,0,0.637-0.065,0.861-0.202
				c0.223-0.135,0.404-0.365,0.537-0.691c0.232-0.568,0.529-1.032,0.893-1.383c0.369-0.352,0.773-0.627,1.213-0.825
				c0.441-0.193,0.898-0.325,1.377-0.383c0.471-0.063,0.932-0.094,1.381-0.094c0.527,0,1.049,0.051,1.564,0.152
				c0.52,0.103,0.98,0.259,1.385,0.469c0.404,0.21,0.73,0.468,0.977,0.773c0.242,0.303,0.365,0.661,0.365,1.066
				c-0.017,0.435-0.123,0.83-0.338,1.191c-0.209,0.359-0.6,0.674-1.168,0.943c-0.516,0.203-1.127,0.357-1.838,0.459
				c-0.709,0.104-1.467,0.199-2.26,0.296c-0.797,0.093-1.598,0.214-2.41,0.355c-0.812,0.144-1.578,0.352-2.299,0.62
				c-0.557,0.203-1.092,0.473-1.604,0.803c-0.52,0.334-0.976,0.743-1.375,1.231c-0.398,0.487-0.723,1.061-0.965,1.717
				c-0.242,0.657-0.377,1.422-0.389,2.29c-0.012,0.881,0.109,1.711,0.369,2.49c0.254,0.781,0.648,1.463,1.177,2.043
				c0.526,0.586,1.202,1.041,2.015,1.375c0.814,0.331,1.783,0.496,2.908,0.496c0.553,0,1.115-0.025,1.688-0.08
				c0.262-0.025,0.523-0.065,0.787-0.121c0.799-0.131,0.812-1.115,0.812-1.115s0.008-2.084,0.008-2.412
				c0-0.326-0.277-0.63-0.789-0.553c-0.51,0.079-0.879,0.099-1.316,0.104c-0.615,0.006-1.174-0.064-1.668-0.215
				c-0.494-0.146-0.895-0.396-1.199-0.742c-0.305-0.347-0.459-0.814-0.459-1.411c0-0.569,0.139-1.034,0.406-1.395
				c0.273-0.358,0.643-0.649,1.111-0.874s1.008-0.4,1.625-0.53c0.619-0.13,1.275-0.25,1.973-0.366
				c0.699-0.114,1.418-0.236,2.156-0.365s1.469-0.302,2.184-0.52c0.215-0.066,0.406-0.051,0.561,0.052
				c0.158,0.103,0.236,0.288,0.236,0.56c0,0.143-0.008,0.35-0.025,0.592l-0.061,7.143c0,0.006,0.004,0.01,0.004,0.016v0.934
				c0,0.26,0.088,0.467,0.266,0.621c0.176,0.156,0.393,0.234,0.648,0.234h2.748c0.232,0,0.422-0.09,0.578-0.266
				s0.236-0.373,0.236-0.59L231.063,41.906z"/>
			<path fill="#1D1D1B" d="M300.822,41.947c-0.561-1.371-1.314-2.549-2.258-3.54c-0.939-0.989-2.054-1.753-3.337-2.297
				c-1.281-0.542-2.678-0.813-4.197-0.813c-1.74,0-3.285,0.292-4.648,0.874c-1.359,0.583-2.514,1.391-3.445,2.42
				c-0.936,1.029-1.65,2.245-2.137,3.641c-0.488,1.396-0.734,2.908-0.734,4.535c0,1.587,0.27,3.055,0.812,4.404
				c0.542,1.351,1.3,2.519,2.261,3.507c0.961,0.991,2.117,1.77,3.459,2.329c1.34,0.563,2.807,0.843,4.391,0.843
				c1.139,0,2.203-0.151,3.182-0.456c0.984-0.306,1.885-0.725,2.697-1.259c0.809-0.538,1.539-1.171,2.168-1.904
				c0.631-0.73,1.148-1.524,1.555-2.381c0.082-0.133,0.119-0.283,0.107-0.445c-0.002-0.16-0.045-0.316-0.117-0.459
				c-0.076-0.142-0.182-0.26-0.316-0.355c-0.135-0.094-0.293-0.142-0.469-0.142h-2.887c-0.273,0-0.5,0.12-0.671,0.366
				c-0.344,0.541-0.721,0.992-1.15,1.352c-0.426,0.361-0.871,0.646-1.333,0.864c-0.458,0.22-0.921,0.373-1.38,0.47
				c-0.461,0.094-0.906,0.142-1.322,0.142c-0.799,0-1.568-0.101-2.299-0.306c-0.732-0.203-1.385-0.539-1.967-1.006
				c-0.57-0.469-1.057-1.071-1.448-1.811c-0.397-0.74-0.655-1.645-0.792-2.717c0,0-0.49-2.622,0.525-4.574
				c0.297-0.623,0.65-1.191,1.049-1.699c0.4-0.509,0.846-0.944,1.34-1.312c0.5-0.365,1.039-0.647,1.628-0.843
				c0.593-0.198,1.233-0.296,1.921-0.296c1.141,0,2.227,0.34,3.268,1.016c1.037,0.679,1.898,1.717,2.591,3.112
				c0.068,0.191,0.061,0.352-0.035,0.479c-0.082,0.131-0.218,0.191-0.416,0.191c0,0-5.615,0-6.092,0c-0.475,0-0.73,0.391-0.73,0.682
				c0,0.292,0,1.9,0,1.9s-0.033,0.898,0.801,0.898c0.84,0,10.617,0,10.617,0c0.252,0,0.439-0.086,0.582-0.255
				c0.143-0.17,0.223-0.375,0.238-0.62C301.723,44.828,301.381,43.316,300.822,41.947z"/>
		</g>
		<path fill="#1D1D1B" d="M111.836,34.371c-0.069-0.19-0.168-0.334-0.296-0.429c-0.127-0.095-0.264-0.146-0.404-0.151
			c-0.146-0.007-0.281,0.036-0.41,0.131c-0.13,0.096-0.226,0.244-0.297,0.449l-7.847,22.564c-0.107,0.285-0.341,0.441-0.692,0.469
			h-3.264c-0.337,0-0.604-0.102-0.791-0.306c-0.193-0.204-0.207-0.503-0.043-0.896l10.6-28.293c0.123-0.339,0.367-0.51,0.734-0.51
			h3.975c0.382,0,0.662,0.198,0.836,0.591l10.638,28.354c0.058,0.15,0.063,0.289,0.021,0.419c-0.039,0.13-0.107,0.237-0.201,0.325
			c-0.098,0.088-0.204,0.16-0.324,0.215c-0.123,0.055-0.238,0.09-0.35,0.102h-3.303c-0.164,0-0.326-0.055-0.485-0.162
			c-0.165-0.11-0.262-0.238-0.288-0.389L111.836,34.371z"/>
	</g>
	<g>
		<path fill="#1D1D1B" d="M41.551,38.641c0.014,0.013,0.031,0.019,0.047,0.019c0.017,0,0.033-0.006,0.048-0.019
			c0.216-0.213,0.376-0.422,0.507-0.597c0.139-0.192,0.267-0.392,0.385-0.596c0.214-0.381,0.396-0.781,0.534-1.19
			c0.259-0.764,0.386-1.542,0.384-2.377c-0.002-0.839-0.129-1.616-0.389-2.377c-0.137-0.408-0.318-0.809-0.534-1.19
			c-0.116-0.204-0.245-0.404-0.382-0.595c-0.129-0.176-0.291-0.385-0.505-0.599c-0.027-0.025-0.069-0.025-0.095,0
			c-0.215,0.213-0.377,0.422-0.505,0.599c-0.139,0.19-0.266,0.391-0.382,0.594c-0.218,0.381-0.396,0.782-0.535,1.19
			c-0.26,0.761-0.389,1.539-0.389,2.377c-0.002,0.835,0.125,1.613,0.383,2.377c0.141,0.409,0.32,0.809,0.537,1.19
			c0.115,0.204,0.244,0.405,0.383,0.596C41.174,38.219,41.333,38.428,41.551,38.641z"/>
		<path fill="#1D1D1B" d="M42.533,19.56c-0.116-0.203-0.245-0.405-0.382-0.596c-0.129-0.176-0.291-0.385-0.505-0.597
			c-0.027-0.027-0.069-0.027-0.095,0c-0.215,0.211-0.377,0.42-0.505,0.597c-0.139,0.19-0.266,0.392-0.382,0.595
			c-0.218,0.381-0.396,0.781-0.535,1.189c-0.26,0.762-0.389,1.541-0.389,2.378c-0.002,0.835,0.125,1.613,0.383,2.377
			c0.141,0.41,0.32,0.809,0.537,1.19c0.115,0.204,0.244,0.405,0.383,0.597c0.131,0.175,0.29,0.383,0.508,0.596
			c0.014,0.012,0.031,0.019,0.047,0.019c0.017,0,0.033-0.007,0.048-0.019c0.216-0.213,0.376-0.421,0.507-0.598
			c0.139-0.19,0.267-0.392,0.385-0.596c0.214-0.381,0.396-0.78,0.534-1.19c0.259-0.764,0.386-1.542,0.384-2.377
			c-0.002-0.837-0.129-1.616-0.389-2.378C42.93,20.342,42.749,19.942,42.533,19.56z"/>
		<path fill="#FDB515" d="M43.161,38.47c-0.014,0.218-0.028,0.48-0.002,0.783c0.002,0.036,0.033,0.062,0.068,0.062c0,0,0,0,0.004,0
			c0.305-0.021,0.561-0.075,0.774-0.123c0.229-0.055,0.457-0.123,0.68-0.202c0.411-0.147,0.81-0.335,1.181-0.555
			c0.693-0.411,1.295-0.919,1.838-1.555c0.543-0.638,0.953-1.311,1.254-2.058c0.16-0.4,0.283-0.821,0.367-1.251
			c0.046-0.23,0.078-0.466,0.1-0.7c0.016-0.217,0.031-0.48,0.006-0.782c-0.002-0.037-0.035-0.065-0.071-0.062
			c-0.304,0.021-0.561,0.075-0.774,0.125c-0.229,0.055-0.455,0.123-0.676,0.202c-0.412,0.149-0.81,0.336-1.182,0.555
			c-0.691,0.411-1.293,0.917-1.844,1.551c-0.544,0.634-0.955,1.305-1.256,2.054c-0.162,0.401-0.285,0.822-0.368,1.252
			C43.213,37.998,43.182,38.235,43.161,38.47z"/>
		<path fill="#1D1D1B" d="M66.709,25.208c-0.238-0.012-0.475-0.012-0.708,0c-0.437,0.024-0.872,0.089-1.288,0.193
			c-0.783,0.194-1.506,0.507-2.213,0.957c-0.704,0.451-1.292,0.976-1.795,1.607c-0.268,0.338-0.508,0.705-0.711,1.093
			c-0.108,0.208-0.208,0.424-0.295,0.645c-0.079,0.203-0.166,0.451-0.229,0.75c-0.006,0.036,0.019,0.071,0.05,0.08
			c0.298,0.067,0.561,0.091,0.778,0.104c0.123,0.007,0.246,0.011,0.371,0.011c0.11,0,0.225-0.004,0.338-0.009
			c0.438-0.024,0.872-0.088,1.291-0.191c0.783-0.196,1.506-0.51,2.209-0.963c0.701-0.454,1.289-0.98,1.789-1.61
			c0.27-0.337,0.508-0.704,0.714-1.092c0.108-0.208,0.208-0.424,0.294-0.644c0.079-0.203,0.166-0.451,0.23-0.748
			c0.008-0.035-0.016-0.071-0.052-0.079C67.189,25.245,66.926,25.222,66.709,25.208z"/>
		<path fill="#FDB515" d="M51.202,25.496c-0.544,0.632-0.955,1.305-1.256,2.054c-0.162,0.4-0.285,0.822-0.369,1.252
			c-0.043,0.23-0.076,0.465-0.096,0.701c-0.018,0.217-0.029,0.48-0.004,0.784c0.004,0.035,0.032,0.061,0.068,0.061h0.004
			c0.303-0.02,0.561-0.073,0.775-0.123c0.229-0.055,0.456-0.123,0.678-0.203c0.412-0.148,0.808-0.334,1.179-0.554
			c0.695-0.411,1.299-0.921,1.84-1.556c0.543-0.637,0.952-1.311,1.252-2.057c0.161-0.401,0.285-0.821,0.369-1.251
			c0.045-0.23,0.076-0.465,0.098-0.701c0.018-0.218,0.031-0.481,0.004-0.782c-0.002-0.037-0.036-0.065-0.071-0.062
			c-0.302,0.021-0.56,0.075-0.771,0.125c-0.23,0.055-0.459,0.124-0.68,0.202c-0.412,0.149-0.809,0.336-1.18,0.555
			C52.35,24.353,51.75,24.86,51.202,25.496z"/>
		<path fill="#1D1D1B" d="M47.66,23.095c-0.017-0.032-0.058-0.045-0.089-0.029c-0.27,0.137-0.487,0.286-0.666,0.414
			c-0.188,0.14-0.371,0.291-0.544,0.45c-0.322,0.296-0.618,0.622-0.874,0.967c-0.482,0.646-0.84,1.347-1.1,2.143
			c-0.259,0.795-0.378,1.574-0.365,2.38c0.007,0.432,0.055,0.869,0.145,1.298c0.047,0.229,0.109,0.458,0.182,0.684
			c0.07,0.207,0.16,0.455,0.301,0.724c0.012,0.023,0.036,0.036,0.06,0.036c0.011,0,0.02-0.002,0.03-0.007
			c0.273-0.135,0.489-0.285,0.668-0.412c0.189-0.14,0.373-0.292,0.549-0.449c0.321-0.295,0.613-0.621,0.873-0.969
			c0.481-0.647,0.839-1.349,1.093-2.146c0.257-0.797,0.374-1.576,0.361-2.381c-0.008-0.431-0.056-0.867-0.144-1.296
			c-0.048-0.23-0.109-0.459-0.182-0.684C47.889,23.612,47.801,23.364,47.66,23.095z"/>
		<path fill="#1D1D1B" d="M49.53,24.728c0.287-0.104,0.52-0.227,0.709-0.334c0.204-0.116,0.406-0.246,0.597-0.383
			c0.354-0.257,0.684-0.547,0.978-0.862c0.552-0.588,0.988-1.245,1.332-2.006c0.344-0.765,0.553-1.525,0.63-2.326
			c0.043-0.429,0.043-0.868,0.004-1.304c-0.021-0.234-0.056-0.47-0.1-0.7c-0.046-0.213-0.106-0.469-0.215-0.753
			c-0.013-0.034-0.051-0.052-0.087-0.039c-0.283,0.104-0.515,0.228-0.707,0.335c-0.203,0.117-0.402,0.247-0.593,0.384
			c-0.354,0.257-0.684,0.548-0.977,0.862c-0.551,0.586-0.988,1.242-1.338,2.004c-0.346,0.76-0.553,1.52-0.633,2.323
			c-0.043,0.43-0.045,0.869-0.004,1.305c0.021,0.234,0.055,0.47,0.104,0.7c0.046,0.214,0.106,0.471,0.213,0.754
			c0.014,0.027,0.037,0.043,0.063,0.043C49.516,24.732,49.522,24.73,49.53,24.728z"/>
		<path fill="#FDB515" d="M44.108,20.624c0.068,0.226,0.15,0.449,0.242,0.666c0.086,0.2,0.197,0.439,0.363,0.694
			c0.011,0.021,0.033,0.031,0.055,0.031c0.014,0,0.023-0.002,0.035-0.01c0.259-0.159,0.465-0.327,0.628-0.47
			c0.179-0.156,0.349-0.322,0.507-0.496c0.295-0.322,0.559-0.673,0.784-1.041c0.417-0.679,0.72-1.43,0.901-2.233
			c0.184-0.818,0.232-1.604,0.146-2.405c-0.045-0.428-0.131-0.859-0.254-1.278c-0.071-0.226-0.152-0.448-0.242-0.665
			c-0.088-0.2-0.198-0.44-0.361-0.694c-0.018-0.032-0.06-0.042-0.092-0.021c-0.258,0.16-0.46,0.328-0.625,0.471
			c-0.176,0.155-0.346,0.322-0.503,0.497c-0.296,0.323-0.56,0.673-0.786,1.042c-0.421,0.686-0.719,1.416-0.905,2.231
			c-0.187,0.815-0.238,1.602-0.153,2.404C43.894,19.775,43.981,20.205,44.108,20.624z"/>
		<path fill="#1D1D1B" d="M57.095,33.307c-0.337,0.271-0.651,0.577-0.934,0.911c-0.155,0.179-0.298,0.369-0.429,0.564
			c-0.121,0.181-0.262,0.404-0.389,0.681c-0.016,0.034,0,0.073,0.035,0.088c0.273,0.132,0.523,0.211,0.734,0.273
			c0.227,0.064,0.456,0.117,0.689,0.157c0.383,0.065,0.77,0.097,1.153,0.097c0.048,0,0.099,0,0.147-0.001
			c0.807-0.019,1.58-0.168,2.367-0.454c0.785-0.29,1.472-0.675,2.1-1.18c0.336-0.269,0.65-0.576,0.934-0.908
			c0.154-0.18,0.298-0.369,0.429-0.564c0.123-0.182,0.265-0.403,0.388-0.678c0.018-0.034,0.002-0.073-0.031-0.088
			c-0.272-0.13-0.523-0.209-0.733-0.271c-0.227-0.064-0.46-0.115-0.69-0.155c-0.434-0.072-0.873-0.104-1.303-0.095
			c-0.803,0.018-1.577,0.165-2.365,0.448C58.411,32.418,57.725,32.801,57.095,33.307z"/>
		<path fill="#1D1D1B" d="M56.993,29.2c-0.234,0.002-0.473,0.017-0.708,0.042c-0.435,0.048-0.865,0.139-1.275,0.267
			c-0.77,0.238-1.472,0.592-2.152,1.083c-0.675,0.489-1.23,1.047-1.696,1.707c-0.25,0.352-0.469,0.734-0.65,1.132
			c-0.096,0.214-0.182,0.436-0.256,0.661c-0.065,0.208-0.139,0.461-0.184,0.763c-0.005,0.036,0.02,0.07,0.055,0.076
			c0.302,0.05,0.564,0.058,0.781,0.06h0.002c0.234,0,0.472-0.014,0.707-0.04c0.436-0.048,0.864-0.138,1.277-0.265
			c0.77-0.24,1.473-0.597,2.148-1.088c0.675-0.494,1.231-1.054,1.695-1.711c0.248-0.353,0.467-0.734,0.647-1.132
			c0.097-0.214,0.183-0.436,0.257-0.659c0.068-0.208,0.141-0.46,0.186-0.76c0.007-0.036-0.018-0.071-0.053-0.076
			C57.473,29.209,57.209,29.202,56.993,29.2z"/>
		<path fill="#1D1D1B" d="M59.788,21.365c-0.699,0.396-1.312,0.894-1.871,1.517c-0.556,0.624-0.977,1.288-1.293,2.031
			c-0.168,0.398-0.3,0.816-0.391,1.245c-0.049,0.229-0.084,0.465-0.109,0.7c-0.021,0.217-0.038,0.48-0.018,0.784
			c0.004,0.036,0.032,0.062,0.067,0.062h0.003c0.305-0.015,0.564-0.063,0.777-0.108c0.229-0.052,0.457-0.116,0.682-0.189
			c0.414-0.14,0.814-0.32,1.19-0.534c0.702-0.399,1.313-0.896,1.868-1.521c0.555-0.627,0.976-1.292,1.289-2.034
			c0.17-0.397,0.301-0.816,0.393-1.244c0.047-0.229,0.085-0.464,0.111-0.699c0.021-0.216,0.039-0.479,0.02-0.781
			c-0.003-0.037-0.034-0.065-0.07-0.063c-0.305,0.016-0.561,0.065-0.775,0.111c-0.23,0.051-0.461,0.115-0.683,0.189
			C60.565,20.971,60.163,21.151,59.788,21.365z"/>
		<path fill="#E41B4C" d="M55.542,21.808c0.003,0,0.008,0,0.01-0.002c0.299-0.047,0.553-0.122,0.761-0.191
			c0.223-0.074,0.446-0.162,0.659-0.261c0.397-0.184,0.774-0.405,1.128-0.658c0.651-0.471,1.207-1.031,1.691-1.712
			c0.485-0.683,0.834-1.39,1.065-2.16c0.123-0.413,0.211-0.843,0.258-1.278c0.023-0.234,0.035-0.472,0.035-0.708
			c-0.004-0.217-0.012-0.479-0.063-0.778c-0.007-0.036-0.043-0.061-0.079-0.055c-0.299,0.048-0.551,0.125-0.759,0.192
			c-0.222,0.075-0.442,0.164-0.655,0.263c-0.397,0.185-0.777,0.406-1.127,0.656c-0.654,0.47-1.207,1.03-1.699,1.709
			c-0.484,0.68-0.834,1.385-1.068,2.158c-0.124,0.413-0.212,0.844-0.255,1.279c-0.023,0.233-0.036,0.472-0.036,0.708
			c0.004,0.218,0.016,0.481,0.067,0.781C55.481,21.784,55.51,21.808,55.542,21.808z"/>
		<path fill="#1D1D1B" d="M49.219,15.298c0.017,0.234,0.045,0.47,0.084,0.703c0.043,0.215,0.098,0.471,0.199,0.759
			c0.011,0.026,0.038,0.043,0.067,0.043c0.008,0,0.013,0,0.021-0.003c0.287-0.098,0.522-0.215,0.717-0.318
			c0.205-0.111,0.408-0.235,0.604-0.37c0.359-0.248,0.695-0.532,0.996-0.839c0.566-0.577,1.016-1.223,1.38-1.977
			c0.361-0.755,0.584-1.512,0.681-2.311c0.053-0.428,0.064-0.865,0.034-1.303c-0.017-0.233-0.044-0.47-0.084-0.702
			c-0.04-0.213-0.095-0.471-0.196-0.757c-0.014-0.035-0.053-0.053-0.086-0.041c-0.285,0.099-0.521,0.216-0.714,0.319
			c-0.207,0.112-0.41,0.237-0.604,0.371c-0.358,0.251-0.695,0.532-0.997,0.84c-0.564,0.575-1.017,1.218-1.382,1.973
			c-0.362,0.753-0.588,1.507-0.685,2.309C49.2,14.422,49.188,14.862,49.219,15.298z"/>
		<path fill="#1D1D1B" d="M40.387,15.753c0.1,0.212,0.213,0.42,0.338,0.623c0.115,0.185,0.263,0.403,0.463,0.632
			c0.014,0.015,0.033,0.023,0.051,0.023c0.016,0,0.031-0.006,0.046-0.016c0.231-0.197,0.407-0.393,0.549-0.56
			c0.151-0.179,0.293-0.37,0.427-0.565c0.244-0.363,0.45-0.75,0.621-1.147c0.311-0.744,0.494-1.51,0.555-2.344
			c0.058-0.835-0.014-1.621-0.215-2.4c-0.109-0.416-0.26-0.829-0.446-1.225c-0.101-0.212-0.216-0.421-0.339-0.622
			c-0.115-0.185-0.261-0.404-0.46-0.632c-0.024-0.028-0.067-0.03-0.096-0.007c-0.229,0.197-0.405,0.393-0.547,0.56
			c-0.151,0.18-0.294,0.371-0.425,0.565c-0.242,0.365-0.451,0.751-0.617,1.148c-0.314,0.74-0.498,1.507-0.561,2.342
			c-0.062,0.833,0.005,1.618,0.209,2.399C40.047,14.946,40.2,15.358,40.387,15.753z"/>
		<path fill="#1D1D1B" d="M65.543,19.758c-0.629,0.551-1.129,1.159-1.533,1.858c-0.213,0.374-0.396,0.774-0.538,1.188
			c-0.075,0.222-0.143,0.451-0.194,0.681c-0.048,0.213-0.096,0.472-0.115,0.776c0,0.036,0.029,0.068,0.064,0.071
			c0.1,0.007,0.195,0.01,0.295,0.01c0.148,0,0.304-0.007,0.488-0.024c0.234-0.022,0.471-0.057,0.703-0.104
			c0.427-0.089,0.846-0.219,1.245-0.384c0.745-0.31,1.411-0.729,2.038-1.281c0.629-0.555,1.129-1.165,1.529-1.862
			c0.215-0.374,0.396-0.774,0.539-1.188c0.079-0.221,0.143-0.45,0.197-0.68c0.047-0.212,0.097-0.471,0.115-0.773
			c0.002-0.037-0.026-0.068-0.064-0.072c-0.094-0.007-0.188-0.01-0.283-0.01c-0.15,0-0.305,0.009-0.497,0.026
			c-0.234,0.022-0.47,0.058-0.7,0.106c-0.43,0.089-0.849,0.218-1.247,0.384C66.842,18.79,66.174,19.208,65.543,19.758z"/>
		<path fill="#E41B4C" d="M73.985,28.427c0.118-0.183,0.254-0.408,0.377-0.686c0.012-0.034-0.002-0.073-0.036-0.088
			c-0.274-0.124-0.528-0.199-0.739-0.255c-0.227-0.06-0.46-0.106-0.694-0.141c-0.338-0.049-0.678-0.075-1.014-0.075
			c-0.096,0-0.193,0.002-0.287,0.006c-0.805,0.033-1.576,0.195-2.357,0.496c-0.779,0.301-1.461,0.699-2.078,1.216
			c-0.333,0.278-0.639,0.59-0.917,0.929c-0.146,0.182-0.289,0.375-0.416,0.573c-0.116,0.183-0.254,0.41-0.373,0.688
			c-0.015,0.034,0,0.073,0.032,0.088c0.277,0.125,0.529,0.201,0.741,0.257c0.228,0.061,0.461,0.108,0.694,0.144
			c0.338,0.05,0.678,0.075,1.016,0.075c0.096,0,0.191-0.002,0.287-0.006c0.805-0.035,1.577-0.199,2.355-0.501
			c0.779-0.305,1.461-0.705,2.076-1.221c0.33-0.277,0.639-0.59,0.916-0.928C73.718,28.818,73.857,28.625,73.985,28.427z"/>
		<path fill="#1D1D1B" d="M36.536,32.911c-0.373-0.219-0.771-0.406-1.182-0.555c-0.221-0.079-0.446-0.146-0.677-0.202
			c-0.214-0.05-0.472-0.104-0.772-0.125c-0.037-0.003-0.069,0.025-0.072,0.062c-0.025,0.302-0.01,0.564,0.007,0.782
			c0.019,0.234,0.052,0.47,0.097,0.701c0.086,0.429,0.209,0.85,0.369,1.25c0.301,0.747,0.71,1.42,1.252,2.058
			c0.545,0.636,1.146,1.144,1.841,1.555c0.372,0.22,0.769,0.407,1.181,0.555c0.223,0.079,0.451,0.147,0.678,0.202
			c0.213,0.048,0.472,0.102,0.775,0.123c0.003,0,0.003,0,0.003,0c0.036,0,0.065-0.027,0.069-0.062
			c0.027-0.302,0.012-0.565-0.004-0.783c-0.019-0.236-0.053-0.472-0.096-0.703c-0.085-0.429-0.208-0.85-0.369-1.251
			c-0.301-0.749-0.713-1.42-1.258-2.054C37.831,33.828,37.227,33.321,36.536,32.911z"/>
		<path fill="#1D1D1B" d="M23.268,29.058c-0.203-0.388-0.443-0.755-0.711-1.093c-0.506-0.631-1.093-1.156-1.794-1.607
			c-0.708-0.45-1.432-0.763-2.211-0.957c-0.419-0.104-0.853-0.168-1.29-0.193c-0.235-0.012-0.471-0.012-0.708,0
			c-0.217,0.014-0.48,0.037-0.776,0.104c-0.036,0.008-0.058,0.044-0.05,0.079c0.063,0.296,0.152,0.544,0.23,0.749
			c0.086,0.218,0.185,0.434,0.294,0.642c0.204,0.388,0.444,0.755,0.713,1.092c0.501,0.63,1.086,1.157,1.791,1.61
			c0.703,0.453,1.426,0.767,2.208,0.963c0.419,0.103,0.853,0.167,1.29,0.191c0.113,0.005,0.227,0.009,0.339,0.009
			c0.122,0,0.246-0.004,0.369-0.011c0.22-0.013,0.482-0.038,0.777-0.104c0.037-0.008,0.062-0.043,0.051-0.08
			c-0.062-0.298-0.148-0.547-0.228-0.75C23.475,29.483,23.377,29.266,23.268,29.058z"/>
		<path fill="#E41B4C" d="M18.455,34.811c-0.681-0.435-1.403-0.744-2.216-0.945c-0.597-0.145-1.199-0.22-1.789-0.22
			c-0.204,0-0.409,0.009-0.613,0.026c-0.428,0.037-0.861,0.114-1.283,0.232c-0.225,0.063-0.45,0.141-0.67,0.229
			c-0.202,0.083-0.443,0.188-0.699,0.347c-0.033,0.018-0.042,0.06-0.023,0.091c0.154,0.261,0.319,0.467,0.458,0.635
			c0.154,0.179,0.317,0.352,0.484,0.514c0.319,0.301,0.665,0.571,1.028,0.804c0.678,0.435,1.401,0.745,2.214,0.949
			c0.6,0.149,1.205,0.225,1.799,0.225c0.199,0,0.401-0.009,0.602-0.025c0.428-0.036,0.862-0.115,1.283-0.233
			c0.227-0.065,0.45-0.142,0.67-0.23c0.202-0.083,0.442-0.19,0.702-0.35c0.031-0.018,0.042-0.06,0.022-0.092
			c-0.156-0.262-0.318-0.468-0.457-0.636c-0.153-0.18-0.317-0.354-0.487-0.516C19.163,35.315,18.817,35.043,18.455,34.811z"/>
		<path fill="#FDB515" d="M27.517,23.122c-0.024,0.301-0.012,0.564,0.007,0.782c0.018,0.236,0.053,0.471,0.096,0.701
			c0.084,0.431,0.209,0.85,0.369,1.251c0.299,0.746,0.709,1.42,1.252,2.057c0.543,0.635,1.145,1.145,1.836,1.556
			c0.375,0.22,0.772,0.406,1.182,0.554c0.223,0.08,0.453,0.147,0.682,0.203c0.212,0.05,0.47,0.103,0.773,0.123
			c0.003,0,0.003,0,0.003,0c0.036,0,0.067-0.026,0.071-0.061c0.023-0.304,0.01-0.567-0.004-0.785
			c-0.021-0.235-0.055-0.471-0.096-0.701c-0.086-0.431-0.21-0.852-0.369-1.252c-0.302-0.749-0.713-1.421-1.258-2.055
			c-0.547-0.635-1.148-1.142-1.842-1.553c-0.371-0.219-0.769-0.406-1.181-0.555c-0.22-0.079-0.448-0.147-0.679-0.203
			c-0.211-0.05-0.47-0.104-0.771-0.125C27.552,23.056,27.52,23.085,27.517,23.122z"/>
		<path fill="#1D1D1B" d="M37.309,31.295c0.174,0.159,0.357,0.309,0.549,0.449c0.176,0.127,0.394,0.277,0.667,0.412
			c0.009,0.005,0.019,0.007,0.028,0.007c0.025,0,0.049-0.013,0.061-0.036c0.141-0.269,0.23-0.517,0.301-0.725
			c0.071-0.224,0.133-0.454,0.182-0.684c0.089-0.429,0.137-0.865,0.145-1.297c0.011-0.807-0.107-1.586-0.366-2.38
			c-0.259-0.796-0.618-1.498-1.099-2.143c-0.258-0.346-0.551-0.671-0.873-0.968c-0.173-0.158-0.358-0.31-0.547-0.449
			c-0.176-0.128-0.393-0.277-0.662-0.414c-0.035-0.016-0.074-0.003-0.091,0.029c-0.142,0.27-0.229,0.517-0.299,0.724
			c-0.071,0.225-0.132,0.454-0.181,0.684c-0.089,0.429-0.135,0.865-0.145,1.296c-0.012,0.805,0.105,1.584,0.361,2.383
			c0.256,0.795,0.613,1.497,1.094,2.144C36.692,30.673,36.985,30.999,37.309,31.295z"/>
		<path fill="#1D1D1B" d="M34.137,23.235c0.04-0.436,0.04-0.875-0.004-1.305c-0.079-0.804-0.286-1.563-0.633-2.323
			c-0.35-0.763-0.787-1.418-1.338-2.004c-0.293-0.314-0.623-0.605-0.979-0.862c-0.188-0.138-0.391-0.268-0.594-0.384
			c-0.19-0.108-0.422-0.231-0.705-0.335c-0.037-0.013-0.074,0.005-0.088,0.039c-0.108,0.284-0.168,0.539-0.213,0.753
			c-0.046,0.23-0.078,0.466-0.1,0.7c-0.039,0.436-0.039,0.875,0.004,1.304c0.08,0.801,0.284,1.562,0.627,2.326
			c0.344,0.761,0.78,1.417,1.333,2.006c0.296,0.315,0.624,0.604,0.979,0.862c0.191,0.137,0.391,0.267,0.596,0.384
			c0.189,0.106,0.422,0.229,0.708,0.333c0.009,0.002,0.016,0.004,0.023,0.004c0.028,0,0.052-0.016,0.063-0.043
			c0.109-0.284,0.171-0.54,0.215-0.754C34.082,23.704,34.117,23.469,34.137,23.235z"/>
		<path fill="#E41B4C" d="M36.44,12.702c-0.029-0.02-0.071-0.01-0.09,0.021c-0.164,0.254-0.275,0.494-0.361,0.694
			c-0.092,0.217-0.172,0.439-0.24,0.665c-0.126,0.419-0.213,0.851-0.257,1.278c-0.084,0.801-0.036,1.587,0.146,2.405
			c0.185,0.813,0.479,1.544,0.901,2.233c0.227,0.368,0.492,0.719,0.785,1.041c0.158,0.173,0.33,0.34,0.506,0.496
			c0.164,0.143,0.369,0.31,0.627,0.469c0.014,0.008,0.024,0.01,0.037,0.01c0.021,0,0.042-0.01,0.055-0.031
			c0.166-0.255,0.277-0.494,0.365-0.694c0.091-0.217,0.175-0.44,0.242-0.666c0.123-0.419,0.213-0.849,0.258-1.279
			c0.083-0.802,0.032-1.588-0.152-2.403c-0.188-0.817-0.486-1.546-0.906-2.231c-0.225-0.369-0.49-0.718-0.785-1.042
			c-0.158-0.174-0.328-0.34-0.503-0.498C36.901,13.029,36.699,12.861,36.44,12.702z"/>
		<path fill="#1D1D1B" d="M21.698,31.684c-0.427-0.009-0.867,0.023-1.299,0.095c-0.233,0.04-0.465,0.091-0.691,0.156
			c-0.209,0.061-0.461,0.14-0.734,0.271c-0.033,0.015-0.048,0.054-0.033,0.088c0.126,0.275,0.268,0.498,0.388,0.679
			c0.133,0.195,0.277,0.384,0.429,0.563c0.286,0.333,0.598,0.639,0.936,0.908c0.627,0.504,1.313,0.89,2.098,1.18
			c0.786,0.286,1.559,0.435,2.366,0.454c0.05,0.001,0.1,0.001,0.149,0.001c0.383,0,0.77-0.032,1.152-0.097
			c0.231-0.04,0.465-0.093,0.689-0.157c0.211-0.062,0.461-0.141,0.736-0.273c0.033-0.015,0.047-0.055,0.032-0.088
			c-0.124-0.277-0.267-0.5-0.389-0.682c-0.132-0.195-0.274-0.385-0.427-0.564c-0.284-0.333-0.598-0.639-0.936-0.91
			c-0.629-0.505-1.316-0.89-2.102-1.174C23.278,31.849,22.501,31.702,21.698,31.684z"/>
		<path fill="#FDB515" d="M16.537,41.908c0.744,0.307,1.511,0.483,2.346,0.539c0.171,0.01,0.34,0.016,0.508,0.016
			c0.643,0,1.278-0.082,1.891-0.247c0.419-0.114,0.827-0.269,1.22-0.46c0.209-0.102,0.418-0.217,0.62-0.344
			c0.184-0.118,0.4-0.266,0.629-0.468c0.025-0.025,0.027-0.067,0.004-0.095c-0.199-0.23-0.395-0.405-0.564-0.545
			c-0.181-0.15-0.373-0.291-0.568-0.42c-0.366-0.24-0.754-0.446-1.154-0.61c-0.747-0.308-1.514-0.481-2.346-0.534
			c-0.163-0.01-0.326-0.014-0.486-0.014c-0.652,0-1.295,0.084-1.913,0.25c-0.417,0.113-0.828,0.267-1.222,0.458
			c-0.211,0.104-0.419,0.219-0.619,0.345c-0.184,0.116-0.402,0.263-0.626,0.465c-0.029,0.024-0.031,0.066-0.006,0.093
			c0.198,0.229,0.394,0.403,0.563,0.543c0.182,0.15,0.373,0.291,0.571,0.419C15.749,41.539,16.139,41.744,16.537,41.908z"/>
		<path fill="#1D1D1B" d="M33.192,34.855c-0.044-0.303-0.119-0.555-0.186-0.763c-0.073-0.225-0.16-0.447-0.254-0.661
			c-0.183-0.399-0.4-0.78-0.648-1.132c-0.467-0.66-1.023-1.218-1.7-1.707c-0.679-0.492-1.382-0.845-2.149-1.083
			c-0.411-0.128-0.844-0.219-1.277-0.267c-0.234-0.025-0.469-0.04-0.707-0.042c-0.218,0.002-0.48,0.009-0.778,0.059
			c-0.04,0.005-0.063,0.04-0.056,0.076c0.045,0.3,0.119,0.552,0.187,0.761c0.071,0.223,0.159,0.444,0.254,0.659
			c0.183,0.399,0.401,0.779,0.649,1.132c0.467,0.657,1.018,1.217,1.697,1.711c0.672,0.492,1.375,0.848,2.148,1.088
			c0.41,0.127,0.842,0.217,1.275,0.265c0.234,0.026,0.473,0.04,0.707,0.04c0.218-0.002,0.482-0.009,0.783-0.06
			C33.172,34.925,33.198,34.891,33.192,34.855z"/>
		<path fill="#1D1D1B" d="M32.5,39.426c0.027-0.022,0.032-0.063,0.01-0.093c-0.182-0.244-0.367-0.432-0.525-0.582
			c-0.17-0.163-0.354-0.317-0.539-0.459c-0.348-0.264-0.72-0.496-1.11-0.687c-0.722-0.358-1.476-0.585-2.304-0.694
			c-0.338-0.043-0.674-0.065-1.002-0.065c-0.471,0-0.946,0.046-1.407,0.137c-0.421,0.083-0.843,0.208-1.247,0.373
			c-0.218,0.088-0.434,0.188-0.644,0.3c-0.19,0.105-0.417,0.236-0.659,0.422c-0.028,0.023-0.031,0.064-0.012,0.094
			c0.184,0.242,0.37,0.429,0.527,0.58c0.17,0.161,0.354,0.314,0.539,0.458c0.35,0.263,0.723,0.494,1.11,0.686
			c0.72,0.357,1.474,0.586,2.304,0.698c0.342,0.046,0.685,0.069,1.019,0.069c0.465,0,0.934-0.045,1.389-0.135
			c0.424-0.084,0.844-0.209,1.251-0.373c0.216-0.088,0.433-0.189,0.642-0.302C32.03,39.746,32.258,39.613,32.5,39.426z"/>
		<path fill="#E41B4C" d="M20.778,21.375c0.024,0.234,0.061,0.468,0.109,0.698c0.093,0.428,0.224,0.847,0.392,1.244
			c0.314,0.742,0.736,1.407,1.29,2.035c0.556,0.625,1.166,1.122,1.867,1.521c0.375,0.214,0.775,0.394,1.191,0.534
			c0.222,0.074,0.453,0.137,0.682,0.189c0.215,0.045,0.474,0.093,0.777,0.108h0.002c0.037,0,0.066-0.027,0.068-0.062
			c0.021-0.304,0.003-0.567-0.018-0.784c-0.023-0.236-0.061-0.471-0.109-0.7c-0.092-0.429-0.224-0.847-0.391-1.245
			c-0.314-0.743-0.736-1.407-1.294-2.031c-0.56-0.623-1.173-1.12-1.871-1.517c-0.376-0.213-0.776-0.394-1.19-0.535
			c-0.223-0.074-0.453-0.139-0.681-0.189c-0.215-0.046-0.474-0.095-0.775-0.111c-0.035-0.001-0.068,0.026-0.071,0.063
			C20.739,20.895,20.756,21.158,20.778,21.375z"/>
		<path fill="#1D1D1B" d="M22.406,16.824c0.231,0.771,0.58,1.478,1.064,2.16c0.485,0.681,1.04,1.241,1.694,1.712
			c0.352,0.252,0.73,0.474,1.129,0.658c0.211,0.099,0.434,0.187,0.656,0.261c0.209,0.068,0.461,0.144,0.76,0.19
			c0.006,0.002,0.01,0.002,0.014,0.002c0.031,0,0.06-0.024,0.064-0.056c0.053-0.3,0.063-0.562,0.066-0.782
			c0.002-0.235-0.011-0.474-0.033-0.707c-0.046-0.435-0.133-0.865-0.256-1.279c-0.234-0.773-0.584-1.478-1.068-2.158
			c-0.49-0.68-1.047-1.239-1.7-1.709c-0.35-0.25-0.728-0.472-1.127-0.656c-0.212-0.1-0.434-0.188-0.657-0.263
			c-0.205-0.067-0.457-0.144-0.757-0.192c-0.037-0.006-0.071,0.019-0.076,0.055c-0.052,0.299-0.062,0.561-0.064,0.78
			c0,0.236,0.01,0.473,0.033,0.707C22.195,15.981,22.281,16.412,22.406,16.824z"/>
		<path fill="#1D1D1B" d="M29.979,13.297c0.359,0.753,0.811,1.399,1.375,1.977c0.301,0.308,0.639,0.591,0.998,0.839
			c0.193,0.133,0.396,0.258,0.605,0.371c0.193,0.103,0.429,0.219,0.715,0.317c0.008,0.002,0.016,0.003,0.023,0.003
			c0.027,0,0.052-0.018,0.062-0.043c0.104-0.288,0.156-0.544,0.199-0.759c0.041-0.233,0.07-0.469,0.087-0.703
			c0.03-0.437,0.018-0.876-0.035-1.304c-0.098-0.801-0.322-1.556-0.688-2.309c-0.365-0.755-0.816-1.398-1.381-1.973
			c-0.301-0.308-0.637-0.59-0.996-0.84c-0.195-0.133-0.398-0.258-0.602-0.371c-0.194-0.103-0.43-0.22-0.717-0.318
			c-0.035-0.012-0.072,0.006-0.085,0.041c-0.103,0.285-0.156,0.543-0.195,0.758c-0.042,0.232-0.07,0.468-0.086,0.702
			c-0.029,0.438-0.016,0.875,0.033,1.303C29.393,11.786,29.616,12.542,29.979,13.297z"/>
		<path fill="#1D1D1B" d="M13.195,19.5c0.144,0.414,0.326,0.813,0.542,1.187c0.401,0.697,0.901,1.307,1.529,1.862
			c0.626,0.552,1.293,0.971,2.037,1.281c0.398,0.166,0.82,0.295,1.248,0.384c0.229,0.047,0.464,0.082,0.7,0.104
			c0.186,0.017,0.34,0.024,0.487,0.024c0.102,0,0.198-0.003,0.297-0.01c0.037-0.003,0.064-0.035,0.06-0.071
			c-0.014-0.305-0.066-0.562-0.111-0.776c-0.053-0.231-0.118-0.46-0.194-0.682c-0.144-0.414-0.325-0.813-0.542-1.187
			c-0.401-0.699-0.904-1.307-1.532-1.858c-0.632-0.551-1.299-0.969-2.04-1.277c-0.398-0.166-0.818-0.295-1.248-0.384
			c-0.229-0.048-0.465-0.083-0.699-0.106c-0.192-0.018-0.347-0.026-0.499-0.026c-0.097,0-0.189,0.003-0.285,0.01
			c-0.036,0.004-0.063,0.035-0.06,0.072c0.018,0.302,0.068,0.561,0.115,0.773C13.053,19.05,13.12,19.278,13.195,19.5z"/>
		<path fill="#FDB515" d="M11.67,27.188c-0.095-0.004-0.191-0.006-0.287-0.006c-0.337,0-0.678,0.025-1.015,0.075
			c-0.231,0.034-0.464,0.081-0.692,0.141c-0.212,0.057-0.463,0.132-0.74,0.255c-0.035,0.015-0.05,0.054-0.035,0.088
			c0.12,0.277,0.258,0.503,0.377,0.687c0.125,0.198,0.269,0.39,0.416,0.572c0.276,0.338,0.584,0.651,0.916,0.928
			c0.618,0.516,1.294,0.916,2.075,1.221c0.78,0.302,1.55,0.467,2.356,0.501c0.097,0.004,0.192,0.006,0.288,0.006
			c0.335,0,0.678-0.025,1.015-0.075c0.234-0.036,0.465-0.083,0.695-0.144c0.209-0.057,0.463-0.132,0.738-0.257
			c0.035-0.015,0.05-0.055,0.035-0.088c-0.121-0.279-0.255-0.505-0.373-0.688c-0.131-0.198-0.269-0.392-0.417-0.573
			c-0.277-0.339-0.583-0.651-0.916-0.929c-0.62-0.517-1.301-0.915-2.079-1.216C13.245,27.383,12.476,27.221,11.67,27.188z"/>
		<path fill="#1D1D1B" d="M6.102,21.636c0.22,0.378,0.477,0.734,0.759,1.059c0.532,0.605,1.142,1.105,1.866,1.526
			c0.723,0.419,1.457,0.7,2.25,0.859c0.422,0.084,0.858,0.128,1.296,0.132h0.039c0.223,0,0.448-0.011,0.668-0.034
			c0.22-0.024,0.479-0.058,0.771-0.14c0.035-0.01,0.058-0.046,0.048-0.082c-0.076-0.294-0.175-0.539-0.262-0.739
			c-0.098-0.215-0.206-0.427-0.325-0.63c-0.221-0.378-0.477-0.735-0.759-1.059c-0.535-0.608-1.143-1.105-1.87-1.523
			c-0.726-0.418-1.461-0.697-2.25-0.854c-0.424-0.083-0.86-0.129-1.298-0.133c-0.232-0.001-0.472,0.009-0.707,0.032
			c-0.218,0.024-0.477,0.059-0.77,0.139c-0.035,0.009-0.058,0.046-0.047,0.082c0.076,0.293,0.178,0.537,0.265,0.737
			C5.874,21.221,5.981,21.433,6.102,21.636z"/>
		<path fill="#1D1D1B" d="M15.12,13.792c0.272,0.757,0.657,1.444,1.178,2.101c0.521,0.653,1.104,1.183,1.783,1.618
			c0.364,0.233,0.757,0.434,1.161,0.596c0.218,0.086,0.444,0.163,0.672,0.226c0.21,0.057,0.466,0.119,0.77,0.15
			c0.003,0,0.005,0,0.005,0c0.035,0,0.063-0.025,0.068-0.059c0.037-0.302,0.034-0.565,0.024-0.784
			c-0.011-0.235-0.036-0.472-0.071-0.705c-0.068-0.432-0.178-0.857-0.325-1.263c-0.275-0.76-0.663-1.445-1.184-2.097
			c-0.523-0.654-1.11-1.182-1.789-1.616c-0.362-0.232-0.751-0.433-1.157-0.596c-0.22-0.088-0.445-0.164-0.673-0.226
			c-0.211-0.058-0.466-0.121-0.768-0.152c-0.036-0.004-0.07,0.023-0.073,0.06c-0.037,0.3-0.032,0.563-0.021,0.782
			c0.01,0.235,0.037,0.473,0.073,0.704C14.863,12.962,14.972,13.387,15.12,13.792z"/>
		<path fill="#1D1D1B" d="M34.401,8.104c0.197,0.384,0.434,0.754,0.701,1.1c0.146,0.185,0.302,0.365,0.469,0.534
			c0.152,0.156,0.342,0.339,0.586,0.518c0.013,0.008,0.027,0.013,0.039,0.013c0.021,0,0.042-0.009,0.055-0.026
			c0.184-0.243,0.313-0.472,0.416-0.665c0.111-0.209,0.207-0.426,0.294-0.644c0.159-0.409,0.282-0.831,0.358-1.255
			c0.146-0.793,0.16-1.581,0.037-2.407c-0.123-0.829-0.361-1.581-0.729-2.296c-0.193-0.384-0.431-0.754-0.699-1.1
			c-0.144-0.185-0.298-0.364-0.465-0.535C35.312,1.184,35.124,1,34.879,0.82c-0.029-0.021-0.071-0.015-0.092,0.014
			c-0.186,0.242-0.314,0.471-0.416,0.665c-0.107,0.209-0.205,0.426-0.294,0.644c-0.158,0.409-0.276,0.831-0.354,1.254
			c-0.148,0.792-0.162,1.579-0.043,2.409C33.799,6.633,34.036,7.383,34.401,8.104z M37.188,7.652
			c-0.076,0.415-0.193,0.83-0.351,1.23c-0.084,0.215-0.18,0.426-0.286,0.63c-0.094,0.175-0.206,0.378-0.363,0.594
			c0,0-0.002-0.001-0.002-0.002c0.155-0.213,0.27-0.417,0.363-0.591c0.105-0.204,0.201-0.415,0.285-0.63
			c0.157-0.4,0.275-0.815,0.354-1.23c0.105-0.571,0.114-1.146,0.078-1.729C37.303,6.507,37.294,7.081,37.188,7.652z M33.852,3.424
			c0.076-0.416,0.193-0.83,0.35-1.23c0.082-0.215,0.18-0.426,0.287-0.631c0.089-0.173,0.204-0.377,0.361-0.592l0.002,0.002
			c-0.156,0.213-0.27,0.417-0.361,0.59c-0.104,0.204-0.201,0.417-0.285,0.63c-0.155,0.4-0.274,0.813-0.351,1.229
			c-0.107,0.583-0.118,1.169-0.079,1.768C33.737,4.592,33.745,4.005,33.852,3.424z"/>
		<path fill="#1D1D1B" d="M1.611,32.234c0.325,0.292,0.678,0.555,1.045,0.778c0.69,0.418,1.42,0.71,2.239,0.894
			c0.542,0.122,1.09,0.182,1.626,0.182c0.258,0,0.519-0.013,0.778-0.042C7.727,34,8.158,33.911,8.577,33.782
			c0.222-0.07,0.447-0.152,0.663-0.246c0.201-0.088,0.439-0.2,0.693-0.366c0.032-0.021,0.04-0.061,0.021-0.093
			c-0.16-0.258-0.33-0.461-0.474-0.625c-0.157-0.176-0.324-0.346-0.498-0.502c-0.324-0.295-0.678-0.557-1.045-0.78
			c-0.69-0.418-1.423-0.71-2.238-0.89c-0.542-0.118-1.086-0.178-1.618-0.178c-0.262,0-0.526,0.014-0.788,0.044
			c-0.428,0.046-0.857,0.135-1.276,0.264c-0.224,0.069-0.447,0.151-0.664,0.244c-0.199,0.088-0.437,0.2-0.694,0.364
			c-0.029,0.021-0.039,0.062-0.018,0.092c0.16,0.256,0.33,0.458,0.474,0.622C1.271,31.907,1.438,32.076,1.611,32.234z"/>
		<path fill="#1D1D1B" d="M5.772,36.751c-0.406,0.146-0.801,0.333-1.181,0.555c-0.202,0.119-0.398,0.251-0.589,0.393
			c-0.173,0.131-0.378,0.296-0.586,0.515c-0.026,0.026-0.026,0.069,0,0.094c0.217,0.212,0.429,0.369,0.607,0.496
			c0.194,0.133,0.396,0.259,0.601,0.371c0.386,0.209,0.79,0.383,1.198,0.514c0.731,0.233,1.474,0.348,2.268,0.348
			c0.038,0,0.079,0,0.118,0c0.835-0.014,1.61-0.152,2.371-0.426c0.405-0.145,0.803-0.332,1.18-0.556
			c0.202-0.12,0.401-0.252,0.589-0.394c0.173-0.132,0.379-0.297,0.589-0.518c0.024-0.027,0.024-0.068-0.004-0.094
			c-0.216-0.214-0.428-0.371-0.606-0.498c-0.191-0.135-0.396-0.26-0.603-0.373c-0.383-0.209-0.785-0.382-1.2-0.515
			c-0.759-0.243-1.56-0.356-2.382-0.341C7.304,36.339,6.529,36.479,5.772,36.751z"/>
		<path fill="#1D1D1B" d="M71.577,35.206c0.141-0.167,0.303-0.373,0.461-0.634c0.017-0.031,0.006-0.073-0.025-0.091
			c-0.258-0.159-0.5-0.265-0.7-0.347c-0.219-0.087-0.445-0.166-0.671-0.229c-0.422-0.118-0.854-0.195-1.283-0.232
			c-0.201-0.017-0.408-0.026-0.612-0.026c-0.589,0-1.188,0.075-1.788,0.22c-0.812,0.201-1.538,0.51-2.215,0.945
			c-0.365,0.232-0.71,0.504-1.027,0.805c-0.168,0.162-0.332,0.336-0.485,0.516c-0.14,0.168-0.302,0.375-0.457,0.636
			c-0.021,0.032-0.011,0.074,0.021,0.092c0.26,0.16,0.5,0.267,0.703,0.35c0.219,0.088,0.444,0.165,0.671,0.23
			c0.421,0.118,0.853,0.197,1.283,0.233c0.198,0.016,0.404,0.025,0.604,0.025c0.592,0,1.198-0.075,1.796-0.225
			c0.812-0.204,1.537-0.514,2.215-0.949c0.361-0.232,0.709-0.503,1.025-0.804C71.26,35.558,71.424,35.386,71.577,35.206z"/>
		<path fill="#1D1D1B" d="M68.948,40.336c0.024-0.027,0.021-0.069-0.006-0.093c-0.225-0.202-0.445-0.349-0.629-0.466
			c-0.198-0.125-0.408-0.24-0.617-0.344c-0.396-0.19-0.805-0.344-1.223-0.458c-0.615-0.166-1.26-0.25-1.914-0.25
			c-0.158,0-0.32,0.004-0.482,0.014c-0.835,0.053-1.602,0.227-2.35,0.534c-0.398,0.165-0.787,0.37-1.152,0.61
			c-0.197,0.129-0.387,0.27-0.569,0.42c-0.167,0.14-0.366,0.315-0.565,0.545c-0.023,0.028-0.021,0.07,0.006,0.095
			c0.227,0.202,0.444,0.35,0.631,0.469c0.199,0.126,0.405,0.242,0.617,0.344c0.392,0.191,0.805,0.346,1.222,0.46
			c0.611,0.165,1.247,0.247,1.891,0.247c0.166,0,0.337-0.006,0.507-0.017c0.835-0.055,1.605-0.231,2.348-0.538
			c0.398-0.164,0.787-0.369,1.152-0.609c0.195-0.129,0.389-0.27,0.571-0.419C68.551,40.739,68.75,40.565,68.948,40.336z"/>
		<path fill="#E41B4C" d="M60.133,38.17c0.023-0.03,0.019-0.071-0.013-0.094c-0.238-0.186-0.466-0.317-0.657-0.422
			c-0.209-0.111-0.424-0.212-0.642-0.3c-0.405-0.164-0.826-0.29-1.249-0.372c-0.461-0.091-0.935-0.137-1.407-0.137
			c-0.326,0-0.664,0.022-1.001,0.065c-0.83,0.109-1.582,0.336-2.305,0.694c-0.389,0.191-0.762,0.423-1.11,0.687
			c-0.187,0.143-0.368,0.297-0.539,0.459c-0.158,0.15-0.343,0.338-0.525,0.582c-0.023,0.03-0.017,0.071,0.011,0.093
			c0.241,0.188,0.469,0.32,0.659,0.425c0.211,0.112,0.425,0.214,0.643,0.302c0.406,0.164,0.826,0.289,1.248,0.373
			c0.457,0.09,0.926,0.135,1.391,0.135c0.334,0,0.678-0.023,1.018-0.069c0.83-0.112,1.586-0.341,2.306-0.698
			c0.385-0.192,0.759-0.423,1.11-0.686c0.186-0.144,0.367-0.297,0.539-0.458C59.766,38.599,59.95,38.412,60.133,38.17z"/>
		<path fill="#1D1D1B" d="M69.657,24.217c-0.085,0.2-0.186,0.445-0.262,0.738c-0.01,0.036,0.011,0.072,0.047,0.082
			c0.293,0.082,0.556,0.116,0.773,0.14c0.223,0.023,0.445,0.034,0.667,0.034h0.04c0.437-0.003,0.874-0.047,1.299-0.132
			c0.79-0.16,1.525-0.44,2.248-0.859c0.725-0.421,1.334-0.921,1.862-1.526c0.285-0.325,0.542-0.68,0.763-1.059
			c0.117-0.203,0.227-0.413,0.326-0.63c0.087-0.198,0.186-0.442,0.262-0.735c0.008-0.036-0.013-0.072-0.047-0.082
			c-0.292-0.08-0.553-0.115-0.77-0.139c-0.236-0.023-0.473-0.034-0.707-0.032c-0.438,0.004-0.875,0.049-1.297,0.133
			c-0.789,0.158-1.526,0.437-2.254,0.854c-0.723,0.417-1.334,0.915-1.864,1.523c-0.286,0.324-0.54,0.68-0.763,1.059
			C69.864,23.789,69.754,24.002,69.657,24.217z"/>
		<path fill="#FDB515" d="M62.506,18.482c0.001,0,0.005,0,0.008,0c0.301-0.03,0.558-0.093,0.768-0.15
			c0.227-0.063,0.452-0.14,0.672-0.226c0.406-0.163,0.797-0.362,1.16-0.596c0.681-0.435,1.262-0.965,1.783-1.619
			c0.521-0.656,0.906-1.343,1.182-2.1c0.146-0.406,0.256-0.831,0.324-1.263c0.037-0.23,0.061-0.468,0.073-0.705
			c0.008-0.217,0.013-0.48-0.023-0.781c-0.004-0.037-0.036-0.063-0.073-0.06c-0.301,0.031-0.559,0.094-0.769,0.152
			c-0.227,0.062-0.452,0.138-0.669,0.226c-0.406,0.163-0.797,0.363-1.16,0.596c-0.678,0.435-1.262,0.962-1.785,1.616
			c-0.524,0.651-0.911,1.337-1.184,2.097c-0.15,0.406-0.258,0.831-0.326,1.264c-0.037,0.231-0.061,0.467-0.072,0.705
			c-0.011,0.217-0.014,0.481,0.023,0.783C62.444,18.458,62.472,18.482,62.506,18.482z"/>
		<path fill="#1D1D1B" d="M55.766,13.687c0.01,0.03,0.037,0.05,0.066,0.05c0.003,0,0.01,0,0.015-0.002
			c0.296-0.075,0.54-0.173,0.741-0.258c0.216-0.095,0.428-0.203,0.634-0.32c0.377-0.219,0.734-0.474,1.062-0.755
			c0.61-0.53,1.111-1.137,1.533-1.858c0.422-0.725,0.705-1.459,0.867-2.249c0.084-0.421,0.133-0.857,0.139-1.296
			c0.004-0.234-0.006-0.472-0.029-0.707c-0.021-0.216-0.055-0.478-0.133-0.771c-0.008-0.036-0.045-0.058-0.082-0.048
			c-0.295,0.074-0.537,0.173-0.738,0.26c-0.213,0.095-0.427,0.203-0.629,0.32c-0.378,0.22-0.736,0.475-1.062,0.755
			c-0.609,0.528-1.113,1.134-1.537,1.856c-0.424,0.72-0.709,1.455-0.871,2.245c-0.088,0.422-0.135,0.859-0.14,1.298
			c-0.003,0.233,0.008,0.472,0.028,0.707C55.653,13.132,55.688,13.394,55.766,13.687z"/>
		<path fill="#E41B4C" d="M46.235,8.933c0.086,0.218,0.185,0.435,0.295,0.645c0.104,0.192,0.231,0.421,0.415,0.665
			c0.015,0.017,0.034,0.026,0.055,0.026c0.013,0,0.028-0.004,0.04-0.013c0.242-0.179,0.434-0.362,0.587-0.518
			c0.165-0.169,0.322-0.35,0.467-0.534c0.268-0.346,0.504-0.716,0.701-1.1c0.365-0.72,0.6-1.471,0.721-2.298
			c0.117-0.83,0.104-1.616-0.042-2.408c-0.079-0.424-0.199-0.846-0.356-1.254c-0.088-0.218-0.186-0.435-0.293-0.644
			c-0.102-0.193-0.23-0.421-0.415-0.664c-0.021-0.029-0.063-0.035-0.093-0.014C48.072,1,47.885,1.184,47.731,1.339
			c-0.163,0.17-0.32,0.35-0.463,0.535C47,2.22,46.761,2.59,46.567,2.974c-0.365,0.717-0.604,1.467-0.727,2.296
			c-0.121,0.826-0.107,1.614,0.036,2.407C45.956,8.102,46.075,8.524,46.235,8.933z"/>
		<path fill="#FDB515" d="M75.26,31.169c-0.369,0.223-0.72,0.485-1.046,0.78c-0.175,0.157-0.342,0.327-0.5,0.502
			c-0.142,0.165-0.311,0.367-0.472,0.625c-0.02,0.032-0.01,0.072,0.02,0.093c0.254,0.166,0.495,0.277,0.694,0.366
			c0.216,0.094,0.438,0.176,0.665,0.246c0.419,0.129,0.846,0.218,1.277,0.265c0.256,0.029,0.518,0.042,0.777,0.042
			c0.535,0,1.081-0.061,1.627-0.182c0.815-0.184,1.547-0.476,2.236-0.894c0.367-0.223,0.72-0.486,1.045-0.778
			c0.174-0.158,0.34-0.327,0.5-0.503c0.144-0.164,0.312-0.366,0.473-0.622c0.021-0.031,0.01-0.072-0.02-0.092
			c-0.254-0.164-0.493-0.276-0.694-0.364c-0.215-0.093-0.437-0.175-0.663-0.244c-0.418-0.129-0.848-0.218-1.277-0.264
			c-0.26-0.03-0.527-0.044-0.788-0.044c-0.531,0-1.073,0.06-1.616,0.178C76.682,30.459,75.95,30.75,75.26,31.169z"/>
		<path fill="#1D1D1B" d="M71.438,39.054c0.377,0.224,0.773,0.411,1.181,0.556c0.758,0.274,1.536,0.412,2.37,0.426
			c0.039,0,0.078,0,0.117,0c0.796,0,1.537-0.115,2.266-0.348c0.41-0.131,0.814-0.304,1.199-0.514
			c0.207-0.111,0.408-0.237,0.602-0.372c0.178-0.125,0.391-0.283,0.606-0.495c0.027-0.025,0.027-0.068,0.004-0.094
			c-0.21-0.219-0.417-0.384-0.592-0.515c-0.189-0.142-0.386-0.274-0.587-0.393c-0.377-0.222-0.775-0.409-1.18-0.555
			c-0.758-0.272-1.533-0.413-2.369-0.43c-0.051-0.001-0.102-0.002-0.15-0.002c-0.771,0-1.521,0.116-2.236,0.343
			c-0.408,0.132-0.812,0.306-1.198,0.515c-0.206,0.113-0.407,0.238-0.601,0.373c-0.18,0.127-0.391,0.284-0.606,0.498
			c-0.027,0.026-0.027,0.067-0.001,0.094c0.208,0.221,0.414,0.386,0.586,0.518C71.04,38.802,71.236,38.935,71.438,39.054z"/>
		<path fill="#1D1D1B" d="M42.537,45.147c-0.117-0.204-0.245-0.404-0.384-0.595c-0.131-0.177-0.291-0.387-0.507-0.599
			c-0.027-0.026-0.069-0.026-0.095,0c-0.218,0.212-0.377,0.42-0.508,0.599c-0.139,0.189-0.268,0.391-0.383,0.595
			c-0.217,0.381-0.396,0.781-0.537,1.188c-0.258,0.765-0.385,1.543-0.383,2.379c0,0.839,0.129,1.615,0.389,2.377
			c0.139,0.408,0.317,0.809,0.535,1.189c0.116,0.203,0.243,0.405,0.382,0.596c0.128,0.177,0.29,0.385,0.505,0.598
			c0.014,0.012,0.031,0.02,0.047,0.02c0.017,0,0.033-0.008,0.048-0.02c0.214-0.213,0.376-0.421,0.505-0.598
			c0.137-0.19,0.266-0.393,0.382-0.596c0.216-0.381,0.397-0.781,0.534-1.189c0.26-0.762,0.387-1.538,0.389-2.377
			c0.002-0.836-0.125-1.614-0.384-2.379C42.933,45.929,42.752,45.528,42.537,45.147z"/>
		<path fill="#FDB515" d="M42.537,55.901c-0.117-0.205-0.245-0.405-0.384-0.597c-0.131-0.176-0.291-0.383-0.507-0.597
			c-0.027-0.026-0.069-0.026-0.095,0c-0.218,0.214-0.377,0.421-0.508,0.597c-0.139,0.191-0.268,0.392-0.383,0.597
			c-0.217,0.379-0.396,0.779-0.537,1.189c-0.258,0.764-0.385,1.543-0.383,2.378c0,0.837,0.129,1.613,0.389,2.377
			c0.139,0.407,0.317,0.809,0.535,1.189c0.116,0.203,0.243,0.403,0.382,0.596c0.128,0.176,0.29,0.383,0.505,0.598
			c0.014,0.012,0.031,0.018,0.047,0.018c0.017,0,0.033-0.006,0.048-0.018c0.214-0.215,0.376-0.422,0.505-0.6
			c0.137-0.19,0.266-0.391,0.382-0.594c0.216-0.383,0.397-0.782,0.534-1.189c0.26-0.764,0.387-1.54,0.389-2.377
			s-0.125-1.614-0.384-2.378C42.933,56.681,42.752,56.28,42.537,55.901z"/>
		<path fill="#1D1D1B" d="M46.727,49.684c0.372,0.219,0.77,0.406,1.182,0.555c0.221,0.08,0.447,0.148,0.676,0.203
			c0.214,0.051,0.471,0.104,0.774,0.124h0.003c0.036,0,0.066-0.025,0.068-0.062c0.025-0.3,0.01-0.563-0.006-0.782
			c-0.021-0.235-0.054-0.47-0.1-0.7c-0.084-0.43-0.207-0.852-0.367-1.25c-0.301-0.748-0.711-1.42-1.254-2.057
			c-0.543-0.636-1.145-1.145-1.838-1.557c-0.371-0.221-0.77-0.407-1.181-0.555c-0.223-0.078-0.45-0.146-0.68-0.202
			c-0.214-0.048-0.47-0.103-0.774-0.122c-0.036-0.002-0.07,0.025-0.072,0.062c-0.026,0.304-0.012,0.565,0.002,0.783
			c0.021,0.234,0.053,0.471,0.099,0.703c0.083,0.43,0.206,0.85,0.368,1.252c0.301,0.747,0.712,1.418,1.256,2.053
			C45.434,48.768,46.036,49.273,46.727,49.684z"/>
		<path fill="#E41B4C" d="M59.995,53.536c0.203,0.388,0.443,0.756,0.711,1.093c0.503,0.633,1.091,1.158,1.795,1.606
			c0.707,0.45,1.43,0.764,2.213,0.958c0.416,0.102,0.852,0.169,1.288,0.192c0.116,0.007,0.235,0.009,0.354,0.009
			c0.116,0,0.234-0.002,0.354-0.009c0.217-0.015,0.479-0.036,0.774-0.103c0.036-0.009,0.06-0.045,0.052-0.08
			c-0.064-0.296-0.151-0.543-0.23-0.748c-0.086-0.22-0.186-0.436-0.294-0.642c-0.206-0.389-0.444-0.756-0.714-1.094
			c-0.5-0.629-1.088-1.157-1.789-1.61c-0.703-0.451-1.426-0.767-2.209-0.963c-0.419-0.102-0.854-0.165-1.291-0.19
			c-0.236-0.012-0.471-0.011-0.709,0.001c-0.218,0.016-0.48,0.038-0.778,0.105c-0.031,0.01-0.056,0.044-0.05,0.08
			c0.062,0.299,0.149,0.545,0.229,0.748C59.787,53.111,59.886,53.328,59.995,53.536z"/>
		<path fill="#1D1D1B" d="M55.68,59.534c0.032,0,0.062-0.025,0.064-0.06c0.027-0.304,0.014-0.566-0.004-0.784
			c-0.021-0.235-0.053-0.47-0.098-0.7c-0.084-0.43-0.208-0.852-0.369-1.252c-0.3-0.746-0.709-1.419-1.252-2.057
			c-0.541-0.634-1.145-1.145-1.84-1.555c-0.371-0.221-0.768-0.407-1.179-0.555c-0.221-0.08-0.448-0.147-0.68-0.202
			c-0.213-0.051-0.471-0.104-0.773-0.124c-0.037-0.003-0.068,0.025-0.072,0.061c-0.025,0.305-0.014,0.566,0.004,0.785
			c0.02,0.236,0.053,0.471,0.096,0.7c0.084,0.431,0.207,0.853,0.369,1.254c0.301,0.748,0.712,1.421,1.256,2.054
			c0.548,0.635,1.148,1.143,1.842,1.552c0.371,0.22,0.77,0.407,1.18,0.556c0.221,0.078,0.449,0.148,0.68,0.203
			c0.211,0.051,0.469,0.104,0.771,0.124C55.676,59.534,55.676,59.534,55.68,59.534z"/>
		<path fill="#E41B4C" d="M45.956,51.301c-0.174-0.158-0.359-0.309-0.549-0.449c-0.179-0.127-0.395-0.277-0.668-0.412
			c-0.033-0.016-0.074-0.004-0.09,0.027c-0.141,0.27-0.23,0.518-0.301,0.725c-0.072,0.225-0.135,0.455-0.182,0.685
			c-0.09,0.43-0.138,0.864-0.145,1.297c-0.013,0.808,0.106,1.586,0.365,2.382c0.26,0.795,0.617,1.498,1.1,2.142
			c0.256,0.347,0.552,0.673,0.874,0.969c0.173,0.158,0.356,0.31,0.544,0.45c0.179,0.127,0.396,0.277,0.666,0.413
			c0.01,0.004,0.02,0.006,0.029,0.006c0.025,0,0.047-0.013,0.06-0.036c0.142-0.268,0.229-0.515,0.298-0.723
			c0.072-0.225,0.133-0.455,0.182-0.685c0.088-0.427,0.136-0.864,0.144-1.296c0.012-0.803-0.104-1.584-0.361-2.383
			c-0.254-0.795-0.611-1.496-1.093-2.145C46.569,51.922,46.277,51.596,45.956,51.301z"/>
		<path fill="#E41B4C" d="M49.125,59.359c-0.041,0.436-0.04,0.873,0.004,1.305c0.08,0.805,0.287,1.563,0.633,2.322
			c0.35,0.762,0.787,1.42,1.338,2.007c0.293,0.313,0.623,0.604,0.977,0.861c0.191,0.138,0.391,0.267,0.596,0.384
			c0.189,0.107,0.422,0.23,0.705,0.336c0.008,0.004,0.02,0.004,0.025,0.004c0.026,0,0.052-0.018,0.062-0.043
			c0.108-0.283,0.169-0.541,0.215-0.752c0.044-0.232,0.079-0.468,0.1-0.701c0.039-0.436,0.039-0.875-0.004-1.303
			c-0.077-0.802-0.286-1.562-0.63-2.326c-0.344-0.762-0.78-1.418-1.332-2.006c-0.294-0.316-0.624-0.605-0.978-0.862
			c-0.19-0.139-0.393-0.268-0.597-0.386c-0.189-0.105-0.422-0.229-0.709-0.333c-0.035-0.013-0.074,0.005-0.088,0.04
			c-0.106,0.283-0.167,0.54-0.213,0.754C49.18,58.89,49.147,59.125,49.125,59.359z"/>
		<path fill="#1D1D1B" d="M46.821,69.893c0.01,0.008,0.024,0.012,0.037,0.012c0.021,0,0.042-0.013,0.055-0.032
			c0.163-0.255,0.273-0.494,0.361-0.694c0.09-0.217,0.171-0.439,0.242-0.666c0.123-0.418,0.209-0.85,0.254-1.277
			c0.086-0.801,0.037-1.588-0.146-2.404c-0.182-0.804-0.484-1.557-0.901-2.234c-0.226-0.368-0.489-0.718-0.784-1.041
			c-0.158-0.174-0.328-0.34-0.507-0.496c-0.163-0.143-0.369-0.311-0.628-0.47c-0.029-0.02-0.071-0.009-0.09,0.021
			c-0.166,0.256-0.277,0.494-0.363,0.696c-0.092,0.217-0.174,0.44-0.242,0.665c-0.127,0.42-0.214,0.848-0.26,1.277
			c-0.085,0.804-0.033,1.589,0.153,2.404c0.187,0.816,0.484,1.547,0.905,2.232c0.227,0.368,0.49,0.717,0.786,1.041
			c0.157,0.174,0.327,0.341,0.503,0.496C46.361,69.566,46.563,69.732,46.821,69.893z"/>
		<path fill="#1D1D1B" d="M61.563,50.912c0.051,0,0.1,0,0.152,0c0.379,0,0.768-0.033,1.15-0.097c0.232-0.039,0.464-0.091,0.69-0.155
			c0.21-0.061,0.461-0.14,0.733-0.27c0.033-0.016,0.049-0.056,0.031-0.089c-0.123-0.276-0.265-0.498-0.388-0.679
			c-0.131-0.197-0.276-0.385-0.429-0.564c-0.283-0.332-0.598-0.639-0.934-0.908c-0.628-0.504-1.314-0.891-2.1-1.179
			c-0.787-0.286-1.561-0.435-2.367-0.454c-0.428-0.009-0.869,0.023-1.301,0.096c-0.233,0.039-0.463,0.094-0.689,0.156
			c-0.211,0.063-0.461,0.143-0.734,0.274c-0.035,0.015-0.051,0.054-0.035,0.087c0.127,0.277,0.268,0.5,0.389,0.683
			c0.131,0.194,0.277,0.384,0.429,0.565c0.282,0.332,0.597,0.638,0.934,0.91c0.63,0.506,1.315,0.888,2.103,1.172
			C59.986,50.746,60.76,50.895,61.563,50.912z"/>
		<path fill="#1D1D1B" d="M50.51,49.164c0.182,0.398,0.4,0.777,0.65,1.131c0.466,0.66,1.021,1.218,1.696,1.707
			c0.681,0.491,1.383,0.846,2.152,1.084c0.411,0.127,0.841,0.218,1.275,0.266c0.235,0.027,0.472,0.04,0.708,0.043
			c0.217-0.002,0.48-0.009,0.781-0.058c0.035-0.006,0.06-0.042,0.053-0.078c-0.045-0.298-0.117-0.552-0.186-0.759
			c-0.074-0.223-0.16-0.445-0.257-0.66c-0.181-0.398-0.399-0.777-0.647-1.13c-0.464-0.658-1.021-1.217-1.695-1.712
			c-0.676-0.493-1.379-0.849-2.148-1.088c-0.413-0.128-0.842-0.217-1.277-0.267c-0.235-0.026-0.473-0.04-0.709-0.04
			c-0.217,0.004-0.482,0.01-0.781,0.061c-0.035,0.006-0.06,0.039-0.055,0.076c0.045,0.301,0.118,0.554,0.184,0.762
			C50.329,48.729,50.415,48.949,50.51,49.164z"/>
		<path fill="#1D1D1B" d="M62.438,62.064c0.037,0,0.065-0.027,0.068-0.062c0.02-0.301,0.001-0.565-0.02-0.781
			c-0.026-0.234-0.064-0.469-0.111-0.699c-0.092-0.427-0.223-0.846-0.393-1.243c-0.313-0.741-0.734-1.407-1.289-2.035
			c-0.555-0.625-1.166-1.122-1.868-1.521c-0.376-0.212-0.776-0.394-1.191-0.532c-0.222-0.075-0.452-0.138-0.683-0.189
			c-0.211-0.045-0.471-0.094-0.775-0.108c-0.035-0.003-0.066,0.026-0.07,0.062c-0.021,0.305-0.004,0.568,0.018,0.785
			c0.025,0.234,0.061,0.471,0.109,0.699c0.091,0.428,0.223,0.846,0.391,1.244c0.316,0.744,0.737,1.406,1.293,2.032
			c0.56,0.623,1.172,1.118,1.871,1.517c0.375,0.214,0.777,0.392,1.19,0.533c0.224,0.074,0.452,0.14,0.683,0.189
			c0.212,0.047,0.471,0.097,0.775,0.111C62.436,62.064,62.436,62.064,62.438,62.064z"/>
		<path fill="#FDB515" d="M60.856,65.77c-0.231-0.771-0.58-1.477-1.065-2.158c-0.484-0.682-1.04-1.242-1.691-1.714
			c-0.353-0.251-0.73-0.473-1.128-0.657c-0.213-0.099-0.437-0.188-0.659-0.26c-0.208-0.069-0.462-0.145-0.761-0.193
			c-0.033-0.004-0.07,0.02-0.077,0.056c-0.052,0.3-0.063,0.562-0.067,0.782c0,0.235,0.013,0.473,0.036,0.707
			c0.043,0.435,0.131,0.865,0.255,1.279c0.234,0.773,0.584,1.479,1.068,2.158c0.492,0.679,1.045,1.239,1.699,1.709
			c0.35,0.25,0.729,0.473,1.127,0.656c0.213,0.1,0.434,0.188,0.656,0.262c0.207,0.07,0.46,0.146,0.758,0.193
			c0.004,0,0.008,0,0.012,0c0.032,0,0.061-0.021,0.067-0.054c0.052-0.302,0.06-0.562,0.063-0.78c0-0.235-0.012-0.473-0.035-0.707
			C61.067,66.613,60.979,66.184,60.856,65.77z"/>
		<path fill="#1D1D1B" d="M53.287,69.297c-0.364-0.753-0.813-1.4-1.38-1.977c-0.301-0.306-0.637-0.59-0.996-0.84
			c-0.195-0.132-0.398-0.257-0.606-0.37c-0.191-0.103-0.427-0.22-0.714-0.315c-0.035-0.012-0.074,0.006-0.088,0.04
			c-0.101,0.286-0.156,0.544-0.199,0.759c-0.039,0.232-0.067,0.469-0.084,0.702c-0.031,0.438-0.02,0.876,0.035,1.304
			c0.097,0.801,0.322,1.557,0.685,2.311c0.365,0.753,0.817,1.397,1.382,1.973c0.302,0.309,0.639,0.588,0.997,0.84
			c0.193,0.134,0.396,0.257,0.604,0.37c0.192,0.103,0.429,0.222,0.714,0.317c0.008,0.004,0.013,0.005,0.023,0.005
			c0.025,0,0.052-0.017,0.062-0.044c0.102-0.286,0.157-0.545,0.196-0.759c0.04-0.231,0.067-0.467,0.084-0.702
			c0.03-0.437,0.019-0.875-0.034-1.303C53.871,70.81,53.648,70.053,53.287,69.297z"/>
		<path fill="#1D1D1B" d="M42.26,66.704c-0.133-0.195-0.275-0.386-0.427-0.565c-0.142-0.166-0.317-0.361-0.549-0.559
			c-0.03-0.023-0.071-0.021-0.097,0.007c-0.2,0.229-0.348,0.447-0.463,0.632c-0.125,0.202-0.238,0.41-0.338,0.623
			c-0.188,0.395-0.34,0.807-0.447,1.225c-0.204,0.779-0.271,1.566-0.209,2.4c0.062,0.835,0.246,1.6,0.561,2.342
			c0.166,0.397,0.375,0.783,0.62,1.147c0.128,0.196,0.271,0.386,0.423,0.566c0.141,0.165,0.316,0.361,0.546,0.558
			c0.013,0.012,0.028,0.018,0.046,0.018c0.019,0,0.035-0.01,0.05-0.023c0.199-0.227,0.345-0.446,0.46-0.634
			c0.123-0.198,0.238-0.409,0.339-0.62c0.186-0.396,0.337-0.809,0.446-1.227c0.201-0.777,0.272-1.562,0.215-2.398
			c-0.061-0.834-0.244-1.6-0.555-2.344C42.71,67.455,42.504,67.068,42.26,66.704z"/>
		<path fill="#1D1D1B" d="M70.065,63.096c-0.143-0.414-0.324-0.814-0.539-1.188c-0.4-0.699-0.9-1.308-1.529-1.861
			c-0.627-0.552-1.293-0.973-2.038-1.282c-0.399-0.165-0.818-0.294-1.245-0.384c-0.23-0.049-0.469-0.082-0.703-0.105
			c-0.185-0.016-0.34-0.025-0.488-0.025c-0.1,0-0.195,0.006-0.295,0.014c-0.035,0.002-0.064,0.032-0.064,0.07
			c0.02,0.305,0.067,0.562,0.115,0.775c0.052,0.229,0.119,0.457,0.194,0.682c0.142,0.414,0.325,0.812,0.538,1.188
			c0.404,0.697,0.904,1.307,1.533,1.857c0.631,0.551,1.299,0.971,2.042,1.277c0.398,0.166,0.817,0.295,1.249,0.386
			c0.229,0.047,0.464,0.083,0.698,0.105c0.192,0.019,0.347,0.024,0.497,0.024c0.096,0,0.189-0.003,0.283-0.01
			c0.038-0.002,0.066-0.033,0.064-0.07c-0.018-0.303-0.068-0.562-0.115-0.774C70.208,63.544,70.144,63.316,70.065,63.096z"/>
		<path fill="#1D1D1B" d="M71.592,55.407c0.094,0.005,0.191,0.006,0.287,0.006c0.336,0,0.676-0.026,1.014-0.075
			c0.232-0.033,0.467-0.082,0.694-0.142c0.21-0.056,0.464-0.13,0.739-0.253c0.034-0.017,0.048-0.055,0.036-0.09
			c-0.123-0.277-0.259-0.502-0.377-0.688c-0.128-0.195-0.267-0.389-0.416-0.57c-0.277-0.34-0.586-0.652-0.916-0.929
			c-0.615-0.517-1.297-0.915-2.076-1.222c-0.778-0.301-1.551-0.465-2.355-0.5c-0.096-0.005-0.191-0.006-0.287-0.006
			c-0.335,0-0.678,0.025-1.016,0.075c-0.233,0.034-0.467,0.083-0.694,0.143c-0.212,0.056-0.464,0.132-0.741,0.258
			c-0.032,0.015-0.047,0.055-0.032,0.087c0.119,0.28,0.257,0.506,0.373,0.69c0.127,0.198,0.27,0.392,0.416,0.573
			c0.278,0.34,0.584,0.65,0.917,0.928c0.617,0.518,1.299,0.915,2.078,1.217C70.016,55.211,70.788,55.373,71.592,55.407z"/>
		<path fill="#1D1D1B" d="M40.1,44.125c0.016-0.218,0.031-0.482,0.004-0.783c-0.004-0.037-0.037-0.064-0.072-0.062
			c-0.304,0.02-0.562,0.074-0.775,0.123c-0.227,0.055-0.455,0.123-0.678,0.203c-0.412,0.146-0.809,0.332-1.181,0.553
			c-0.694,0.412-1.296,0.921-1.841,1.557c-0.542,0.637-0.951,1.309-1.252,2.057c-0.16,0.398-0.283,0.82-0.369,1.25
			c-0.045,0.23-0.078,0.465-0.097,0.7c-0.017,0.219-0.032,0.48-0.007,0.782c0.003,0.036,0.031,0.062,0.068,0.062
			c0.002,0,0.002,0,0.004,0c0.304-0.021,0.559-0.073,0.772-0.124c0.23-0.055,0.456-0.123,0.677-0.203
			c0.411-0.148,0.809-0.336,1.182-0.555c0.691-0.41,1.295-0.916,1.841-1.551c0.545-0.635,0.958-1.306,1.258-2.053
			c0.161-0.402,0.284-0.822,0.369-1.254C40.047,44.598,40.082,44.359,40.1,44.125z"/>
		<path fill="#1D1D1B" d="M16.554,57.386c0.118,0.007,0.238,0.009,0.354,0.009c0.118,0,0.236-0.002,0.354-0.009
			c0.438-0.023,0.871-0.091,1.29-0.192c0.779-0.194,1.503-0.508,2.211-0.958c0.702-0.448,1.288-0.974,1.794-1.606
			c0.268-0.337,0.508-0.705,0.711-1.093c0.109-0.208,0.207-0.425,0.294-0.646c0.079-0.203,0.166-0.449,0.228-0.748
			c0.011-0.036-0.014-0.07-0.051-0.08c-0.295-0.067-0.557-0.09-0.777-0.105c-0.235-0.012-0.471-0.013-0.708-0.001
			c-0.437,0.025-0.871,0.089-1.29,0.19c-0.783,0.196-1.505,0.512-2.208,0.963c-0.705,0.453-1.29,0.981-1.791,1.61
			c-0.269,0.338-0.509,0.705-0.713,1.094c-0.109,0.208-0.208,0.422-0.294,0.642c-0.079,0.205-0.167,0.452-0.23,0.748
			c-0.008,0.035,0.014,0.071,0.05,0.08C16.073,57.35,16.337,57.371,16.554,57.386z"/>
		<path fill="#1D1D1B" d="M19.029,45.154c-0.421-0.117-0.855-0.195-1.283-0.231c-0.201-0.019-0.403-0.025-0.602-0.025
			c-0.594,0-1.199,0.075-1.799,0.224c-0.813,0.205-1.536,0.515-2.214,0.949c-0.363,0.232-0.708,0.504-1.028,0.805
			c-0.167,0.162-0.331,0.334-0.484,0.516c-0.139,0.165-0.304,0.373-0.458,0.633c-0.019,0.031-0.009,0.072,0.023,0.092
			c0.256,0.158,0.498,0.264,0.699,0.346c0.22,0.088,0.445,0.164,0.67,0.229c0.422,0.119,0.855,0.196,1.283,0.232
			c0.204,0.018,0.409,0.025,0.613,0.025c0.589,0,1.191-0.073,1.789-0.219c0.813-0.201,1.536-0.51,2.216-0.943
			c0.363-0.233,0.708-0.506,1.025-0.807c0.17-0.162,0.334-0.336,0.487-0.516c0.139-0.168,0.301-0.374,0.457-0.637
			c0.02-0.033,0.009-0.073-0.022-0.092c-0.259-0.161-0.5-0.266-0.702-0.351C19.479,45.297,19.256,45.219,19.029,45.154z"/>
		<path fill="#1D1D1B" d="M32.061,57.1c0.545-0.633,0.956-1.306,1.258-2.054c0.159-0.401,0.283-0.823,0.369-1.254
			c0.041-0.229,0.074-0.464,0.096-0.7c0.014-0.219,0.027-0.48,0.004-0.785c-0.004-0.035-0.037-0.063-0.074-0.061
			c-0.304,0.02-0.562,0.073-0.773,0.124c-0.229,0.055-0.459,0.122-0.682,0.202c-0.409,0.147-0.807,0.334-1.182,0.555
			c-0.691,0.412-1.293,0.921-1.836,1.555c-0.543,0.638-0.953,1.311-1.252,2.057c-0.16,0.4-0.285,0.822-0.369,1.252
			c-0.043,0.23-0.078,0.465-0.096,0.7c-0.019,0.219-0.031,0.482-0.007,0.784c0.003,0.034,0.032,0.06,0.067,0.06
			c0.001,0,0.004,0,0.004,0c0.302-0.021,0.561-0.073,0.773-0.124c0.229-0.055,0.457-0.125,0.677-0.203
			c0.412-0.148,0.808-0.336,1.181-0.556C30.913,58.242,31.514,57.734,32.061,57.1z"/>
		<path fill="#1D1D1B" d="M35.304,58.775c0.069,0.208,0.157,0.455,0.299,0.723c0.012,0.023,0.035,0.036,0.059,0.036
			c0.011,0,0.021-0.002,0.032-0.006c0.27-0.136,0.484-0.286,0.662-0.414c0.189-0.14,0.374-0.291,0.547-0.449
			c0.322-0.296,0.615-0.622,0.873-0.969c0.48-0.644,0.84-1.347,1.099-2.142c0.259-0.796,0.377-1.574,0.366-2.382
			c-0.008-0.433-0.056-0.869-0.145-1.297c-0.049-0.229-0.11-0.46-0.182-0.685c-0.07-0.207-0.16-0.455-0.301-0.725
			c-0.017-0.031-0.057-0.043-0.089-0.027c-0.273,0.135-0.491,0.285-0.667,0.412c-0.191,0.139-0.375,0.289-0.549,0.449
			c-0.324,0.295-0.617,0.621-0.875,0.967c-0.48,0.648-0.838,1.35-1.094,2.145c-0.256,0.799-0.373,1.58-0.361,2.383
			c0.01,0.432,0.056,0.869,0.145,1.296C35.172,58.32,35.233,58.552,35.304,58.775z"/>
		<path fill="#E41B4C" d="M33.024,58.199c-0.205,0.118-0.404,0.247-0.596,0.386c-0.355,0.257-0.684,0.546-0.979,0.862
			c-0.553,0.588-0.989,1.244-1.333,2.006c-0.343,0.764-0.547,1.524-0.627,2.326c-0.043,0.428-0.043,0.867-0.004,1.303
			c0.021,0.233,0.054,0.469,0.1,0.701c0.045,0.213,0.104,0.469,0.213,0.752c0.012,0.025,0.035,0.043,0.062,0.043
			c0.008,0,0.016,0,0.025-0.004c0.283-0.105,0.515-0.229,0.706-0.336c0.202-0.117,0.404-0.246,0.593-0.384
			c0.355-0.257,0.686-0.548,0.979-0.861c0.551-0.587,0.988-1.245,1.338-2.007c0.347-0.759,0.554-1.518,0.633-2.322
			c0.044-0.43,0.044-0.867,0.004-1.305c-0.021-0.233-0.056-0.47-0.104-0.7c-0.044-0.213-0.105-0.469-0.215-0.753
			c-0.014-0.035-0.051-0.053-0.087-0.04C33.446,57.971,33.213,58.094,33.024,58.199z"/>
		<path fill="#1D1D1B" d="M39.157,61.971c-0.067-0.225-0.151-0.448-0.242-0.665c-0.088-0.202-0.199-0.44-0.365-0.696
			c-0.018-0.029-0.06-0.04-0.092-0.021c-0.258,0.159-0.463,0.328-0.627,0.47c-0.176,0.156-0.348,0.322-0.506,0.496
			c-0.293,0.323-0.559,0.673-0.785,1.041c-0.422,0.689-0.717,1.418-0.901,2.234c-0.183,0.816-0.23,1.604-0.146,2.404
			c0.044,0.428,0.131,0.859,0.257,1.277c0.068,0.227,0.148,0.449,0.24,0.666c0.086,0.2,0.197,0.439,0.361,0.694
			c0.012,0.02,0.034,0.032,0.059,0.032c0.01,0,0.023-0.004,0.031-0.012c0.259-0.158,0.461-0.326,0.628-0.471
			c0.175-0.155,0.345-0.322,0.503-0.496c0.295-0.324,0.561-0.673,0.785-1.041c0.42-0.686,0.718-1.416,0.906-2.232
			c0.185-0.815,0.235-1.601,0.152-2.404C39.37,62.818,39.28,62.391,39.157,61.971z"/>
		<path fill="#E41B4C" d="M26.167,49.289c0.338-0.272,0.651-0.578,0.936-0.91c0.152-0.18,0.295-0.371,0.427-0.565
			c0.122-0.183,0.265-0.405,0.389-0.683c0.015-0.033,0.001-0.072-0.032-0.087c-0.275-0.132-0.525-0.211-0.736-0.274
			c-0.225-0.062-0.458-0.117-0.689-0.156c-0.432-0.072-0.873-0.104-1.302-0.096c-0.808,0.02-1.58,0.168-2.366,0.454
			c-0.785,0.288-1.471,0.675-2.098,1.179c-0.338,0.27-0.65,0.576-0.936,0.908c-0.152,0.18-0.296,0.367-0.429,0.564
			c-0.121,0.181-0.262,0.402-0.388,0.679c-0.015,0.033,0,0.073,0.033,0.089c0.273,0.13,0.525,0.209,0.734,0.27
			c0.227,0.064,0.458,0.116,0.691,0.155c0.382,0.063,0.769,0.097,1.149,0.097c0.05,0,0.1,0,0.149,0
			c0.804-0.018,1.58-0.166,2.367-0.451C24.85,50.177,25.538,49.795,26.167,49.289z"/>
		<path fill="#FDB515" d="M26.27,53.395c0.002,0,0.002,0,0.002,0c0.236-0.003,0.471-0.016,0.705-0.043
			c0.434-0.048,0.866-0.139,1.277-0.266c0.77-0.238,1.471-0.593,2.152-1.084c0.674-0.489,1.23-1.047,1.697-1.707
			c0.248-0.354,0.465-0.732,0.648-1.131c0.094-0.215,0.181-0.436,0.254-0.662c0.066-0.208,0.142-0.461,0.186-0.762
			c0.006-0.037-0.02-0.07-0.055-0.076c-0.301-0.051-0.565-0.057-0.783-0.061c-0.234,0-0.473,0.014-0.707,0.04
			c-0.434,0.05-0.865,0.139-1.275,0.267c-0.773,0.239-1.477,0.595-2.148,1.088c-0.679,0.493-1.23,1.054-1.697,1.712
			c-0.248,0.353-0.466,0.731-0.649,1.13c-0.095,0.215-0.183,0.438-0.254,0.66c-0.067,0.207-0.142,0.461-0.187,0.761
			c-0.008,0.034,0.016,0.07,0.056,0.076C25.79,53.386,26.052,53.393,26.27,53.395z"/>
		<path fill="#1D1D1B" d="M27.541,42.002c-0.83,0.113-1.584,0.342-2.304,0.699c-0.387,0.191-0.76,0.422-1.11,0.687
			c-0.185,0.144-0.367,0.296-0.539,0.458c-0.157,0.15-0.344,0.338-0.527,0.58c-0.02,0.028-0.016,0.069,0.012,0.094
			c0.242,0.185,0.469,0.316,0.659,0.422c0.21,0.111,0.426,0.211,0.644,0.299c0.404,0.164,0.826,0.289,1.247,0.373
			c0.461,0.09,0.937,0.139,1.407,0.139c0.328,0,0.664-0.025,1.002-0.067c0.828-0.108,1.582-0.337,2.304-0.694
			c0.39-0.191,0.762-0.423,1.11-0.687c0.186-0.144,0.369-0.297,0.539-0.459c0.158-0.151,0.344-0.339,0.525-0.582
			c0.022-0.03,0.018-0.071-0.01-0.095c-0.242-0.188-0.471-0.32-0.66-0.424c-0.209-0.112-0.426-0.214-0.642-0.303
			c-0.407-0.162-0.827-0.289-1.251-0.373c-0.455-0.09-0.924-0.135-1.389-0.135C28.225,41.934,27.882,41.956,27.541,42.002z"/>
		<path fill="#1D1D1B" d="M23.474,61.23c0.698-0.398,1.312-0.894,1.871-1.519c0.558-0.624,0.979-1.286,1.294-2.03
			c0.167-0.398,0.299-0.816,0.391-1.244c0.049-0.229,0.086-0.465,0.109-0.701c0.021-0.217,0.039-0.48,0.018-0.783
			c-0.002-0.035-0.033-0.064-0.071-0.062c-0.303,0.015-0.562,0.063-0.777,0.108c-0.229,0.052-0.46,0.114-0.682,0.189
			c-0.416,0.139-0.816,0.32-1.191,0.532c-0.701,0.399-1.312,0.896-1.867,1.521c-0.554,0.628-0.976,1.294-1.29,2.035
			c-0.168,0.397-0.299,0.814-0.392,1.243c-0.048,0.23-0.085,0.465-0.109,0.699c-0.022,0.216-0.039,0.48-0.021,0.781
			c0.003,0.035,0.032,0.062,0.068,0.062c0,0,0.001,0,0.002,0c0.301-0.015,0.561-0.064,0.775-0.111
			c0.228-0.05,0.458-0.115,0.681-0.189C22.698,61.622,23.098,61.444,23.474,61.23z"/>
		<path fill="#FDB515" d="M27.709,60.787c-0.299,0.049-0.551,0.124-0.76,0.193c-0.223,0.072-0.445,0.161-0.656,0.26
			c-0.398,0.185-0.777,0.406-1.129,0.657c-0.654,0.472-1.209,1.032-1.694,1.714c-0.484,0.682-0.833,1.388-1.064,2.158
			c-0.125,0.414-0.21,0.844-0.258,1.279c-0.022,0.234-0.033,0.472-0.033,0.707c0.002,0.219,0.012,0.48,0.064,0.78
			c0.005,0.033,0.032,0.054,0.065,0.054c0.003,0,0.005,0,0.011,0c0.3-0.048,0.552-0.123,0.757-0.193
			c0.224-0.074,0.445-0.162,0.657-0.262c0.397-0.184,0.777-0.406,1.127-0.656c0.653-0.47,1.21-1.03,1.7-1.709
			c0.484-0.68,0.834-1.385,1.068-2.158c0.123-0.414,0.21-0.845,0.256-1.279c0.022-0.234,0.035-0.472,0.033-0.709
			c-0.003-0.218-0.014-0.48-0.066-0.78C27.783,60.807,27.748,60.783,27.709,60.787z"/>
		<path fill="#1D1D1B" d="M34.045,67.296c-0.017-0.233-0.046-0.47-0.087-0.702c-0.043-0.215-0.096-0.473-0.199-0.759
			c-0.011-0.034-0.05-0.052-0.086-0.04c-0.286,0.096-0.521,0.213-0.715,0.315c-0.21,0.113-0.413,0.238-0.605,0.37
			c-0.359,0.25-0.697,0.533-0.998,0.842c-0.564,0.574-1.016,1.223-1.375,1.975c-0.363,0.756-0.586,1.513-0.686,2.311
			c-0.049,0.428-0.062,0.866-0.033,1.303c0.016,0.233,0.044,0.471,0.086,0.703c0.039,0.215,0.093,0.472,0.195,0.758
			c0.01,0.027,0.036,0.044,0.064,0.044c0.008,0,0.014-0.001,0.021-0.005c0.288-0.096,0.523-0.215,0.717-0.317
			c0.203-0.113,0.406-0.236,0.602-0.37c0.359-0.252,0.695-0.531,0.996-0.84c0.564-0.575,1.016-1.22,1.381-1.973
			c0.365-0.754,0.59-1.51,0.688-2.311C34.063,68.172,34.075,67.733,34.045,67.296z"/>
		<path fill="#1D1D1B" d="M17.718,62.836c0.628-0.551,1.131-1.16,1.534-1.857c0.215-0.375,0.396-0.772,0.54-1.188
			c0.076-0.223,0.141-0.451,0.194-0.682c0.044-0.214,0.097-0.471,0.111-0.775c0.004-0.038-0.023-0.068-0.06-0.07
			c-0.1-0.008-0.195-0.014-0.297-0.014c-0.146,0-0.301,0.01-0.487,0.025c-0.236,0.023-0.471,0.057-0.7,0.105
			c-0.428,0.09-0.85,0.219-1.248,0.384c-0.744,0.31-1.411,0.73-2.037,1.282c-0.628,0.554-1.128,1.162-1.529,1.861
			c-0.216,0.373-0.398,0.773-0.542,1.188c-0.076,0.22-0.143,0.448-0.193,0.681c-0.047,0.21-0.097,0.47-0.115,0.772
			c-0.003,0.037,0.024,0.068,0.06,0.07c0.096,0.007,0.188,0.01,0.285,0.01c0.152,0,0.307-0.006,0.499-0.024
			c0.234-0.022,0.47-0.059,0.699-0.105c0.429-0.091,0.85-0.22,1.248-0.386C16.419,63.807,17.086,63.387,17.718,62.836z"/>
		<path fill="#1D1D1B" d="M9.277,54.167c-0.118,0.185-0.255,0.409-0.375,0.687c-0.015,0.035,0,0.073,0.035,0.09
			c0.276,0.123,0.528,0.197,0.74,0.253c0.228,0.06,0.461,0.108,0.692,0.142c0.336,0.049,0.677,0.075,1.015,0.075
			c0.096,0,0.191-0.001,0.287-0.006c0.806-0.034,1.575-0.196,2.358-0.497c0.777-0.302,1.458-0.699,2.079-1.217
			c0.333-0.276,0.639-0.588,0.916-0.928c0.148-0.184,0.286-0.375,0.417-0.573c0.118-0.185,0.252-0.41,0.373-0.69
			c0.015-0.032,0-0.072-0.035-0.087c-0.275-0.126-0.529-0.202-0.738-0.258c-0.23-0.06-0.461-0.108-0.695-0.143
			c-0.336-0.05-0.68-0.075-1.015-0.075c-0.096,0-0.191,0.001-0.288,0.006c-0.807,0.035-1.576,0.199-2.356,0.5
			c-0.781,0.307-1.458,0.705-2.075,1.222c-0.332,0.276-0.639,0.589-0.916,0.929C9.547,53.777,9.404,53.971,9.277,54.167z"/>
		<path fill="#FDB515" d="M13.539,58.377c0.086-0.2,0.186-0.442,0.262-0.738c0.009-0.035-0.013-0.071-0.048-0.08
			c-0.292-0.084-0.551-0.118-0.771-0.143c-0.22-0.022-0.445-0.033-0.666-0.033h-0.041c-0.438,0.003-0.875,0.049-1.296,0.133
			c-0.793,0.158-1.528,0.439-2.25,0.859c-0.724,0.421-1.334,0.921-1.866,1.525c-0.283,0.324-0.539,0.681-0.759,1.059
			c-0.121,0.202-0.228,0.413-0.325,0.629c-0.086,0.199-0.188,0.443-0.265,0.736c-0.011,0.036,0.012,0.072,0.047,0.081
			c0.293,0.081,0.552,0.114,0.772,0.138c0.216,0.022,0.436,0.034,0.653,0.034c0.017,0,0.035,0,0.051,0
			c0.438-0.003,0.875-0.05,1.298-0.134c0.789-0.157,1.524-0.436,2.25-0.855c0.727-0.416,1.335-0.915,1.87-1.521
			c0.283-0.325,0.538-0.681,0.762-1.061C13.333,58.805,13.441,58.594,13.539,58.377z"/>
		<path fill="#1D1D1B" d="M20.684,64.113c-0.304,0.03-0.559,0.092-0.771,0.149c-0.227,0.062-0.452,0.14-0.67,0.225
			c-0.404,0.162-0.797,0.364-1.161,0.597c-0.68,0.436-1.262,0.964-1.783,1.617c-0.521,0.657-0.906,1.344-1.178,2.1
			c-0.148,0.406-0.257,0.832-0.325,1.264c-0.036,0.232-0.063,0.469-0.073,0.703c-0.011,0.219-0.016,0.482,0.021,0.784
			c0.002,0.033,0.034,0.06,0.066,0.06c0.003,0,0.006,0,0.006-0.002c0.301-0.031,0.557-0.094,0.768-0.151
			c0.228-0.063,0.453-0.138,0.673-0.226c0.406-0.162,0.795-0.365,1.157-0.597c0.678-0.435,1.265-0.962,1.789-1.614
			c0.521-0.654,0.909-1.338,1.184-2.099c0.146-0.405,0.257-0.83,0.325-1.265c0.035-0.23,0.06-0.468,0.071-0.704
			c0.01-0.217,0.013-0.481-0.024-0.783C20.753,64.135,20.721,64.109,20.684,64.113z"/>
		<path fill="#E41B4C" d="M27.429,68.908c-0.009-0.037-0.047-0.058-0.081-0.047c-0.296,0.072-0.539,0.172-0.741,0.258
			c-0.214,0.095-0.428,0.203-0.631,0.32c-0.382,0.219-0.737,0.473-1.063,0.754c-0.609,0.529-1.112,1.139-1.531,1.858
			c-0.422,0.725-0.705,1.461-0.869,2.247c-0.086,0.426-0.131,0.859-0.139,1.299c-0.002,0.232,0.008,0.471,0.029,0.705
			c0.022,0.217,0.056,0.479,0.134,0.771c0.008,0.029,0.033,0.051,0.065,0.051c0.005,0,0.011-0.002,0.017-0.004
			c0.293-0.074,0.537-0.172,0.738-0.26c0.214-0.096,0.426-0.203,0.631-0.32c0.379-0.221,0.734-0.475,1.06-0.756
			c0.61-0.527,1.112-1.133,1.537-1.855c0.425-0.721,0.71-1.453,0.874-2.246c0.084-0.422,0.131-0.857,0.137-1.298
			c0.004-0.231-0.006-0.47-0.029-0.705C27.542,69.463,27.508,69.201,27.429,68.908z"/>
		<path fill="#FDB515" d="M36.961,73.66c-0.087-0.217-0.183-0.434-0.294-0.643c-0.103-0.195-0.232-0.424-0.416-0.664
			c-0.023-0.029-0.062-0.037-0.094-0.014c-0.244,0.179-0.434,0.361-0.586,0.518c-0.167,0.17-0.322,0.349-0.469,0.533
			c-0.268,0.346-0.504,0.716-0.701,1.102c-0.365,0.721-0.602,1.471-0.721,2.297c-0.119,0.83-0.105,1.616,0.043,2.408
			c0.078,0.426,0.197,0.848,0.354,1.254c0.089,0.219,0.187,0.437,0.294,0.645c0.102,0.193,0.23,0.422,0.416,0.662
			c0.01,0.02,0.031,0.028,0.053,0.028c0.012,0,0.027-0.003,0.039-0.013c0.244-0.18,0.433-0.363,0.584-0.518
			c0.167-0.17,0.321-0.35,0.465-0.535c0.268-0.345,0.506-0.715,0.699-1.1c0.368-0.717,0.606-1.469,0.729-2.297
			c0.123-0.826,0.108-1.615-0.037-2.407C37.243,74.492,37.12,74.07,36.961,73.66z"/>
		<path fill="#E41B4C" d="M7.937,51.426c0.368-0.225,0.721-0.486,1.045-0.779c0.174-0.158,0.341-0.328,0.498-0.504
			c0.144-0.164,0.314-0.367,0.474-0.626c0.019-0.03,0.011-0.071-0.021-0.091c-0.254-0.166-0.493-0.279-0.693-0.367
			c-0.215-0.093-0.44-0.178-0.663-0.246c-0.419-0.129-0.85-0.217-1.278-0.266c-0.259-0.027-0.52-0.042-0.778-0.042
			c-0.536,0-1.084,0.062-1.626,0.185c-0.818,0.184-1.549,0.475-2.239,0.895c-0.367,0.223-0.72,0.484-1.045,0.777
			c-0.173,0.156-0.34,0.324-0.499,0.5C0.97,51.026,0.8,51.229,0.64,51.484c-0.021,0.033-0.011,0.072,0.018,0.094
			c0.255,0.164,0.495,0.277,0.694,0.364c0.217,0.093,0.44,0.175,0.666,0.244c0.417,0.128,0.847,0.216,1.275,0.264
			c0.262,0.028,0.526,0.043,0.788,0.043c0.532,0,1.076-0.06,1.618-0.177C6.513,52.135,7.246,51.845,7.937,51.426z"/>
		<path fill="#1D1D1B" d="M4.591,45.287c0.379,0.224,0.775,0.41,1.181,0.557c0.757,0.272,1.532,0.412,2.37,0.429
			c0.049,0.003,0.1,0.003,0.152,0.003c0.767,0,1.519-0.116,2.23-0.344c0.415-0.133,0.816-0.304,1.203-0.515
			c0.204-0.111,0.408-0.238,0.6-0.374c0.178-0.125,0.39-0.283,0.606-0.496c0.028-0.025,0.028-0.066,0.004-0.094
			c-0.209-0.221-0.416-0.386-0.591-0.518c-0.186-0.143-0.385-0.275-0.587-0.396c-0.377-0.224-0.775-0.41-1.18-0.556
			c-0.76-0.273-1.536-0.412-2.372-0.425c-0.038,0-0.079-0.001-0.117-0.001c-0.793,0-1.537,0.113-2.268,0.348
			c-0.408,0.131-0.812,0.305-1.198,0.514c-0.206,0.111-0.407,0.237-0.601,0.371c-0.178,0.125-0.39,0.282-0.607,0.494
			c-0.026,0.026-0.026,0.068,0,0.096c0.208,0.22,0.414,0.383,0.586,0.516C4.193,45.037,4.39,45.17,4.591,45.287z"/>
		<path fill="#FDB515" d="M64.743,47.785c0.677,0.434,1.402,0.742,2.215,0.943c0.6,0.146,1.199,0.219,1.788,0.219
			c0.204,0,0.411-0.008,0.612-0.025c0.43-0.036,0.861-0.113,1.283-0.232c0.226-0.064,0.452-0.141,0.671-0.229
			c0.2-0.082,0.444-0.188,0.7-0.346c0.031-0.02,0.042-0.061,0.025-0.092c-0.158-0.261-0.32-0.468-0.461-0.635
			c-0.152-0.18-0.316-0.352-0.486-0.514c-0.316-0.301-0.664-0.572-1.025-0.805c-0.678-0.435-1.402-0.744-2.215-0.949
			c-0.598-0.148-1.204-0.224-1.796-0.224c-0.199,0-0.405,0.007-0.604,0.025c-0.431,0.036-0.862,0.114-1.283,0.231
			c-0.227,0.064-0.452,0.143-0.671,0.231c-0.203,0.083-0.443,0.188-0.703,0.349c-0.031,0.019-0.042,0.059-0.021,0.092
			c0.153,0.263,0.317,0.469,0.457,0.637c0.153,0.18,0.317,0.355,0.485,0.516C64.033,47.279,64.378,47.55,64.743,47.785z"/>
		<path fill="#FDB515" d="M55.655,42.002c-0.34-0.046-0.684-0.068-1.018-0.068c-0.465,0-0.934,0.045-1.391,0.135
			c-0.422,0.084-0.842,0.211-1.248,0.373c-0.218,0.089-0.432,0.19-0.643,0.303c-0.19,0.104-0.418,0.238-0.659,0.424
			c-0.027,0.023-0.034,0.064-0.011,0.095c0.182,0.244,0.367,0.431,0.525,0.582c0.17,0.162,0.352,0.315,0.539,0.459
			c0.349,0.264,0.722,0.495,1.11,0.687c0.723,0.357,1.475,0.586,2.305,0.694c0.337,0.042,0.675,0.067,1.002,0.067
			c0.472,0,0.945-0.049,1.406-0.139c0.423-0.084,0.844-0.209,1.249-0.373c0.218-0.088,0.433-0.188,0.642-0.299
			c0.191-0.105,0.419-0.237,0.657-0.422c0.031-0.024,0.036-0.065,0.013-0.094c-0.184-0.242-0.367-0.431-0.523-0.581
			c-0.172-0.159-0.354-0.313-0.539-0.457c-0.352-0.265-0.726-0.495-1.11-0.687C57.241,42.344,56.485,42.115,55.655,42.002z"/>
		<path fill="#1D1D1B" d="M77.094,60.959c-0.221-0.378-0.478-0.734-0.763-1.059c-0.528-0.604-1.138-1.104-1.862-1.525
			c-0.723-0.42-1.458-0.701-2.248-0.859c-0.425-0.084-0.862-0.13-1.299-0.133h-0.04c-0.222,0-0.444,0.011-0.669,0.033
			c-0.216,0.024-0.479,0.059-0.771,0.143c-0.036,0.009-0.057,0.045-0.047,0.08c0.076,0.295,0.177,0.538,0.265,0.738
			c0.095,0.217,0.204,0.428,0.321,0.63c0.223,0.38,0.477,0.735,0.763,1.061c0.53,0.605,1.142,1.104,1.864,1.521
			c0.728,0.42,1.465,0.698,2.254,0.855c0.422,0.084,0.859,0.131,1.297,0.134c0.018,0,0.035,0,0.05,0
			c0.218,0,0.438-0.012,0.657-0.034c0.217-0.023,0.478-0.057,0.77-0.138c0.034-0.009,0.055-0.045,0.047-0.081
			c-0.076-0.293-0.175-0.537-0.264-0.736C77.321,61.372,77.211,61.161,77.094,60.959z"/>
		<path fill="#1D1D1B" d="M68.079,68.801c-0.275-0.756-0.66-1.442-1.182-2.1c-0.521-0.652-1.102-1.182-1.783-1.617
			c-0.363-0.232-0.754-0.435-1.16-0.597c-0.22-0.085-0.445-0.163-0.672-0.226c-0.21-0.057-0.467-0.118-0.768-0.148
			c-0.038-0.004-0.07,0.021-0.076,0.058c-0.037,0.302-0.034,0.566-0.023,0.783c0.012,0.238,0.035,0.475,0.072,0.706
			c0.068,0.433,0.176,0.857,0.326,1.264c0.273,0.76,0.659,1.443,1.184,2.098c0.523,0.652,1.107,1.18,1.785,1.614
			c0.363,0.231,0.754,0.435,1.16,0.597c0.217,0.088,0.442,0.162,0.67,0.226c0.209,0.058,0.467,0.12,0.768,0.151
			c0.002,0.002,0.005,0.002,0.005,0.002c0.036,0,0.064-0.026,0.068-0.06c0.036-0.302,0.031-0.565,0.023-0.784
			c-0.013-0.234-0.036-0.473-0.073-0.703C68.334,69.633,68.225,69.207,68.079,68.801z"/>
		<path fill="#1D1D1B" d="M59.817,72.052c-0.422-0.72-0.923-1.329-1.533-1.858c-0.327-0.281-0.685-0.535-1.062-0.755
			c-0.206-0.116-0.419-0.225-0.634-0.321c-0.201-0.084-0.445-0.184-0.741-0.256c-0.034-0.011-0.071,0.01-0.081,0.047
			c-0.078,0.293-0.113,0.553-0.137,0.772c-0.021,0.235-0.031,0.474-0.028,0.706c0.005,0.439,0.052,0.875,0.14,1.297
			c0.162,0.793,0.447,1.525,0.871,2.246c0.424,0.723,0.928,1.328,1.537,1.855c0.326,0.281,0.684,0.535,1.062,0.756
			c0.203,0.117,0.416,0.225,0.629,0.32c0.201,0.088,0.443,0.186,0.738,0.26c0.007,0.002,0.011,0.004,0.018,0.004
			c0.028,0,0.057-0.021,0.064-0.051c0.078-0.293,0.111-0.555,0.133-0.771c0.023-0.234,0.033-0.473,0.029-0.707
			c-0.006-0.438-0.055-0.873-0.139-1.297C60.522,73.513,60.239,72.776,59.817,72.052z"/>
		<path fill="#1D1D1B" d="M48.795,74.492c-0.197-0.386-0.433-0.756-0.701-1.102c-0.146-0.185-0.303-0.363-0.469-0.534
			c-0.152-0.155-0.344-0.338-0.586-0.517c-0.031-0.023-0.071-0.016-0.095,0.014c-0.184,0.24-0.312,0.469-0.415,0.664
			c-0.11,0.209-0.209,0.426-0.295,0.643c-0.16,0.41-0.279,0.832-0.358,1.257c-0.144,0.794-0.157,1.581-0.036,2.407
			c0.123,0.828,0.361,1.58,0.727,2.297c0.194,0.385,0.433,0.755,0.701,1.1c0.143,0.186,0.3,0.365,0.463,0.535
			c0.154,0.154,0.341,0.338,0.586,0.518c0.012,0.01,0.025,0.013,0.039,0.013c0.021,0,0.042-0.009,0.054-0.028
			c0.185-0.24,0.313-0.469,0.415-0.662c0.107-0.208,0.205-0.426,0.293-0.645c0.157-0.406,0.277-0.828,0.356-1.254
			c0.146-0.792,0.159-1.578,0.042-2.408C49.395,75.963,49.16,75.213,48.795,74.492z"/>
		<path fill="#1D1D1B" d="M81.584,50.361c-0.325-0.293-0.678-0.555-1.045-0.777c-0.689-0.42-1.421-0.711-2.236-0.895
			c-0.546-0.123-1.092-0.185-1.627-0.185c-0.26,0-0.521,0.015-0.777,0.042c-0.432,0.049-0.858,0.137-1.277,0.266
			c-0.227,0.068-0.449,0.153-0.666,0.246c-0.198,0.088-0.437,0.201-0.693,0.367c-0.029,0.02-0.039,0.061-0.02,0.091
			c0.161,0.259,0.33,0.462,0.473,0.628c0.157,0.174,0.324,0.344,0.499,0.502c0.323,0.293,0.677,0.555,1.046,0.779
			c0.689,0.419,1.422,0.709,2.238,0.891c0.543,0.117,1.085,0.177,1.616,0.177c0.261,0,0.528-0.015,0.788-0.043
			c0.43-0.048,0.859-0.136,1.277-0.264c0.223-0.069,0.447-0.151,0.666-0.244c0.199-0.087,0.438-0.2,0.691-0.364
			c0.029-0.021,0.04-0.061,0.02-0.094c-0.16-0.256-0.329-0.458-0.473-0.623C81.924,50.686,81.758,50.518,81.584,50.361z"/>
		<path fill="#E41B4C" d="M75.055,46.272c0.836-0.017,1.611-0.156,2.369-0.429c0.404-0.146,0.803-0.333,1.18-0.557
			c0.201-0.117,0.398-0.25,0.59-0.391c0.172-0.133,0.379-0.296,0.589-0.516c0.023-0.027,0.023-0.069-0.004-0.096
			c-0.216-0.212-0.429-0.369-0.606-0.494c-0.193-0.134-0.395-0.26-0.602-0.371c-0.385-0.209-0.789-0.383-1.199-0.514
			c-0.729-0.234-1.47-0.348-2.266-0.348c-0.039,0-0.078,0.001-0.117,0.001c-0.834,0.013-1.612,0.151-2.37,0.425
			c-0.408,0.146-0.804,0.332-1.181,0.556c-0.202,0.12-0.398,0.253-0.59,0.396c-0.172,0.132-0.378,0.297-0.586,0.518
			c-0.026,0.027-0.026,0.068,0.001,0.094c0.216,0.213,0.427,0.371,0.606,0.496c0.193,0.136,0.395,0.263,0.601,0.374
			c0.386,0.211,0.79,0.382,1.198,0.515c0.715,0.228,1.465,0.344,2.236,0.344C74.954,46.275,75.004,46.275,75.055,46.272z"/>
		<path fill="#FDB515" d="M23.381,10.542c0.419,0.721,0.922,1.328,1.531,1.858c0.326,0.281,0.684,0.536,1.063,0.755
			c0.203,0.118,0.417,0.225,0.632,0.32c0.201,0.085,0.444,0.184,0.74,0.258c0.006,0.001,0.01,0.002,0.016,0.002
			c0.029,0,0.056-0.02,0.065-0.05c0.079-0.294,0.112-0.554,0.136-0.772c0.023-0.235,0.033-0.473,0.029-0.706
			c-0.006-0.439-0.053-0.876-0.137-1.298c-0.164-0.791-0.449-1.525-0.874-2.245c-0.425-0.722-0.927-1.328-1.537-1.856
			c-0.325-0.281-0.681-0.536-1.06-0.755c-0.205-0.117-0.417-0.225-0.632-0.32c-0.2-0.087-0.444-0.187-0.737-0.26
			c-0.035-0.009-0.073,0.012-0.082,0.048c-0.078,0.292-0.111,0.554-0.134,0.771c-0.021,0.235-0.031,0.472-0.029,0.707
			c0.008,0.438,0.053,0.874,0.139,1.296C22.676,9.083,22.959,9.818,23.381,10.542z"/>
		<path fill="#E41B4C" d="M39.131,40.545c-0.33-0.194-0.682-0.355-1.037-0.481c-0.67-0.235-1.356-0.353-2.092-0.356
			c-0.74-0.006-1.429,0.1-2.109,0.325c-0.361,0.118-0.717,0.275-1.059,0.463c-0.183,0.1-0.361,0.211-0.533,0.333
			c-0.146,0.103-0.312,0.229-0.49,0.396c0.168,0.167,0.33,0.298,0.472,0.403c0.166,0.123,0.338,0.238,0.517,0.341
			c0.33,0.195,0.679,0.356,1.037,0.482c0.67,0.235,1.354,0.353,2.096,0.361c0.734,0.009,1.426-0.097,2.104-0.321
			c0.364-0.119,0.723-0.275,1.061-0.463c0.183-0.102,0.361-0.213,0.532-0.334c0.146-0.104,0.314-0.231,0.488-0.398
			c-0.167-0.17-0.33-0.3-0.469-0.406C39.483,40.765,39.309,40.651,39.131,40.545z"/>
		<path fill="#1D1D1B" d="M44.824,41.986c0.341,0.201,0.699,0.369,1.065,0.502c0.686,0.244,1.385,0.371,2.141,0.387
			c0.753,0.016,1.457-0.086,2.148-0.309c0.371-0.117,0.734-0.272,1.079-0.462c0.187-0.103,0.366-0.214,0.54-0.335
			c0.148-0.105,0.318-0.233,0.496-0.401c-0.172-0.174-0.342-0.31-0.484-0.418c-0.17-0.128-0.35-0.247-0.529-0.355
			c-0.341-0.2-0.699-0.369-1.064-0.5c-0.689-0.246-1.389-0.372-2.14-0.382c-0.757-0.013-1.461,0.089-2.152,0.312
			c-0.366,0.117-0.73,0.273-1.076,0.462c-0.187,0.1-0.366,0.213-0.54,0.334c-0.148,0.103-0.32,0.23-0.498,0.399
			c0.174,0.172,0.34,0.306,0.486,0.415C44.465,41.762,44.643,41.881,44.824,41.986z"/>
	</g>
</g>
</svg>
