<?xml version="1.0" encoding="utf-8"?>
<!-- Generator: Adobe Illustrator 16.0.0, SVG Export Plug-In . SVG Version: 6.00 Build 0)  -->
<!DOCTYPE svg PUBLIC "-//W3C//DTD SVG 1.1//EN" "http://www.w3.org/Graphics/SVG/1.1/DTD/svg11.dtd">
<svg version="1.1" id="Layer_1" xmlns="http://www.w3.org/2000/svg" xmlns:xlink="http://www.w3.org/1999/xlink" x="0px" y="0px"
	 width="412.319px" height="412.232px" viewBox="0 0 412.319 412.232" enable-background="new 0 0 412.319 412.232"
	 xml:space="preserve">
<symbol  id="New_Symbol" viewBox="-52 -50.778 105 101.557">
	<g>
		<g>
			<path fill="none" stroke="#E41B4C" stroke-miterlimit="10" d="M-51.402-50.778c0,53.335,43.236,96.571,96.572,96.571"/>
			<g>
				<polygon fill="#E41B4C" points="44,40.807 52.635,45.792 44,50.779 				"/>
			</g>
		</g>
	</g>
	<polygon display="none" fill="none" points="-52,50 53,50 53,-50 -52,-50 	"/>
</symbol>
<g>
	<path fill="#010101" d="M189.199,72.343h-3.63v3.367h4.046v1.011h-5.251v-9.338h5.043v1.012h-3.838v2.951h3.63V72.343z"/>
	<path fill="#010101" d="M197.703,76.416c-0.443,0.222-1.33,0.443-2.466,0.443c-2.632,0-4.614-1.663-4.614-4.725
		c0-2.923,1.981-4.905,4.877-4.905c1.164,0,1.898,0.25,2.217,0.416l-0.291,0.984c-0.458-0.222-1.108-0.388-1.884-0.388
		c-2.189,0-3.644,1.399-3.644,3.852c0,2.286,1.316,3.754,3.588,3.754c0.734,0,1.482-0.152,1.967-0.388L197.703,76.416z"/>
	<path fill="#010101" d="M206.899,71.955c0,3.214-1.953,4.918-4.336,4.918c-2.466,0-4.198-1.912-4.198-4.738
		c0-2.965,1.842-4.905,4.336-4.905C205.251,67.23,206.899,69.184,206.899,71.955z M199.653,72.107c0,1.995,1.081,3.783,2.979,3.783
		c1.912,0,2.993-1.76,2.993-3.88c0-1.856-0.97-3.796-2.979-3.796C200.651,68.214,199.653,70.057,199.653,72.107z"/>
	<path fill="#010101" d="M209.666,67.382v5.528c0,2.092,0.928,2.979,2.175,2.979c1.385,0,2.272-0.915,2.272-2.979v-5.528h1.22v5.445
		c0,2.868-1.51,4.045-3.533,4.045c-1.912,0-3.353-1.095-3.353-3.99v-5.5H209.666z"/>
	<path fill="#010101" d="M219.194,68.408h-2.84v-1.025h6.914v1.025h-2.854v8.313h-1.22V68.408z"/>
	<path fill="#010101" d="M229.139,72.343h-3.63v3.367h4.046v1.011h-5.251v-9.338h5.043v1.012h-3.838v2.951h3.63V72.343z"/>
	<path fill="#010101" d="M234.053,67.507c0.734-0.111,1.607-0.194,2.563-0.194c1.732,0,2.965,0.402,3.782,1.164
		c0.832,0.762,1.316,1.843,1.316,3.353c0,1.524-0.471,2.771-1.344,3.63c-0.873,0.873-2.314,1.344-4.129,1.344
		c-0.859,0-1.58-0.042-2.189-0.111V67.507z M235.258,75.765c0.305,0.056,0.748,0.069,1.219,0.069c2.577,0,3.977-1.441,3.977-3.962
		c0.014-2.203-1.233-3.603-3.783-3.603c-0.624,0-1.094,0.056-1.413,0.125V75.765z"/>
	<path fill="#010101" d="M248.112,72.343h-3.63v3.367h4.046v1.011h-5.251v-9.338h5.043v1.012h-3.838v2.951h3.63V72.343z"/>
	<path fill="#010101" d="M249.924,75.252c0.541,0.333,1.33,0.61,2.161,0.61c1.233,0,1.954-0.651,1.954-1.593
		c0-0.873-0.499-1.372-1.759-1.857c-1.524-0.54-2.466-1.33-2.466-2.646c0-1.455,1.206-2.536,3.021-2.536
		c0.956,0,1.648,0.222,2.064,0.458l-0.333,0.983c-0.305-0.166-0.929-0.443-1.773-0.443c-1.275,0-1.76,0.762-1.76,1.399
		c0,0.873,0.568,1.302,1.856,1.801c1.58,0.609,2.383,1.372,2.383,2.743c0,1.441-1.067,2.688-3.27,2.688
		c-0.9,0-1.884-0.263-2.383-0.596L249.924,75.252z"/>
	<path fill="#010101" d="M173.859,84.126c0.527-0.111,1.358-0.194,2.203-0.194c1.206,0,1.981,0.208,2.563,0.679
		c0.485,0.36,0.775,0.915,0.775,1.648c0,0.901-0.596,1.69-1.579,2.051v0.028c0.887,0.222,1.926,0.956,1.926,2.341
		c0,0.804-0.319,1.413-0.79,1.871c-0.651,0.596-1.704,0.873-3.228,0.873c-0.831,0-1.469-0.055-1.871-0.111V84.126z M175.065,87.95
		h1.095c1.274,0,2.023-0.665,2.023-1.565c0-1.095-0.832-1.524-2.051-1.524c-0.554,0-0.873,0.042-1.067,0.083V87.95z M175.065,92.425
		c0.236,0.042,0.582,0.056,1.011,0.056c1.247,0,2.397-0.458,2.397-1.815c0-1.275-1.094-1.801-2.411-1.801h-0.998V92.425z"/>
	<path fill="#010101" d="M186.201,88.961h-3.63v3.367h4.046v1.011h-5.251v-9.338h5.043v1.012h-3.838v2.951h3.63V88.961z"/>
	<path fill="#010101" d="M188.013,91.871c0.541,0.333,1.33,0.61,2.161,0.61c1.233,0,1.954-0.651,1.954-1.593
		c0-0.873-0.499-1.372-1.759-1.857c-1.524-0.54-2.466-1.33-2.466-2.646c0-1.455,1.206-2.536,3.021-2.536
		c0.956,0,1.648,0.222,2.064,0.457l-0.333,0.984c-0.305-0.166-0.929-0.443-1.773-0.443c-1.275,0-1.76,0.762-1.76,1.399
		c0,0.873,0.568,1.302,1.856,1.801c1.58,0.609,2.383,1.372,2.383,2.743c0,1.441-1.067,2.688-3.27,2.688
		c-0.9,0-1.884-0.263-2.383-0.596L188.013,91.871z"/>
	<path fill="#010101" d="M202.987,88.573c0,3.214-1.954,4.918-4.337,4.918c-2.466,0-4.198-1.912-4.198-4.738
		c0-2.965,1.843-4.905,4.337-4.905C201.338,83.849,202.987,85.802,202.987,88.573z M195.741,88.726c0,1.995,1.081,3.782,2.979,3.782
		c1.912,0,2.993-1.759,2.993-3.879c0-1.857-0.97-3.796-2.979-3.796C196.738,84.833,195.741,86.675,195.741,88.726z"/>
	<path fill="#010101" d="M205.754,84.001v9.338h-1.205v-9.338H205.754z"/>
	<path fill="#010101" d="M207.858,93.339v-9.338h1.316l2.993,4.725c0.693,1.095,1.233,2.078,1.676,3.034l0.028-0.014
		c-0.111-1.247-0.138-2.383-0.138-3.838v-3.907h1.136v9.338h-1.219l-2.965-4.738c-0.651-1.039-1.275-2.106-1.746-3.118l-0.042,0.014
		c0.069,1.178,0.097,2.3,0.097,3.852v3.99H207.858z"/>
	<path fill="#010101" d="M216.805,91.871c0.541,0.333,1.33,0.61,2.161,0.61c1.233,0,1.954-0.651,1.954-1.593
		c0-0.873-0.499-1.372-1.759-1.857c-1.524-0.54-2.466-1.33-2.466-2.646c0-1.455,1.206-2.536,3.021-2.536
		c0.956,0,1.648,0.222,2.064,0.457l-0.333,0.984c-0.305-0.166-0.929-0.443-1.773-0.443c-1.275,0-1.76,0.762-1.76,1.399
		c0,0.873,0.568,1.302,1.856,1.801c1.58,0.609,2.383,1.372,2.383,2.743c0,1.441-1.067,2.688-3.27,2.688
		c-0.9,0-1.884-0.263-2.383-0.596L216.805,91.871z"/>
	<path fill="#010101" d="M233.26,93.035c-0.443,0.222-1.33,0.443-2.466,0.443c-2.632,0-4.614-1.663-4.614-4.725
		c0-2.923,1.981-4.905,4.877-4.905c1.164,0,1.898,0.25,2.217,0.416l-0.291,0.984c-0.458-0.222-1.108-0.388-1.884-0.388
		c-2.189,0-3.644,1.399-3.644,3.852c0,2.286,1.316,3.754,3.588,3.754c0.734,0,1.482-0.152,1.967-0.388L233.26,93.035z"/>
	<path fill="#010101" d="M234.767,84.001h1.205v8.327h3.99v1.011h-5.195V84.001z"/>
	<path fill="#010101" d="M242.508,84.001v9.338h-1.206v-9.338H242.508z"/>
	<path fill="#010101" d="M249.448,88.961h-3.63v3.367h4.046v1.011h-5.251v-9.338h5.043v1.012h-3.838v2.951h3.63V88.961z"/>
	<path fill="#010101" d="M251.427,93.339v-9.338h1.316l2.993,4.725c0.693,1.095,1.233,2.078,1.677,3.034l0.027-0.014
		c-0.111-1.247-0.139-2.383-0.139-3.838v-3.907h1.136v9.338h-1.219l-2.965-4.738c-0.651-1.039-1.274-2.106-1.746-3.118l-0.042,0.014
		c0.069,1.178,0.097,2.3,0.097,3.852v3.99H251.427z"/>
	<path fill="#010101" d="M262.312,85.026h-2.84v-1.025h6.914v1.025h-2.854v8.313h-1.219V85.026z"/>
</g>
<g>
	<path fill="#010101" d="M173.832,368.424c0.609-0.125,1.482-0.194,2.313-0.194c1.289,0,2.12,0.236,2.702,0.762
		c0.471,0.416,0.734,1.053,0.734,1.773c0,1.233-0.776,2.051-1.759,2.383v0.042c0.72,0.249,1.15,0.914,1.372,1.884
		c0.305,1.302,0.526,2.203,0.72,2.563h-1.247c-0.152-0.263-0.36-1.067-0.623-2.23c-0.277-1.289-0.776-1.773-1.871-1.815h-1.136
		v4.046h-1.205V368.424z M175.037,372.678h1.233c1.288,0,2.105-0.707,2.105-1.773c0-1.206-0.873-1.732-2.147-1.746
		c-0.582,0-0.998,0.056-1.191,0.111V372.678z"/>
	<path fill="#010101" d="M186.118,373.26h-3.63v3.367h4.046v1.011h-5.251v-9.338h5.043v1.012h-3.838v2.951h3.63V373.26z
		 M185.882,366.18l-1.76,1.621h-0.998l1.289-1.621H185.882z"/>
	<path fill="#010101" d="M189.606,374.7l-0.97,2.938h-1.247l3.173-9.338h1.455l3.187,9.338h-1.289l-0.998-2.938H189.606z
		 M192.668,373.758l-0.914-2.688c-0.208-0.609-0.347-1.164-0.485-1.704h-0.027c-0.139,0.554-0.291,1.122-0.471,1.69l-0.915,2.702
		H192.668z"/>
	<path fill="#010101" d="M196.571,368.299h1.206v8.327h3.99v1.011h-5.196V368.299z"/>
	<path fill="#010101" d="M204.313,368.299v9.338h-1.205v-9.338H204.313z"/>
	<path fill="#010101" d="M206.251,376.169c0.541,0.333,1.33,0.61,2.162,0.61c1.233,0,1.953-0.651,1.953-1.593
		c0-0.873-0.499-1.372-1.759-1.857c-1.524-0.54-2.466-1.33-2.466-2.646c0-1.455,1.206-2.536,3.021-2.536
		c0.956,0,1.648,0.222,2.064,0.458l-0.333,0.983c-0.305-0.166-0.928-0.443-1.773-0.443c-1.275,0-1.76,0.762-1.76,1.399
		c0,0.873,0.568,1.302,1.856,1.801c1.58,0.609,2.383,1.372,2.383,2.743c0,1.441-1.067,2.688-3.27,2.688
		c-0.9,0-1.884-0.263-2.383-0.596L206.251,376.169z"/>
	<path fill="#010101" d="M214.755,374.7l-0.97,2.938h-1.247l3.173-9.338h1.455l3.187,9.338h-1.289l-0.998-2.938H214.755z
		 M217.817,373.758l-0.914-2.688c-0.208-0.609-0.347-1.164-0.485-1.704h-0.027c-0.139,0.554-0.291,1.122-0.471,1.69l-0.915,2.702
		H217.817z"/>
	<path fill="#010101" d="M222.428,369.325h-2.84v-1.025h6.914v1.025h-2.854v8.313h-1.22V369.325z"/>
	<path fill="#010101" d="M228.743,368.299v9.338h-1.206v-9.338H228.743z"/>
	<path fill="#010101" d="M238.828,372.872c0,3.214-1.954,4.918-4.337,4.918c-2.466,0-4.198-1.912-4.198-4.738
		c0-2.965,1.843-4.905,4.337-4.905C237.179,368.147,238.828,370.101,238.828,372.872z M231.582,373.024
		c0,1.995,1.081,3.783,2.979,3.783c1.912,0,2.993-1.76,2.993-3.88c0-1.856-0.97-3.796-2.979-3.796
		C232.579,369.131,231.582,370.974,231.582,373.024z"/>
	<path fill="#010101" d="M240.39,377.638v-9.338h1.316l2.993,4.725c0.693,1.095,1.233,2.078,1.677,3.034l0.027-0.014
		c-0.111-1.247-0.139-2.383-0.139-3.838v-3.907h1.136v9.338h-1.219l-2.965-4.738c-0.651-1.039-1.274-2.106-1.746-3.118l-0.042,0.014
		c0.069,1.178,0.097,2.3,0.097,3.852v3.99H240.39z"/>
	<path fill="#010101" d="M257.273,373.26h-3.63v3.367h4.046v1.011h-5.251v-9.338h5.043v1.012h-3.838v2.951h3.63V373.26z"/>
	<path fill="#010101" d="M261.246,369.325h-2.84v-1.025h6.914v1.025h-2.854v8.313h-1.219V369.325z"/>
	<path fill="#010101" d="M183.045,390.155c-0.069-1.302-0.153-2.868-0.139-4.032h-0.042c-0.319,1.094-0.707,2.258-1.178,3.547
		l-1.649,4.531h-0.915l-1.51-4.448c-0.443-1.316-0.817-2.521-1.081-3.63h-0.028c-0.027,1.164-0.097,2.729-0.18,4.129l-0.25,4.004
		h-1.15l0.651-9.338h1.538l1.593,4.517c0.388,1.15,0.707,2.175,0.942,3.146h0.042c0.235-0.942,0.568-1.968,0.983-3.146l1.663-4.517
		h1.538l0.582,9.338h-1.178L183.045,390.155z"/>
	<path fill="#010101" d="M187.515,384.918v9.338h-1.205v-9.338H187.515z"/>
	<path fill="#010101" d="M189.453,392.788c0.541,0.333,1.33,0.61,2.161,0.61c1.233,0,1.954-0.651,1.954-1.593
		c0-0.873-0.499-1.372-1.759-1.857c-1.524-0.54-2.466-1.33-2.466-2.646c0-1.455,1.206-2.536,3.021-2.536
		c0.956,0,1.648,0.222,2.064,0.457l-0.333,0.984c-0.305-0.166-0.929-0.443-1.773-0.443c-1.275,0-1.76,0.762-1.76,1.399
		c0,0.873,0.568,1.302,1.856,1.801c1.58,0.609,2.383,1.372,2.383,2.743c0,1.441-1.067,2.688-3.27,2.688
		c-0.9,0-1.884-0.263-2.383-0.596L189.453,392.788z"/>
	<path fill="#010101" d="M201.282,389.878h-3.63v3.367h4.046v1.011h-5.251v-9.338h5.043v1.012h-3.838v2.951h3.63V389.878z"/>
	<path fill="#010101" d="M211.031,389.878h-3.63v3.367h4.046v1.011h-5.251v-9.338h5.043v1.012h-3.838v2.951h3.63V389.878z"/>
	<path fill="#010101" d="M213.01,394.256v-9.338h1.316l2.993,4.725c0.693,1.095,1.233,2.078,1.677,3.034l0.027-0.014
		c-0.111-1.247-0.139-2.383-0.139-3.838v-3.907h1.136v9.338h-1.219l-2.965-4.738c-0.651-1.039-1.274-2.106-1.746-3.118l-0.042,0.014
		c0.069,1.178,0.097,2.3,0.097,3.852v3.99H213.01z"/>
	<path fill="#010101" d="M225.058,385.029c0.582-0.097,1.344-0.18,2.314-0.18c1.191,0,2.064,0.277,2.619,0.776
		c0.513,0.443,0.817,1.123,0.817,1.954c0,0.845-0.25,1.51-0.72,1.995c-0.638,0.679-1.677,1.025-2.854,1.025
		c-0.36,0-0.692-0.014-0.97-0.083v3.741h-1.206V385.029z M226.263,389.532c0.263,0.069,0.596,0.097,0.998,0.097
		c1.455,0,2.342-0.707,2.342-1.995c0-1.233-0.873-1.829-2.203-1.829c-0.526,0-0.928,0.042-1.136,0.097V389.532z"/>
	<path fill="#010101" d="M232.426,384.918h1.205v8.327h3.99v1.011h-5.195V384.918z"/>
	<path fill="#010101" d="M240.472,391.319l-0.97,2.937h-1.247l3.173-9.338h1.455l3.187,9.338h-1.289l-0.998-2.937H240.472z
		 M243.534,390.377l-0.914-2.688c-0.208-0.609-0.347-1.164-0.485-1.704h-0.027c-0.139,0.554-0.291,1.123-0.471,1.69l-0.915,2.702
		H243.534z"/>
	<path fill="#010101" d="M253.755,393.952c-0.443,0.222-1.33,0.443-2.466,0.443c-2.632,0-4.613-1.663-4.613-4.725
		c0-2.923,1.981-4.905,4.877-4.905c1.164,0,1.898,0.25,2.217,0.416l-0.291,0.984c-0.458-0.222-1.108-0.388-1.884-0.388
		c-2.189,0-3.644,1.399-3.644,3.852c0,2.286,1.316,3.754,3.588,3.754c0.734,0,1.482-0.152,1.967-0.388L253.755,393.952z"/>
	<path fill="#010101" d="M260.097,389.878h-3.63v3.367h4.046v1.011h-5.251v-9.338h5.043v1.012h-3.838v2.951h3.63V389.878z"/>
	<path fill="#010101" d="M186.164,401.662c0.734-0.111,1.607-0.194,2.563-0.194c1.732,0,2.965,0.402,3.782,1.164
		c0.832,0.762,1.316,1.843,1.316,3.353c0,1.524-0.471,2.771-1.344,3.63c-0.873,0.873-2.314,1.344-4.129,1.344
		c-0.859,0-1.58-0.042-2.189-0.111V401.662z M187.37,409.919c0.305,0.056,0.748,0.069,1.219,0.069c2.577,0,3.977-1.441,3.977-3.962
		c0.014-2.203-1.233-3.603-3.783-3.603c-0.624,0-1.094,0.056-1.413,0.125V409.919z"/>
	<path fill="#010101" d="M200.223,406.497h-3.63v3.367h4.046v1.011h-5.251v-9.338h5.043v1.012h-3.838v2.951h3.63V406.497z"/>
	<path fill="#010101" d="M202.035,409.406c0.541,0.333,1.33,0.61,2.162,0.61c1.233,0,1.953-0.651,1.953-1.593
		c0-0.873-0.499-1.372-1.759-1.857c-1.524-0.54-2.466-1.33-2.466-2.646c0-1.455,1.206-2.536,3.021-2.536
		c0.956,0,1.648,0.222,2.064,0.458l-0.333,0.983c-0.305-0.166-0.928-0.443-1.773-0.443c-1.275,0-1.76,0.762-1.76,1.399
		c0,0.873,0.568,1.302,1.856,1.801c1.58,0.609,2.383,1.372,2.383,2.743c0,1.441-1.067,2.688-3.27,2.688
		c-0.9,0-1.884-0.263-2.383-0.596L202.035,409.406z"/>
	<path fill="#010101" d="M219.945,406.109c0,3.214-1.954,4.918-4.337,4.918c-2.466,0-4.198-1.912-4.198-4.738
		c0-2.965,1.843-4.905,4.337-4.905C218.296,401.384,219.945,403.338,219.945,406.109z M212.699,406.261
		c0,1.995,1.081,3.783,2.979,3.783c1.912,0,2.993-1.76,2.993-3.88c0-1.856-0.97-3.796-2.979-3.796
		C213.696,402.368,212.699,404.211,212.699,406.261z"/>
	<path fill="#010101" d="M222.711,401.537v5.528c0,2.092,0.928,2.979,2.175,2.979c1.386,0,2.272-0.915,2.272-2.979v-5.528h1.219
		v5.445c0,2.868-1.51,4.045-3.533,4.045c-1.912,0-3.353-1.095-3.353-3.99v-5.5H222.711z"/>
	<path fill="#010101" d="M232.24,402.562h-2.84v-1.025h6.914v1.025h-2.854v8.313h-1.219V402.562z"/>
	<path fill="#010101" d="M238.555,401.537v9.338h-1.205v-9.338H238.555z"/>
	<path fill="#010101" d="M240.659,401.537h1.205v8.327h3.99v1.011h-5.195V401.537z"/>
	<path fill="#010101" d="M247.029,409.406c0.541,0.333,1.33,0.61,2.161,0.61c1.233,0,1.954-0.651,1.954-1.593
		c0-0.873-0.499-1.372-1.759-1.857c-1.524-0.54-2.466-1.33-2.466-2.646c0-1.455,1.206-2.536,3.021-2.536
		c0.956,0,1.648,0.222,2.064,0.458l-0.333,0.983c-0.305-0.166-0.929-0.443-1.773-0.443c-1.275,0-1.76,0.762-1.76,1.399
		c0,0.873,0.568,1.302,1.856,1.801c1.58,0.609,2.383,1.372,2.383,2.743c0,1.441-1.067,2.688-3.27,2.688
		c-0.9,0-1.884-0.263-2.383-0.596L247.029,409.406z"/>
</g>
<g>
	
		<path fill="none" stroke="#E41B4C" stroke-width="0.8146" stroke-linecap="round" stroke-linejoin="round" stroke-miterlimit="10" d="
		M212.063,22.49c0.837-0.367,1.156-1.234,1.762-1.828c0.915-0.896,1.966-1.477,3.254-1.456c1.734,0.028,3.754,1.21,4.272,2.99
		c0.369,1.264,0.089,2.477-0.441,3.636c-0.775,1.695-1.944,3.11-3.241,4.428c-0.491,0.5-0.514,0.709-0.147,1.278
		c0.096,0.149,0.208,0.289,0.293,0.444c0.642,1.169,1.287,2.331,1.483,3.686c0.167,1.144-0.123,2.225-1.329,2.864
		c-0.934,0.496-1.924,0.494-2.904,0.405c-0.534-0.049-0.818-0.584-1.092-1.05c-0.605-1.028-0.839-2.18-1.171-3.3
		c-0.254-0.854-0.477-1.718-0.781-2.559c-0.291-0.81-0.805-1.277-1.678-1.381c-1.173-0.14-2.337-0.297-3.493,0.103
		c-1.178,0.407-1.758,1.274-1.97,2.46c-0.264,1.48,0.095,2.881,0.496,4.278c0.552,1.928,1.369,3.743,2.306,5.511
		c0.398,0.751,0.684,1.554,1.178,2.265c1.282,1.844,3.12,2.809,5.224,3.325c0.989,0.243,2.021,0.355,3.045,0.302
		c2.577-0.134,4.994-0.771,7.025-2.46c0.475-0.396,0.846-0.901,1.145-1.463c1.298-2.434,2.197-5.015,2.898-7.674
		c0.471-1.786,0.854-3.596,1.56-5.316c0.53-1.288,1.211-2.494,1.833-3.732c1.399-2.784,2.552-5.66,3.236-8.707
		c0.312-1.391,0.5-2.797,0.558-4.228c0.097-2.417-0.291-4.73-1.292-6.934c-1.085-2.391-2.789-4.225-5.01-5.614
		c-1.671-1.046-3.492-1.643-5.416-1.955c-1.919-0.313-3.854-0.556-5.801-0.487c-3.437,0.12-6.688,0.869-9.441,3.09
		c-1.271,1.026-2.282,2.264-3.112,3.679c-0.996,1.697-1.634,3.515-2.043,5.418c-0.23,1.067-0.371,2.15-0.476,3.242
		c-0.064,0.674-0.119,1.354-0.097,2.018c0.033,0.998-0.045,2,0.097,3.004c0.081,0.573,0.159,1.173,0.072,1.767"/>
	
		<path fill-rule="evenodd" clip-rule="evenodd" fill="none" stroke="#E41B4C" stroke-width="0.8146" stroke-linecap="round" stroke-linejoin="round" stroke-miterlimit="10" d="
		M227.308,22.294c-0.035-0.473,0.106-0.92,0.194-1.378c0.249-1.298,0.402-2.603,0.412-3.933c0.009-1.263-0.114-2.484-0.501-3.69
		c-0.732-2.277-2.216-3.826-4.435-4.666c-2.681-1.015-5.416-1.117-8.105-0.132c-2.482,0.909-3.913,2.765-4.397,5.387
		c-0.306,1.66-0.162,3.289,0.12,4.918c0.14,0.818,0.339,1.628,0.629,2.412c0.115,0.312,0.174,0.658,0.446,0.881
		c0.463,0.38,0.344,0.896,0.328,1.379c-0.003,0.087-0.011,0.198-0.035,0.295"/>
</g>
<g>
	
		<path fill="none" stroke="#E41B4C" stroke-width="0.8146" stroke-linecap="round" stroke-linejoin="round" stroke-miterlimit="10" d="
		M222.28,316.014c-0.231-0.033-0.428,0.1-0.602,0.193c-0.288,0.152-0.393,0.027-0.574-0.163c-2.274-2.372-4.609-4.683-6.961-6.98
		c-1.732-1.691-3.429-3.421-5.142-5.135c-2.068-2.068-4.139-4.136-6.206-6.208c-0.694-0.695-1.426-1.343-2.394-1.623
		c-2.766-0.8-5.558,0.827-6.079,3.715c-0.317,1.76,0.321,3.276,1.644,4.533c1.618,1.536,3.165,3.146,4.742,4.723
		c4.392,4.393,8.784,8.785,13.179,13.176c0.262,0.263,0.541,0.51,0.813,0.765"/>
	
		<path fill-rule="evenodd" clip-rule="evenodd" fill="none" stroke="#E41B4C" stroke-width="0.8146" stroke-linecap="round" stroke-linejoin="round" stroke-miterlimit="10" d="
		M217.956,326.317c0.016,0.259-0.035,0.459-0.246,0.669c-5.268,5.248-10.523,10.507-15.781,15.763
		c-0.68,0.681-1.424,1.252-2.39,1.479c-2.931,0.687-5.423-1.583-5.462-4.124c-0.02-1.354,0.433-2.48,1.347-3.401
		c4.563-4.595,9.148-9.169,13.741-13.734c0.185-0.184,0.263-0.341,0.269-0.57"/>
	
		<path fill-rule="evenodd" clip-rule="evenodd" fill="none" stroke="#E41B4C" stroke-width="0.8146" stroke-linecap="round" stroke-linejoin="round" stroke-miterlimit="10" d="
		M217.447,321.178c1.438,1.646,3.046,3.127,4.582,4.677c2.431,2.454,4.857,4.912,7.338,7.315c0.79,0.767,1.332,1.612,1.621,2.658
		c0.143,0.521,0.369,1.019,0.551,1.528c0.099,0.275,0.247,0.507,0.457,0.716c1.888,1.877,3.755,3.776,5.656,5.637
		c0.831,0.814,0.977,0.802,1.821,0.002c0.904-0.859,1.766-1.762,2.653-2.639c0.257-0.253,0.453-0.545,0.6-0.861
		c-0.155-0.382-0.412-0.686-0.701-0.974c-1.684-1.676-3.377-3.34-5.031-5.044c-0.574-0.592-1.191-1.045-1.991-1.271
		c-0.571-0.162-1.115-0.42-1.683-0.596c-0.458-0.141-0.832-0.373-1.173-0.714c-4.181-4.196-8.373-8.383-12.562-12.572"/>
	
		<path fill-rule="evenodd" clip-rule="evenodd" fill="none" stroke="#E41B4C" stroke-width="0.8146" stroke-linecap="round" stroke-linejoin="round" stroke-miterlimit="10" d="
		M198.266,300.624c0.512-0.083,0.866,0.134,1.23,0.5c5.245,5.27,10.506,10.523,15.763,15.781"/>
	
		<path fill-rule="evenodd" clip-rule="evenodd" fill="none" stroke="#E41B4C" stroke-width="0.8146" stroke-linecap="round" stroke-linejoin="round" stroke-miterlimit="10" d="
		M238.46,296.197c1.126,0.008,1.773,0.805,2.436,1.53c1.657,1.815,2.608,3.987,2.834,6.408c0.277,2.984-0.449,5.747-2.324,8.135
		c-1.786,2.275-4.11,3.696-6.965,4.228c-1.612,0.301-3.214,0.213-4.778-0.223c-0.729-0.204-1.232-0.097-1.746,0.466
		c-0.824,0.902-1.707,1.752-2.593,2.597c-0.217,0.207-0.262,0.411-0.246,0.67"/>
	
		<path fill-rule="evenodd" clip-rule="evenodd" fill="none" stroke="#E41B4C" stroke-width="0.8146" stroke-linecap="round" stroke-linejoin="round" stroke-miterlimit="10" d="
		M226.757,295.179c-0.15,0.545-0.266,1.06-1.015,1.138c-0.758,0.08-1.254,0.673-1.727,1.208c-1.343,1.518-2.302,3.246-2.752,5.236
		c-0.473,2.085-0.38,4.14,0.356,6.156c0.031,0.086,0.07,0.168,0.101,0.254c0.291,0.812,0.107,1.446-0.618,1.87
		c-0.29,0.168-0.67,0.049-1.01,0.063"/>
	
		<path fill-rule="evenodd" clip-rule="evenodd" fill="none" stroke="#E41B4C" stroke-width="0.8146" stroke-linecap="round" stroke-linejoin="round" stroke-miterlimit="10" d="
		M226.299,296.248c0.366,0.557,0.472,1.168,0.466,1.831c-0.02,2.154,0.001,4.307-0.015,6.462c-0.004,0.472,0.101,0.841,0.513,1.123
		c1.5,1.024,2.996,2.054,4.476,3.106c0.469,0.333,0.902,0.277,1.325-0.01c1.482-1.006,2.955-2.03,4.429-3.049
		c0.354-0.245,0.469-0.585,0.465-1.017c-0.015-2.29-0.004-4.579-0.009-6.869c-0.002-0.454,0.064-0.885,0.31-1.271
		c0.176-0.275,0.143-0.514-0.049-0.767c-0.134-0.176-0.258-0.369-0.258-0.608"/>
	
		<path fill-rule="evenodd" clip-rule="evenodd" fill="none" stroke="#E41B4C" stroke-width="0.8146" stroke-linecap="round" stroke-linejoin="round" stroke-miterlimit="10" d="
		M221.365,316.344c-0.187,0.464-0.431,0.889-0.814,1.221c-0.409,0.357-0.754,0.769-0.958,1.274c-0.049,0.123-0.095,0.155-0.208,0.21
		c-0.875,0.428-1.558,1.056-1.937,1.976c-0.031,0.075-0.042,0.127-0.151,0.159c-0.551,0.162-0.943,0.555-1.326,0.958
		c-0.259,0.272-0.512,0.561-0.865,0.711c-0.551,0.232-0.714,0.676-0.711,1.224c0,0.136,0,0.272,0,0.407"/>
	
		<path fill-rule="evenodd" clip-rule="evenodd" fill="none" stroke="#E41B4C" stroke-width="0.8146" stroke-linecap="round" stroke-linejoin="round" stroke-miterlimit="10" d="
		M242.785,340.207c0.407,0,0.814,0,1.221,0"/>
</g>
<g>
	<path fill-rule="evenodd" clip-rule="evenodd" fill="#FFFFFF" stroke="#E41B4C" stroke-width="0.8146" stroke-miterlimit="10" d="
		M50.736,217.29c-0.177-0.194-0.346-0.396-0.532-0.581c-1.869-1.873-3.733-3.75-5.617-5.607c-0.341-0.335-0.408-0.641-0.257-1.091
		c2.848-8.509,5.684-17.02,8.514-25.535c0.136-0.41,0.364-0.656,0.761-0.826c4.822-2.055,9.641-4.119,14.454-6.195
		c0.393-0.169,0.662-0.12,0.962,0.181c4.909,4.92,9.824,9.836,14.746,14.744c0.315,0.316,0.365,0.592,0.187,1.003
		c-2.056,4.768-4.103,9.54-6.13,14.32c-0.215,0.507-0.537,0.76-1.043,0.928c-8.344,2.77-16.684,5.552-25.023,8.334
		c-0.279,0.094-0.549,0.215-0.824,0.324C50.868,217.29,50.802,217.29,50.736,217.29z M71.326,194.819
		c-0.142,3.445-3.308,5.374-6.048,4.46c-0.571-0.19-0.896-0.046-1.283,0.345c-4.219,4.241-8.453,8.466-12.683,12.696
		c-0.116,0.116-0.231,0.234-0.343,0.354c-0.095,0.103-0.134,0.214-0.069,0.358c0.214,0.476,0.747,0.717,1.262,0.545
		c7.515-2.502,15.03-5.009,22.545-7.508c0.373-0.124,0.608-0.337,0.763-0.701c1.604-3.765,3.211-7.527,4.837-11.282
		c0.189-0.436,0.116-0.717-0.209-1.042c-3.913-3.896-7.817-7.8-11.712-11.713c-0.341-0.343-0.635-0.402-1.084-0.207
		c-3.678,1.596-7.363,3.176-11.056,4.738c-0.496,0.211-0.786,0.5-0.958,1.019c-2.455,7.411-4.928,14.814-7.396,22.22
		c-0.047,0.14-0.1,0.279-0.128,0.424c-0.062,0.309,0.257,0.815,0.61,0.983c0.317,0.151,0.441-0.134,0.606-0.29
		c0.359-0.337,0.701-0.694,1.05-1.042c3.951-3.951,7.898-7.905,11.858-11.848c0.328-0.327,0.455-0.611,0.282-1.079
		c-0.258-0.698-0.322-1.429-0.196-2.183c0.395-2.361,2.383-4.041,4.759-3.943C69.544,190.241,71.222,192.385,71.326,194.819z"/>
	<path fill-rule="evenodd" clip-rule="evenodd" fill="#FFFFFF" stroke="#E41B4C" stroke-width="0.8146" stroke-miterlimit="10" d="
		M74.45,167.193c6.597,6.597,13.163,13.163,19.729,19.729c0.041,0.13-0.165,0.142-0.327,0.196c-1.807,0.608-3.619,1.201-5.423,1.818
		c-0.398,0.136-0.677,0.048-0.967-0.243c-4.909-4.921-9.825-9.837-14.747-14.747c-0.295-0.295-0.361-0.578-0.228-0.971
		c0.616-1.804,1.211-3.615,1.816-5.422C74.355,167.402,74.377,167.227,74.45,167.193z"/>
	<path fill-rule="evenodd" clip-rule="evenodd" fill="#FFFFFF" stroke="#E41B4C" stroke-width="0.8146" stroke-miterlimit="10" d="
		M74.55,167.049c0.181,0.756,0.362,1.511,0.542,2.268"/>
	<path fill-rule="evenodd" clip-rule="evenodd" fill="#FFFFFF" stroke="#E41B4C" stroke-width="0.8146" stroke-miterlimit="10" d="
		M92.152,186.327c0.74,0.181,1.479,0.361,2.219,0.542"/>
	<path fill-rule="evenodd" clip-rule="evenodd" fill="#FFFFFF" stroke="#E41B4C" stroke-width="0.8146" stroke-miterlimit="10" d="
		M75.241,172.866c-0.928,0.166-1.82,0.49-2.761,0.592"/>
	<path fill-rule="evenodd" clip-rule="evenodd" fill="#FFFFFF" stroke="#E41B4C" stroke-width="0.8146" stroke-miterlimit="10" d="
		M88.553,186.179c-0.166,0.927-0.49,1.82-0.592,2.761"/>
	<path fill-rule="evenodd" clip-rule="evenodd" fill="#FFFFFF" stroke="#E41B4C" stroke-width="0.8146" stroke-miterlimit="10" d="
		M51.229,215.416c-0.159,0.602-0.354,1.196-0.395,1.824"/>
	<path fill-rule="evenodd" clip-rule="evenodd" fill="#FFFFFF" stroke="#E41B4C" stroke-width="0.8146" stroke-miterlimit="10" d="
		M68.535,177.402c-0.006,0.623-0.211,1.214-0.296,1.825"/>
	<path fill-rule="evenodd" clip-rule="evenodd" fill="#FFFFFF" stroke="#E41B4C" stroke-width="0.8146" stroke-miterlimit="10" d="
		M84.016,192.883c-0.605,0.014-1.185,0.187-1.774,0.297"/>
</g>
<g>
	<path fill="#E41B4C" stroke="#FFFEFE" stroke-width="1.7501" stroke-miterlimit="10" d="M402.059,209.796
		c-0.375-1.196-0.796-2.488-1.254-3.852c-3.143-9.355-3.804-19.398-1.921-29.081c3.44-2.554,5.478-6.571,5.478-10.874l-0.008-8.285
		h-3.034v3.15h-2.968v-3.15h-3.033v3.15h-2.967v-3.15h-3.034v3.15h-2.968v-3.15h-3.034v3.15h-2.967v-3.15h-3.034l-0.023,8.285
		c0,4.303,2.037,8.32,5.478,10.874c1.883,9.685,1.221,19.727-1.924,29.083c-0.464,1.387-0.885,2.679-1.252,3.85
		c-0.766,0.562-1.49,1.181-2.164,1.851c-0.93-0.908-1.957-1.726-3.076-2.433c-1.143-4.458-1.822-9.03-2.025-13.612
		c-0.017-0.385-0.05-1.48-0.05-1.48c2.567-2.272,4.024-5.491,4.024-8.946v-1.517h-2.165c0.803-1.554,1.232-3.29,1.232-5.063
		c0-6.081-4.948-11.029-11.029-11.029s-11.029,4.948-11.029,11.029c0,1.773,0.43,3.509,1.231,5.063h-2.164v1.517
		c0,3.471,1.469,6.699,4.055,8.973c-0.112,5.061-0.804,10.116-2.061,15.036c-5.447,3.421-8.806,9.458-8.806,15.91v1.54h64.278
		v-1.493C409.845,219.075,406.944,213.379,402.059,209.796L402.059,209.796z M380.327,165.989v-2.1h21.001v2.1
		c0,3.356-1.601,6.486-4.299,8.466h-12.404C381.926,172.475,380.327,169.345,380.327,165.989L380.327,165.989z M385.968,177.49
		h9.717c-1.701,9.822-0.934,19.955,2.245,29.422c0.269,0.795,0.521,1.565,0.762,2.307h-15.73c0.237-0.734,0.491-1.504,0.76-2.307
		C386.902,197.446,387.67,187.314,385.968,177.49L385.968,177.49z M359.446,194.964h9.824c0.15,4.598,0.762,9.19,1.82,13.684
		h-13.465C358.684,204.154,359.294,199.563,359.446,194.964L359.446,194.964z M356.345,178.595c0-4.407,3.587-7.995,7.995-7.995
		c4.409,0,7.995,3.587,7.995,7.995c0,1.849-0.643,3.641-1.811,5.063h-12.369C356.988,182.236,356.345,180.444,356.345,178.595
		L356.345,178.595z M355.54,186.692h17.602c-0.346,2.029-1.382,3.871-2.967,5.237h-11.667
		C356.922,190.563,355.885,188.723,355.54,186.692L355.54,186.692z M356.105,211.68h16.47c4.207,2.588,6.955,7.028,7.434,11.898
		h-31.335C349.15,218.705,351.9,214.269,356.105,211.68L356.105,211.68z M383.054,223.626c-0.28-3.531-1.561-6.883-3.627-9.684
		c0.604-0.614,1.255-1.181,1.949-1.691h18.892c3.693,2.713,6.039,6.856,6.471,11.374h-23.685V223.626z M383.054,223.626"/>
</g>
<g>
	
		<use xlink:href="#New_Symbol"  width="105" height="101.557" x="-52" y="-50.778" transform="matrix(0.8146 0 0 -0.8146 180.4995 149.9521)" overflow="visible"/>
	<g>
		
			<use xlink:href="#New_Symbol"  width="105" height="101.557" x="-52" y="-50.778" transform="matrix(0 -0.8146 -0.8146 0 176.019 228.5654)" overflow="visible"/>
	</g>
	<g>
		
			<use xlink:href="#New_Symbol"  width="105" height="101.557" x="-52" y="-50.778" transform="matrix(-0.8146 0 0 0.8146 258.7056 233.4536)" overflow="visible"/>
		<g>
			
				<use xlink:href="#New_Symbol"  width="105" height="101.557" x="-52" y="-50.778" transform="matrix(0 0.8146 0.8146 0 263.186 154.8403)" overflow="visible"/>
		</g>
	</g>
</g>
<g>
	<path fill="#010101" d="M350.913,243.042c-0.443,0.222-1.33,0.443-2.467,0.443c-2.632,0-4.613-1.663-4.613-4.725
		c0-2.923,1.981-4.905,4.877-4.905c1.164,0,1.897,0.25,2.217,0.416l-0.291,0.984c-0.457-0.222-1.108-0.388-1.885-0.388
		c-2.188,0-3.644,1.399-3.644,3.852c0,2.286,1.316,3.754,3.589,3.754c0.734,0,1.482-0.152,1.967-0.388L350.913,243.042z"/>
	<path fill="#010101" d="M360.108,238.581c0,3.214-1.953,4.918-4.336,4.918c-2.467,0-4.198-1.912-4.198-4.738
		c0-2.965,1.843-4.905,4.336-4.905C358.459,233.856,360.108,235.81,360.108,238.581z M352.862,238.733
		c0,1.995,1.081,3.783,2.979,3.783c1.912,0,2.993-1.76,2.993-3.88c0-1.856-0.97-3.796-2.979-3.796
		C353.86,234.84,352.862,236.683,352.862,238.733z"/>
	<path fill="#010101" d="M361.669,243.347v-9.338h1.316l2.993,4.725c0.692,1.095,1.232,2.078,1.676,3.034l0.028-0.014
		c-0.111-1.247-0.139-2.383-0.139-3.838v-3.907h1.136v9.338h-1.219l-2.965-4.738c-0.651-1.039-1.275-2.106-1.746-3.118l-0.042,0.014
		c0.069,1.178,0.098,2.3,0.098,3.852v3.99H361.669z"/>
	<path fill="#010101" d="M370.616,241.878c0.54,0.333,1.33,0.61,2.161,0.61c1.233,0,1.954-0.651,1.954-1.593
		c0-0.873-0.499-1.372-1.76-1.857c-1.524-0.54-2.467-1.33-2.467-2.646c0-1.455,1.206-2.536,3.021-2.536
		c0.956,0,1.649,0.222,2.064,0.458l-0.332,0.983c-0.305-0.166-0.929-0.443-1.773-0.443c-1.274,0-1.76,0.762-1.76,1.399
		c0,0.873,0.568,1.302,1.856,1.801c1.58,0.609,2.383,1.372,2.383,2.743c0,1.441-1.066,2.688-3.27,2.688
		c-0.9,0-1.884-0.263-2.383-0.596L370.616,241.878z"/>
	<path fill="#010101" d="M382.445,238.969h-3.63v3.367h4.045v1.011h-5.251v-9.338h5.044v1.012h-3.838v2.951h3.63V238.969z"/>
	<path fill="#010101" d="M385.628,234.008v9.338h-1.206v-9.338H385.628z"/>
	<path fill="#010101" d="M387.732,234.008h1.206v8.327h3.99v1.011h-5.196V234.008z"/>
	<path fill="#010101" d="M402.04,238.969h-3.63v3.367h4.045v1.011h-5.251v-9.338h5.043v1.012h-3.837v2.951h3.63V238.969z"/>
	<path fill="#010101" d="M404.017,243.347v-9.338h1.316l2.993,4.725c0.692,1.095,1.232,2.078,1.676,3.034l0.028-0.014
		c-0.111-1.247-0.139-2.383-0.139-3.838v-3.907h1.136v9.338h-1.219l-2.965-4.738c-0.651-1.039-1.275-2.106-1.746-3.118l-0.042,0.014
		c0.069,1.178,0.098,2.3,0.098,3.852v3.99H404.017z"/>
	<path fill="#010101" d="M347.889,258.497c0.54,0.333,1.33,0.61,2.161,0.61c1.233,0,1.954-0.651,1.954-1.593
		c0-0.873-0.499-1.372-1.76-1.857c-1.524-0.54-2.467-1.33-2.467-2.646c0-1.455,1.206-2.536,3.021-2.536
		c0.956,0,1.649,0.222,2.064,0.458l-0.332,0.983c-0.305-0.166-0.929-0.443-1.773-0.443c-1.274,0-1.76,0.762-1.76,1.399
		c0,0.873,0.568,1.302,1.856,1.801c1.58,0.609,2.383,1.372,2.383,2.743c0,1.441-1.066,2.688-3.27,2.688
		c-0.9,0-1.884-0.263-2.383-0.596L347.889,258.497z"/>
	<path fill="#010101" d="M356.656,251.653h-2.84v-1.025h6.913v1.025h-2.854v8.313h-1.22V251.653z"/>
	<path fill="#010101" d="M361.765,250.752c0.61-0.125,1.482-0.194,2.314-0.194c1.288,0,2.119,0.236,2.701,0.762
		c0.472,0.416,0.734,1.053,0.734,1.773c0,1.233-0.775,2.051-1.76,2.383v0.042c0.721,0.249,1.15,0.914,1.372,1.884
		c0.305,1.302,0.526,2.203,0.721,2.563h-1.247c-0.152-0.263-0.36-1.067-0.624-2.23c-0.277-1.289-0.775-1.773-1.87-1.815h-1.136
		v4.046h-1.206V250.752z M362.971,255.006h1.232c1.289,0,2.106-0.707,2.106-1.773c0-1.206-0.873-1.732-2.147-1.746
		c-0.582,0-0.998,0.056-1.191,0.111V255.006z"/>
	<path fill="#010101" d="M370.795,257.028l-0.97,2.938h-1.247l3.173-9.338h1.454l3.187,9.338h-1.288l-0.998-2.938H370.795z
		 M373.857,256.086l-0.914-2.688c-0.208-0.609-0.347-1.164-0.485-1.704h-0.027c-0.139,0.554-0.291,1.122-0.472,1.69l-0.914,2.702
		H373.857z"/>
	<path fill="#010101" d="M378.467,251.653h-2.84v-1.025h6.913v1.025h-2.854v8.313h-1.22V251.653z"/>
	<path fill="#010101" d="M388.413,255.588h-3.63v3.367h4.045v1.011h-5.251v-9.338h5.043v1.012h-3.837v2.951h3.63V255.588z"/>
	<path fill="#010101" d="M397.498,259.55c-0.54,0.194-1.606,0.513-2.867,0.513c-1.413,0-2.577-0.36-3.492-1.233
		c-0.804-0.776-1.302-2.023-1.302-3.478c0.014-2.785,1.926-4.821,5.057-4.821c1.081,0,1.926,0.235,2.328,0.429l-0.291,0.984
		c-0.499-0.222-1.122-0.402-2.064-0.402c-2.272,0-3.755,1.413-3.755,3.755c0,2.369,1.427,3.769,3.603,3.769
		c0.789,0,1.33-0.111,1.607-0.25v-2.785h-1.898v-0.97h3.075V259.55z"/>
	<path fill="#010101" d="M400.542,250.627v9.338h-1.206v-9.338H400.542z"/>
	<path fill="#010101" d="M407.482,255.588h-3.63v3.367h4.045v1.011h-5.251v-9.338h5.044v1.012h-3.838v2.951h3.63V255.588z"/>
</g>
<g>
	<path fill="#010101" d="M39.687,241.877c0.541,0.333,1.33,0.61,2.162,0.61c1.233,0,1.953-0.651,1.953-1.593
		c0-0.873-0.499-1.372-1.759-1.857c-1.524-0.54-2.466-1.33-2.466-2.646c0-1.455,1.206-2.536,3.021-2.536
		c0.956,0,1.648,0.222,2.064,0.457l-0.333,0.984c-0.305-0.166-0.928-0.443-1.773-0.443c-1.275,0-1.76,0.762-1.76,1.399
		c0,0.873,0.568,1.302,1.856,1.801c1.58,0.609,2.383,1.372,2.383,2.743c0,1.441-1.067,2.688-3.27,2.688
		c-0.9,0-1.884-0.263-2.383-0.596L39.687,241.877z"/>
	<path fill="#010101" d="M47.886,234.008v5.528c0,2.092,0.928,2.979,2.175,2.979c1.386,0,2.272-0.914,2.272-2.979v-5.528h1.219
		v5.445c0,2.868-1.51,4.045-3.533,4.045c-1.912,0-3.353-1.094-3.353-3.99v-5.5H47.886z"/>
	<path fill="#010101" d="M56.846,234.008v9.338H55.64v-9.338H56.846z"/>
	<path fill="#010101" d="M61.001,243.346l-3.048-9.338h1.303l1.455,4.6c0.402,1.261,0.748,2.397,0.998,3.491h0.028
		c0.263-1.081,0.651-2.258,1.067-3.478l1.579-4.614h1.289l-3.339,9.338H61.001z"/>
	<path fill="#010101" d="M67.883,234.008v9.338h-1.205v-9.338H67.883z"/>
	<path fill="#010101" d="M78.771,243.346c-0.263-0.263-0.513-0.526-0.873-0.915c-0.804,0.748-1.704,1.067-2.729,1.067
		c-1.815,0-2.868-1.219-2.868-2.619c0-1.274,0.762-2.147,1.829-2.729v-0.042c-0.485-0.609-0.776-1.289-0.776-1.954
		c0-1.136,0.817-2.3,2.369-2.3c1.164,0,2.064,0.776,2.064,1.981c0,0.983-0.568,1.759-2.05,2.494v0.042
		c0.79,0.915,1.676,1.94,2.272,2.605c0.43-0.651,0.721-1.552,0.901-2.729h1.108c-0.25,1.469-0.651,2.632-1.344,3.45
		c0.499,0.527,0.984,1.053,1.538,1.649H78.771z M77.302,241.739c-0.554-0.61-1.593-1.746-2.632-2.938
		c-0.499,0.319-1.206,0.915-1.206,1.898c0,1.067,0.79,1.884,1.912,1.884C76.18,242.584,76.859,242.224,77.302,241.739z
		 M74.462,236.044c0,0.665,0.305,1.178,0.707,1.677c0.942-0.541,1.552-1.039,1.552-1.829c0-0.568-0.318-1.205-1.081-1.205
		C74.864,234.687,74.462,235.324,74.462,236.044z"/>
	<path fill="#010101" d="M3.23,257.028l-0.97,2.937H1.013l3.173-9.338h1.455l3.187,9.338H7.539l-0.998-2.937H3.23z M6.292,256.086
		l-0.915-2.688c-0.208-0.609-0.346-1.164-0.485-1.704H4.865c-0.139,0.554-0.291,1.123-0.471,1.69l-0.915,2.702H6.292z"/>
	<path fill="#010101" d="M16.514,259.661c-0.443,0.222-1.33,0.443-2.466,0.443c-2.632,0-4.613-1.663-4.613-4.725
		c0-2.923,1.981-4.905,4.877-4.905c1.164,0,1.898,0.25,2.217,0.416l-0.291,0.984c-0.458-0.222-1.108-0.388-1.884-0.388
		c-2.189,0-3.644,1.399-3.644,3.852c0,2.286,1.316,3.754,3.588,3.754c0.734,0,1.482-0.152,1.967-0.388L16.514,259.661z"/>
	<path fill="#010101" d="M24.255,259.661c-0.443,0.222-1.33,0.443-2.466,0.443c-2.632,0-4.613-1.663-4.613-4.725
		c0-2.923,1.981-4.905,4.877-4.905c1.164,0,1.898,0.25,2.217,0.416l-0.291,0.984c-0.458-0.222-1.108-0.388-1.884-0.388
		c-2.189,0-3.644,1.399-3.644,3.852c0,2.286,1.316,3.754,3.588,3.754c0.734,0,1.482-0.152,1.967-0.388L24.255,259.661z"/>
	<path fill="#010101" d="M33.452,255.199c0,3.214-1.954,4.918-4.337,4.918c-2.466,0-4.198-1.912-4.198-4.738
		c0-2.965,1.843-4.905,4.337-4.905C31.803,250.475,33.452,252.428,33.452,255.199z M26.205,255.352c0,1.995,1.081,3.782,2.979,3.782
		c1.912,0,2.993-1.759,2.993-3.879c0-1.857-0.97-3.796-2.979-3.796C27.203,251.458,26.205,253.301,26.205,255.352z"/>
	<path fill="#010101" d="M42.882,255.864c-0.069-1.302-0.152-2.868-0.138-4.032h-0.042c-0.319,1.094-0.707,2.258-1.178,3.547
		l-1.649,4.531h-0.915l-1.51-4.448c-0.443-1.316-0.818-2.521-1.081-3.63h-0.027c-0.028,1.164-0.097,2.729-0.18,4.129l-0.25,4.004
		h-1.15l0.651-9.338h1.538l1.593,4.517c0.388,1.15,0.707,2.175,0.942,3.146h0.042c0.235-0.942,0.568-1.968,0.983-3.146l1.663-4.517
		h1.538l0.582,9.338h-1.178L42.882,255.864z"/>
	<path fill="#010101" d="M46.147,250.738c0.582-0.097,1.344-0.18,2.314-0.18c1.191,0,2.064,0.277,2.619,0.776
		c0.513,0.443,0.817,1.123,0.817,1.954c0,0.845-0.25,1.51-0.72,1.995c-0.638,0.679-1.677,1.025-2.854,1.025
		c-0.36,0-0.692-0.014-0.97-0.083v3.741h-1.206V250.738z M47.353,255.241c0.263,0.069,0.596,0.097,0.998,0.097
		c1.455,0,2.342-0.707,2.342-1.995c0-1.233-0.873-1.829-2.203-1.829c-0.526,0-0.928,0.042-1.136,0.097V255.241z"/>
	<path fill="#010101" d="M53.861,257.028l-0.97,2.937h-1.247l3.173-9.338h1.455l3.187,9.338H58.17l-0.998-2.937H53.861z
		 M56.923,256.086l-0.914-2.688c-0.208-0.609-0.347-1.164-0.485-1.704h-0.027c-0.139,0.554-0.291,1.123-0.471,1.69l-0.915,2.702
		H56.923z"/>
	<path fill="#010101" d="M67.727,259.55c-0.541,0.194-1.607,0.513-2.868,0.513c-1.413,0-2.577-0.36-3.491-1.233
		c-0.804-0.776-1.303-2.022-1.303-3.478c0.014-2.785,1.926-4.821,5.057-4.821c1.081,0,1.926,0.235,2.328,0.429l-0.291,0.984
		c-0.499-0.222-1.122-0.402-2.064-0.402c-2.272,0-3.755,1.413-3.755,3.755c0,2.369,1.427,3.769,3.602,3.769
		c0.79,0,1.33-0.111,1.607-0.25v-2.785h-1.898v-0.97h3.076V259.55z"/>
	<path fill="#010101" d="M69.566,259.965v-9.338h1.316l2.993,4.725c0.693,1.095,1.233,2.078,1.677,3.034l0.027-0.014
		c-0.111-1.247-0.139-2.383-0.139-3.838v-3.907h1.136v9.338h-1.219l-2.965-4.738c-0.651-1.039-1.274-2.106-1.746-3.118l-0.042,0.014
		c0.069,1.178,0.097,2.3,0.097,3.852v3.99H69.566z"/>
	<path fill="#010101" d="M83.513,255.587h-3.63v3.367h4.046v1.011h-5.251v-9.338h5.043v1.012h-3.838v2.951h3.63V255.587z"/>
	<path fill="#010101" d="M93.361,255.864c-0.069-1.302-0.152-2.868-0.138-4.032h-0.042c-0.319,1.094-0.707,2.258-1.178,3.547
		l-1.649,4.531H89.44l-1.51-4.448c-0.443-1.316-0.818-2.521-1.081-3.63h-0.027c-0.028,1.164-0.097,2.729-0.18,4.129l-0.25,4.004
		h-1.15l0.651-9.338h1.538l1.593,4.517c0.388,1.15,0.707,2.175,0.942,3.146h0.042c0.235-0.942,0.568-1.968,0.983-3.146l1.663-4.517
		h1.538l0.582,9.338h-1.178L93.361,255.864z"/>
	<path fill="#010101" d="M101.461,255.587h-3.63v3.367h4.046v1.011h-5.251v-9.338h5.043v1.012h-3.838v2.951h3.63V255.587z"/>
	<path fill="#010101" d="M103.439,259.965v-9.338h1.316l2.993,4.725c0.693,1.095,1.233,2.078,1.676,3.034l0.028-0.014
		c-0.111-1.247-0.138-2.383-0.138-3.838v-3.907h1.136v9.338h-1.219l-2.965-4.738c-0.651-1.039-1.275-2.106-1.746-3.118l-0.042,0.014
		c0.069,1.178,0.097,2.3,0.097,3.852v3.99H103.439z"/>
	<path fill="#010101" d="M114.325,251.652h-2.84v-1.025h6.914v1.025h-2.854v8.313h-1.22V251.652z"/>
</g>
</svg>
