<?xml version="1.0" encoding="utf-8"?>
<!-- Generator: Adobe Illustrator 16.0.0, SVG Export Plug-In . SVG Version: 6.00 Build 0)  -->
<!DOCTYPE svg PUBLIC "-//W3C//DTD SVG 1.1//EN" "http://www.w3.org/Graphics/SVG/1.1/DTD/svg11.dtd">
<svg version="1.1" id="Layer_1" xmlns="http://www.w3.org/2000/svg" xmlns:xlink="http://www.w3.org/1999/xlink" x="0px" y="0px"
	 width="528.261px" height="528.149px" viewBox="0 0 528.261 528.149" enable-background="new 0 0 528.261 528.149"
	 xml:space="preserve">
<symbol  id="New_Symbol" viewBox="-52 -50.778 105 101.557">
	<g>
		<g>
			<path fill="none" stroke="#E41B4C" stroke-miterlimit="10" d="M-51.402-50.778c0,53.335,43.236,96.571,96.572,96.571"/>
			<g>
				<polygon fill="#E41B4C" points="44,40.807 52.635,45.792 44,50.779 				"/>
			</g>
		</g>
	</g>
	<polygon display="none" fill="none" points="-52,50 53,50 53,-50 -52,-50 	"/>
</symbol>
<g>
	<path fill="#010101" d="M242.081,92.584h-4.65v4.313h5.183v1.295h-6.727V86.23h6.46v1.296h-4.917v3.78h4.65V92.584z"/>
	<path fill="#010101" d="M252.975,97.803c-0.568,0.284-1.704,0.568-3.159,0.568c-3.372,0-5.91-2.13-5.91-6.052
		c0-3.745,2.538-6.283,6.247-6.283c1.491,0,2.432,0.32,2.84,0.532l-0.372,1.26c-0.586-0.284-1.42-0.497-2.414-0.497
		c-2.805,0-4.668,1.792-4.668,4.935c0,2.928,1.687,4.809,4.597,4.809c0.94,0,1.899-0.195,2.52-0.497L252.975,97.803z"/>
	<path fill="#010101" d="M264.755,92.087c0,4.118-2.502,6.301-5.555,6.301c-3.159,0-5.377-2.45-5.377-6.07
		c0-3.798,2.36-6.283,5.555-6.283C262.644,86.035,264.755,88.538,264.755,92.087z M255.473,92.283c0,2.556,1.385,4.846,3.816,4.846
		c2.45,0,3.833-2.254,3.833-4.97c0-2.378-1.242-4.863-3.816-4.863C256.751,87.295,255.473,89.656,255.473,92.283z"/>
	<path fill="#010101" d="M268.299,86.23v7.082c0,2.68,1.189,3.816,2.787,3.816c1.774,0,2.91-1.172,2.91-3.816V86.23h1.562v6.975
		c0,3.674-1.935,5.183-4.526,5.183c-2.449,0-4.295-1.402-4.295-5.112V86.23H268.299z"/>
	<path fill="#010101" d="M280.505,87.544h-3.638V86.23h8.856v1.313h-3.656v10.649h-1.562V87.544z"/>
	<path fill="#010101" d="M293.245,92.584h-4.65v4.313h5.184v1.295h-6.728V86.23h6.461v1.296h-4.917v3.78h4.65V92.584z"/>
	<path fill="#010101" d="M299.539,86.391c0.941-0.142,2.06-0.249,3.284-0.249c2.219,0,3.798,0.515,4.845,1.491
		c1.065,0.976,1.687,2.36,1.687,4.295c0,1.952-0.604,3.55-1.721,4.65c-1.119,1.119-2.965,1.722-5.29,1.722
		c-1.101,0-2.023-0.053-2.805-0.142V86.391z M301.083,96.968c0.39,0.071,0.958,0.089,1.562,0.089c3.302,0,5.094-1.846,5.094-5.076
		c0.018-2.822-1.58-4.615-4.846-4.615c-0.799,0-1.401,0.071-1.81,0.16V96.968z"/>
	<path fill="#010101" d="M317.548,92.584h-4.649v4.313h5.183v1.295h-6.728V86.23h6.461v1.296h-4.916v3.78h4.649V92.584z"/>
	<path fill="#010101" d="M319.87,96.312c0.692,0.426,1.704,0.781,2.769,0.781c1.58,0,2.503-0.834,2.503-2.041
		c0-1.119-0.639-1.758-2.254-2.379c-1.953-0.692-3.159-1.704-3.159-3.39c0-1.864,1.544-3.248,3.869-3.248
		c1.225,0,2.111,0.284,2.645,0.586l-0.426,1.26c-0.391-0.212-1.189-0.568-2.271-0.568c-1.634,0-2.255,0.977-2.255,1.792
		c0,1.119,0.728,1.668,2.378,2.308c2.024,0.781,3.054,1.757,3.054,3.514c0,1.846-1.367,3.443-4.189,3.443
		c-1.153,0-2.413-0.337-3.052-0.763L319.87,96.312z"/>
	<path fill="#010101" d="M222.431,107.679c0.675-0.142,1.74-0.249,2.822-0.249c1.544,0,2.538,0.267,3.284,0.87
		c0.621,0.461,0.994,1.171,0.994,2.111c0,1.154-0.763,2.166-2.023,2.627v0.036c1.136,0.284,2.467,1.225,2.467,2.999
		c0,1.03-0.408,1.81-1.012,2.396c-0.833,0.763-2.183,1.118-4.135,1.118c-1.065,0-1.882-0.071-2.396-0.142V107.679z M223.975,112.577
		h1.402c1.632,0,2.591-0.852,2.591-2.005c0-1.402-1.065-1.952-2.627-1.952c-0.71,0-1.119,0.053-1.367,0.106V112.577z
		 M223.975,118.31c0.302,0.053,0.746,0.071,1.295,0.071c1.598,0,3.07-0.586,3.07-2.325c0-1.633-1.401-2.307-3.088-2.307h-1.278
		V118.31z"/>
	<path fill="#010101" d="M238.24,113.873h-4.65v4.313h5.183v1.295h-6.727v-11.962h6.46v1.296h-4.916v3.78h4.65V113.873z"/>
	<path fill="#010101" d="M240.561,117.6c0.692,0.426,1.704,0.781,2.769,0.781c1.58,0,2.502-0.834,2.502-2.041
		c0-1.119-0.638-1.757-2.253-2.379c-1.953-0.692-3.159-1.704-3.159-3.39c0-1.864,1.544-3.248,3.869-3.248
		c1.225,0,2.112,0.284,2.645,0.585l-0.426,1.26c-0.391-0.212-1.19-0.568-2.272-0.568c-1.633,0-2.254,0.977-2.254,1.793
		c0,1.118,0.728,1.668,2.378,2.307c2.023,0.781,3.053,1.757,3.053,3.514c0,1.846-1.367,3.443-4.189,3.443
		c-1.153,0-2.414-0.337-3.052-0.763L240.561,117.6z"/>
	<path fill="#010101" d="M259.744,113.376c0,4.118-2.502,6.301-5.556,6.301c-3.159,0-5.378-2.45-5.378-6.07
		c0-3.798,2.361-6.283,5.556-6.283C257.631,107.324,259.744,109.826,259.744,113.376z M250.461,113.571
		c0,2.556,1.385,4.845,3.816,4.845c2.45,0,3.834-2.253,3.834-4.969c0-2.379-1.242-4.863-3.816-4.863
		C251.739,108.584,250.461,110.945,250.461,113.571z"/>
	<path fill="#010101" d="M263.288,107.519v11.962h-1.544v-11.962H263.288z"/>
	<path fill="#010101" d="M265.984,119.481v-11.962h1.686l3.834,6.052c0.887,1.402,1.579,2.662,2.147,3.887l0.036-0.018
		c-0.142-1.598-0.177-3.053-0.177-4.917v-5.005h1.455v11.962h-1.562l-3.798-6.07c-0.834-1.331-1.633-2.698-2.236-3.994l-0.053,0.018
		c0.088,1.509,0.124,2.946,0.124,4.934v5.111H265.984z"/>
	<path fill="#010101" d="M277.444,117.6c0.692,0.426,1.704,0.781,2.769,0.781c1.58,0,2.502-0.834,2.502-2.041
		c0-1.119-0.638-1.757-2.253-2.379c-1.953-0.692-3.159-1.704-3.159-3.39c0-1.864,1.544-3.248,3.869-3.248
		c1.225,0,2.112,0.284,2.645,0.585l-0.426,1.26c-0.391-0.212-1.19-0.568-2.272-0.568c-1.633,0-2.254,0.977-2.254,1.793
		c0,1.118,0.728,1.668,2.378,2.307c2.023,0.781,3.053,1.757,3.053,3.514c0,1.846-1.367,3.443-4.189,3.443
		c-1.153,0-2.414-0.337-3.052-0.763L277.444,117.6z"/>
	<path fill="#010101" d="M298.523,119.091c-0.567,0.284-1.704,0.568-3.159,0.568c-3.372,0-5.91-2.13-5.91-6.052
		c0-3.745,2.538-6.283,6.247-6.283c1.491,0,2.433,0.32,2.84,0.532l-0.372,1.26c-0.586-0.284-1.42-0.497-2.414-0.497
		c-2.805,0-4.668,1.792-4.668,4.934c0,2.929,1.687,4.81,4.597,4.81c0.941,0,1.899-0.195,2.521-0.497L298.523,119.091z"/>
	<path fill="#010101" d="M300.454,107.519h1.544v10.667h5.111v1.295h-6.655V107.519z"/>
	<path fill="#010101" d="M310.371,107.519v11.962h-1.544v-11.962H310.371z"/>
	<path fill="#010101" d="M319.26,113.873h-4.649v4.313h5.183v1.295h-6.727v-11.962h6.46v1.296h-4.916v3.78h4.649V113.873z"/>
	<path fill="#010101" d="M321.795,119.481v-11.962h1.686l3.834,6.052c0.887,1.402,1.58,2.662,2.147,3.887l0.035-0.018
		c-0.142-1.598-0.178-3.053-0.178-4.917v-5.005h1.456v11.962h-1.562l-3.798-6.07c-0.834-1.331-1.633-2.698-2.236-3.994l-0.053,0.018
		c0.089,1.509,0.124,2.946,0.124,4.934v5.111H321.795z"/>
	<path fill="#010101" d="M335.74,108.833h-3.639v-1.313h8.856v1.313h-3.656v10.649h-1.562V108.833z"/>
</g>
<g>
	<path fill="#010101" d="M222.396,471.868c0.781-0.16,1.899-0.249,2.964-0.249c1.65,0,2.716,0.302,3.461,0.977
		c0.604,0.532,0.94,1.348,0.94,2.271c0,1.579-0.994,2.627-2.253,3.052v0.055c0.922,0.318,1.473,1.171,1.757,2.413
		c0.39,1.668,0.674,2.822,0.923,3.283h-1.598c-0.195-0.337-0.461-1.366-0.798-2.857c-0.355-1.65-0.995-2.271-2.396-2.325h-1.456
		v5.183h-1.544V471.868z M223.939,477.316h1.58c1.65,0,2.697-0.905,2.697-2.271c0-1.545-1.118-2.219-2.75-2.237
		c-0.745,0-1.278,0.071-1.526,0.143V477.316z"/>
	<path fill="#010101" d="M238.134,478.062h-4.65v4.312h5.183v1.295h-6.727v-11.962h6.46v1.296h-4.916v3.779h4.65V478.062z
		 M237.832,468.992l-2.254,2.077H234.3l1.65-2.077H237.832z"/>
	<path fill="#010101" d="M242.602,479.907l-1.242,3.763h-1.597l4.064-11.962h1.864l4.082,11.962h-1.651l-1.278-3.763H242.602z
		 M246.525,478.7l-1.171-3.443c-0.267-0.78-0.444-1.49-0.622-2.183h-0.035c-0.177,0.71-0.373,1.438-0.604,2.166l-1.171,3.46H246.525
		z"/>
	<path fill="#010101" d="M251.525,471.708h1.544v10.667h5.111v1.295h-6.656V471.708z"/>
	<path fill="#010101" d="M261.443,471.708v11.962h-1.544v-11.962H261.443z"/>
	<path fill="#010101" d="M263.925,481.789c0.692,0.426,1.704,0.781,2.769,0.781c1.58,0,2.502-0.835,2.502-2.041
		c0-1.119-0.639-1.758-2.253-2.379c-1.952-0.692-3.16-1.704-3.16-3.39c0-1.864,1.544-3.248,3.869-3.248
		c1.225,0,2.112,0.284,2.645,0.586l-0.426,1.26c-0.391-0.213-1.189-0.568-2.271-0.568c-1.633,0-2.254,0.977-2.254,1.793
		c0,1.118,0.728,1.668,2.378,2.308c2.023,0.78,3.053,1.757,3.053,3.514c0,1.846-1.367,3.443-4.189,3.443
		c-1.153,0-2.414-0.337-3.052-0.763L263.925,481.789z"/>
	<path fill="#010101" d="M274.819,479.907l-1.242,3.763h-1.598l4.064-11.962h1.864l4.082,11.962h-1.65l-1.278-3.763H274.819z
		 M278.741,478.7l-1.171-3.443c-0.267-0.78-0.444-1.49-0.622-2.183h-0.035c-0.178,0.71-0.373,1.438-0.604,2.166l-1.171,3.46H278.741
		z"/>
	<path fill="#010101" d="M284.647,473.021h-3.638v-1.313h8.856v1.313h-3.656v10.648h-1.562V473.021z"/>
	<path fill="#010101" d="M292.737,471.708v11.962h-1.545v-11.962H292.737z"/>
	<path fill="#010101" d="M305.657,477.564c0,4.118-2.503,6.301-5.556,6.301c-3.16,0-5.379-2.449-5.379-6.069
		c0-3.798,2.361-6.283,5.556-6.283C303.543,471.513,305.657,474.015,305.657,477.564z M296.374,477.76
		c0,2.556,1.385,4.846,3.816,4.846c2.449,0,3.833-2.254,3.833-4.97c0-2.379-1.242-4.863-3.816-4.863
		C297.651,472.772,296.374,475.134,296.374,477.76z"/>
	<path fill="#010101" d="M307.657,483.67v-11.962h1.686l3.834,6.052c0.888,1.402,1.58,2.662,2.147,3.887l0.035-0.018
		c-0.142-1.598-0.178-3.053-0.178-4.916v-5.005h1.456v11.962h-1.562l-3.798-6.069c-0.834-1.331-1.633-2.698-2.236-3.994
		l-0.053,0.019c0.089,1.509,0.124,2.946,0.124,4.934v5.111H307.657z"/>
	<path fill="#010101" d="M329.285,478.062h-4.65v4.312h5.183v1.295h-6.727v-11.962h6.46v1.296h-4.916v3.779h4.65V478.062z"/>
	<path fill="#010101" d="M334.374,473.021h-3.638v-1.313h8.855v1.313h-3.656v10.648h-1.562V473.021z"/>
	<path fill="#010101" d="M234.197,499.705c-0.088-1.668-0.196-3.674-0.177-5.164h-0.053c-0.409,1.401-0.905,2.893-1.509,4.543
		l-2.112,5.804h-1.171l-1.935-5.697c-0.568-1.686-1.047-3.229-1.384-4.649h-0.036c-0.035,1.49-0.124,3.496-0.23,5.289l-0.319,5.129
		h-1.473l0.833-11.963h1.971l2.041,5.786c0.497,1.474,0.905,2.786,1.207,4.029h0.053c0.301-1.207,0.728-2.521,1.26-4.029
		l2.129-5.786h1.971l0.746,11.963h-1.509L234.197,499.705z"/>
	<path fill="#010101" d="M239.923,492.996v11.963h-1.544v-11.963H239.923z"/>
	<path fill="#010101" d="M242.406,503.077c0.692,0.426,1.704,0.781,2.769,0.781c1.58,0,2.502-0.834,2.502-2.041
		c0-1.118-0.639-1.757-2.253-2.379c-1.953-0.691-3.159-1.703-3.159-3.39c0-1.863,1.544-3.248,3.869-3.248
		c1.225,0,2.112,0.284,2.645,0.586l-0.426,1.26c-0.391-0.212-1.19-0.567-2.272-0.567c-1.633,0-2.254,0.977-2.254,1.793
		c0,1.118,0.728,1.668,2.378,2.307c2.023,0.781,3.053,1.758,3.053,3.515c0,1.846-1.367,3.443-4.189,3.443
		c-1.153,0-2.414-0.338-3.052-0.764L242.406,503.077z"/>
	<path fill="#010101" d="M257.559,499.35h-4.65v4.313h5.183v1.296h-6.727v-11.963h6.461v1.296h-4.917v3.78h4.65V499.35z"/>
	<path fill="#010101" d="M270.048,499.35h-4.65v4.313h5.183v1.296h-6.727v-11.963h6.46v1.296h-4.916v3.78h4.65V499.35z"/>
	<path fill="#010101" d="M272.583,504.959v-11.963h1.686l3.833,6.053c0.888,1.402,1.58,2.662,2.148,3.887l0.035-0.018
		c-0.142-1.598-0.178-3.053-0.178-4.916v-5.006h1.456v11.963h-1.562l-3.798-6.07c-0.834-1.331-1.633-2.697-2.236-3.993l-0.053,0.018
		c0.089,1.509,0.124,2.946,0.124,4.935v5.111H272.583z"/>
	<path fill="#010101" d="M288.016,493.139c0.745-0.124,1.722-0.231,2.964-0.231c1.526,0,2.645,0.355,3.354,0.994
		c0.657,0.568,1.048,1.438,1.048,2.503c0,1.082-0.32,1.935-0.923,2.556c-0.817,0.87-2.148,1.313-3.657,1.313
		c-0.461,0-0.887-0.018-1.242-0.106v4.792h-1.544V493.139z M289.56,498.906c0.338,0.089,0.764,0.125,1.278,0.125
		c1.864,0,3-0.905,3-2.556c0-1.58-1.118-2.344-2.822-2.344c-0.675,0-1.189,0.054-1.456,0.125V498.906z"/>
	<path fill="#010101" d="M297.455,492.996h1.544v10.667h5.111v1.296h-6.655V492.996z"/>
	<path fill="#010101" d="M307.762,501.196l-1.242,3.763h-1.598l4.064-11.963h1.864l4.082,11.963h-1.65l-1.278-3.763H307.762z
		 M311.685,499.989l-1.171-3.443c-0.267-0.78-0.444-1.49-0.622-2.183h-0.035c-0.178,0.71-0.373,1.438-0.604,2.165l-1.172,3.461
		H311.685z"/>
	<path fill="#010101" d="M324.778,504.568c-0.567,0.284-1.703,0.568-3.159,0.568c-3.372,0-5.909-2.13-5.909-6.053
		c0-3.744,2.537-6.283,6.247-6.283c1.49,0,2.432,0.32,2.84,0.532l-0.373,1.261c-0.586-0.284-1.42-0.497-2.413-0.497
		c-2.806,0-4.669,1.792-4.669,4.935c0,2.929,1.687,4.81,4.597,4.81c0.941,0,1.899-0.195,2.521-0.497L324.778,504.568z"/>
	<path fill="#010101" d="M332.902,499.35h-4.649v4.313h5.183v1.296h-6.728v-11.963h6.461v1.296h-4.916v3.78h4.649V499.35z"/>
	<path fill="#010101" d="M238.193,514.445c0.941-0.143,2.06-0.249,3.284-0.249c2.219,0,3.798,0.515,4.845,1.491
		c1.065,0.977,1.687,2.36,1.687,4.295c0,1.952-0.604,3.55-1.721,4.65c-1.119,1.118-2.964,1.721-5.289,1.721
		c-1.101,0-2.024-0.053-2.805-0.142V514.445z M239.737,525.022c0.391,0.071,0.958,0.089,1.562,0.089
		c3.301,0,5.094-1.846,5.094-5.075c0.018-2.822-1.58-4.615-4.845-4.615c-0.799,0-1.402,0.071-1.811,0.16V525.022z"/>
	<path fill="#010101" d="M256.202,520.64h-4.65v4.312h5.183v1.295h-6.727v-11.962h6.46v1.296h-4.917v3.779h4.65V520.64z"/>
	<path fill="#010101" d="M258.523,524.366c0.692,0.426,1.704,0.781,2.769,0.781c1.58,0,2.502-0.835,2.502-2.041
		c0-1.118-0.639-1.758-2.253-2.379c-1.952-0.691-3.16-1.704-3.16-3.39c0-1.864,1.544-3.248,3.87-3.248
		c1.225,0,2.111,0.284,2.645,0.586l-0.426,1.26c-0.391-0.213-1.189-0.568-2.271-0.568c-1.633,0-2.254,0.977-2.254,1.793
		c0,1.118,0.728,1.668,2.378,2.308c2.024,0.78,3.053,1.757,3.053,3.514c0,1.846-1.367,3.443-4.189,3.443
		c-1.153,0-2.414-0.337-3.052-0.763L258.523,524.366z"/>
	<path fill="#010101" d="M281.467,520.142c0,4.118-2.503,6.301-5.556,6.301c-3.159,0-5.378-2.449-5.378-6.069
		c0-3.798,2.36-6.283,5.556-6.283C279.355,514.09,281.467,516.593,281.467,520.142z M272.184,520.337
		c0,2.556,1.385,4.846,3.816,4.846c2.449,0,3.833-2.254,3.833-4.97c0-2.378-1.242-4.863-3.816-4.863
		C273.462,515.35,272.184,517.711,272.184,520.337z"/>
	<path fill="#010101" d="M285.011,514.285v7.082c0,2.68,1.189,3.815,2.787,3.815c1.775,0,2.911-1.171,2.911-3.815v-7.082h1.561
		v6.976c0,3.673-1.934,5.182-4.525,5.182c-2.45,0-4.295-1.402-4.295-5.111v-7.046H285.011z"/>
	<path fill="#010101" d="M297.217,515.599h-3.639v-1.313h8.856v1.313h-3.657v10.648h-1.561V515.599z"/>
	<path fill="#010101" d="M305.306,514.285v11.962h-1.544v-11.962H305.306z"/>
	<path fill="#010101" d="M308.001,514.285h1.544v10.667h5.111v1.295h-6.655V514.285z"/>
	<path fill="#010101" d="M316.162,524.366c0.692,0.426,1.704,0.781,2.769,0.781c1.58,0,2.503-0.835,2.503-2.041
		c0-1.118-0.639-1.758-2.254-2.379c-1.952-0.691-3.159-1.704-3.159-3.39c0-1.864,1.544-3.248,3.869-3.248
		c1.225,0,2.112,0.284,2.645,0.586l-0.426,1.26c-0.391-0.213-1.189-0.568-2.271-0.568c-1.634,0-2.255,0.977-2.255,1.793
		c0,1.118,0.728,1.668,2.379,2.308c2.023,0.78,3.053,1.757,3.053,3.514c0,1.846-1.367,3.443-4.189,3.443
		c-1.153,0-2.413-0.337-3.052-0.763L316.162,524.366z"/>
</g>
<g>
	
		<path fill="none" stroke="#E41B4C" stroke-width="1.0436" stroke-linecap="round" stroke-linejoin="round" stroke-miterlimit="10" d="
		M271.37,28.723c1.072-0.47,1.481-1.581,2.258-2.342c1.171-1.148,2.518-1.892,4.168-1.865c2.221,0.036,4.809,1.551,5.473,3.831
		c0.472,1.62,0.115,3.172-0.565,4.657c-0.993,2.172-2.491,3.984-4.152,5.673c-0.629,0.641-0.658,0.909-0.188,1.638
		c0.123,0.19,0.266,0.37,0.375,0.568c0.822,1.498,1.649,2.986,1.9,4.722c0.213,1.466-0.157,2.851-1.702,3.668
		c-1.196,0.635-2.465,0.633-3.721,0.519c-0.684-0.063-1.047-0.749-1.399-1.345c-0.776-1.316-1.075-2.792-1.5-4.228
		c-0.326-1.094-0.611-2.201-1.001-3.278c-0.373-1.038-1.031-1.636-2.15-1.769c-1.502-0.179-2.994-0.38-4.474,0.132
		c-1.509,0.521-2.252,1.632-2.523,3.151c-0.338,1.896,0.122,3.69,0.635,5.481c0.708,2.469,1.753,4.795,2.954,7.06
		c0.51,0.962,0.875,1.991,1.509,2.901c1.643,2.362,3.997,3.598,6.691,4.259c1.267,0.311,2.588,0.455,3.901,0.387
		c3.301-0.171,6.397-0.988,9-3.152c0.608-0.507,1.083-1.154,1.466-1.875c1.662-3.118,2.813-6.424,3.713-9.83
		c0.603-2.288,1.093-4.606,1.998-6.81c0.679-1.649,1.552-3.194,2.349-4.781c1.793-3.566,3.27-7.25,4.146-11.153
		c0.399-1.782,0.641-3.583,0.714-5.416c0.124-3.096-0.373-6.06-1.654-8.883c-1.391-3.062-3.572-5.412-6.418-7.191
		c-2.141-1.34-4.473-2.104-6.937-2.504c-2.459-0.401-4.937-0.712-7.431-0.624c-4.403,0.154-8.567,1.113-12.094,3.958
		c-1.627,1.314-2.923,2.9-3.987,4.712c-1.276,2.174-2.093,4.502-2.617,6.941c-0.294,1.367-0.475,2.754-0.609,4.153
		c-0.083,0.863-0.153,1.735-0.125,2.584c0.042,1.278-0.058,2.562,0.125,3.848c0.104,0.734,0.204,1.503,0.092,2.263"/>
	
		<path fill-rule="evenodd" clip-rule="evenodd" fill="none" stroke="#E41B4C" stroke-width="1.0436" stroke-linecap="round" stroke-linejoin="round" stroke-miterlimit="10" d="
		M290.899,28.472c-0.045-0.606,0.137-1.179,0.249-1.765c0.318-1.663,0.516-3.334,0.527-5.039c0.011-1.618-0.146-3.182-0.642-4.727
		c-0.938-2.917-2.839-4.901-5.681-5.977c-3.434-1.301-6.938-1.431-10.382-0.169c-3.179,1.164-5.013,3.542-5.633,6.901
		c-0.392,2.126-0.207,4.213,0.154,6.301c0.179,1.047,0.434,2.086,0.806,3.09c0.147,0.399,0.223,0.842,0.572,1.129
		c0.593,0.487,0.441,1.148,0.419,1.767c-0.003,0.112-0.014,0.254-0.045,0.378"/>
</g>
<g>
	
		<path fill="none" stroke="#E41B4C" stroke-width="1.0436" stroke-linecap="round" stroke-linejoin="round" stroke-miterlimit="10" d="
		M284.458,404.73c-0.296-0.042-0.549,0.128-0.771,0.247c-0.369,0.195-0.503,0.034-0.735-0.208c-2.913-3.039-5.905-5.999-8.917-8.941
		c-2.219-2.167-4.393-4.382-6.587-6.578c-2.649-2.649-5.302-5.298-7.95-7.953c-0.89-0.891-1.827-1.72-3.066-2.079
		c-3.543-1.024-7.119,1.06-7.787,4.759c-0.407,2.254,0.411,4.197,2.106,5.807c2.072,1.967,4.054,4.029,6.075,6.05
		c5.626,5.627,11.252,11.254,16.882,16.878c0.336,0.336,0.693,0.653,1.042,0.979"/>
	
		<path fill-rule="evenodd" clip-rule="evenodd" fill="none" stroke="#E41B4C" stroke-width="1.0436" stroke-linecap="round" stroke-linejoin="round" stroke-miterlimit="10" d="
		M278.918,417.928c0.021,0.332-0.045,0.588-0.315,0.857c-6.748,6.723-13.48,13.46-20.216,20.193
		c-0.871,0.872-1.824,1.604-3.062,1.895c-3.755,0.879-6.948-2.027-6.997-5.282c-0.025-1.735,0.555-3.178,1.726-4.357
		c5.846-5.887,11.718-11.746,17.602-17.593c0.237-0.235,0.337-0.438,0.345-0.73"/>
	
		<path fill-rule="evenodd" clip-rule="evenodd" fill="none" stroke="#E41B4C" stroke-width="1.0436" stroke-linecap="round" stroke-linejoin="round" stroke-miterlimit="10" d="
		M278.267,411.345c1.841,2.108,3.902,4.006,5.869,5.992c3.114,3.144,6.223,6.292,9.4,9.371c1.012,0.981,1.706,2.065,2.077,3.405
		c0.183,0.667,0.473,1.305,0.705,1.957c0.126,0.354,0.316,0.65,0.585,0.917c2.418,2.405,4.81,4.837,7.246,7.222
		c1.063,1.043,1.251,1.027,2.332,0.003c1.158-1.102,2.262-2.257,3.398-3.381c0.329-0.325,0.58-0.698,0.768-1.104
		c-0.198-0.489-0.527-0.879-0.897-1.247c-2.156-2.146-4.326-4.278-6.445-6.462c-0.735-0.758-1.525-1.339-2.55-1.629
		c-0.731-0.207-1.429-0.537-2.156-0.763c-0.587-0.181-1.065-0.478-1.502-0.914c-5.356-5.376-10.726-10.739-16.093-16.105"/>
	
		<path fill-rule="evenodd" clip-rule="evenodd" fill="none" stroke="#E41B4C" stroke-width="1.0436" stroke-linecap="round" stroke-linejoin="round" stroke-miterlimit="10" d="
		M253.695,385.014c0.656-0.105,1.109,0.171,1.576,0.64c6.718,6.751,13.458,13.48,20.193,20.216"/>
	
		<path fill-rule="evenodd" clip-rule="evenodd" fill="none" stroke="#E41B4C" stroke-width="1.0436" stroke-linecap="round" stroke-linejoin="round" stroke-miterlimit="10" d="
		M305.185,379.344c1.442,0.01,2.271,1.031,3.12,1.96c2.123,2.325,3.341,5.107,3.631,8.208c0.354,3.823-0.575,7.362-2.978,10.421
		c-2.288,2.915-5.265,4.735-8.922,5.416c-2.065,0.386-4.117,0.273-6.121-0.285c-0.935-0.261-1.578-0.125-2.236,0.597
		c-1.056,1.156-2.187,2.244-3.321,3.327c-0.278,0.265-0.335,0.526-0.315,0.858"/>
	
		<path fill-rule="evenodd" clip-rule="evenodd" fill="none" stroke="#E41B4C" stroke-width="1.0436" stroke-linecap="round" stroke-linejoin="round" stroke-miterlimit="10" d="
		M290.194,378.04c-0.192,0.698-0.342,1.357-1.3,1.458c-0.971,0.102-1.606,0.862-2.212,1.547c-1.72,1.944-2.949,4.158-3.526,6.708
		c-0.606,2.671-0.487,5.304,0.456,7.886c0.04,0.11,0.09,0.216,0.13,0.326c0.372,1.04,0.137,1.853-0.792,2.395
		c-0.371,0.216-0.859,0.063-1.294,0.082"/>
	
		<path fill-rule="evenodd" clip-rule="evenodd" fill="none" stroke="#E41B4C" stroke-width="1.0436" stroke-linecap="round" stroke-linejoin="round" stroke-miterlimit="10" d="
		M289.607,379.409c0.469,0.713,0.604,1.497,0.597,2.346c-0.025,2.759,0.002,5.518-0.019,8.278c-0.005,0.605,0.129,1.078,0.657,1.438
		c1.922,1.312,3.838,2.631,5.733,3.979c0.601,0.426,1.155,0.354,1.696-0.013c1.898-1.289,3.785-2.6,5.674-3.906
		c0.453-0.314,0.601-0.75,0.596-1.303c-0.02-2.933-0.005-5.866-0.012-8.799c-0.003-0.581,0.082-1.134,0.397-1.628
		c0.225-0.352,0.183-0.659-0.063-0.982c-0.172-0.225-0.331-0.472-0.331-0.779"/>
	
		<path fill-rule="evenodd" clip-rule="evenodd" fill="none" stroke="#E41B4C" stroke-width="1.0436" stroke-linecap="round" stroke-linejoin="round" stroke-miterlimit="10" d="
		M283.286,405.153c-0.24,0.594-0.552,1.138-1.043,1.564c-0.524,0.458-0.966,0.984-1.227,1.632c-0.063,0.157-0.122,0.198-0.267,0.27
		c-1.121,0.548-1.995,1.353-2.481,2.531c-0.039,0.096-0.054,0.163-0.193,0.204c-0.706,0.208-1.208,0.711-1.699,1.227
		c-0.332,0.349-0.655,0.719-1.107,0.911c-0.706,0.298-0.915,0.867-0.912,1.568c0,0.174,0,0.348,0,0.521"/>
	
		<path fill-rule="evenodd" clip-rule="evenodd" fill="none" stroke="#E41B4C" stroke-width="1.0436" stroke-linecap="round" stroke-linejoin="round" stroke-miterlimit="10" d="
		M310.725,435.721c0.521,0,1.042,0,1.563,0"/>
</g>
<g>
	<path fill-rule="evenodd" clip-rule="evenodd" fill="#FFFFFF" stroke="#E41B4C" stroke-width="1.0436" stroke-miterlimit="10" d="
		M64.709,278.263c-0.227-0.249-0.443-0.507-0.681-0.744c-2.395-2.399-4.783-4.804-7.196-7.183c-0.437-0.43-0.523-0.821-0.329-1.398
		c3.648-10.9,7.282-21.803,10.906-32.711c0.174-0.525,0.466-0.84,0.975-1.058c6.177-2.632,12.35-5.277,18.515-7.936
		c0.504-0.216,0.848-0.153,1.232,0.232c6.289,6.303,12.584,12.601,18.89,18.888c0.404,0.404,0.467,0.758,0.24,1.285
		c-2.633,6.108-5.255,12.22-7.853,18.344c-0.275,0.649-0.688,0.974-1.337,1.189c-10.689,3.548-21.372,7.113-32.054,10.677
		c-0.358,0.12-0.704,0.275-1.056,0.415C64.877,278.263,64.793,278.263,64.709,278.263z M91.085,249.478
		c-0.182,4.413-4.238,6.884-7.748,5.713c-0.732-0.243-1.147-0.059-1.644,0.441c-5.404,5.433-10.828,10.846-16.247,16.264
		c-0.149,0.148-0.296,0.3-0.439,0.454c-0.122,0.132-0.172,0.274-0.088,0.459c0.274,0.61,0.957,0.918,1.616,0.698
		c9.626-3.206,19.253-6.417,28.881-9.618c0.478-0.159,0.779-0.433,0.977-0.898c2.054-4.822,4.113-9.642,6.196-14.452
		c0.243-0.559,0.149-0.918-0.268-1.334c-5.012-4.991-10.014-9.992-15.003-15.004c-0.437-0.439-0.813-0.515-1.389-0.265
		c-4.712,2.045-9.432,4.068-14.163,6.069c-0.635,0.27-1.007,0.641-1.227,1.305c-3.145,9.493-6.312,18.977-9.474,28.464
		c-0.06,0.18-0.127,0.358-0.165,0.543c-0.079,0.396,0.33,1.044,0.782,1.26c0.407,0.194,0.565-0.172,0.776-0.371
		c0.46-0.432,0.897-0.889,1.345-1.335c5.061-5.061,10.118-10.126,15.19-15.177c0.42-0.418,0.582-0.782,0.361-1.382
		c-0.33-0.894-0.412-1.83-0.251-2.796c0.506-3.024,3.053-5.177,6.097-5.051C88.802,243.613,90.952,246.359,91.085,249.478z"/>
	<path fill-rule="evenodd" clip-rule="evenodd" fill="#FFFFFF" stroke="#E41B4C" stroke-width="1.0436" stroke-miterlimit="10" d="
		M95.086,214.089c8.451,8.451,16.861,16.862,25.273,25.273c0.052,0.167-0.21,0.181-0.418,0.25c-2.315,0.779-4.635,1.539-6.947,2.329
		c-0.51,0.174-0.867,0.062-1.239-0.311c-6.289-6.304-12.586-12.601-18.891-18.891c-0.378-0.378-0.463-0.74-0.292-1.244
		c0.79-2.311,1.551-4.631,2.327-6.946C94.965,214.356,94.993,214.132,95.086,214.089z"/>
	<path fill-rule="evenodd" clip-rule="evenodd" fill="#FFFFFF" stroke="#E41B4C" stroke-width="1.0436" stroke-miterlimit="10" d="
		M95.215,213.904c0.231,0.968,0.463,1.936,0.695,2.906"/>
	<path fill-rule="evenodd" clip-rule="evenodd" fill="#FFFFFF" stroke="#E41B4C" stroke-width="1.0436" stroke-miterlimit="10" d="
		M117.763,238.599c0.948,0.231,1.895,0.462,2.842,0.695"/>
	<path fill-rule="evenodd" clip-rule="evenodd" fill="#FFFFFF" stroke="#E41B4C" stroke-width="1.0436" stroke-miterlimit="10" d="
		M96.099,221.355c-1.188,0.212-2.332,0.628-3.537,0.758"/>
	<path fill-rule="evenodd" clip-rule="evenodd" fill="#FFFFFF" stroke="#E41B4C" stroke-width="1.0436" stroke-miterlimit="10" d="
		M113.152,238.41c-0.212,1.188-0.628,2.331-0.758,3.537"/>
	<path fill-rule="evenodd" clip-rule="evenodd" fill="#FFFFFF" stroke="#E41B4C" stroke-width="1.0436" stroke-miterlimit="10" d="
		M65.341,275.863c-0.204,0.771-0.454,1.532-0.506,2.337"/>
	<path fill-rule="evenodd" clip-rule="evenodd" fill="#FFFFFF" stroke="#E41B4C" stroke-width="1.0436" stroke-miterlimit="10" d="
		M87.509,227.167c-0.008,0.798-0.271,1.555-0.379,2.338"/>
	<path fill-rule="evenodd" clip-rule="evenodd" fill="#FFFFFF" stroke="#E41B4C" stroke-width="1.0436" stroke-miterlimit="10" d="
		M107.341,246.998c-0.775,0.018-1.518,0.239-2.273,0.38"/>
</g>
<g>
	<path fill="#E41B4C" stroke="#FFFEFE" stroke-width="2.2419" stroke-miterlimit="10" d="M514.756,268.663
		c-0.48-1.532-1.02-3.188-1.606-4.934c-4.025-11.984-4.872-24.85-2.46-37.253c4.407-3.271,7.017-8.417,7.017-13.93l-0.01-10.613
		h-3.887v4.036h-3.802v-4.036h-3.886v4.036h-3.801v-4.036h-3.887v4.036h-3.802v-4.036h-3.887v4.036h-3.801v-4.036h-3.887
		l-0.03,10.613c0,5.513,2.609,10.659,7.017,13.93c2.412,12.407,1.564,25.271-2.464,37.256c-0.595,1.777-1.134,3.432-1.604,4.932
		c-0.981,0.72-1.909,1.513-2.772,2.371c-1.191-1.164-2.507-2.211-3.94-3.116c-1.464-5.711-2.335-11.567-2.595-17.437
		c-0.021-0.494-0.063-1.896-0.063-1.896c3.288-2.91,5.155-7.034,5.155-11.459v-1.943h-2.773c1.028-1.991,1.578-4.214,1.578-6.486
		c0-7.79-6.339-14.128-14.128-14.128c-7.79,0-14.129,6.339-14.129,14.128c0,2.271,0.55,4.495,1.577,6.486h-2.772v1.943
		c0,4.446,1.882,8.582,5.194,11.495c-0.144,6.483-1.029,12.959-2.64,19.261c-6.978,4.382-11.28,12.115-11.28,20.38v1.973h82.342
		v-1.912C524.731,280.55,521.014,273.254,514.756,268.663L514.756,268.663z M486.917,212.546v-2.69h26.902v2.69
		c0,4.299-2.051,8.309-5.507,10.846h-15.891C488.966,220.855,486.917,216.845,486.917,212.546L486.917,212.546z M494.144,227.279
		h12.447c-2.179,12.583-1.196,25.562,2.876,37.69c0.344,1.019,0.668,2.005,0.976,2.955h-20.15c0.304-0.94,0.629-1.926,0.973-2.955
		C495.34,252.843,496.325,239.864,494.144,227.279L494.144,227.279z M460.168,249.664h12.585c0.192,5.89,0.976,11.772,2.332,17.529
		h-17.249C459.193,261.436,459.975,255.556,460.168,249.664L460.168,249.664z M456.197,228.695c0-5.646,4.595-10.241,10.242-10.241
		s10.241,4.596,10.241,10.241c0,2.369-0.823,4.665-2.319,6.486h-15.845C457.02,233.359,456.197,231.064,456.197,228.695
		L456.197,228.695z M455.165,239.067h22.548c-0.442,2.6-1.771,4.958-3.801,6.709h-14.945
		C456.936,244.026,455.608,241.668,455.165,239.067L455.165,239.067z M455.889,271.077h21.098c5.39,3.316,8.909,9.003,9.522,15.241
		h-40.141C446.979,280.075,450.502,274.393,455.889,271.077L455.889,271.077z M490.411,286.38
		c-0.358-4.523-1.999-8.818-4.646-12.405c0.774-0.787,1.607-1.513,2.497-2.167h24.2c4.731,3.476,7.736,8.783,8.289,14.57h-30.341
		V286.38z M490.411,286.38"/>
</g>
<g>
	
		<use xlink:href="#New_Symbol"  width="105" height="101.557" x="-52" y="-50.778" transform="matrix(1.0436 0 0 -1.0436 230.937 192.0029)" overflow="visible"/>
	<g>
		
			<use xlink:href="#New_Symbol"  width="105" height="101.557" x="-52" y="-50.778" transform="matrix(0 -1.0436 -1.0436 0 225.1973 292.707)" overflow="visible"/>
	</g>
	<g>
		
			<use xlink:href="#New_Symbol"  width="105" height="101.557" x="-52" y="-50.778" transform="matrix(-1.0436 0 0 1.0436 331.1196 298.9692)" overflow="visible"/>
		<g>
			
				<use xlink:href="#New_Symbol"  width="105" height="101.557" x="-52" y="-50.778" transform="matrix(0 1.0436 1.0436 0 336.8589 198.2646)" overflow="visible"/>
		</g>
	</g>
</g>
<g>
	<path fill="#010101" d="M449.238,311.252c-0.568,0.284-1.704,0.568-3.16,0.568c-3.372,0-5.91-2.13-5.91-6.052
		c0-3.745,2.538-6.283,6.248-6.283c1.491,0,2.431,0.32,2.84,0.532l-0.373,1.261c-0.586-0.284-1.42-0.498-2.415-0.498
		c-2.803,0-4.667,1.793-4.667,4.935c0,2.929,1.687,4.81,4.598,4.81c0.94,0,1.898-0.195,2.52-0.497L449.238,311.252z"/>
	<path fill="#010101" d="M461.017,305.537c0,4.118-2.502,6.301-5.555,6.301c-3.16,0-5.378-2.45-5.378-6.07
		c0-3.798,2.36-6.283,5.555-6.283C458.905,299.484,461.017,301.987,461.017,305.537z M451.735,305.732
		c0,2.556,1.385,4.846,3.815,4.846c2.449,0,3.834-2.254,3.834-4.97c0-2.378-1.242-4.863-3.815-4.863
		C453.013,300.745,451.735,303.105,451.735,305.732z"/>
	<path fill="#010101" d="M463.017,311.642V299.68h1.687l3.834,6.052c0.887,1.402,1.579,2.662,2.146,3.887l0.036-0.018
		c-0.143-1.597-0.177-3.053-0.177-4.917v-5.005h1.454v11.962h-1.561l-3.798-6.07c-0.835-1.331-1.635-2.698-2.237-3.994l-0.054,0.018
		c0.089,1.509,0.125,2.946,0.125,4.934v5.111H463.017z"/>
	<path fill="#010101" d="M474.477,309.761c0.692,0.426,1.704,0.781,2.769,0.781c1.58,0,2.503-0.834,2.503-2.041
		c0-1.118-0.639-1.758-2.254-2.379c-1.953-0.691-3.16-1.704-3.16-3.39c0-1.864,1.545-3.248,3.869-3.248
		c1.226,0,2.113,0.284,2.645,0.586l-0.425,1.26c-0.391-0.212-1.189-0.568-2.271-0.568c-1.633,0-2.255,0.977-2.255,1.793
		c0,1.118,0.729,1.668,2.378,2.307c2.024,0.781,3.053,1.757,3.053,3.514c0,1.846-1.366,3.443-4.188,3.443
		c-1.153,0-2.413-0.337-3.052-0.763L474.477,309.761z"/>
	<path fill="#010101" d="M489.63,306.034h-4.649v4.312h5.182v1.295h-6.727V299.68h6.461v1.296h-4.916v3.78h4.649V306.034z"/>
	<path fill="#010101" d="M493.708,299.68v11.962h-1.545V299.68H493.708z"/>
	<path fill="#010101" d="M496.404,299.68h1.545v10.667h5.111v1.295h-6.656V299.68z"/>
	<path fill="#010101" d="M514.732,306.034h-4.65v4.312h5.182v1.295h-6.727V299.68h6.46v1.296h-4.915v3.78h4.65V306.034z"/>
	<path fill="#010101" d="M517.265,311.642V299.68h1.687l3.834,6.052c0.887,1.402,1.578,2.662,2.146,3.887l0.036-0.018
		c-0.143-1.597-0.178-3.053-0.178-4.917v-5.005h1.455v11.962h-1.562l-3.798-6.07c-0.834-1.331-1.634-2.698-2.236-3.994l-0.054,0.018
		c0.089,1.509,0.125,2.946,0.125,4.934v5.111H517.265z"/>
	<path fill="#010101" d="M445.365,331.05c0.691,0.426,1.703,0.781,2.769,0.781c1.579,0,2.503-0.834,2.503-2.041
		c0-1.118-0.64-1.757-2.255-2.378c-1.952-0.692-3.159-1.704-3.159-3.39c0-1.864,1.545-3.248,3.869-3.248
		c1.225,0,2.112,0.284,2.645,0.586l-0.426,1.26c-0.39-0.213-1.189-0.568-2.271-0.568c-1.633,0-2.254,0.976-2.254,1.792
		c0,1.119,0.728,1.668,2.378,2.308c2.023,0.78,3.052,1.757,3.052,3.514c0,1.846-1.365,3.443-4.188,3.443
		c-1.153,0-2.413-0.337-3.053-0.763L445.365,331.05z"/>
	<path fill="#010101" d="M456.594,322.282h-3.638v-1.313h8.855v1.313h-3.655v10.649h-1.562V322.282z"/>
	<path fill="#010101" d="M463.139,321.129c0.782-0.16,1.899-0.249,2.965-0.249c1.65,0,2.715,0.302,3.461,0.977
		c0.604,0.532,0.94,1.349,0.94,2.272c0,1.579-0.993,2.627-2.254,3.052v0.054c0.923,0.319,1.474,1.171,1.758,2.414
		c0.39,1.668,0.674,2.821,0.923,3.283h-1.598c-0.195-0.337-0.462-1.367-0.799-2.857c-0.355-1.651-0.994-2.272-2.396-2.326h-1.454
		v5.183h-1.546V321.129z M464.685,326.578h1.578c1.651,0,2.698-0.905,2.698-2.272c0-1.544-1.118-2.218-2.751-2.236
		c-0.745,0-1.278,0.071-1.525,0.143V326.578z"/>
	<path fill="#010101" d="M474.708,329.168l-1.242,3.763h-1.598l4.064-11.963h1.863l4.081,11.963h-1.649l-1.278-3.763H474.708z
		 M478.629,327.962l-1.171-3.443c-0.267-0.781-0.444-1.491-0.622-2.183h-0.035c-0.178,0.71-0.372,1.438-0.604,2.166l-1.171,3.461
		H478.629z"/>
	<path fill="#010101" d="M484.536,322.282h-3.639v-1.313h8.856v1.313h-3.655v10.649h-1.562V322.282z"/>
	<path fill="#010101" d="M497.275,327.323h-4.649v4.313h5.182v1.295h-6.727v-11.963h6.46v1.296h-4.915v3.78h4.649V327.323z"/>
	<path fill="#010101" d="M508.914,332.399c-0.692,0.249-2.059,0.657-3.673,0.657c-1.811,0-3.302-0.461-4.474-1.58
		c-1.03-0.994-1.668-2.591-1.668-4.455c0.018-3.567,2.467-6.176,6.478-6.176c1.385,0,2.467,0.301,2.982,0.55l-0.373,1.26
		c-0.639-0.284-1.438-0.515-2.645-0.515c-2.911,0-4.81,1.81-4.81,4.81c0,3.035,1.827,4.827,4.614,4.827
		c1.012,0,1.704-0.142,2.06-0.319v-3.567h-2.432v-1.243h3.939V332.399z"/>
	<path fill="#010101" d="M512.814,320.969v11.963h-1.545v-11.963H512.814z"/>
	<path fill="#010101" d="M521.704,327.323h-4.65v4.313h5.182v1.295h-6.727v-11.963h6.462v1.296h-4.917v3.78h4.65V327.323z"/>
</g>
<g>
	<path fill="#010101" d="M50.554,309.76c0.692,0.426,1.704,0.781,2.769,0.781c1.579,0,2.502-0.834,2.502-2.041
		c0-1.119-0.639-1.757-2.254-2.379c-1.952-0.692-3.159-1.704-3.159-3.39c0-1.864,1.544-3.248,3.869-3.248
		c1.225,0,2.112,0.284,2.645,0.585l-0.426,1.26c-0.391-0.212-1.189-0.568-2.272-0.568c-1.633,0-2.254,0.977-2.254,1.792
		c0,1.119,0.727,1.668,2.378,2.308c2.023,0.781,3.053,1.757,3.053,3.514c0,1.846-1.367,3.443-4.189,3.443
		c-1.153,0-2.414-0.337-3.053-0.763L50.554,309.76z"/>
	<path fill="#010101" d="M61.057,299.679v7.082c0,2.68,1.189,3.815,2.787,3.815c1.775,0,2.911-1.171,2.911-3.815v-7.082h1.562v6.975
		c0,3.674-1.934,5.183-4.526,5.183c-2.449,0-4.295-1.402-4.295-5.112v-7.046H61.057z"/>
	<path fill="#010101" d="M72.535,299.679v11.962h-1.544v-11.962H72.535z"/>
	<path fill="#010101" d="M77.858,311.642l-3.905-11.962h1.669l1.863,5.893c0.515,1.615,0.958,3.07,1.278,4.472h0.036
		c0.337-1.384,0.834-2.893,1.367-4.455l2.023-5.91h1.65l-4.277,11.962H77.858z"/>
	<path fill="#010101" d="M86.674,299.679v11.962h-1.543v-11.962H86.674z"/>
	<path fill="#010101" d="M100.622,311.642c-0.337-0.337-0.657-0.674-1.118-1.171c-1.03,0.958-2.183,1.367-3.497,1.367
		c-2.325,0-3.674-1.562-3.674-3.354c0-1.633,0.976-2.751,2.343-3.497v-0.053c-0.621-0.781-0.994-1.651-0.994-2.503
		c0-1.455,1.047-2.946,3.035-2.946c1.491,0,2.645,0.994,2.645,2.538c0,1.26-0.728,2.254-2.626,3.194v0.053
		c1.011,1.172,2.147,2.485,2.91,3.337c0.551-0.834,0.923-1.988,1.154-3.496h1.42c-0.32,1.881-0.834,3.372-1.722,4.419
		c0.639,0.675,1.26,1.349,1.97,2.112H100.622z M98.74,309.583c-0.71-0.781-2.041-2.237-3.372-3.763
		c-0.639,0.408-1.544,1.171-1.544,2.431c0,1.367,1.012,2.414,2.45,2.414C97.303,310.665,98.172,310.204,98.74,309.583z
		 M95.102,302.288c0,0.852,0.391,1.509,0.905,2.148c1.207-0.692,1.988-1.331,1.988-2.343c0-0.728-0.408-1.544-1.384-1.544
		C95.616,300.549,95.102,301.365,95.102,302.288z"/>
	<path fill="#010101" d="M3.853,329.168l-1.242,3.762H1.013l4.064-11.962h1.864l4.082,11.962h-1.65l-1.278-3.762H3.853z
		 M7.775,327.961l-1.171-3.443c-0.266-0.781-0.444-1.491-0.621-2.183H5.948c-0.178,0.71-0.373,1.438-0.604,2.166l-1.172,3.461H7.775
		z"/>
	<path fill="#010101" d="M20.87,332.541c-0.568,0.284-1.704,0.568-3.16,0.568c-3.372,0-5.91-2.13-5.91-6.052
		c0-3.745,2.538-6.283,6.248-6.283c1.491,0,2.431,0.32,2.84,0.533l-0.373,1.26c-0.586-0.284-1.42-0.497-2.414-0.497
		c-2.805,0-4.668,1.792-4.668,4.934c0,2.929,1.686,4.81,4.597,4.81c0.94,0,1.899-0.195,2.52-0.497L20.87,332.541z"/>
	<path fill="#010101" d="M30.786,332.541c-0.568,0.284-1.704,0.568-3.16,0.568c-3.372,0-5.91-2.13-5.91-6.052
		c0-3.745,2.538-6.283,6.248-6.283c1.491,0,2.431,0.32,2.84,0.533l-0.373,1.26c-0.586-0.284-1.419-0.497-2.414-0.497
		c-2.805,0-4.668,1.792-4.668,4.934c0,2.929,1.686,4.81,4.597,4.81c0.941,0,1.899-0.195,2.52-0.497L30.786,332.541z"/>
	<path fill="#010101" d="M42.567,326.825c0,4.118-2.503,6.301-5.556,6.301c-3.16,0-5.378-2.449-5.378-6.07
		c0-3.798,2.36-6.283,5.555-6.283C40.455,320.773,42.567,323.276,42.567,326.825z M33.284,327.021c0,2.556,1.385,4.845,3.816,4.845
		c2.449,0,3.833-2.254,3.833-4.969c0-2.378-1.242-4.863-3.816-4.863C34.562,322.034,33.284,324.394,33.284,327.021z"/>
	<path fill="#010101" d="M54.648,327.677c-0.088-1.668-0.195-3.674-0.177-5.165h-0.053c-0.409,1.402-0.906,2.893-1.509,4.543
		l-2.112,5.804h-1.172l-1.934-5.698c-0.568-1.686-1.048-3.23-1.385-4.65h-0.035c-0.036,1.49-0.125,3.497-0.231,5.289l-0.32,5.129
		h-1.473l0.833-11.962h1.97l2.041,5.786c0.498,1.474,0.905,2.787,1.208,4.03h0.053c0.301-1.208,0.727-2.521,1.259-4.03l2.13-5.786
		h1.971l0.745,11.962H54.95L54.648,327.677z"/>
	<path fill="#010101" d="M58.83,321.11c0.746-0.124,1.722-0.231,2.964-0.231c1.526,0,2.645,0.355,3.355,0.994
		c0.657,0.568,1.047,1.438,1.047,2.502c0,1.083-0.32,1.935-0.923,2.556c-0.817,0.87-2.148,1.313-3.656,1.313
		c-0.461,0-0.887-0.018-1.242-0.106v4.792H58.83V321.11z M60.375,326.878c0.337,0.089,0.763,0.125,1.278,0.125
		c1.864,0,3-0.905,3-2.556c0-1.58-1.118-2.343-2.822-2.343c-0.674,0-1.189,0.053-1.455,0.125V326.878z"/>
	<path fill="#010101" d="M68.712,329.168l-1.242,3.762h-1.597l4.064-11.962h1.864l4.082,11.962h-1.651l-1.278-3.762H68.712z
		 M72.635,327.961l-1.171-3.443c-0.267-0.781-0.444-1.491-0.622-2.183h-0.035c-0.178,0.71-0.373,1.438-0.604,2.166l-1.171,3.461
		H72.635z"/>
	<path fill="#010101" d="M86.474,332.398c-0.692,0.249-2.059,0.657-3.674,0.657c-1.811,0-3.302-0.461-4.473-1.58
		c-1.029-0.994-1.668-2.59-1.668-4.455c0.018-3.567,2.467-6.176,6.478-6.176c1.385,0,2.468,0.302,2.982,0.55l-0.373,1.261
		c-0.639-0.284-1.438-0.515-2.644-0.515c-2.911,0-4.81,1.811-4.81,4.81c0,3.035,1.829,4.828,4.614,4.828
		c1.012,0,1.704-0.142,2.059-0.319v-3.568h-2.431v-1.242h3.94V332.398z"/>
	<path fill="#010101" d="M88.83,332.931v-11.962h1.686l3.833,6.052c0.888,1.402,1.58,2.662,2.148,3.887l0.035-0.018
		c-0.142-1.597-0.178-3.053-0.178-4.916v-5.005h1.456v11.962h-1.562l-3.798-6.07c-0.834-1.331-1.632-2.698-2.236-3.994l-0.053,0.018
		c0.088,1.509,0.124,2.946,0.124,4.934v5.111H88.83z"/>
	<path fill="#010101" d="M106.696,327.322h-4.65v4.313h5.183v1.295h-6.727v-11.962h6.46v1.296h-4.917v3.781h4.65V327.322z"/>
	<path fill="#010101" d="M119.312,327.677c-0.088-1.668-0.195-3.674-0.177-5.165h-0.053c-0.408,1.402-0.906,2.893-1.509,4.543
		l-2.112,5.804h-1.171l-1.934-5.698c-0.568-1.686-1.047-3.23-1.385-4.65h-0.035c-0.036,1.49-0.125,3.497-0.23,5.289l-0.32,5.129
		h-1.473l0.834-11.962h1.97l2.041,5.786c0.497,1.474,0.905,2.787,1.207,4.03h0.053c0.302-1.208,0.728-2.521,1.26-4.03l2.13-5.786
		h1.97l0.746,11.962h-1.509L119.312,327.677z"/>
	<path fill="#010101" d="M129.688,327.322h-4.65v4.313h5.183v1.295h-6.728v-11.962h6.461v1.296h-4.917v3.781h4.65V327.322z"/>
	<path fill="#010101" d="M132.222,332.931v-11.962h1.686l3.834,6.052c0.887,1.402,1.579,2.662,2.147,3.887l0.036-0.018
		c-0.142-1.597-0.177-3.053-0.177-4.916v-5.005h1.455v11.962h-1.562l-3.798-6.07c-0.834-1.331-1.633-2.698-2.236-3.994l-0.053,0.018
		c0.088,1.509,0.124,2.946,0.124,4.934v5.111H132.222z"/>
	<path fill="#010101" d="M146.167,322.282h-3.638v-1.313h8.856v1.313h-3.656v10.649h-1.562V322.282z"/>
</g>
</svg>
