<?xml version="1.0" encoding="utf-8"?>
<!-- Generator: Adobe Illustrator 16.0.0, SVG Export Plug-In . SVG Version: 6.00 Build 0)  -->
<!DOCTYPE svg PUBLIC "-//W3C//DTD SVG 1.1//EN" "http://www.w3.org/Graphics/SVG/1.1/DTD/svg11.dtd">
<svg version="1.1" id="Layer_1" xmlns="http://www.w3.org/2000/svg" xmlns:xlink="http://www.w3.org/1999/xlink" x="0px" y="0px"
	 width="500.261px" height="475.999px" viewBox="0 0 500.261 475.999" enable-background="new 0 0 500.261 475.999"
	 xml:space="preserve">
<circle fill="#E41B4C" cx="251.293" cy="245.46" r="83.418"/>
<g>
	<circle fill="#FFFFFF" stroke="#E41B4C" stroke-width="2" stroke-miterlimit="2" cx="409.997" cy="120.674" r="50.667"/>
	<g>
		<path fill="#010101" d="M383.698,114.388c0.901-0.136,1.972-0.238,3.145-0.238c2.125,0,3.638,0.493,4.641,1.428
			c1.021,0.936,1.614,2.261,1.614,4.114c0,1.869-0.578,3.399-1.648,4.453c-1.07,1.071-2.838,1.648-5.065,1.648
			c-1.054,0-1.938-0.051-2.686-0.136V114.388z M385.177,124.519c0.374,0.068,0.918,0.085,1.496,0.085
			c3.161,0,4.878-1.768,4.878-4.861c0.018-2.703-1.512-4.42-4.641-4.42c-0.764,0-1.342,0.068-1.733,0.153V124.519z"/>
		<path fill="#010101" d="M396.498,114.234v11.457h-1.479v-11.457H396.498z"/>
		<path fill="#010101" d="M407.803,125.182c-0.663,0.238-1.972,0.629-3.519,0.629c-1.733,0-3.161-0.442-4.283-1.513
			c-0.986-0.952-1.599-2.482-1.599-4.267c0.018-3.417,2.363-5.916,6.205-5.916c1.326,0,2.362,0.289,2.855,0.527l-0.356,1.207
			c-0.612-0.272-1.377-0.493-2.533-0.493c-2.788,0-4.606,1.733-4.606,4.606c0,2.907,1.751,4.624,4.42,4.624
			c0.969,0,1.632-0.137,1.972-0.307v-3.416h-2.329v-1.19h3.773V125.182z"/>
		<path fill="#010101" d="M411.544,114.234v11.457h-1.479v-11.457H411.544z"/>
		<path fill="#010101" d="M416.304,115.492h-3.484v-1.258h8.481v1.258H417.8v10.199h-1.496V115.492z"/>
		<path fill="#010101" d="M423.154,122.088l-1.189,3.604h-1.53l3.893-11.457h1.785l3.909,11.457h-1.58l-1.225-3.604H423.154z
			 M426.911,120.932l-1.122-3.298c-0.255-0.747-0.425-1.428-0.595-2.091h-0.034c-0.17,0.681-0.356,1.377-0.578,2.074l-1.122,3.314
			H426.911z"/>
		<path fill="#010101" d="M431.706,114.234h1.479v10.216h4.896v1.241h-6.374V114.234z"/>
	</g>
</g>
<g>
	<circle fill="#FFFFFF" stroke="#E41B4C" stroke-width="2" stroke-miterlimit="2" cx="447.997" cy="285.674" r="50.667"/>
	<g>
		<path fill="#010101" d="M427.77,280.626c0.715-0.118,1.649-0.221,2.839-0.221c1.462,0,2.533,0.34,3.213,0.952
			c0.629,0.544,1.003,1.377,1.003,2.396c0,1.037-0.307,1.853-0.884,2.448c-0.782,0.833-2.058,1.258-3.502,1.258
			c-0.442,0-0.85-0.018-1.19-0.103v4.59h-1.479V280.626z M429.248,286.15c0.324,0.086,0.731,0.119,1.225,0.119
			c1.785,0,2.873-0.866,2.873-2.447c0-1.513-1.071-2.244-2.703-2.244c-0.646,0-1.139,0.051-1.395,0.119V286.15z"/>
		<path fill="#010101" d="M436.814,280.644c0.747-0.153,1.818-0.238,2.838-0.238c1.581,0,2.601,0.289,3.314,0.935
			c0.578,0.511,0.901,1.292,0.901,2.176c0,1.514-0.952,2.517-2.159,2.924v0.052c0.885,0.306,1.411,1.121,1.684,2.312
			c0.374,1.598,0.646,2.702,0.884,3.145h-1.53c-0.187-0.323-0.441-1.309-0.765-2.736c-0.34-1.581-0.952-2.176-2.295-2.228h-1.394
			v4.964h-1.479V280.644z M438.293,285.862h1.513c1.581,0,2.584-0.867,2.584-2.176c0-1.479-1.071-2.125-2.636-2.143
			c-0.713,0-1.223,0.068-1.461,0.137V285.862z"/>
		<path fill="#010101" d="M447.438,280.49v11.457h-1.479V280.49H447.438z"/>
		<path fill="#010101" d="M450.022,291.947V280.49h1.614l3.672,5.797c0.851,1.343,1.513,2.55,2.057,3.723l0.034-0.018
			c-0.136-1.529-0.17-2.924-0.17-4.708v-4.794h1.394v11.457h-1.495l-3.638-5.813c-0.799-1.274-1.564-2.584-2.142-3.824l-0.052,0.017
			c0.085,1.445,0.119,2.822,0.119,4.726v4.896H450.022z"/>
		<path fill="#010101" d="M463.384,281.748h-3.484v-1.258h8.481v1.258h-3.501v10.199h-1.496V281.748z"/>
	</g>
</g>
<g>
	<circle fill="#FFFFFF" stroke="#E41B4C" stroke-width="2" stroke-miterlimit="2" cx="334.997" cy="422.674" r="50.667"/>
	<g>
		<path fill="#010101" d="M315.875,428.947l-3.74-11.457h1.599l1.784,5.644c0.493,1.547,0.918,2.94,1.225,4.283h0.033
			c0.323-1.325,0.799-2.771,1.31-4.267l1.938-5.66h1.581l-4.097,11.457H315.875z"/>
		<path fill="#010101" d="M324.324,417.49v11.457h-1.479V417.49H324.324z"/>
		<path fill="#010101" d="M326.908,417.644c0.9-0.136,1.972-0.238,3.145-0.238c2.125,0,3.638,0.493,4.641,1.428
			c1.02,0.936,1.615,2.261,1.615,4.114c0,1.869-0.578,3.399-1.649,4.453c-1.07,1.071-2.839,1.648-5.065,1.648
			c-1.054,0-1.938-0.051-2.686-0.136V417.644z M328.387,427.774c0.374,0.068,0.918,0.085,1.496,0.085
			c3.162,0,4.879-1.768,4.879-4.861c0.017-2.703-1.514-4.42-4.641-4.42c-0.766,0-1.343,0.068-1.734,0.153V427.774z"/>
		<path fill="#010101" d="M344.162,423.576h-4.454v4.13h4.964v1.241h-6.442V417.49h6.188v1.241h-4.709v3.62h4.454V423.576z
			 M343.873,414.89l-2.159,1.989h-1.224l1.581-1.989H343.873z"/>
		<path fill="#010101" d="M356.385,423.1c0,3.943-2.396,6.034-5.32,6.034c-3.026,0-5.15-2.346-5.15-5.812
			c0-3.638,2.261-6.018,5.32-6.018C354.362,417.304,356.385,419.7,356.385,423.1z M347.494,423.287c0,2.447,1.326,4.641,3.655,4.641
			c2.346,0,3.671-2.159,3.671-4.76c0-2.278-1.189-4.657-3.654-4.657C348.719,418.511,347.494,420.771,347.494,423.287z"/>
	</g>
</g>
<g>
	<circle fill="#FFFFFF" stroke="#E41B4C" stroke-width="2" stroke-miterlimit="2" cx="164.997" cy="423.674" r="50.667"/>
	<g>
		<path fill="#010101" d="M149.099,424.576h-4.454v4.13h4.964v1.241h-6.442V418.49h6.187v1.241h-4.708v3.62h4.454V424.576z"/>
		<path fill="#010101" d="M154.199,429.947l-3.74-11.457h1.598l1.785,5.644c0.493,1.547,0.918,2.94,1.224,4.283h0.034
			c0.323-1.325,0.799-2.771,1.309-4.267l1.938-5.66h1.581l-4.096,11.457H154.199z"/>
		<path fill="#010101" d="M167.102,424.576h-4.454v4.13h4.964v1.241h-6.442V418.49h6.188v1.241h-4.709v3.62h4.454V424.576z"/>
		<path fill="#010101" d="M169.533,429.947V418.49h1.614l3.672,5.797c0.851,1.343,1.513,2.55,2.057,3.723l0.034-0.018
			c-0.136-1.529-0.17-2.924-0.17-4.708v-4.794h1.394v11.457h-1.495l-3.638-5.813c-0.799-1.274-1.564-2.584-2.142-3.824l-0.052,0.017
			c0.085,1.445,0.119,2.822,0.119,4.726v4.896H169.533z"/>
		<path fill="#010101" d="M182.895,419.748h-3.484v-1.258h8.481v1.258h-3.501v10.199h-1.496V419.748z"/>
	</g>
</g>
<g>
	<circle fill="#FFFFFF" stroke="#E41B4C" stroke-width="2" stroke-miterlimit="2" cx="53.997" cy="290.674" r="50.667"/>
	<g>
		<path fill="#010101" d="M45.406,285.644c0.748-0.153,1.818-0.238,2.839-0.238c1.58,0,2.601,0.289,3.314,0.935
			c0.578,0.511,0.9,1.292,0.9,2.176c0,1.514-0.951,2.517-2.158,2.924v0.052c0.884,0.306,1.411,1.121,1.683,2.312
			c0.374,1.598,0.646,2.702,0.884,3.145h-1.529c-0.188-0.323-0.442-1.309-0.766-2.736c-0.34-1.581-0.951-2.176-2.294-2.228h-1.395
			v4.964h-1.479V285.644z M46.885,290.862h1.513c1.581,0,2.584-0.867,2.584-2.176c0-1.479-1.07-2.125-2.635-2.143
			c-0.714,0-1.224,0.068-1.462,0.137V290.862z"/>
		<path fill="#010101" d="M54.552,285.626c0.714-0.118,1.648-0.221,2.839-0.221c1.462,0,2.532,0.34,3.212,0.952
			c0.63,0.544,1.003,1.377,1.003,2.396c0,1.037-0.306,1.853-0.884,2.448c-0.781,0.833-2.057,1.258-3.501,1.258
			c-0.442,0-0.851-0.018-1.19-0.103v4.59h-1.479V285.626z M56.03,291.15c0.323,0.086,0.731,0.119,1.224,0.119
			c1.785,0,2.873-0.866,2.873-2.447c0-1.513-1.07-2.244-2.702-2.244c-0.646,0-1.14,0.051-1.395,0.119V291.15z"/>
	</g>
</g>
<g>
	<circle fill="#FFFFFF" stroke="#E41B4C" stroke-width="2" stroke-miterlimit="2" cx="92.997" cy="123.674" r="50.667"/>
	<g>
		<path fill="#010101" d="M70.701,115.088l-1.19,3.604h-1.53l3.893-11.457h1.785l3.91,11.457h-1.581l-1.224-3.604H70.701z
			 M74.458,113.932l-1.122-3.298c-0.255-0.747-0.425-1.428-0.595-2.091h-0.034c-0.17,0.681-0.357,1.377-0.578,2.074l-1.122,3.314
			H74.458z"/>
		<path fill="#010101" d="M87.004,118.317c-0.544,0.272-1.632,0.544-3.026,0.544c-3.23,0-5.661-2.04-5.661-5.796
			c0-3.587,2.431-6.018,5.983-6.018c1.428,0,2.329,0.306,2.72,0.51l-0.356,1.207c-0.562-0.272-1.36-0.477-2.312-0.477
			c-2.686,0-4.471,1.717-4.471,4.726c0,2.805,1.615,4.606,4.402,4.606c0.901,0,1.819-0.187,2.414-0.476L87.004,118.317z"/>
		<path fill="#010101" d="M90.336,107.234v4.794h5.542v-4.794h1.495v11.457h-1.495v-5.371h-5.542v5.371h-1.479v-11.457H90.336z"/>
		<path fill="#010101" d="M101.794,115.088l-1.189,3.604h-1.53l3.893-11.457h1.785l3.909,11.457h-1.581l-1.224-3.604H101.794z
			 M105.551,113.932l-1.122-3.298c-0.255-0.747-0.425-1.428-0.595-2.091H103.8c-0.17,0.681-0.356,1.377-0.578,2.074l-1.122,3.314
			H105.551z"/>
		<path fill="#010101" d="M111.213,108.492h-3.484v-1.258h8.481v1.258h-3.501v10.199h-1.496V108.492z"/>
		<path fill="#010101" d="M59.304,127.787c0.901-0.136,1.972-0.238,3.145-0.238c2.125,0,3.638,0.493,4.641,1.428
			c1.02,0.936,1.615,2.261,1.615,4.114c0,1.869-0.578,3.399-1.649,4.453c-1.071,1.071-2.838,1.648-5.065,1.648
			c-1.054,0-1.938-0.051-2.686-0.136V127.787z M60.782,137.918c0.374,0.068,0.918,0.085,1.496,0.085
			c3.162,0,4.878-1.768,4.878-4.861c0.017-2.703-1.513-4.42-4.641-4.42c-0.765,0-1.343,0.068-1.734,0.153V137.918z"/>
		<path fill="#010101" d="M72.614,127.447c-0.391,1.428-1.122,3.246-1.598,4.028l-0.952,0.119c0.374-1.003,0.816-2.771,1.003-3.995
			L72.614,127.447z"/>
		<path fill="#010101" d="M80.229,133.72h-4.454v4.13h4.964v1.241h-6.442v-11.457h6.188v1.241h-4.709v3.62h4.454V133.72z"/>
		<path fill="#010101" d="M82.457,137.289c0.663,0.408,1.632,0.748,2.652,0.748c1.513,0,2.396-0.799,2.396-1.955
			c0-1.07-0.611-1.683-2.159-2.277c-1.87-0.663-3.026-1.632-3.026-3.247c0-1.785,1.479-3.11,3.706-3.11
			c1.173,0,2.022,0.271,2.532,0.561l-0.407,1.207c-0.374-0.204-1.14-0.544-2.176-0.544c-1.564,0-2.159,0.935-2.159,1.717
			c0,1.071,0.697,1.598,2.277,2.21c1.938,0.748,2.924,1.683,2.924,3.365c0,1.768-1.309,3.298-4.011,3.298
			c-1.105,0-2.312-0.323-2.924-0.73L82.457,137.289z"/>
		<path fill="#010101" d="M91.041,127.77c0.714-0.118,1.648-0.221,2.839-0.221c1.462,0,2.532,0.34,3.212,0.952
			c0.63,0.544,1.003,1.377,1.003,2.396c0,1.037-0.306,1.853-0.884,2.448c-0.781,0.833-2.057,1.258-3.501,1.258
			c-0.442,0-0.851-0.018-1.19-0.103v4.59h-1.479V127.77z M92.52,133.294c0.323,0.085,0.731,0.119,1.224,0.119
			c1.785,0,2.873-0.866,2.873-2.447c0-1.513-1.07-2.244-2.702-2.244c-0.646,0-1.14,0.051-1.395,0.119V133.294z"/>
		<path fill="#010101" d="M100.51,135.487l-1.189,3.604h-1.53l3.893-11.457h1.785l3.909,11.457h-1.58l-1.225-3.604H100.51z
			 M104.267,134.331l-1.122-3.298c-0.255-0.747-0.425-1.428-0.595-2.091h-0.034c-0.17,0.681-0.356,1.377-0.578,2.074l-1.122,3.314
			H104.267z"/>
		<path fill="#010101" d="M116.812,138.717c-0.544,0.272-1.632,0.544-3.025,0.544c-3.229,0-5.66-2.04-5.66-5.796
			c0-3.587,2.431-6.018,5.983-6.018c1.428,0,2.328,0.306,2.72,0.51l-0.357,1.207c-0.561-0.272-1.359-0.477-2.312-0.477
			c-2.686,0-4.471,1.717-4.471,4.726c0,2.805,1.615,4.606,4.402,4.606c0.901,0,1.819-0.187,2.414-0.476L116.812,138.717z"/>
		<path fill="#010101" d="M124.599,133.72h-4.454v4.13h4.964v1.241h-6.442v-11.457h6.188v1.241h-4.709v3.62h4.454V133.72z"/>
	</g>
</g>
<g>
	<circle fill="#FFFFFF" stroke="#E41B4C" stroke-width="2" stroke-miterlimit="2" cx="252.997" cy="52.674" r="50.667"/>
	<g>
		<path fill="#010101" d="M216.899,55.269c0.663,0.408,1.632,0.748,2.652,0.748c1.513,0,2.396-0.799,2.396-1.955
			c0-1.071-0.612-1.683-2.159-2.277c-1.87-0.663-3.025-1.632-3.025-3.247c0-1.785,1.479-3.11,3.706-3.11
			c1.173,0,2.022,0.271,2.533,0.561l-0.408,1.207c-0.374-0.204-1.139-0.544-2.176-0.544c-1.564,0-2.159,0.935-2.159,1.717
			c0,1.071,0.697,1.598,2.278,2.21c1.938,0.748,2.924,1.683,2.924,3.365c0,1.769-1.309,3.298-4.012,3.298
			c-1.105,0-2.312-0.323-2.924-0.73L216.899,55.269z"/>
		<path fill="#010101" d="M227.66,46.871h-3.485v-1.258h8.482v1.258h-3.502V57.07h-1.496V46.871z"/>
		<path fill="#010101" d="M233.933,45.767c0.748-0.153,1.819-0.238,2.838-0.238c1.581,0,2.601,0.289,3.315,0.935
			c0.578,0.511,0.901,1.292,0.901,2.176c0,1.514-0.952,2.517-2.159,2.924v0.052c0.884,0.306,1.411,1.121,1.683,2.312
			c0.374,1.598,0.646,2.702,0.884,3.145h-1.53c-0.187-0.323-0.442-1.309-0.765-2.736c-0.34-1.581-0.952-2.176-2.295-2.228h-1.394
			v4.964h-1.479V45.767z M235.412,50.985h1.513c1.581,0,2.583-0.867,2.583-2.176c0-1.479-1.071-2.125-2.635-2.143
			c-0.714,0-1.224,0.068-1.462,0.137V50.985z"/>
		<path fill="#010101" d="M245.017,53.467l-1.19,3.604h-1.53l3.893-11.457h1.785l3.909,11.457h-1.581l-1.224-3.604H245.017z
			 M248.773,52.311l-1.122-3.298c-0.255-0.747-0.425-1.428-0.595-2.091h-0.034c-0.17,0.681-0.357,1.377-0.578,2.074l-1.122,3.314
			H248.773z"/>
		<path fill="#010101" d="M254.436,46.871h-3.484v-1.258h8.481v1.258h-3.501V57.07h-1.496V46.871z"/>
		<path fill="#010101" d="M266.642,51.699h-4.454v4.13h4.964v1.241h-6.442V45.613h6.188v1.241h-4.709v3.62h4.454V51.699z
			 M266.353,43.013l-2.159,1.989h-1.224l1.581-1.989H266.353z"/>
		<path fill="#010101" d="M277.793,56.561c-0.663,0.238-1.972,0.629-3.519,0.629c-1.733,0-3.161-0.442-4.283-1.513
			c-0.986-0.952-1.598-2.482-1.598-4.267c0.017-3.417,2.362-5.916,6.204-5.916c1.326,0,2.362,0.289,2.855,0.527l-0.356,1.207
			c-0.612-0.272-1.377-0.493-2.533-0.493c-2.788,0-4.606,1.733-4.606,4.606c0,2.907,1.751,4.624,4.42,4.624
			c0.969,0,1.632-0.137,1.972-0.307v-3.416h-2.329v-1.19h3.773V56.561z"/>
		<path fill="#010101" d="M281.533,45.613V57.07h-1.479V45.613H281.533z"/>
		<path fill="#010101" d="M290.05,51.699h-4.454v4.13h4.964v1.241h-6.442V45.613h6.188v1.241h-4.709v3.62h4.454V51.699z"/>
	</g>
</g>
<rect x="150.811" y="231.391" fill="none" width="216.379" height="61.219"/>
<text transform="matrix(1 0 0 1 218.1895 261.3906)" fill="#FFFFFF" font-family="'Roboto-Light'" font-size="40">360°</text>
</svg>
