<?xml version="1.0" encoding="utf-8"?>
<!-- Generator: Adobe Illustrator 16.0.0, SVG Export Plug-In . SVG Version: 6.00 Build 0)  -->
<!DOCTYPE svg PUBLIC "-//W3C//DTD SVG 1.1//EN" "http://www.w3.org/Graphics/SVG/1.1/DTD/svg11.dtd">
<svg version="1.1" id="Layer_1" xmlns="http://www.w3.org/2000/svg" xmlns:xlink="http://www.w3.org/1999/xlink" x="0px" y="0px"
	 width="465.394px" height="116.478px" viewBox="0 0 465.394 116.478" enable-background="new 0 0 465.394 116.478"
	 xml:space="preserve">
<g>
	<g>
		<g>
			<path fill="#FFFFFF" d="M297.993,80.23c0,0.312-0.106,0.595-0.333,0.849c-0.229,0.249-0.508,0.378-0.837,0.378h-3.946
				c-0.379,0-0.687-0.111-0.937-0.332c-0.257-0.226-0.381-0.522-0.381-0.895l0.411-40.604c0-0.368,0.129-0.669,0.395-0.895
				c0.263-0.221,0.551-0.333,0.857-0.333h3.133c0.315,0,0.59,0.126,0.832,0.379c0.244,0.254,0.368,0.556,0.368,0.906L297.993,80.23z
				"/>
			<path fill="#FFFFFF" d="M366.099,71.482c-0.555,1.639-1.286,3.112-2.214,4.42c-0.923,1.305-2.016,2.418-3.264,3.33
				c-1.247,0.922-2.643,1.628-4.178,2.127c-1.541,0.494-3.207,0.743-4.976,0.743c-2.282,0-4.393-0.401-6.321-1.198
				c-1.927-0.799-3.592-1.914-4.987-3.337c-1.391-1.421-2.478-3.12-3.263-5.09c-0.78-1.97-1.166-4.128-1.166-6.462
				c0-2.227,0.347-4.334,1.05-6.322c0.701-1.986,1.729-3.723,3.072-5.205c1.343-1.485,3.006-2.659,4.975-3.528
				c1.971-0.866,4.234-1.299,6.785-1.299c1.72,0,3.303,0.255,4.76,0.76c1.445,0.505,2.747,1.176,3.89,2.005
				c1.134,0.831,2.114,1.789,2.92,2.881c0.808,1.092,1.434,2.223,1.859,3.391c0.174,0.509,0.126,0.934-0.159,1.276
				c-0.279,0.339-0.629,0.512-1.045,0.512h-3.86c-0.214,0-0.418-0.05-0.612-0.147c-0.191-0.1-0.328-0.253-0.406-0.468
				c-0.429-0.837-0.932-1.555-1.526-2.15c-0.581-0.593-1.199-1.087-1.854-1.477c-0.648-0.39-1.321-0.68-2.005-0.864
				c-0.682-0.185-1.335-0.277-1.96-0.277c-1.518,0-2.869,0.291-4.052,0.864c-1.182,0.571-2.17,1.348-2.967,2.323
				c-0.799,0.977-1.408,2.104-1.815,3.393c-0.405,1.287-0.607,2.645-0.607,4.068c0,1.795,0.22,3.34,0.667,4.637
				c0.445,1.301,1.088,2.361,1.905,3.203c0.819,0.838,1.804,1.455,2.966,1.858c1.16,0.397,2.46,0.601,3.903,0.601
				c0.779,0,1.569-0.113,2.358-0.34c0.783-0.223,1.546-0.568,2.262-1.037c0.723-0.472,1.404-1.055,2.035-1.754
				c0.638-0.705,1.188-1.529,1.657-2.488c0.154-0.408,0.519-0.641,1.107-0.701h3.836c0.29,0.018,0.525,0.1,0.715,0.231
				c0.187,0.14,0.324,0.292,0.42,0.47c0.1,0.176,0.152,0.361,0.17,0.555C366.173,71.181,366.156,71.348,366.099,71.482z"/>
			<path fill="#FFFFFF" d="M397.954,80.23c0,0.312-0.113,0.595-0.339,0.849c-0.225,0.249-0.501,0.378-0.828,0.378h-3.951
				c-0.372,0-0.684-0.111-0.94-0.332c-0.255-0.226-0.377-0.522-0.377-0.895l0.2-18.636c0-0.915-0.112-1.769-0.335-2.56
				c-0.224-0.788-0.57-1.477-1.034-2.062c-0.463-0.585-1.054-1.042-1.744-1.375c-0.691-0.33-1.493-0.497-2.412-0.497
				c-1.097,0-2.15,0.223-3.154,0.674c-1.019,0.448-1.92,1.077-2.699,1.885c-0.777,0.814-1.404,1.781-1.872,2.912
				s-0.69,2.379-0.669,3.743l0.17,15.915c0,0.312-0.113,0.595-0.333,0.849c-0.227,0.249-0.499,0.378-0.834,0.378h-3.951
				c-0.368,0-0.684-0.111-0.932-0.332c-0.259-0.226-0.381-0.522-0.381-0.895l0.407-40.604c0-0.368,0.135-0.669,0.39-0.895
				c0.27-0.221,0.555-0.333,0.87-0.333h3.132c0.311,0,0.587,0.126,0.836,0.379c0.236,0.254,0.354,0.556,0.354,0.906l0.15,13.487
				c0,0.14,0.047,0.256,0.135,0.352c0.087,0.095,0.188,0.173,0.322,0.221c0.123,0.048,0.254,0.073,0.381,0.073
				c0.124,0,0.232-0.051,0.333-0.147c1.118-1.365,2.409-2.374,3.895-3.029c1.479-0.652,3.245-0.979,5.293-0.979
				c1.424,0,2.726,0.255,3.903,0.76c1.182,0.505,2.201,1.207,3.062,2.104c0.849,0.901,1.521,1.964,1.999,3.189
				c0.481,1.236,0.731,2.557,0.749,3.979L397.954,80.23z"/>
			<path fill="#FFFFFF" d="M463.335,69.259c-0.568-0.992-1.312-1.848-2.225-2.556c-0.92-0.716-1.962-1.31-3.146-1.786
				c-1.182-0.479-2.378-0.908-3.597-1.291c-1.222-0.377-2.417-0.727-3.601-1.035c-1.178-0.317-2.228-0.647-3.142-1.011
				c-0.919-0.363-1.659-0.778-2.228-1.256c-0.56-0.479-0.845-1.071-0.845-1.772c0-0.778,0.229-1.4,0.681-1.855
				c0.463-0.459,1.009-0.807,1.643-1.041c0.636-0.234,1.273-0.386,1.92-0.455c0.641-0.066,1.143-0.101,1.489-0.101
				c0.682,0,1.37,0.058,2.06,0.175c0.696,0.117,1.344,0.314,1.95,0.584c0.602,0.273,1.147,0.651,1.624,1.128
				c0.478,0.475,0.828,1.078,1.067,1.797c0.216,0.412,0.562,0.615,1.047,0.615h3.57c0.14,0,0.306-0.016,0.499-0.046
				c0.2-0.028,0.368-0.091,0.528-0.188c0.153-0.098,0.272-0.24,0.351-0.424c0.079-0.187,0.079-0.436,0-0.747
				c-0.434-1.521-1.06-2.814-1.902-3.878c-0.836-1.062-1.812-1.924-2.906-2.586c-1.106-0.664-2.31-1.14-3.614-1.433
				c-1.309-0.297-2.647-0.44-4.012-0.44c-1.578,0.04-3.104,0.264-4.576,0.671c-1.474,0.412-2.774,0.996-3.906,1.755
				c-1.134,0.763-2.031,1.693-2.703,2.793c-0.676,1.103-1.008,2.376-1.008,3.817c0,1.407,0.276,2.603,0.831,3.599
				c0.555,0.994,1.287,1.844,2.196,2.546c0.905,0.7,1.938,1.288,3.103,1.757c1.152,0.466,2.349,0.875,3.562,1.227
				c1.223,0.354,2.41,0.672,3.57,0.966c1.163,0.29,2.193,0.616,3.106,0.966c0.902,0.352,1.631,0.76,2.19,1.227
				c0.558,0.469,0.836,1.059,0.836,1.756c0,0.584-0.191,1.082-0.572,1.494c-0.381,0.408-0.884,0.75-1.526,1.023
				c-0.627,0.273-1.352,0.473-2.162,0.598c-0.81,0.126-1.654,0.193-2.524,0.193c-0.703,0-1.413-0.059-2.123-0.18
				c-0.865-0.023-0.937,0.767-0.979,0.767c-0.044,0,0,3.991,0,3.991s-0.148,1.1,0.866,1.268c0.866,0.132,1.724,0.208,2.582,0.208
				c4.174,0,7.362-0.813,9.568-2.442c2.205-1.629,3.312-3.904,3.312-6.828C464.189,71.445,463.897,70.251,463.335,69.259z"/>
			<path fill="#FFFFFF" d="M213.919,59.021c-0.78-2.03-1.853-3.741-3.215-5.131c-1.367-1.396-2.96-2.448-4.787-3.162
				c-1.821-0.71-3.785-1.067-5.893-1.067c-0.762,0-1.536,0.057-2.327,0.175c-0.788,0.117-1.573,0.321-2.353,0.613
				c-0.778,0.295-1.547,0.7-2.297,1.216c-0.752,0.516-1.454,1.164-2.121,1.948c-0.075,0.093-0.185,0.152-0.32,0.169
				c-0.14,0.023-0.275,0.018-0.412-0.013c-0.135-0.026-0.251-0.087-0.347-0.174c-0.1-0.086-0.149-0.21-0.149-0.364l-0.028-1.874
				c0-0.271-0.134-0.534-0.394-0.79c-0.263-0.252-0.547-0.378-0.835-0.378h-3.365c-0.312,0-0.595,0.126-0.851,0.378
				c-0.252,0.256-0.38,0.52-0.38,0.79l-0.467,41.979c0,0.291,0.116,0.555,0.353,0.791c0.234,0.232,0.494,0.35,0.789,0.35h4.328
				c0.295,0,0.566-0.117,0.821-0.35c0.253-0.236,0.378-0.5,0.378-0.791l-0.064-11.011l-0.009-0.004l-0.189-16.264
				c0-1.464,0.211-2.864,0.632-4.189c0.416-1.328,1.048-2.49,1.901-3.485c0.848-0.996,1.895-1.794,3.142-2.387
				c1.251-0.598,2.708-0.895,4.388-0.895c1.521,0,2.835,0.292,3.935,0.877c1.104,0.586,2.015,1.371,2.732,2.357
				c0.724,0.988,1.259,2.114,1.614,3.387c0.35,1.27,0.524,2.576,0.524,3.923c0,1.586-0.261,3.015-0.789,4.29
				c-0.528,1.283-1.215,2.375-2.064,3.285c-0.848,0.91-1.81,1.613-2.88,2.111c-1.072,0.492-2.155,0.744-3.248,0.744
				c-0.684,0-1.347-0.074-1.997-0.207c-1.137,0-1.188,1.027-1.188,1.027v3.885c0,0,0.051,1.176,0.831,1.176
				c0.768,0.117,1.538,0.174,2.297,0.174c2.318,0,4.431-0.43,6.333-1.288c1.9-0.854,3.525-2.019,4.884-3.491
				c1.354-1.477,2.403-3.188,3.145-5.139c0.739-1.951,1.11-4.015,1.11-6.197C215.089,63.379,214.702,61.05,213.919,59.021z"/>
			<path fill="#FFFFFF" d="M250.722,59.021c-0.777-2.03-1.847-3.741-3.216-5.131c-1.365-1.396-2.961-2.448-4.785-3.162
				c-1.825-0.71-3.786-1.067-5.894-1.067c-0.762,0-1.532,0.057-2.323,0.175c-0.793,0.117-1.575,0.321-2.352,0.613
				c-0.784,0.295-1.553,0.7-2.301,1.216c-0.752,0.516-1.455,1.164-2.119,1.948c-0.075,0.093-0.185,0.152-0.32,0.169
				c-0.144,0.023-0.278,0.018-0.415-0.013c-0.136-0.026-0.248-0.087-0.347-0.174c-0.1-0.086-0.147-0.21-0.147-0.364l-0.029-1.874
				c0-0.271-0.132-0.534-0.394-0.79c-0.263-0.252-0.544-0.378-0.836-0.378h-3.364c-0.309,0-0.594,0.126-0.851,0.378
				c-0.252,0.256-0.378,0.52-0.378,0.79l-0.469,41.979c0,0.291,0.12,0.555,0.352,0.791c0.236,0.232,0.495,0.35,0.792,0.35h4.325
				c0.296,0,0.57-0.117,0.822-0.35c0.253-0.236,0.38-0.5,0.38-0.791l-0.063-11.011l-0.009-0.004l-0.191-16.264
				c0-1.464,0.21-2.864,0.631-4.189c0.419-1.328,1.05-2.49,1.898-3.485c0.85-0.996,1.898-1.794,3.142-2.387
				c1.255-0.598,2.712-0.895,4.391-0.895c1.523,0,2.834,0.292,3.938,0.877c1.106,0.586,2.013,1.371,2.734,2.357
				c0.719,0.988,1.252,2.114,1.612,3.387c0.348,1.27,0.523,2.576,0.523,3.923c0,1.586-0.263,3.015-0.792,4.29
				c-0.524,1.283-1.213,2.375-2.062,3.285c-0.852,0.91-1.808,1.613-2.883,2.111c-1.066,0.492-2.148,0.744-3.245,0.744
				c-0.685,0-1.349-0.074-1.999-0.207c-1.134,0-1.188,1.027-1.188,1.027v3.885c0,0,0.054,1.176,0.833,1.176
				c0.772,0.117,1.534,0.174,2.296,0.174c2.319,0,4.428-0.43,6.331-1.288c1.903-0.854,3.531-2.019,4.886-3.491
				c1.354-1.477,2.403-3.188,3.146-5.139c0.74-1.951,1.112-4.015,1.112-6.197C251.895,63.379,251.501,61.05,250.722,59.021z"/>
			<path fill="#FFFFFF" d="M283.983,59.167c-0.018-1.443-0.342-2.75-0.966-3.919c-0.619-1.173-1.477-2.171-2.548-3.001
				c-1.071-0.828-2.323-1.464-3.74-1.915c-1.426-0.446-2.945-0.671-4.567-0.671c-1.463,0-2.91,0.19-4.354,0.569
				c-1.447,0.379-2.782,0.938-4.009,1.668c-1.229,0.729-2.291,1.623-3.188,2.676c-0.896,1.053-1.521,2.253-1.876,3.599
				c-0.212,0.86-0.17,1.424,0.135,1.697c0.303,0.272,0.766,0.407,1.392,0.407l2.542-0.03c0.507,0,0.923-0.094,1.243-0.291
				c0.321-0.194,0.581-0.523,0.772-0.991c0.338-0.82,0.762-1.487,1.291-1.991c0.529-0.505,1.104-0.904,1.742-1.185
				c0.634-0.28,1.287-0.468,1.972-0.554c0.684-0.088,1.349-0.133,1.992-0.133c0.759,0,1.514,0.073,2.253,0.219
				c0.738,0.147,1.4,0.372,1.986,0.676c0.59,0.301,1.051,0.671,1.409,1.109c0.345,0.438,0.523,0.951,0.523,1.534
				c-0.021,0.626-0.179,1.194-0.48,1.714c-0.305,0.515-0.862,0.968-1.688,1.358c-0.74,0.292-1.619,0.511-2.643,0.659
				c-1.028,0.146-2.11,0.287-3.251,0.424c-1.143,0.137-2.297,0.309-3.466,0.512c-1.169,0.209-2.271,0.506-3.307,0.893
				c-0.802,0.292-1.567,0.681-2.31,1.152c-0.74,0.48-1.4,1.072-1.975,1.772c-0.577,0.702-1.041,1.527-1.387,2.472
				c-0.355,0.945-0.542,2.043-0.561,3.291c-0.017,1.271,0.158,2.463,0.529,3.584c0.368,1.123,0.937,2.102,1.694,2.941
				c0.762,0.838,1.729,1.496,2.899,1.973c1.169,0.479,2.561,0.718,4.176,0.718c0.804,0,1.613-0.037,2.432-0.116
				c0.377-0.036,0.755-0.094,1.137-0.175c1.146-0.188,1.164-1.605,1.164-1.605s0.014-2.999,0.014-3.472
				c0-0.467-0.398-0.906-1.132-0.792c-0.736,0.112-1.265,0.143-1.896,0.147c-0.89,0.008-1.692-0.091-2.401-0.305
				c-0.71-0.217-1.282-0.573-1.725-1.07c-0.433-0.498-0.659-1.174-0.659-2.031c0-0.818,0.195-1.486,0.586-2.006
				c0.394-0.514,0.923-0.932,1.589-1.256c0.677-0.322,1.456-0.578,2.349-0.762c0.884-0.188,1.829-0.361,2.835-0.527
				c1.006-0.164,2.041-0.342,3.103-0.527c1.066-0.184,2.111-0.432,3.142-0.744c0.313-0.098,0.581-0.073,0.807,0.072
				c0.225,0.146,0.338,0.416,0.338,0.807c0,0.203-0.013,0.504-0.034,0.85l-0.088,10.273c0,0.008,0.005,0.013,0.005,0.021v1.346
				c0,0.372,0.122,0.669,0.377,0.895c0.257,0.221,0.568,0.332,0.936,0.332h3.951c0.336,0,0.608-0.129,0.83-0.378
				c0.229-0.254,0.342-0.537,0.342-0.849L283.983,59.167z"/>
			<path fill="#FFFFFF" d="M331.446,59.167c-0.017-1.443-0.343-2.75-0.965-3.919c-0.626-1.173-1.475-2.171-2.55-3.001
				c-1.069-0.828-2.322-1.464-3.738-1.915c-1.426-0.446-2.947-0.671-4.567-0.671c-1.461,0-2.913,0.19-4.356,0.569
				c-1.446,0.379-2.782,0.938-4.012,1.668c-1.226,0.729-2.293,1.623-3.186,2.676c-0.896,1.053-1.52,2.253-1.877,3.599
				c-0.211,0.86-0.167,1.424,0.135,1.697c0.303,0.272,0.768,0.407,1.392,0.407l2.548-0.03c0.502,0,0.914-0.094,1.238-0.291
				c0.322-0.194,0.581-0.523,0.772-0.991c0.338-0.82,0.762-1.487,1.287-1.991c0.528-0.505,1.11-0.904,1.741-1.185
				c0.639-0.28,1.292-0.468,1.981-0.554c0.679-0.088,1.343-0.133,1.983-0.133c0.765,0,1.513,0.073,2.254,0.219
				c0.746,0.147,1.407,0.372,1.993,0.676c0.581,0.301,1.05,0.671,1.403,1.109c0.348,0.438,0.526,0.951,0.526,1.534
				c-0.022,0.626-0.179,1.194-0.486,1.714c-0.302,0.515-0.862,0.968-1.681,1.358c-0.742,0.292-1.622,0.511-2.645,0.659
				c-1.021,0.146-2.109,0.287-3.248,0.424c-1.146,0.137-2.297,0.309-3.469,0.512c-1.169,0.209-2.271,0.506-3.306,0.893
				c-0.802,0.292-1.568,0.681-2.309,1.152c-0.747,0.48-1.399,1.072-1.978,1.772c-0.572,0.702-1.04,1.527-1.386,2.472
				c-0.351,0.945-0.542,2.043-0.56,3.291c-0.018,1.271,0.156,2.463,0.528,3.584c0.368,1.123,0.937,2.102,1.693,2.941
				c0.761,0.838,1.731,1.496,2.9,1.973c1.169,0.479,2.564,0.718,4.183,0.718c0.797,0,1.606-0.037,2.425-0.116
				c0.379-0.036,0.756-0.094,1.137-0.175c1.147-0.188,1.165-1.605,1.165-1.605s0.013-2.999,0.013-3.472
				c0-0.467-0.398-0.906-1.134-0.792c-0.733,0.112-1.266,0.143-1.895,0.147c-0.884,0.008-1.685-0.091-2.401-0.305
				c-0.709-0.217-1.286-0.573-1.725-1.07c-0.438-0.498-0.658-1.174-0.658-2.031c0-0.818,0.199-1.486,0.584-2.006
				c0.391-0.514,0.924-0.932,1.597-1.256c0.675-0.322,1.449-0.578,2.339-0.762c0.89-0.188,1.832-0.361,2.838-0.527
				c1.006-0.164,2.042-0.342,3.103-0.527c1.062-0.184,2.111-0.432,3.142-0.744c0.31-0.098,0.581-0.073,0.808,0.072
				c0.224,0.146,0.337,0.416,0.337,0.807c0,0.203-0.013,0.504-0.039,0.85l-0.087,10.273c0,0.008,0.008,0.013,0.008,0.021v1.346
				c0,0.372,0.127,0.669,0.382,0.895c0.253,0.221,0.564,0.332,0.932,0.332h3.954c0.333,0,0.604-0.129,0.831-0.378
				c0.225-0.254,0.337-0.537,0.337-0.849L331.446,59.167z"/>
			<path fill="#FFFFFF" d="M431.783,59.227c-0.805-1.971-1.89-3.669-3.246-5.093c-1.352-1.424-2.954-2.522-4.8-3.303
				c-1.842-0.781-3.85-1.17-6.037-1.17c-2.499,0-4.722,0.42-6.686,1.256c-1.956,0.839-3.614,2.001-4.957,3.481
				c-1.344,1.479-2.371,3.229-3.072,5.238c-0.703,2.006-1.054,4.183-1.054,6.523c0,2.281,0.385,4.393,1.164,6.332
				c0.782,1.941,1.869,3.623,3.251,5.047c1.383,1.424,3.047,2.542,4.975,3.348c1.929,0.809,4.038,1.216,6.317,1.216
				c1.64,0,3.168-0.219,4.576-0.657c1.418-0.44,2.713-1.045,3.88-1.812c1.165-0.772,2.214-1.685,3.12-2.737
				c0.905-1.055,1.65-2.193,2.235-3.426c0.118-0.191,0.17-0.41,0.157-0.639c-0.005-0.234-0.065-0.455-0.17-0.662
				c-0.113-0.205-0.261-0.373-0.459-0.514c-0.192-0.133-0.42-0.203-0.674-0.203h-4.148c-0.396,0-0.721,0.176-0.967,0.527
				c-0.494,0.779-1.037,1.426-1.657,1.947c-0.613,0.514-1.251,0.93-1.913,1.238c-0.66,0.316-1.328,0.537-1.986,0.676
				c-0.663,0.138-1.304,0.207-1.902,0.207c-1.147,0-2.258-0.146-3.307-0.441c-1.057-0.293-1.992-0.773-2.828-1.445
				c-0.822-0.674-1.521-1.544-2.086-2.605c-0.569-1.063-0.944-2.365-1.139-3.909c0,0-0.707-3.769,0.758-6.577
				c0.425-0.897,0.932-1.714,1.505-2.444c0.575-0.732,1.217-1.358,1.929-1.886c0.718-0.524,1.493-0.93,2.342-1.211
				c0.85-0.287,1.773-0.427,2.761-0.427c1.645,0,3.207,0.49,4.702,1.461c1.492,0.976,2.73,2.47,3.728,4.477
				c0.1,0.272,0.087,0.502-0.048,0.688c-0.123,0.188-0.318,0.276-0.599,0.276c0,0-8.081,0-8.767,0c-0.68,0-1.048,0.562-1.048,0.979
				s0,2.732,0,2.732s-0.048,1.291,1.151,1.291c1.212,0,15.271,0,15.271,0c0.36,0,0.633-0.12,0.837-0.364
				c0.207-0.244,0.32-0.541,0.342-0.893C433.079,63.371,432.588,61.195,431.783,59.227z"/>
		</g>
		<path fill="#FFFFFF" d="M159.956,48.331c-0.099-0.275-0.241-0.481-0.428-0.621c-0.184-0.134-0.378-0.208-0.583-0.217
			c-0.206-0.009-0.4,0.053-0.589,0.191c-0.184,0.137-0.325,0.351-0.423,0.646l-11.289,32.454c-0.156,0.409-0.488,0.635-0.995,0.672
			h-4.693c-0.487,0-0.868-0.146-1.14-0.437c-0.279-0.294-0.297-0.723-0.062-1.291l15.244-40.693c0.18-0.49,0.531-0.735,1.06-0.735
			h5.716c0.549,0,0.951,0.284,1.203,0.851l15.302,40.783c0.081,0.214,0.09,0.413,0.03,0.6c-0.057,0.188-0.155,0.343-0.292,0.468
			c-0.136,0.128-0.292,0.229-0.469,0.308c-0.177,0.083-0.341,0.131-0.5,0.146h-4.749c-0.233,0-0.468-0.076-0.699-0.232
			c-0.236-0.156-0.376-0.34-0.415-0.559L159.956,48.331z"/>
	</g>
	<g>
		<path fill="#FFFFFF" d="M58.858,54.416c0.021,0.02,0.046,0.029,0.069,0.029c0.024,0,0.049-0.009,0.07-0.029
			c0.312-0.306,0.541-0.607,0.727-0.857c0.2-0.277,0.387-0.564,0.556-0.859c0.311-0.545,0.567-1.123,0.768-1.711
			c0.372-1.096,0.554-2.216,0.552-3.419c-0.003-1.205-0.187-2.323-0.559-3.419c-0.198-0.584-0.457-1.161-0.77-1.71
			c-0.167-0.293-0.351-0.582-0.551-0.857c-0.182-0.252-0.416-0.552-0.723-0.86c-0.039-0.037-0.101-0.037-0.14,0
			c-0.307,0.308-0.538,0.607-0.724,0.862c-0.199,0.273-0.383,0.562-0.55,0.855c-0.312,0.547-0.57,1.126-0.77,1.71
			c-0.372,1.097-0.556,2.214-0.559,3.419c-0.002,1.203,0.18,2.323,0.55,3.419c0.201,0.589,0.462,1.166,0.771,1.711
			c0.167,0.295,0.353,0.583,0.552,0.859C58.318,53.809,58.546,54.11,58.858,54.416z"/>
		<path fill="#FFFFFF" d="M60.271,26.974c-0.167-0.295-0.351-0.582-0.551-0.858c-0.182-0.254-0.416-0.555-0.723-0.859
			c-0.039-0.038-0.101-0.038-0.14,0c-0.307,0.304-0.538,0.605-0.724,0.859c-0.199,0.276-0.383,0.562-0.55,0.858
			c-0.312,0.546-0.57,1.122-0.77,1.708c-0.372,1.097-0.556,2.217-0.559,3.421c-0.002,1.201,0.18,2.318,0.55,3.419
			c0.201,0.59,0.462,1.162,0.771,1.712c0.167,0.292,0.353,0.58,0.552,0.858c0.188,0.251,0.417,0.55,0.729,0.858
			c0.021,0.018,0.046,0.026,0.069,0.026c0.024,0,0.049-0.008,0.07-0.026c0.312-0.308,0.541-0.606,0.727-0.86
			c0.2-0.275,0.387-0.564,0.556-0.855c0.311-0.551,0.567-1.122,0.768-1.712c0.372-1.101,0.554-2.218,0.552-3.419
			c-0.003-1.204-0.187-2.324-0.559-3.421C60.842,28.096,60.583,27.521,60.271,26.974z"/>
		<path fill="#FDB515" d="M61.176,54.171c-0.021,0.314-0.041,0.691-0.004,1.126c0.004,0.05,0.048,0.089,0.099,0.089
			c0.002,0,0.002,0,0.006,0c0.438-0.03,0.808-0.107,1.113-0.178c0.329-0.077,0.659-0.176,0.977-0.29
			c0.592-0.212,1.163-0.481,1.699-0.798c0.998-0.589,1.863-1.321,2.646-2.235c0.78-0.917,1.369-1.886,1.802-2.96
			c0.23-0.573,0.407-1.179,0.529-1.798c0.065-0.332,0.112-0.671,0.143-1.008c0.022-0.313,0.044-0.69,0.007-1.125
			c-0.002-0.051-0.05-0.092-0.102-0.088c-0.435,0.031-0.807,0.105-1.113,0.18c-0.33,0.079-0.655,0.178-0.974,0.291
			c-0.592,0.215-1.163,0.483-1.699,0.797c-0.993,0.592-1.859,1.322-2.648,2.231c-0.785,0.912-1.377,1.877-1.81,2.956
			c-0.232,0.577-0.409,1.183-0.529,1.8C61.253,53.493,61.207,53.835,61.176,54.171z"/>
		<path fill="#FFFFFF" d="M95.047,35.098c-0.342-0.017-0.683-0.017-1.018,0c-0.631,0.035-1.254,0.126-1.856,0.278
			c-1.124,0.277-2.163,0.728-3.18,1.374c-1.013,0.65-1.859,1.404-2.582,2.314c-0.387,0.484-0.729,1.013-1.023,1.57
			c-0.155,0.298-0.299,0.608-0.424,0.928c-0.112,0.292-0.238,0.647-0.33,1.076c-0.009,0.053,0.026,0.104,0.074,0.117
			c0.429,0.096,0.807,0.131,1.117,0.15c0.178,0.011,0.356,0.015,0.534,0.015c0.16,0,0.324-0.004,0.487-0.013
			c0.629-0.035,1.254-0.126,1.856-0.275c1.127-0.282,2.165-0.735,3.176-1.384c1.011-0.652,1.854-1.411,2.574-2.317
			c0.387-0.485,0.733-1.011,1.028-1.57c0.155-0.3,0.298-0.611,0.424-0.926c0.112-0.292,0.239-0.647,0.329-1.076
			c0.011-0.05-0.021-0.1-0.073-0.113C95.736,35.15,95.36,35.116,95.047,35.098z"/>
		<path fill="#FDB515" d="M72.74,35.51c-0.782,0.91-1.373,1.876-1.805,2.955c-0.234,0.577-0.411,1.181-0.531,1.8
			c-0.062,0.332-0.109,0.669-0.138,1.008c-0.024,0.311-0.042,0.691-0.005,1.129c0.005,0.05,0.046,0.088,0.095,0.088
			c0.003,0,0.007,0,0.007,0c0.438-0.029,0.809-0.105,1.116-0.177c0.329-0.077,0.657-0.178,0.978-0.291
			c0.592-0.212,1.16-0.48,1.696-0.797c0.998-0.593,1.864-1.326,2.646-2.24c0.78-0.915,1.369-1.885,1.8-2.958
			c0.232-0.578,0.41-1.181,0.531-1.8c0.064-0.33,0.11-0.667,0.139-1.008c0.026-0.313,0.046-0.692,0.009-1.125
			c-0.005-0.051-0.053-0.092-0.104-0.088c-0.435,0.03-0.805,0.105-1.11,0.18c-0.331,0.078-0.659,0.177-0.975,0.291
			c-0.594,0.216-1.164,0.484-1.698,0.799C74.394,33.867,73.529,34.595,72.74,35.51z"/>
		<path fill="#FFFFFF" d="M67.646,32.056c-0.021-0.044-0.082-0.064-0.128-0.038c-0.388,0.195-0.702,0.409-0.956,0.593
			c-0.272,0.202-0.536,0.418-0.783,0.646c-0.464,0.429-0.888,0.897-1.257,1.393c-0.693,0.93-1.208,1.937-1.582,3.083
			c-0.372,1.144-0.543,2.262-0.525,3.423c0.009,0.62,0.079,1.249,0.208,1.868c0.068,0.33,0.158,0.658,0.26,0.984
			c0.101,0.296,0.23,0.654,0.435,1.04c0.014,0.035,0.049,0.052,0.084,0.052c0.016,0,0.028-0.004,0.043-0.009
			c0.393-0.195,0.704-0.411,0.961-0.593c0.272-0.203,0.536-0.421,0.788-0.647c0.463-0.425,0.883-0.895,1.257-1.394
			c0.693-0.932,1.206-1.94,1.573-3.086s0.536-2.266,0.519-3.423c-0.01-0.619-0.079-1.248-0.208-1.865
			c-0.066-0.332-0.155-0.662-0.259-0.984C67.976,32.801,67.85,32.444,67.646,32.056z"/>
		<path fill="#FFFFFF" d="M70.338,34.405c0.411-0.147,0.744-0.324,1.017-0.481c0.296-0.165,0.585-0.351,0.858-0.55
			c0.51-0.369,0.983-0.787,1.408-1.24c0.794-0.847,1.419-1.791,1.916-2.885c0.493-1.1,0.792-2.192,0.906-3.345
			c0.059-0.618,0.059-1.249,0.004-1.876c-0.028-0.336-0.079-0.676-0.144-1.006c-0.065-0.307-0.151-0.676-0.308-1.083
			c-0.02-0.05-0.073-0.073-0.126-0.057c-0.407,0.15-0.741,0.328-1.016,0.481c-0.293,0.17-0.579,0.356-0.854,0.555
			c-0.508,0.368-0.982,0.788-1.405,1.239c-0.793,0.846-1.421,1.787-1.925,2.883c-0.498,1.094-0.794,2.188-0.91,3.343
			c-0.061,0.617-0.065,1.249-0.006,1.876c0.032,0.335,0.08,0.676,0.149,1.007c0.065,0.308,0.152,0.676,0.308,1.083
			c0.018,0.04,0.052,0.065,0.092,0.065C70.316,34.414,70.327,34.409,70.338,34.405z"/>
		<path fill="#FDB515" d="M62.537,28.503c0.099,0.325,0.217,0.646,0.349,0.958c0.124,0.286,0.284,0.632,0.522,0.999
			c0.017,0.027,0.048,0.045,0.081,0.045c0.017,0,0.034-0.005,0.05-0.016c0.372-0.228,0.668-0.469,0.903-0.676
			c0.255-0.223,0.5-0.464,0.728-0.712c0.424-0.464,0.805-0.969,1.129-1.498c0.601-0.978,1.036-2.056,1.296-3.213
			c0.264-1.176,0.333-2.307,0.213-3.457c-0.065-0.616-0.188-1.235-0.369-1.84c-0.099-0.325-0.217-0.646-0.347-0.956
			c-0.125-0.291-0.283-0.632-0.519-1.001c-0.026-0.042-0.086-0.055-0.13-0.03c-0.373,0.23-0.663,0.472-0.901,0.679
			c-0.251,0.222-0.496,0.461-0.724,0.712c-0.425,0.466-0.807,0.971-1.131,1.5c-0.604,0.985-1.032,2.037-1.3,3.211
			c-0.27,1.169-0.343,2.3-0.222,3.457C62.229,27.281,62.355,27.901,62.537,28.503z"/>
		<path fill="#FFFFFF" d="M81.218,46.747c-0.482,0.389-0.936,0.827-1.345,1.308c-0.221,0.255-0.426,0.529-0.614,0.81
			c-0.176,0.262-0.377,0.583-0.559,0.982c-0.021,0.048,0,0.106,0.047,0.127c0.396,0.189,0.754,0.304,1.058,0.393
			c0.325,0.092,0.659,0.166,0.992,0.226c0.551,0.092,1.107,0.14,1.66,0.14c0.069,0,0.141,0,0.212-0.004
			c1.161-0.026,2.273-0.238,3.404-0.649c1.129-0.418,2.119-0.971,3.021-1.699c0.483-0.386,0.936-0.827,1.343-1.304
			c0.222-0.26,0.427-0.532,0.617-0.812c0.176-0.263,0.379-0.579,0.558-0.978c0.026-0.048,0.005-0.103-0.046-0.125
			c-0.392-0.186-0.752-0.302-1.055-0.391c-0.325-0.09-0.662-0.165-0.992-0.224c-0.624-0.101-1.258-0.149-1.873-0.136
			c-1.156,0.026-2.271,0.238-3.403,0.646C83.112,45.467,82.125,46.018,81.218,46.747z"/>
		<path fill="#FFFFFF" d="M81.071,40.84c-0.338,0-0.681,0.021-1.019,0.059c-0.624,0.071-1.243,0.202-1.832,0.383
			c-1.109,0.342-2.12,0.854-3.1,1.561c-0.97,0.702-1.771,1.505-2.439,2.454c-0.359,0.507-0.674,1.055-0.934,1.627
			c-0.139,0.309-0.263,0.628-0.368,0.951c-0.096,0.298-0.201,0.663-0.265,1.097c-0.009,0.052,0.028,0.101,0.081,0.11
			c0.431,0.072,0.81,0.083,1.122,0.084h0.002c0.338,0,0.678-0.019,1.016-0.059c0.627-0.068,1.244-0.197,1.838-0.381
			c1.106-0.345,2.119-0.857,3.09-1.564c0.972-0.71,1.772-1.517,2.439-2.461c0.357-0.507,0.672-1.056,0.932-1.629
			c0.139-0.308,0.265-0.624,0.368-0.947c0.098-0.299,0.203-0.66,0.269-1.094c0.009-0.052-0.025-0.1-0.078-0.109
			C81.761,40.851,81.383,40.84,81.071,40.84z"/>
		<path fill="#FFFFFF" d="M85.091,29.569c-1.006,0.569-1.886,1.282-2.69,2.18c-0.799,0.896-1.407,1.855-1.86,2.922
			c-0.241,0.572-0.433,1.174-0.562,1.792c-0.072,0.331-0.121,0.667-0.158,1.006c-0.03,0.311-0.054,0.689-0.023,1.126
			c0.001,0.051,0.043,0.09,0.095,0.09h0.004c0.438-0.022,0.811-0.09,1.117-0.156c0.33-0.074,0.66-0.165,0.982-0.273
			c0.595-0.202,1.173-0.459,1.713-0.767c1.009-0.572,1.888-1.29,2.687-2.188c0.797-0.901,1.402-1.859,1.854-2.925
			c0.242-0.571,0.432-1.175,0.563-1.79c0.07-0.332,0.123-0.667,0.16-1.006c0.03-0.311,0.057-0.689,0.028-1.125
			c-0.004-0.052-0.05-0.092-0.101-0.09c-0.438,0.024-0.808,0.092-1.114,0.158c-0.332,0.074-0.664,0.167-0.981,0.273
			C86.208,29.001,85.631,29.262,85.091,29.569z"/>
		<path fill="#E41B4C" d="M78.982,30.206c0.006,0,0.011,0,0.015-0.004c0.432-0.067,0.796-0.176,1.094-0.273
			c0.321-0.109,0.642-0.234,0.95-0.376c0.57-0.265,1.113-0.582,1.62-0.945c0.941-0.678,1.738-1.482,2.436-2.461
			c0.697-0.984,1.198-2.003,1.532-3.107c0.178-0.596,0.303-1.212,0.368-1.842c0.034-0.333,0.052-0.676,0.052-1.016
			c-0.004-0.315-0.018-0.691-0.091-1.12c-0.009-0.052-0.062-0.087-0.112-0.079c-0.431,0.07-0.793,0.177-1.092,0.276
			c-0.319,0.108-0.638,0.236-0.942,0.378c-0.572,0.265-1.118,0.583-1.621,0.945c-0.94,0.676-1.739,1.48-2.443,2.457
			c-0.698,0.979-1.201,1.995-1.54,3.105c-0.177,0.593-0.302,1.212-0.366,1.838c-0.032,0.336-0.049,0.68-0.049,1.019
			c0.004,0.315,0.02,0.693,0.096,1.123C78.896,30.172,78.937,30.206,78.982,30.206z"/>
		<path fill="#FFFFFF" d="M69.889,20.842c0.022,0.338,0.064,0.676,0.123,1.012c0.062,0.309,0.138,0.678,0.286,1.09
			c0.016,0.039,0.052,0.064,0.093,0.064c0.011,0,0.02,0,0.032-0.004c0.411-0.143,0.753-0.309,1.03-0.459
			c0.296-0.16,0.589-0.338,0.868-0.53c0.519-0.358,1.001-0.766,1.434-1.207c0.815-0.83,1.461-1.759,1.983-2.842
			c0.519-1.087,0.841-2.176,0.98-3.324c0.074-0.615,0.092-1.243,0.048-1.874c-0.021-0.336-0.062-0.676-0.12-1.012
			c-0.057-0.306-0.135-0.676-0.282-1.088c-0.018-0.05-0.074-0.078-0.123-0.059c-0.412,0.142-0.75,0.311-1.027,0.457
			c-0.297,0.162-0.589,0.343-0.866,0.534c-0.519,0.361-1.002,0.766-1.438,1.209c-0.81,0.828-1.46,1.753-1.987,2.838
			c-0.522,1.083-0.844,2.166-0.986,3.319C69.861,19.583,69.845,20.213,69.889,20.842z"/>
		<path fill="#FFFFFF" d="M57.186,21.496c0.143,0.306,0.307,0.606,0.486,0.897c0.168,0.265,0.377,0.582,0.667,0.91
			c0.02,0.022,0.047,0.031,0.072,0.031c0.022,0,0.044-0.009,0.065-0.022c0.333-0.284,0.585-0.564,0.788-0.805
			c0.219-0.256,0.426-0.531,0.614-0.813c0.351-0.521,0.649-1.076,0.893-1.648c0.45-1.071,0.713-2.174,0.799-3.372
			c0.083-1.202-0.018-2.331-0.31-3.453c-0.156-0.599-0.373-1.191-0.642-1.76c-0.146-0.308-0.31-0.606-0.487-0.897
			c-0.165-0.263-0.375-0.58-0.66-0.91c-0.035-0.038-0.096-0.042-0.138-0.008c-0.33,0.281-0.584,0.565-0.788,0.806
			c-0.216,0.258-0.421,0.534-0.609,0.812c-0.349,0.524-0.65,1.082-0.891,1.651c-0.45,1.063-0.715,2.168-0.805,3.369
			c-0.09,1.201,0.008,2.328,0.3,3.452C56.699,20.334,56.916,20.929,57.186,21.496z"/>
		<path fill="#FFFFFF" d="M93.371,27.258c-0.903,0.792-1.625,1.665-2.205,2.671c-0.309,0.54-0.57,1.113-0.776,1.709
			c-0.107,0.319-0.203,0.648-0.277,0.982c-0.068,0.306-0.138,0.676-0.165,1.114c-0.002,0.052,0.04,0.1,0.093,0.104
			c0.142,0.009,0.28,0.013,0.424,0.013c0.211,0,0.436-0.009,0.702-0.035c0.338-0.031,0.675-0.083,1.008-0.15
			c0.616-0.127,1.219-0.313,1.792-0.552c1.073-0.446,2.03-1.049,2.932-1.841c0.903-0.8,1.623-1.678,2.202-2.678
			c0.307-0.538,0.569-1.114,0.774-1.708c0.113-0.32,0.203-0.65,0.282-0.978c0.067-0.306,0.138-0.676,0.165-1.114
			c0.004-0.052-0.038-0.096-0.091-0.103c-0.136-0.011-0.27-0.015-0.408-0.015c-0.217,0-0.438,0.013-0.714,0.039
			c-0.339,0.03-0.677,0.083-1.008,0.151c-0.617,0.129-1.221,0.315-1.792,0.553C95.239,25.864,94.279,26.466,93.371,27.258z"/>
		<path fill="#E41B4C" d="M105.512,39.727c0.17-0.265,0.367-0.586,0.542-0.989c0.018-0.048-0.002-0.104-0.052-0.125
			c-0.396-0.178-0.761-0.286-1.062-0.369c-0.33-0.083-0.663-0.151-0.999-0.204c-0.485-0.07-0.975-0.105-1.458-0.105
			c-0.139,0-0.277,0.002-0.414,0.01c-1.154,0.047-2.266,0.279-3.392,0.712c-1.122,0.432-2.101,1.006-2.988,1.75
			c-0.478,0.398-0.919,0.85-1.318,1.337c-0.213,0.263-0.416,0.539-0.601,0.825c-0.166,0.265-0.363,0.59-0.535,0.99
			c-0.021,0.048,0,0.105,0.048,0.128c0.399,0.177,0.761,0.286,1.067,0.369c0.326,0.086,0.662,0.156,0.995,0.208
			c0.485,0.069,0.978,0.108,1.461,0.108c0.139,0,0.277-0.005,0.414-0.009c1.159-0.053,2.269-0.286,3.388-0.724
			c1.123-0.438,2.101-1.011,2.986-1.754c0.475-0.398,0.919-0.849,1.319-1.335C105.126,40.289,105.329,40.012,105.512,39.727z"/>
		<path fill="#FFFFFF" d="M51.646,46.174c-0.536-0.313-1.107-0.582-1.698-0.797c-0.319-0.113-0.645-0.212-0.976-0.291
			c-0.306-0.074-0.676-0.149-1.109-0.18c-0.055-0.004-0.101,0.037-0.105,0.088c-0.037,0.435-0.014,0.812,0.009,1.125
			c0.028,0.336,0.076,0.676,0.142,1.008c0.12,0.619,0.298,1.223,0.53,1.798c0.431,1.074,1.021,2.043,1.801,2.96
			c0.782,0.914,1.648,1.646,2.648,2.235c0.531,0.317,1.104,0.586,1.697,0.798c0.319,0.114,0.646,0.213,0.976,0.29
			c0.305,0.071,0.679,0.148,1.113,0.178c0.005,0,0.005,0,0.007,0c0.05,0,0.093-0.04,0.097-0.089
			c0.039-0.436,0.018-0.812-0.004-1.126c-0.027-0.341-0.075-0.678-0.139-1.013c-0.121-0.615-0.3-1.221-0.531-1.798
			c-0.433-1.077-1.024-2.043-1.809-2.956C53.507,47.496,52.64,46.766,51.646,46.174z"/>
		<path fill="#FFFFFF" d="M32.564,40.634c-0.294-0.557-0.64-1.086-1.024-1.57c-0.727-0.91-1.571-1.665-2.581-2.314
			c-1.018-0.646-2.059-1.096-3.181-1.374c-0.603-0.151-1.226-0.243-1.855-0.278c-0.337-0.017-0.678-0.017-1.018,0
			c-0.312,0.018-0.691,0.052-1.115,0.147c-0.052,0.013-0.085,0.063-0.072,0.113c0.09,0.429,0.217,0.784,0.33,1.078
			c0.125,0.313,0.267,0.624,0.425,0.924c0.293,0.559,0.637,1.085,1.024,1.57c0.722,0.906,1.562,1.665,2.576,2.317
			c1.009,0.649,2.05,1.103,3.177,1.384c0.602,0.149,1.226,0.241,1.854,0.275c0.162,0.009,0.324,0.013,0.488,0.013
			c0.175,0,0.354-0.004,0.531-0.015c0.314-0.02,0.691-0.055,1.116-0.15c0.052-0.013,0.087-0.064,0.073-0.117
			c-0.089-0.429-0.216-0.785-0.329-1.079C32.861,41.245,32.72,40.933,32.564,40.634z"/>
		<path fill="#E41B4C" d="M25.639,48.908c-0.979-0.624-2.019-1.07-3.189-1.358c-0.857-0.21-1.724-0.315-2.571-0.315
			c-0.292,0-0.587,0.012-0.883,0.036c-0.614,0.052-1.235,0.166-1.844,0.334c-0.324,0.091-0.647,0.203-0.963,0.329
			c-0.291,0.12-0.638,0.273-1.008,0.498c-0.046,0.029-0.06,0.087-0.033,0.133c0.221,0.375,0.459,0.672,0.658,0.912
			c0.222,0.259,0.455,0.506,0.698,0.74c0.459,0.433,0.956,0.822,1.479,1.157c0.974,0.624,2.015,1.071,3.185,1.365
			c0.862,0.212,1.73,0.321,2.587,0.321c0.286,0,0.577-0.013,0.866-0.034c0.616-0.053,1.24-0.165,1.846-0.337
			c0.326-0.092,0.648-0.203,0.963-0.331c0.291-0.12,0.637-0.273,1.009-0.503c0.046-0.026,0.061-0.086,0.032-0.129
			c-0.223-0.378-0.457-0.676-0.656-0.917c-0.221-0.258-0.455-0.509-0.699-0.743C26.657,49.632,26.163,49.243,25.639,48.908z"/>
		<path fill="#FDB515" d="M38.673,32.095c-0.035,0.433-0.018,0.812,0.009,1.125c0.028,0.34,0.076,0.678,0.14,1.008
			c0.121,0.619,0.3,1.222,0.53,1.8c0.431,1.072,1.021,2.043,1.8,2.958c0.783,0.915,1.647,1.647,2.645,2.24
			c0.536,0.317,1.109,0.584,1.698,0.797c0.321,0.113,0.649,0.213,0.979,0.291c0.306,0.072,0.676,0.148,1.113,0.177
			c0.002,0,0.003,0,0.003,0c0.053,0,0.097-0.038,0.1-0.088c0.035-0.436,0.018-0.815-0.003-1.129c-0.03-0.339-0.079-0.676-0.14-1.008
			c-0.121-0.619-0.3-1.223-0.531-1.8c-0.434-1.079-1.024-2.045-1.807-2.955c-0.787-0.915-1.653-1.643-2.649-2.233
			c-0.533-0.315-1.105-0.583-1.698-0.799c-0.317-0.113-0.645-0.212-0.976-0.291c-0.304-0.074-0.676-0.149-1.109-0.18
			C38.726,32,38.677,32.044,38.673,32.095z"/>
		<path fill="#FFFFFF" d="M52.759,43.851c0.249,0.228,0.514,0.444,0.791,0.647c0.251,0.182,0.566,0.398,0.958,0.593
			c0.013,0.004,0.026,0.009,0.041,0.009c0.037,0,0.07-0.018,0.087-0.052c0.202-0.386,0.331-0.743,0.432-1.042
			c0.104-0.323,0.192-0.652,0.263-0.983c0.127-0.617,0.196-1.243,0.207-1.866c0.018-1.162-0.154-2.282-0.527-3.423
			c-0.371-1.146-0.888-2.153-1.579-3.083c-0.37-0.496-0.792-0.964-1.256-1.393c-0.249-0.227-0.513-0.446-0.787-0.646
			c-0.254-0.184-0.564-0.398-0.953-0.593c-0.047-0.026-0.105-0.006-0.13,0.038c-0.203,0.391-0.33,0.746-0.429,1.043
			c-0.104,0.322-0.19,0.652-0.26,0.984c-0.128,0.617-0.195,1.246-0.208,1.865c-0.018,1.157,0.151,2.277,0.52,3.426
			c0.368,1.144,0.883,2.152,1.573,3.084C51.871,42.956,52.292,43.424,52.759,43.851z"/>
		<path fill="#FFFFFF" d="M48.198,32.258c0.057-0.627,0.055-1.259-0.006-1.876c-0.114-1.155-0.414-2.249-0.913-3.343
			c-0.501-1.096-1.13-2.037-1.923-2.883c-0.422-0.451-0.897-0.871-1.406-1.239c-0.273-0.199-0.562-0.385-0.855-0.555
			c-0.273-0.153-0.607-0.331-1.015-0.481c-0.052-0.017-0.105,0.007-0.125,0.057c-0.156,0.407-0.243,0.776-0.309,1.083
			c-0.065,0.33-0.111,0.669-0.143,1.006c-0.057,0.628-0.054,1.258,0.007,1.876c0.114,1.153,0.409,2.245,0.903,3.345
			c0.494,1.094,1.122,2.039,1.914,2.885c0.425,0.453,0.9,0.869,1.409,1.24c0.275,0.199,0.564,0.385,0.858,0.552
			c0.272,0.155,0.609,0.332,1.019,0.479c0.013,0.004,0.021,0.009,0.034,0.009c0.04,0,0.073-0.026,0.091-0.065
			c0.157-0.407,0.245-0.775,0.308-1.083C48.117,32.932,48.166,32.594,48.198,32.258z"/>
		<path fill="#E41B4C" d="M51.509,17.106c-0.043-0.025-0.104-0.012-0.131,0.03c-0.235,0.369-0.394,0.711-0.519,1.001
			c-0.131,0.31-0.247,0.63-0.348,0.956c-0.18,0.604-0.304,1.224-0.368,1.84c-0.121,1.15-0.052,2.281,0.213,3.457
			c0.265,1.17,0.688,2.224,1.295,3.213c0.326,0.529,0.706,1.034,1.129,1.498c0.227,0.248,0.475,0.489,0.729,0.714
			c0.236,0.205,0.529,0.446,0.903,0.674c0.018,0.011,0.033,0.016,0.052,0.016c0.029,0,0.061-0.018,0.08-0.045
			c0.236-0.367,0.396-0.711,0.522-0.999c0.132-0.312,0.251-0.633,0.348-0.958c0.182-0.602,0.307-1.222,0.372-1.84
			c0.12-1.155,0.048-2.286-0.219-3.455c-0.271-1.177-0.698-2.227-1.303-3.211c-0.325-0.529-0.706-1.032-1.132-1.5
			c-0.227-0.249-0.468-0.49-0.722-0.714C52.172,17.578,51.882,17.336,51.509,17.106z"/>
		<path fill="#FFFFFF" d="M30.304,44.411c-0.615-0.013-1.248,0.035-1.87,0.136c-0.333,0.059-0.668,0.133-0.992,0.224
			c-0.304,0.089-0.663,0.205-1.057,0.391c-0.048,0.022-0.069,0.077-0.048,0.125c0.182,0.398,0.385,0.717,0.559,0.98
			c0.19,0.28,0.399,0.549,0.618,0.81c0.409,0.477,0.86,0.918,1.346,1.304c0.901,0.728,1.888,1.281,3.02,1.699
			c1.128,0.412,2.239,0.624,3.401,0.649c0.072,0.004,0.143,0.004,0.214,0.004c0.551,0,1.107-0.048,1.658-0.14
			c0.334-0.06,0.667-0.133,0.993-0.226c0.302-0.089,0.662-0.204,1.057-0.393c0.05-0.021,0.07-0.08,0.048-0.127
			c-0.18-0.398-0.385-0.72-0.56-0.982c-0.19-0.281-0.396-0.554-0.612-0.81c-0.41-0.481-0.86-0.919-1.346-1.308
			c-0.906-0.729-1.895-1.282-3.025-1.691C32.577,44.649,31.461,44.437,30.304,44.411z"/>
		<path fill="#FDB515" d="M22.879,59.118c1.069,0.442,2.175,0.693,3.375,0.776c0.247,0.013,0.49,0.021,0.73,0.021
			c0.925,0,1.84-0.119,2.72-0.355c0.602-0.165,1.191-0.386,1.757-0.661c0.302-0.147,0.602-0.315,0.89-0.497
			c0.265-0.168,0.579-0.381,0.904-0.674c0.039-0.037,0.041-0.094,0.006-0.136c-0.286-0.33-0.566-0.582-0.81-0.785
			c-0.261-0.214-0.538-0.418-0.819-0.602c-0.525-0.347-1.084-0.642-1.659-0.88c-1.073-0.442-2.179-0.691-3.376-0.768
			c-0.233-0.013-0.468-0.021-0.697-0.021c-0.938,0-1.863,0.122-2.752,0.362c-0.599,0.162-1.189,0.383-1.757,0.656
			c-0.304,0.151-0.604,0.316-0.891,0.499c-0.265,0.166-0.579,0.376-0.902,0.667c-0.04,0.035-0.042,0.094-0.007,0.133
			c0.286,0.33,0.567,0.58,0.809,0.783c0.263,0.215,0.538,0.418,0.821,0.604C21.749,58.584,22.308,58.879,22.879,59.118z"/>
		<path fill="#FFFFFF" d="M46.837,48.972c-0.064-0.436-0.171-0.798-0.267-1.097c-0.105-0.323-0.23-0.643-0.366-0.951
			c-0.265-0.573-0.575-1.12-0.934-1.627c-0.67-0.949-1.471-1.752-2.443-2.454c-0.979-0.707-1.989-1.219-3.094-1.561
			c-0.592-0.181-1.212-0.312-1.835-0.383c-0.337-0.037-0.677-0.059-1.02-0.059c-0.312,0-0.69,0.011-1.12,0.082
			c-0.055,0.009-0.088,0.057-0.079,0.109c0.063,0.434,0.171,0.794,0.268,1.096c0.104,0.322,0.229,0.637,0.369,0.945
			c0.263,0.576,0.576,1.122,0.932,1.629c0.67,0.944,1.466,1.75,2.439,2.461c0.972,0.707,1.98,1.22,3.092,1.564
			c0.592,0.184,1.211,0.312,1.835,0.381c0.339,0.04,0.681,0.059,1.018,0.059c0.312-0.002,0.694-0.013,1.125-0.084
			C46.809,49.073,46.846,49.024,46.837,48.972z"/>
		<path fill="#FFFFFF" d="M45.841,55.547c0.039-0.032,0.047-0.091,0.016-0.135c-0.263-0.351-0.529-0.619-0.757-0.836
			c-0.245-0.234-0.507-0.457-0.774-0.663c-0.502-0.378-1.037-0.713-1.596-0.988c-1.04-0.515-2.123-0.84-3.315-0.996
			c-0.485-0.065-0.971-0.096-1.441-0.096c-0.678,0-1.36,0.065-2.023,0.197c-0.609,0.12-1.213,0.302-1.796,0.535
			c-0.311,0.126-0.624,0.273-0.923,0.434c-0.274,0.149-0.603,0.339-0.948,0.606c-0.039,0.03-0.048,0.091-0.018,0.135
			c0.264,0.346,0.53,0.615,0.758,0.834c0.245,0.231,0.507,0.453,0.776,0.656c0.503,0.382,1.04,0.713,1.594,0.988
			c1.036,0.516,2.121,0.843,3.315,1.005c0.489,0.065,0.984,0.1,1.465,0.1c0.667,0,1.344-0.065,1.998-0.195
			c0.608-0.122,1.213-0.302,1.798-0.538c0.312-0.125,0.622-0.273,0.923-0.433C45.166,56.007,45.495,55.816,45.841,55.547z"/>
		<path fill="#E41B4C" d="M28.98,29.582c0.035,0.338,0.087,0.674,0.158,1.006c0.133,0.615,0.323,1.218,0.563,1.79
			c0.451,1.065,1.058,2.023,1.857,2.925c0.796,0.899,1.674,1.616,2.685,2.188c0.538,0.308,1.115,0.565,1.713,0.767
			c0.319,0.108,0.649,0.199,0.979,0.273c0.309,0.065,0.681,0.134,1.118,0.156h0.004c0.053,0,0.094-0.04,0.099-0.09
			c0.029-0.438,0.005-0.815-0.026-1.126c-0.035-0.339-0.087-0.676-0.157-1.006c-0.132-0.617-0.321-1.22-0.562-1.792
			c-0.452-1.067-1.059-2.026-1.862-2.922c-0.802-0.897-1.684-1.61-2.69-2.18c-0.54-0.308-1.116-0.568-1.712-0.771
			c-0.32-0.106-0.65-0.199-0.979-0.273c-0.309-0.065-0.681-0.134-1.114-0.158c-0.053-0.002-0.101,0.038-0.103,0.09
			C28.923,28.893,28.95,29.271,28.98,29.582z"/>
		<path fill="#FFFFFF" d="M31.323,23.039c0.333,1.106,0.834,2.123,1.531,3.107c0.698,0.979,1.495,1.783,2.435,2.461
			c0.508,0.363,1.052,0.68,1.624,0.945c0.306,0.143,0.625,0.268,0.947,0.376c0.299,0.098,0.662,0.206,1.091,0.273
			c0.007,0.004,0.014,0.004,0.018,0.004c0.046,0,0.088-0.034,0.096-0.082c0.076-0.432,0.091-0.808,0.095-1.123
			c0.003-0.339-0.017-0.683-0.048-1.019c-0.063-0.626-0.19-1.243-0.368-1.838c-0.338-1.111-0.84-2.126-1.537-3.105
			c-0.705-0.977-1.505-1.781-2.444-2.457c-0.502-0.361-1.047-0.68-1.621-0.945c-0.306-0.143-0.625-0.271-0.944-0.378
			c-0.297-0.099-0.659-0.206-1.089-0.276c-0.053-0.008-0.104,0.026-0.112,0.079c-0.072,0.429-0.085,0.805-0.09,1.122
			c0,0.337,0.016,0.681,0.047,1.014C31.019,21.826,31.143,22.445,31.323,23.039z"/>
		<path fill="#FFFFFF" d="M42.214,17.965c0.518,1.083,1.166,2.013,1.979,2.842c0.434,0.441,0.919,0.849,1.436,1.207
			c0.276,0.192,0.569,0.37,0.871,0.532c0.277,0.148,0.614,0.314,1.028,0.457c0.011,0.004,0.02,0.004,0.032,0.004
			c0.04,0,0.076-0.025,0.092-0.064c0.146-0.412,0.226-0.781,0.285-1.09c0.059-0.336,0.1-0.674,0.126-1.012
			c0.044-0.628,0.026-1.258-0.05-1.876c-0.14-1.153-0.466-2.236-0.988-3.319c-0.525-1.085-1.176-2.011-1.986-2.838
			c-0.434-0.443-0.919-0.85-1.435-1.209c-0.279-0.19-0.572-0.372-0.867-0.534c-0.276-0.146-0.614-0.315-1.028-0.457
			c-0.05-0.02-0.104,0.009-0.124,0.059c-0.146,0.412-0.224,0.78-0.281,1.09c-0.059,0.336-0.1,0.674-0.121,1.01
			c-0.044,0.63-0.027,1.258,0.048,1.874C41.373,15.789,41.692,16.877,42.214,17.965z"/>
		<path fill="#FFFFFF" d="M18.075,26.886c0.206,0.594,0.469,1.17,0.779,1.708c0.575,1,1.295,1.878,2.198,2.678
			c0.901,0.792,1.861,1.395,2.932,1.841c0.572,0.239,1.179,0.424,1.794,0.552c0.33,0.068,0.67,0.12,1.008,0.15
			c0.267,0.026,0.49,0.035,0.7,0.035c0.146,0,0.285-0.004,0.429-0.013c0.053-0.004,0.091-0.053,0.086-0.104
			c-0.021-0.438-0.095-0.808-0.16-1.114c-0.076-0.333-0.169-0.663-0.28-0.984c-0.205-0.594-0.465-1.167-0.776-1.707
			c-0.579-1.006-1.3-1.879-2.204-2.671c-0.907-0.794-1.867-1.394-2.937-1.838c-0.571-0.238-1.175-0.424-1.794-0.553
			c-0.328-0.068-0.667-0.121-1.004-0.151c-0.277-0.026-0.499-0.039-0.718-0.039c-0.138,0-0.273,0.004-0.409,0.015
			c-0.053,0.006-0.092,0.05-0.089,0.103c0.025,0.438,0.098,0.808,0.166,1.114C17.87,26.239,17.965,26.566,18.075,26.886z"/>
		<path fill="#FDB515" d="M15.88,37.945c-0.136-0.008-0.275-0.01-0.413-0.01c-0.483,0-0.974,0.036-1.459,0.107
			c-0.333,0.05-0.667,0.118-0.996,0.202c-0.304,0.083-0.667,0.19-1.064,0.369c-0.05,0.021-0.07,0.078-0.05,0.125
			c0.174,0.4,0.371,0.724,0.542,0.989c0.182,0.285,0.385,0.562,0.598,0.822c0.399,0.486,0.841,0.937,1.318,1.335
			c0.889,0.743,1.862,1.317,2.984,1.754c1.121,0.438,2.229,0.671,3.39,0.724c0.139,0.004,0.276,0.009,0.414,0.009
			c0.483,0,0.974-0.039,1.459-0.108c0.337-0.052,0.67-0.122,1-0.208c0.303-0.083,0.667-0.192,1.063-0.369
			c0.05-0.022,0.071-0.08,0.05-0.128c-0.173-0.4-0.367-0.726-0.538-0.99c-0.186-0.287-0.385-0.562-0.597-0.825
			c-0.398-0.487-0.841-0.938-1.317-1.337c-0.893-0.743-1.872-1.315-2.992-1.75C18.148,38.225,17.038,37.993,15.88,37.945z"/>
		<path fill="#FFFFFF" d="M7.871,29.959c0.318,0.541,0.687,1.052,1.094,1.521c0.763,0.871,1.641,1.59,2.684,2.197
			c1.039,0.603,2.096,1.006,3.235,1.235c0.609,0.121,1.237,0.186,1.867,0.19h0.057c0.317,0,0.643-0.018,0.96-0.05
			c0.315-0.035,0.688-0.084,1.109-0.202c0.051-0.015,0.081-0.067,0.068-0.116c-0.107-0.425-0.251-0.776-0.376-1.065
			c-0.139-0.309-0.296-0.613-0.467-0.905c-0.317-0.543-0.687-1.058-1.094-1.523c-0.768-0.875-1.643-1.59-2.687-2.189
			c-1.045-0.601-2.102-1.004-3.237-1.229c-0.608-0.121-1.236-0.186-1.867-0.19c-0.334-0.004-0.679,0.013-1.017,0.046
			c-0.312,0.035-0.687,0.084-1.106,0.199c-0.053,0.013-0.083,0.067-0.07,0.119c0.111,0.421,0.257,0.772,0.382,1.058
			C7.543,29.36,7.7,29.667,7.871,29.959z"/>
		<path fill="#FFFFFF" d="M20.842,18.676c0.392,1.089,0.945,2.077,1.695,3.022c0.748,0.938,1.588,1.701,2.563,2.327
			c0.525,0.335,1.088,0.623,1.672,0.855c0.313,0.126,0.639,0.234,0.967,0.325c0.303,0.082,0.671,0.173,1.106,0.217
			c0.005,0,0.007,0,0.009,0c0.049,0,0.091-0.035,0.097-0.085c0.053-0.435,0.048-0.812,0.033-1.129
			c-0.014-0.337-0.051-0.678-0.102-1.013c-0.097-0.621-0.255-1.231-0.465-1.816c-0.396-1.093-0.954-2.08-1.703-3.016
			c-0.755-0.94-1.598-1.699-2.573-2.325c-0.521-0.333-1.08-0.622-1.665-0.855c-0.316-0.125-0.639-0.236-0.967-0.326
			c-0.304-0.083-0.669-0.173-1.103-0.221c-0.055-0.004-0.103,0.035-0.107,0.086c-0.05,0.434-0.044,0.811-0.029,1.125
			c0.014,0.341,0.051,0.678,0.104,1.012C20.475,17.484,20.63,18.094,20.842,18.676z"/>
		<path fill="#FFFFFF" d="M48.576,10.494c0.283,0.55,0.624,1.083,1.01,1.582c0.207,0.264,0.433,0.523,0.671,0.766
			c0.222,0.226,0.494,0.49,0.845,0.746c0.018,0.013,0.039,0.02,0.057,0.02c0.03,0,0.059-0.013,0.078-0.037
			c0.265-0.351,0.451-0.681,0.598-0.958c0.159-0.298,0.299-0.61,0.424-0.927c0.23-0.584,0.405-1.193,0.516-1.803
			c0.208-1.144,0.229-2.275,0.053-3.463c-0.177-1.192-0.521-2.273-1.047-3.305c-0.279-0.549-0.622-1.083-1.007-1.581
			c-0.206-0.265-0.43-0.524-0.668-0.767c-0.219-0.226-0.489-0.49-0.84-0.748c-0.044-0.03-0.104-0.021-0.135,0.02
			c-0.265,0.349-0.451,0.679-0.596,0.958c-0.157,0.298-0.298,0.61-0.423,0.923c-0.228,0.589-0.399,1.195-0.511,1.807
			c-0.213,1.137-0.232,2.271-0.062,3.461C47.71,8.379,48.051,9.458,48.576,10.494z M52.586,9.845
			c-0.111,0.598-0.28,1.192-0.505,1.77c-0.121,0.31-0.261,0.613-0.412,0.908c-0.134,0.251-0.297,0.541-0.524,0.853
			c0,0-0.002-0.002-0.002-0.004c0.223-0.308,0.388-0.598,0.522-0.849c0.15-0.293,0.29-0.599,0.411-0.906
			c0.226-0.577,0.394-1.172,0.508-1.768c0.15-0.824,0.164-1.649,0.111-2.487C52.75,8.197,52.738,9.022,52.586,9.845z M47.787,3.761
			c0.111-0.597,0.279-1.192,0.503-1.77c0.119-0.307,0.258-0.61,0.411-0.905c0.13-0.252,0.296-0.541,0.521-0.854
			c0,0.002,0.002,0.004,0.002,0.004C49,0.543,48.837,0.834,48.705,1.083c-0.15,0.293-0.29,0.602-0.41,0.908
			c-0.224,0.577-0.395,1.17-0.503,1.768c-0.156,0.839-0.171,1.682-0.114,2.544C47.621,5.443,47.633,4.601,47.787,3.761z"/>
		<path fill="#FFFFFF" d="M1.413,45.203C1.88,45.625,2.386,46,2.916,46.322c0.992,0.602,2.043,1.022,3.22,1.287
			c0.779,0.173,1.568,0.26,2.339,0.26c0.371,0,0.746-0.018,1.119-0.062c0.615-0.065,1.234-0.194,1.838-0.378
			c0.319-0.102,0.644-0.219,0.952-0.354c0.291-0.127,0.634-0.29,0.998-0.528c0.048-0.028,0.059-0.087,0.03-0.133
			c-0.229-0.37-0.472-0.663-0.68-0.899c-0.226-0.253-0.466-0.498-0.716-0.724c-0.468-0.425-0.975-0.801-1.505-1.122
			c-0.993-0.603-2.046-1.021-3.218-1.278c-0.78-0.169-1.564-0.256-2.327-0.256c-0.377,0-0.759,0.02-1.136,0.062
			c-0.615,0.068-1.232,0.195-1.835,0.38c-0.322,0.101-0.643,0.217-0.956,0.352c-0.285,0.125-0.628,0.286-0.995,0.524
			C0,43.481-0.013,43.54,0.014,43.583c0.232,0.37,0.475,0.661,0.683,0.896C0.922,44.732,1.163,44.975,1.413,45.203z"/>
		<path fill="#FFFFFF" d="M7.396,51.699c-0.582,0.21-1.152,0.479-1.698,0.797C5.41,52.67,5.125,52.86,4.853,53.064
			c-0.251,0.186-0.547,0.425-0.846,0.741c-0.039,0.037-0.037,0.099,0,0.134c0.312,0.306,0.618,0.531,0.873,0.713
			c0.279,0.192,0.57,0.372,0.865,0.532c0.553,0.302,1.136,0.551,1.725,0.739c1.05,0.336,2.119,0.501,3.261,0.501
			c0.053,0,0.112-0.002,0.169-0.002c1.202-0.017,2.316-0.216,3.41-0.61c0.582-0.208,1.155-0.477,1.696-0.8
			c0.29-0.171,0.577-0.361,0.848-0.565c0.249-0.191,0.545-0.429,0.847-0.746c0.035-0.039,0.035-0.101-0.004-0.136
			c-0.312-0.309-0.615-0.536-0.871-0.718c-0.277-0.192-0.57-0.373-0.866-0.538c-0.554-0.3-1.131-0.547-1.726-0.739
			c-1.092-0.348-2.245-0.513-3.428-0.491C9.602,51.105,8.487,51.31,7.396,51.699z"/>
		<path fill="#FFFFFF" d="M102.048,49.477c0.201-0.24,0.436-0.538,0.661-0.912c0.026-0.046,0.011-0.104-0.036-0.133
			c-0.371-0.225-0.719-0.378-1.007-0.498c-0.313-0.125-0.639-0.237-0.963-0.329c-0.608-0.169-1.228-0.282-1.847-0.334
			c-0.291-0.024-0.588-0.036-0.88-0.036c-0.848,0-1.712,0.105-2.573,0.315c-1.166,0.289-2.21,0.735-3.186,1.358
			c-0.525,0.334-1.023,0.724-1.478,1.157c-0.242,0.234-0.479,0.485-0.697,0.743c-0.203,0.241-0.437,0.539-0.659,0.917
			c-0.027,0.043-0.013,0.104,0.032,0.129c0.373,0.229,0.72,0.383,1.011,0.503c0.313,0.127,0.639,0.239,0.964,0.331
			c0.605,0.172,1.226,0.284,1.845,0.337c0.286,0.021,0.581,0.034,0.867,0.034c0.854,0,1.725-0.108,2.584-0.321
			c1.169-0.294,2.213-0.741,3.186-1.365c0.522-0.335,1.021-0.726,1.476-1.157C101.593,49.982,101.83,49.735,102.048,49.477z"/>
		<path fill="#FFFFFF" d="M98.267,56.855c0.034-0.039,0.03-0.099-0.009-0.133c-0.324-0.291-0.64-0.501-0.905-0.67
			c-0.285-0.181-0.585-0.345-0.889-0.497c-0.567-0.273-1.157-0.494-1.757-0.656c-0.886-0.24-1.813-0.362-2.754-0.362
			c-0.228,0-0.462,0.009-0.693,0.021c-1.2,0.076-2.306,0.326-3.38,0.768c-0.571,0.238-1.131,0.533-1.658,0.88
			c-0.28,0.184-0.556,0.387-0.818,0.602c-0.24,0.204-0.526,0.455-0.812,0.785c-0.035,0.042-0.03,0.099,0.008,0.136
			c0.325,0.293,0.64,0.505,0.906,0.674c0.285,0.182,0.584,0.349,0.889,0.497c0.564,0.275,1.157,0.496,1.757,0.661
			c0.879,0.236,1.793,0.355,2.719,0.355c0.24,0,0.485-0.009,0.729-0.023c1.201-0.081,2.31-0.332,3.377-0.774
			c0.574-0.238,1.134-0.534,1.658-0.875c0.281-0.187,0.559-0.39,0.82-0.604C97.696,57.436,97.982,57.186,98.267,56.855z"/>
		<path fill="#E41B4C" d="M85.587,53.74c0.035-0.043,0.026-0.104-0.018-0.135c-0.341-0.268-0.671-0.458-0.946-0.606
			c-0.3-0.16-0.608-0.308-0.922-0.434c-0.583-0.233-1.188-0.415-1.797-0.535c-0.663-0.132-1.346-0.197-2.023-0.197
			c-0.471,0-0.955,0.031-1.44,0.096c-1.191,0.156-2.275,0.481-3.316,0.996c-0.558,0.275-1.094,0.61-1.596,0.988
			c-0.267,0.206-0.528,0.429-0.773,0.663c-0.228,0.217-0.494,0.485-0.756,0.836c-0.033,0.044-0.024,0.103,0.017,0.135
			c0.345,0.27,0.674,0.46,0.947,0.611c0.301,0.16,0.61,0.308,0.923,0.433c0.584,0.236,1.189,0.416,1.799,0.538
			c0.656,0.129,1.33,0.195,1.997,0.195c0.481,0,0.976-0.035,1.465-0.1c1.193-0.162,2.279-0.489,3.315-1.005
			c0.555-0.275,1.092-0.606,1.596-0.988c0.27-0.204,0.529-0.425,0.776-0.658C85.06,54.355,85.326,54.086,85.587,53.74z"/>
		<path fill="#FFFFFF" d="M99.289,33.672c-0.125,0.287-0.27,0.638-0.378,1.063c-0.016,0.048,0.014,0.101,0.067,0.116
			c0.42,0.118,0.798,0.167,1.111,0.202c0.318,0.032,0.639,0.05,0.959,0.05h0.057c0.628-0.004,1.256-0.069,1.868-0.19
			c1.136-0.229,2.196-0.632,3.236-1.235c1.04-0.606,1.916-1.326,2.678-2.197c0.41-0.468,0.778-0.98,1.097-1.521
			c0.169-0.293,0.327-0.597,0.467-0.906c0.127-0.286,0.269-0.637,0.378-1.058c0.014-0.051-0.018-0.106-0.067-0.119
			c-0.42-0.115-0.794-0.165-1.106-0.199c-0.338-0.033-0.681-0.05-1.02-0.046c-0.628,0.005-1.256,0.07-1.862,0.19
			c-1.136,0.226-2.195,0.628-3.241,1.229c-1.04,0.6-1.92,1.314-2.683,2.189c-0.409,0.466-0.778,0.98-1.097,1.523
			C99.584,33.055,99.426,33.361,99.289,33.672z"/>
		<path fill="#FDB515" d="M89,25.422c0.002,0,0.007,0,0.011,0c0.434-0.044,0.803-0.135,1.104-0.217
			c0.328-0.091,0.652-0.199,0.967-0.325c0.585-0.234,1.146-0.521,1.669-0.855c0.979-0.626,1.818-1.389,2.564-2.33
			c0.75-0.942,1.306-1.93,1.699-3.019c0.21-0.584,0.368-1.194,0.469-1.816c0.052-0.332,0.086-0.671,0.104-1.014
			c0.013-0.312,0.019-0.689-0.033-1.123c-0.007-0.052-0.053-0.091-0.105-0.086c-0.434,0.048-0.803,0.137-1.104,0.221
			c-0.326,0.089-0.65,0.201-0.963,0.326c-0.585,0.234-1.146,0.522-1.669,0.855c-0.974,0.626-1.815,1.385-2.568,2.325
			c-0.755,0.936-1.31,1.923-1.704,3.016c-0.212,0.585-0.368,1.195-0.468,1.818c-0.051,0.331-0.086,0.674-0.104,1.014
			c-0.013,0.314-0.018,0.691,0.035,1.126C88.913,25.387,88.951,25.422,89,25.422z"/>
		<path fill="#FFFFFF" d="M79.307,18.523c0.014,0.044,0.053,0.074,0.096,0.074c0.007,0,0.013-0.002,0.021-0.004
			c0.426-0.109,0.776-0.247,1.066-0.372c0.309-0.135,0.615-0.291,0.91-0.459c0.544-0.317,1.058-0.68,1.527-1.088
			c0.878-0.76,1.6-1.633,2.205-2.671c0.607-1.042,1.016-2.1,1.247-3.235c0.123-0.606,0.192-1.232,0.201-1.862
			c0.005-0.339-0.009-0.679-0.043-1.02c-0.031-0.309-0.079-0.685-0.19-1.106c-0.014-0.05-0.065-0.083-0.118-0.068
			c-0.425,0.104-0.772,0.247-1.062,0.374c-0.308,0.138-0.615,0.292-0.905,0.462c-0.546,0.315-1.06,0.682-1.527,1.085
			c-0.877,0.759-1.602,1.634-2.212,2.669c-0.609,1.036-1.021,2.093-1.255,3.231c-0.123,0.606-0.19,1.234-0.199,1.865
			c-0.005,0.337,0.011,0.681,0.044,1.018C79.145,17.727,79.194,18.103,79.307,18.523z"/>
		<path fill="#E41B4C" d="M65.596,11.685c0.126,0.317,0.267,0.629,0.426,0.927c0.146,0.277,0.333,0.607,0.598,0.958
			c0.02,0.024,0.048,0.037,0.078,0.037c0.018,0,0.038-0.007,0.056-0.02c0.352-0.256,0.625-0.521,0.848-0.746
			c0.236-0.242,0.462-0.501,0.669-0.766c0.386-0.499,0.726-1.032,1.009-1.582c0.525-1.036,0.865-2.115,1.037-3.307
			c0.171-1.19,0.151-2.324-0.061-3.461c-0.113-0.612-0.284-1.218-0.512-1.807c-0.125-0.313-0.268-0.625-0.423-0.925
			c-0.145-0.277-0.331-0.605-0.595-0.956c-0.031-0.041-0.092-0.05-0.136-0.02c-0.351,0.258-0.621,0.522-0.841,0.748
			c-0.235,0.243-0.461,0.502-0.667,0.767c-0.385,0.498-0.728,1.032-1.008,1.581c-0.526,1.032-0.868,2.113-1.046,3.305
			c-0.173,1.188-0.155,2.319,0.053,3.463C65.194,10.492,65.367,11.101,65.596,11.685z"/>
		<path fill="#FDB515" d="M107.345,43.669c-0.53,0.321-1.035,0.697-1.503,1.122c-0.252,0.226-0.492,0.47-0.72,0.724
			c-0.203,0.236-0.446,0.529-0.678,0.899c-0.029,0.046-0.016,0.105,0.028,0.133c0.365,0.238,0.71,0.401,0.998,0.528
			c0.311,0.135,0.632,0.252,0.955,0.354c0.604,0.184,1.219,0.313,1.838,0.378c0.368,0.043,0.745,0.062,1.117,0.062
			c0.772,0,1.556-0.087,2.341-0.26c1.175-0.265,2.228-0.685,3.218-1.287c0.527-0.322,1.035-0.698,1.503-1.12
			c0.25-0.228,0.49-0.471,0.718-0.723c0.208-0.236,0.45-0.526,0.68-0.896c0.031-0.043,0.016-0.103-0.029-0.131
			c-0.365-0.238-0.708-0.398-0.996-0.524c-0.31-0.135-0.631-0.251-0.955-0.352c-0.603-0.186-1.221-0.312-1.838-0.38
			c-0.373-0.042-0.758-0.062-1.132-0.062c-0.766,0-1.546,0.087-2.325,0.256C109.391,42.649,108.338,43.067,107.345,43.669z"/>
		<path fill="#FFFFFF" d="M101.848,55.012c0.542,0.323,1.113,0.592,1.697,0.8c1.094,0.394,2.21,0.593,3.41,0.61
			c0.057,0,0.112,0.002,0.169,0.002c1.145,0,2.209-0.165,3.258-0.501c0.591-0.188,1.173-0.438,1.725-0.739
			c0.3-0.16,0.588-0.34,0.866-0.534c0.256-0.18,0.56-0.405,0.872-0.711c0.038-0.035,0.038-0.098,0.005-0.134
			c-0.302-0.316-0.6-0.555-0.851-0.741c-0.271-0.204-0.555-0.394-0.845-0.568c-0.543-0.318-1.113-0.587-1.697-0.797
			c-1.09-0.39-2.205-0.594-3.407-0.619c-0.073,0-0.146,0-0.218,0c-1.109,0-2.188,0.164-3.214,0.491
			c-0.591,0.192-1.17,0.439-1.726,0.739c-0.294,0.165-0.584,0.345-0.864,0.538c-0.258,0.182-0.561,0.409-0.871,0.718
			c-0.039,0.035-0.039,0.097-0.002,0.136c0.3,0.317,0.593,0.555,0.845,0.746C101.275,54.65,101.557,54.841,101.848,55.012z"/>
		<path fill="#FFFFFF" d="M60.278,63.776c-0.167-0.294-0.354-0.581-0.554-0.858c-0.186-0.251-0.415-0.55-0.727-0.857
			c-0.039-0.039-0.101-0.039-0.14,0c-0.312,0.308-0.54,0.606-0.729,0.857c-0.199,0.277-0.385,0.564-0.552,0.858
			c-0.31,0.546-0.57,1.123-0.771,1.712c-0.37,1.098-0.552,2.218-0.55,3.419c0.003,1.205,0.187,2.325,0.559,3.419
			c0.199,0.586,0.457,1.164,0.77,1.711c0.167,0.295,0.351,0.582,0.55,0.857c0.186,0.252,0.417,0.551,0.724,0.859
			c0.021,0.018,0.046,0.026,0.069,0.026c0.024,0,0.051-0.009,0.07-0.026c0.307-0.306,0.541-0.607,0.723-0.861
			c0.2-0.273,0.384-0.561,0.551-0.855c0.312-0.547,0.571-1.125,0.77-1.711c0.372-1.094,0.556-2.214,0.559-3.419
			c0.002-1.201-0.18-2.321-0.552-3.419C60.847,64.899,60.59,64.322,60.278,63.776z"/>
		<path fill="#FDB515" d="M60.278,79.244c-0.167-0.292-0.354-0.582-0.554-0.857c-0.186-0.254-0.415-0.554-0.727-0.858
			c-0.039-0.037-0.101-0.037-0.14,0c-0.312,0.305-0.54,0.604-0.729,0.86c-0.199,0.273-0.385,0.562-0.552,0.855
			c-0.31,0.549-0.57,1.122-0.771,1.71c-0.37,1.101-0.552,2.218-0.55,3.421c0.003,1.204,0.187,2.324,0.559,3.418
			c0.199,0.588,0.457,1.164,0.77,1.711c0.167,0.295,0.351,0.584,0.55,0.857c0.186,0.254,0.417,0.555,0.724,0.857
			c0.021,0.02,0.046,0.03,0.069,0.03c0.024,0,0.051-0.011,0.07-0.03c0.307-0.303,0.541-0.602,0.723-0.857
			c0.2-0.273,0.384-0.562,0.551-0.857c0.312-0.547,0.571-1.123,0.77-1.711c0.372-1.094,0.556-2.214,0.559-3.418
			c0.002-1.203-0.18-2.32-0.552-3.421C60.847,80.366,60.59,79.792,60.278,79.244z"/>
		<path fill="#FFFFFF" d="M66.304,70.302c0.536,0.316,1.107,0.582,1.699,0.797c0.318,0.115,0.644,0.213,0.974,0.293
			c0.307,0.072,0.679,0.148,1.113,0.18h0.005c0.051,0,0.095-0.039,0.097-0.092c0.037-0.434,0.016-0.811-0.007-1.125
			c-0.03-0.334-0.077-0.676-0.143-1.006c-0.122-0.619-0.299-1.223-0.529-1.799c-0.433-1.074-1.021-2.043-1.802-2.959
			c-0.782-0.915-1.647-1.646-2.646-2.236c-0.536-0.316-1.107-0.586-1.699-0.798c-0.318-0.114-0.647-0.212-0.977-0.29
			c-0.306-0.072-0.676-0.147-1.113-0.178c-0.053-0.006-0.101,0.037-0.104,0.089c-0.037,0.436-0.018,0.813,0.004,1.129
			c0.03,0.336,0.077,0.676,0.141,1.01c0.12,0.615,0.297,1.222,0.529,1.799c0.433,1.078,1.024,2.046,1.81,2.956
			C64.445,68.98,65.311,69.712,66.304,70.302z"/>
		<path fill="#E41B4C" d="M85.388,75.843c0.294,0.559,0.637,1.086,1.023,1.57c0.723,0.908,1.569,1.663,2.582,2.312
			c1.018,0.646,2.056,1.097,3.18,1.374c0.602,0.151,1.225,0.243,1.856,0.278c0.166,0.008,0.337,0.015,0.507,0.015
			c0.169,0,0.338-0.007,0.511-0.015c0.312-0.018,0.688-0.051,1.114-0.148c0.052-0.01,0.084-0.062,0.073-0.112
			c-0.09-0.429-0.217-0.784-0.329-1.077c-0.126-0.314-0.269-0.625-0.424-0.924c-0.295-0.559-0.641-1.084-1.028-1.572
			c-0.72-0.902-1.563-1.662-2.574-2.315c-1.011-0.649-2.049-1.103-3.176-1.382c-0.603-0.152-1.228-0.244-1.856-0.278
			c-0.341-0.017-0.678-0.015-1.021,0.005c-0.311,0.018-0.688,0.051-1.117,0.15c-0.048,0.01-0.083,0.061-0.074,0.113
			c0.092,0.43,0.218,0.785,0.33,1.078C85.089,75.234,85.233,75.543,85.388,75.843z"/>
		<path fill="#FFFFFF" d="M79.182,84.471c0.047,0,0.09-0.039,0.095-0.09c0.037-0.435,0.018-0.812-0.009-1.125
			c-0.028-0.338-0.074-0.678-0.139-1.008c-0.122-0.619-0.299-1.222-0.531-1.798c-0.431-1.074-1.02-2.043-1.8-2.96
			c-0.781-0.915-1.647-1.647-2.646-2.237c-0.536-0.32-1.104-0.588-1.696-0.801c-0.318-0.111-0.646-0.213-0.979-0.289
			c-0.306-0.072-0.676-0.148-1.114-0.179c-0.051-0.002-0.097,0.036-0.102,0.091c-0.037,0.436-0.02,0.814,0.005,1.127
			c0.028,0.338,0.076,0.678,0.138,1.011c0.12,0.618,0.297,1.224,0.531,1.798c0.432,1.078,1.022,2.045,1.805,2.955
			c0.789,0.914,1.654,1.642,2.65,2.234c0.535,0.314,1.106,0.584,1.698,0.799c0.315,0.113,0.644,0.212,0.975,0.291
			c0.306,0.073,0.676,0.148,1.11,0.179C79.177,84.469,79.177,84.471,79.182,84.471z"/>
		<path fill="#E41B4C" d="M65.194,72.625c-0.25-0.227-0.516-0.442-0.788-0.646c-0.257-0.182-0.568-0.398-0.961-0.59
			c-0.048-0.025-0.106-0.006-0.127,0.041c-0.205,0.387-0.334,0.744-0.435,1.043c-0.102,0.322-0.192,0.65-0.26,0.982
			c-0.129,0.617-0.199,1.246-0.208,1.865c-0.018,1.16,0.153,2.281,0.525,3.423c0.374,1.146,0.889,2.156,1.582,3.086
			c0.369,0.496,0.793,0.965,1.257,1.392c0.247,0.227,0.511,0.446,0.783,0.646c0.254,0.186,0.568,0.397,0.956,0.593
			c0.016,0.009,0.028,0.013,0.044,0.013c0.035,0,0.066-0.019,0.084-0.052c0.204-0.386,0.33-0.745,0.43-1.042
			c0.104-0.323,0.19-0.651,0.259-0.983c0.129-0.617,0.198-1.243,0.208-1.865c0.018-1.157-0.151-2.277-0.519-3.424
			c-0.367-1.144-0.88-2.154-1.573-3.086C66.077,73.52,65.657,73.052,65.194,72.625z"/>
		<path fill="#E41B4C" d="M69.754,84.218c-0.06,0.627-0.055,1.26,0.006,1.879c0.116,1.154,0.412,2.246,0.91,3.34
			c0.503,1.097,1.132,2.039,1.925,2.883c0.423,0.45,0.897,0.871,1.405,1.238c0.275,0.199,0.562,0.386,0.856,0.555
			c0.272,0.156,0.606,0.332,1.014,0.48c0.012,0.006,0.026,0.01,0.035,0.01c0.039,0,0.076-0.025,0.091-0.064
			c0.156-0.408,0.242-0.777,0.308-1.084c0.064-0.33,0.115-0.668,0.144-1.006c0.055-0.627,0.055-1.258-0.004-1.876
			c-0.114-1.153-0.413-2.245-0.906-3.345c-0.497-1.092-1.122-2.037-1.916-2.886c-0.425-0.451-0.898-0.869-1.408-1.24
			c-0.273-0.197-0.562-0.383-0.858-0.55c-0.272-0.154-0.605-0.332-1.017-0.48c-0.053-0.018-0.107,0.006-0.127,0.057
			c-0.155,0.406-0.242,0.774-0.308,1.083C69.834,83.544,69.787,83.882,69.754,84.218z"/>
		<path fill="#FFFFFF" d="M66.442,99.369c0.013,0.01,0.032,0.014,0.052,0.014c0.029,0,0.061-0.014,0.078-0.043
			c0.233-0.369,0.394-0.71,0.519-1.002c0.13-0.309,0.249-0.629,0.347-0.953c0.181-0.604,0.304-1.225,0.369-1.842
			c0.12-1.148,0.051-2.281-0.213-3.457c-0.26-1.154-0.695-2.236-1.296-3.211c-0.324-0.531-0.705-1.036-1.129-1.5
			c-0.228-0.249-0.473-0.487-0.728-0.713c-0.235-0.205-0.531-0.447-0.903-0.674c-0.043-0.029-0.104-0.017-0.131,0.028
			c-0.238,0.369-0.398,0.713-0.522,0.999c-0.132,0.312-0.25,0.633-0.349,0.958c-0.182,0.603-0.308,1.222-0.372,1.84
			c-0.121,1.153-0.048,2.286,0.222,3.457c0.268,1.175,0.695,2.224,1.3,3.209c0.324,0.529,0.706,1.036,1.131,1.5
			c0.228,0.251,0.473,0.489,0.724,0.714C65.779,98.898,66.069,99.14,66.442,99.369z"/>
		<path fill="#FFFFFF" d="M87.646,72.066c0.072,0.002,0.144,0.002,0.217,0.002c0.547,0,1.105-0.045,1.656-0.137
			c0.332-0.059,0.667-0.135,0.992-0.225c0.303-0.09,0.663-0.205,1.055-0.391c0.051-0.022,0.072-0.078,0.046-0.125
			c-0.179-0.398-0.382-0.715-0.558-0.98c-0.19-0.277-0.398-0.55-0.617-0.807c-0.407-0.479-0.859-0.922-1.343-1.309
			c-0.901-0.727-1.892-1.279-3.021-1.695c-1.131-0.414-2.243-0.626-3.404-0.652c-0.615-0.013-1.249,0.033-1.872,0.139
			c-0.333,0.057-0.667,0.131-0.992,0.225c-0.304,0.088-0.662,0.204-1.058,0.391c-0.047,0.023-0.068,0.082-0.047,0.13
			c0.182,0.397,0.383,0.718,0.559,0.979c0.188,0.281,0.396,0.555,0.614,0.811c0.409,0.48,0.862,0.921,1.345,1.311
			c0.906,0.727,1.894,1.279,3.024,1.688C85.375,71.83,86.49,72.04,87.646,72.066z"/>
		<path fill="#FFFFFF" d="M71.748,69.552c0.26,0.571,0.574,1.121,0.934,1.629c0.669,0.947,1.47,1.752,2.439,2.455
			c0.979,0.707,1.99,1.217,3.1,1.559c0.589,0.184,1.208,0.312,1.832,0.383c0.338,0.037,0.679,0.059,1.019,0.059
			c0.312,0,0.69-0.012,1.122-0.082c0.053-0.008,0.087-0.057,0.078-0.109c-0.065-0.433-0.171-0.795-0.269-1.094
			c-0.104-0.322-0.229-0.639-0.368-0.947c-0.26-0.57-0.574-1.121-0.932-1.629c-0.667-0.945-1.468-1.75-2.439-2.461
			c-0.971-0.707-1.983-1.219-3.09-1.564c-0.594-0.184-1.211-0.312-1.838-0.381c-0.338-0.039-0.678-0.057-1.018-0.059
			c-0.312,0.002-0.693,0.014-1.122,0.086c-0.053,0.006-0.09,0.059-0.081,0.111c0.063,0.434,0.169,0.797,0.265,1.096
			C71.485,68.924,71.609,69.244,71.748,69.552z"/>
		<path fill="#FFFFFF" d="M88.904,88.112c0.051,0,0.093-0.042,0.097-0.091c0.028-0.437,0.002-0.814-0.028-1.127
			c-0.037-0.336-0.09-0.674-0.16-1.005c-0.132-0.615-0.321-1.219-0.563-1.79c-0.451-1.065-1.057-2.021-1.854-2.925
			c-0.799-0.896-1.678-1.616-2.687-2.188c-0.54-0.308-1.118-0.562-1.715-0.767c-0.317-0.108-0.65-0.199-0.982-0.273
			c-0.305-0.065-0.678-0.134-1.115-0.155c-0.051-0.002-0.097,0.037-0.099,0.09c-0.03,0.438-0.007,0.815,0.023,1.127
			c0.037,0.339,0.086,0.676,0.158,1.008c0.129,0.617,0.321,1.217,0.562,1.789c0.453,1.07,1.062,2.026,1.86,2.923
			c0.804,0.897,1.684,1.612,2.69,2.182c0.541,0.306,1.118,0.566,1.713,0.77c0.319,0.106,0.649,0.2,0.981,0.273
			c0.305,0.065,0.677,0.136,1.114,0.157C88.9,88.109,88.902,88.112,88.904,88.112z"/>
		<path fill="#FDB515" d="M86.628,93.441c-0.334-1.109-0.835-2.127-1.532-3.109c-0.697-0.979-1.494-1.785-2.436-2.463
			c-0.505-0.363-1.05-0.68-1.62-0.944c-0.308-0.143-0.629-0.269-0.95-0.377c-0.298-0.096-0.663-0.206-1.094-0.273
			c-0.049-0.009-0.101,0.026-0.109,0.079c-0.076,0.429-0.092,0.81-0.096,1.122c0,0.342,0.018,0.685,0.049,1.018
			c0.064,0.63,0.189,1.249,0.366,1.839c0.339,1.111,0.842,2.129,1.54,3.105c0.704,0.979,1.503,1.781,2.443,2.459
			c0.503,0.359,1.049,0.68,1.621,0.945c0.305,0.141,0.623,0.27,0.944,0.379c0.297,0.096,0.661,0.206,1.09,0.275
			c0.007,0.002,0.011,0.002,0.018,0.002c0.045,0,0.086-0.035,0.095-0.082c0.073-0.43,0.087-0.806,0.091-1.123
			c0-0.338-0.018-0.68-0.052-1.014C86.931,94.65,86.806,94.035,86.628,93.441z"/>
		<path fill="#FFFFFF" d="M75.739,98.511c-0.522-1.083-1.168-2.012-1.983-2.842c-0.433-0.441-0.915-0.85-1.434-1.205
			c-0.279-0.195-0.572-0.373-0.871-0.533c-0.274-0.149-0.616-0.316-1.027-0.459c-0.052-0.016-0.107,0.01-0.125,0.061
			c-0.148,0.411-0.225,0.783-0.286,1.092c-0.059,0.334-0.101,0.674-0.123,1.01c-0.044,0.629-0.028,1.258,0.049,1.877
			c0.142,1.152,0.464,2.238,0.986,3.318c0.527,1.086,1.177,2.013,1.987,2.838c0.436,0.441,0.919,0.851,1.438,1.21
			c0.277,0.19,0.569,0.372,0.866,0.533c0.277,0.146,0.615,0.315,1.027,0.459c0.01,0.003,0.019,0.005,0.032,0.005
			c0.039,0,0.078-0.026,0.091-0.065c0.147-0.412,0.226-0.78,0.282-1.088c0.058-0.336,0.099-0.676,0.12-1.01
			c0.044-0.63,0.026-1.261-0.048-1.876C76.58,100.688,76.258,99.599,75.739,98.511z"/>
		<path fill="#FFFFFF" d="M59.879,94.783c-0.188-0.281-0.396-0.555-0.614-0.812c-0.203-0.24-0.455-0.521-0.788-0.805
			c-0.043-0.035-0.104-0.031-0.138,0.01c-0.29,0.326-0.499,0.643-0.667,0.912c-0.18,0.285-0.344,0.59-0.486,0.893
			c-0.271,0.566-0.487,1.162-0.645,1.762c-0.292,1.125-0.39,2.25-0.3,3.451c0.09,1.199,0.354,2.306,0.805,3.371
			c0.24,0.569,0.542,1.125,0.893,1.652c0.187,0.275,0.392,0.554,0.61,0.812c0.202,0.238,0.456,0.522,0.786,0.803
			c0.018,0.016,0.042,0.024,0.065,0.024c0.026,0,0.053-0.011,0.072-0.032c0.285-0.329,0.495-0.646,0.66-0.91
			c0.178-0.29,0.342-0.589,0.487-0.897c0.269-0.566,0.485-1.16,0.642-1.76c0.292-1.121,0.393-2.248,0.31-3.452
			c-0.086-1.198-0.349-2.301-0.799-3.37C60.529,95.859,60.23,95.304,59.879,94.783z"/>
		<path fill="#FFFFFF" d="M99.875,89.589c-0.205-0.594-0.468-1.17-0.774-1.705c-0.579-1.003-1.299-1.879-2.202-2.678
			c-0.901-0.796-1.858-1.397-2.932-1.844c-0.573-0.238-1.177-0.425-1.792-0.551c-0.331-0.069-0.67-0.121-1.008-0.152
			c-0.267-0.023-0.491-0.035-0.702-0.035c-0.144,0-0.282,0.006-0.424,0.014c-0.053,0.004-0.095,0.053-0.093,0.104
			c0.027,0.438,0.097,0.81,0.165,1.116c0.074,0.33,0.17,0.66,0.277,0.981c0.206,0.594,0.468,1.169,0.776,1.707
			c0.58,1.007,1.302,1.88,2.205,2.673c0.908,0.793,1.868,1.392,2.938,1.836c0.571,0.238,1.175,0.424,1.794,0.553
			c0.329,0.068,0.667,0.121,1.006,0.153c0.276,0.024,0.497,0.038,0.714,0.038c0.139,0,0.272-0.006,0.408-0.016
			c0.053-0.004,0.095-0.051,0.091-0.103c-0.027-0.436-0.098-0.806-0.165-1.114C100.078,90.24,99.988,89.91,99.875,89.589z"/>
		<path fill="#FFFFFF" d="M102.07,78.533c0.137,0.006,0.275,0.008,0.414,0.008c0.483,0,0.973-0.035,1.458-0.105
			c0.334-0.052,0.669-0.117,0.999-0.203c0.301-0.082,0.665-0.19,1.062-0.369c0.05-0.021,0.069-0.077,0.052-0.125
			c-0.175-0.4-0.372-0.724-0.542-0.988c-0.184-0.285-0.386-0.561-0.598-0.822c-0.4-0.486-0.845-0.938-1.319-1.336
			c-0.886-0.74-1.863-1.316-2.988-1.755c-1.117-0.436-2.227-0.671-3.386-0.72c-0.137-0.008-0.275-0.01-0.414-0.01
			c-0.48,0-0.976,0.037-1.461,0.105c-0.333,0.053-0.669,0.122-0.997,0.208c-0.305,0.083-0.666,0.192-1.065,0.372
			c-0.048,0.021-0.068,0.076-0.048,0.125c0.172,0.4,0.369,0.729,0.537,0.992c0.183,0.283,0.386,0.561,0.599,0.822
			c0.399,0.488,0.841,0.939,1.318,1.338c0.888,0.745,1.866,1.316,2.988,1.748C99.804,78.251,100.916,78.486,102.07,78.533z"/>
		<path fill="#FFFFFF" d="M56.774,62.305c0.021-0.315,0.043-0.691,0.004-1.127c-0.004-0.052-0.051-0.095-0.104-0.089
			c-0.434,0.03-0.808,0.105-1.113,0.178c-0.33,0.078-0.656,0.176-0.976,0.29c-0.593,0.212-1.166,0.481-1.697,0.798
			c-1,0.591-1.866,1.321-2.648,2.236c-0.78,0.916-1.37,1.885-1.801,2.959c-0.232,0.576-0.41,1.182-0.53,1.799
			c-0.065,0.33-0.113,0.672-0.142,1.009c-0.023,0.312-0.046,0.688-0.009,1.122c0.004,0.053,0.046,0.092,0.098,0.092
			c0.003,0,0.005,0,0.007,0c0.436-0.031,0.804-0.107,1.111-0.182c0.329-0.078,0.654-0.176,0.974-0.291
			c0.591-0.215,1.162-0.48,1.698-0.797c0.994-0.59,1.861-1.322,2.649-2.23c0.784-0.91,1.376-1.878,1.809-2.956
			c0.231-0.577,0.41-1.184,0.531-1.799C56.699,62.983,56.747,62.646,56.774,62.305z"/>
		<path fill="#FFFFFF" d="M22.905,81.378c0.169,0.008,0.342,0.015,0.512,0.015c0.169,0,0.338-0.007,0.506-0.015
			c0.63-0.035,1.252-0.127,1.855-0.278c1.122-0.277,2.163-0.728,3.181-1.374c1.01-0.649,1.854-1.404,2.581-2.312
			c0.384-0.486,0.73-1.012,1.024-1.57c0.156-0.3,0.297-0.609,0.42-0.928c0.113-0.293,0.24-0.648,0.329-1.078
			c0.014-0.053-0.021-0.104-0.073-0.113c-0.425-0.1-0.802-0.133-1.118-0.15c-0.337-0.02-0.678-0.021-1.018-0.005
			c-0.629,0.034-1.253,0.126-1.854,0.278c-1.127,0.279-2.168,0.732-3.177,1.382c-1.015,0.653-1.854,1.413-2.576,2.315
			c-0.388,0.486-0.731,1.014-1.024,1.572c-0.158,0.299-0.3,0.609-0.425,0.924c-0.113,0.293-0.24,0.65-0.33,1.077
			c-0.013,0.05,0.021,0.103,0.072,0.112C22.213,81.328,22.593,81.361,22.905,81.378z"/>
		<path fill="#FFFFFF" d="M26.466,63.789c-0.605-0.171-1.229-0.285-1.846-0.338c-0.289-0.021-0.58-0.035-0.866-0.035
			c-0.856,0-1.725,0.109-2.587,0.324c-1.17,0.291-2.211,0.738-3.185,1.365c-0.522,0.335-1.02,0.723-1.479,1.156
			c-0.243,0.232-0.477,0.479-0.698,0.738c-0.199,0.243-0.438,0.538-0.658,0.912c-0.026,0.047-0.013,0.107,0.033,0.133
			c0.37,0.228,0.717,0.381,1.008,0.498c0.315,0.126,0.639,0.238,0.963,0.33c0.608,0.168,1.229,0.281,1.844,0.334
			c0.296,0.022,0.591,0.037,0.883,0.037c0.848,0,1.714-0.107,2.571-0.316c1.171-0.289,2.21-0.733,3.189-1.359
			c0.523-0.334,1.018-0.724,1.476-1.157c0.244-0.233,0.479-0.483,0.699-0.743c0.199-0.241,0.434-0.539,0.656-0.914
			c0.028-0.047,0.014-0.105-0.032-0.133c-0.372-0.229-0.718-0.384-1.009-0.502C27.115,63.992,26.792,63.88,26.466,63.789z"/>
		<path fill="#FFFFFF" d="M45.21,80.966c0.782-0.91,1.373-1.877,1.807-2.955c0.231-0.577,0.41-1.18,0.531-1.798
			c0.061-0.333,0.109-0.673,0.14-1.011c0.021-0.312,0.038-0.693,0.003-1.127c-0.003-0.055-0.051-0.093-0.104-0.091
			c-0.438,0.03-0.808,0.106-1.113,0.179c-0.33,0.076-0.658,0.178-0.979,0.289c-0.589,0.213-1.162,0.48-1.698,0.801
			c-0.998,0.59-1.861,1.322-2.645,2.237c-0.779,0.917-1.369,1.886-1.8,2.96c-0.23,0.576-0.409,1.179-0.53,1.798
			c-0.064,0.33-0.111,0.67-0.14,1.008c-0.026,0.313-0.044,0.69-0.009,1.125c0.004,0.051,0.048,0.09,0.096,0.09
			c0.005,0,0.007-0.002,0.009-0.002c0.434-0.03,0.806-0.105,1.111-0.179c0.329-0.079,0.656-0.178,0.974-0.291
			c0.593-0.217,1.163-0.484,1.698-0.799C43.557,82.608,44.424,81.88,45.21,80.966z"/>
		<path fill="#FFFFFF" d="M49.875,83.377c0.099,0.297,0.226,0.652,0.429,1.042c0.018,0.033,0.051,0.052,0.085,0.052
			c0.016,0,0.027-0.004,0.045-0.013c0.389-0.195,0.697-0.407,0.953-0.593c0.273-0.199,0.538-0.419,0.787-0.646
			c0.464-0.427,0.886-0.896,1.256-1.392c0.691-0.93,1.208-1.94,1.579-3.086c0.374-1.142,0.545-2.263,0.527-3.423
			c-0.011-0.619-0.08-1.248-0.207-1.865c-0.07-0.332-0.159-0.66-0.263-0.984c-0.101-0.297-0.229-0.654-0.432-1.041
			c-0.023-0.047-0.08-0.066-0.128-0.041c-0.392,0.193-0.706,0.408-0.959,0.592c-0.275,0.199-0.541,0.418-0.789,0.645
			c-0.467,0.428-0.889,0.896-1.259,1.395c-0.69,0.932-1.205,1.942-1.573,3.086c-0.368,1.146-0.537,2.267-0.52,3.424
			c0.013,0.622,0.08,1.248,0.208,1.865C49.685,82.726,49.771,83.054,49.875,83.377z"/>
		<path fill="#E41B4C" d="M46.595,82.552c-0.294,0.167-0.583,0.353-0.858,0.55c-0.509,0.371-0.984,0.789-1.409,1.24
			c-0.792,0.849-1.42,1.794-1.914,2.886c-0.494,1.1-0.789,2.191-0.903,3.345c-0.061,0.618-0.063,1.249-0.007,1.876
			c0.031,0.336,0.077,0.676,0.143,1.008c0.065,0.308,0.152,0.674,0.309,1.082c0.018,0.039,0.053,0.064,0.09,0.064
			c0.012,0,0.021-0.004,0.035-0.01c0.407-0.148,0.741-0.324,1.017-0.48c0.292-0.169,0.58-0.355,0.854-0.555
			c0.509-0.367,0.984-0.788,1.406-1.238c0.793-0.844,1.422-1.786,1.923-2.883c0.499-1.094,0.799-2.186,0.913-3.34
			c0.061-0.619,0.062-1.252,0.006-1.879c-0.032-0.336-0.081-0.674-0.151-1.007c-0.062-0.309-0.15-0.677-0.308-1.083
			c-0.02-0.051-0.073-0.074-0.125-0.057C47.203,82.22,46.868,82.398,46.595,82.552z"/>
		<path fill="#FFFFFF" d="M55.415,87.973c-0.097-0.323-0.216-0.646-0.348-0.958c-0.126-0.286-0.286-0.63-0.522-0.999
			c-0.028-0.045-0.088-0.058-0.132-0.028c-0.374,0.229-0.667,0.469-0.905,0.674c-0.252,0.226-0.5,0.464-0.727,0.713
			c-0.423,0.464-0.803,0.969-1.129,1.5c-0.606,0.987-1.03,2.041-1.295,3.211c-0.265,1.176-0.334,2.309-0.213,3.457
			c0.064,0.617,0.188,1.238,0.368,1.842c0.101,0.324,0.217,0.645,0.348,0.953c0.125,0.292,0.283,0.633,0.519,1.002
			c0.018,0.029,0.051,0.043,0.083,0.043c0.018,0,0.035-0.004,0.048-0.014c0.373-0.229,0.663-0.471,0.901-0.676
			c0.254-0.225,0.495-0.463,0.722-0.714c0.426-0.466,0.807-0.971,1.132-1.5c0.604-0.983,1.031-2.034,1.303-3.209
			c0.267-1.171,0.339-2.304,0.219-3.457C55.721,89.195,55.596,88.576,55.415,87.973z"/>
		<path fill="#E41B4C" d="M36.733,69.73c0.485-0.388,0.936-0.828,1.346-1.309c0.216-0.256,0.422-0.529,0.612-0.811
			c0.175-0.262,0.38-0.58,0.56-0.979c0.022-0.048,0.002-0.106-0.048-0.13c-0.395-0.187-0.755-0.303-1.057-0.391
			c-0.326-0.094-0.659-0.168-0.993-0.225c-0.622-0.105-1.254-0.151-1.872-0.139c-1.162,0.026-2.273,0.238-3.401,0.652
			c-1.132,0.416-2.118,0.969-3.02,1.695c-0.485,0.387-0.937,0.829-1.346,1.309c-0.219,0.257-0.428,0.529-0.618,0.809
			c-0.174,0.264-0.377,0.58-0.559,0.979c-0.021,0.047,0,0.103,0.048,0.125c0.394,0.186,0.753,0.301,1.057,0.391
			c0.324,0.09,0.659,0.166,0.992,0.225c0.551,0.092,1.107,0.137,1.655,0.137c0.072,0,0.144,0,0.215-0.002
			c1.157-0.026,2.272-0.236,3.403-0.646C34.838,71.011,35.827,70.458,36.733,69.73z"/>
		<path fill="#FDB515" d="M36.879,75.636c0.002,0,0.002,0,0.002,0c0.341,0,0.681-0.021,1.018-0.059
			c0.623-0.071,1.243-0.199,1.835-0.383c1.106-0.342,2.115-0.852,3.096-1.559c0.97-0.703,1.771-1.508,2.441-2.455
			c0.358-0.508,0.669-1.058,0.934-1.629c0.136-0.309,0.261-0.628,0.366-0.949c0.096-0.299,0.202-0.662,0.267-1.096
			c0.009-0.053-0.028-0.105-0.08-0.111c-0.431-0.072-0.813-0.084-1.125-0.086c-0.337,0.002-0.679,0.02-1.018,0.059
			c-0.624,0.068-1.243,0.197-1.835,0.381c-1.111,0.346-2.12,0.857-3.092,1.564c-0.974,0.711-1.77,1.516-2.439,2.461
			c-0.355,0.508-0.669,1.057-0.932,1.629c-0.14,0.309-0.265,0.625-0.369,0.947c-0.097,0.299-0.204,0.661-0.268,1.094
			c-0.009,0.053,0.024,0.102,0.079,0.109C36.189,75.625,36.568,75.636,36.879,75.636z"/>
		<path fill="#FFFFFF" d="M38.708,59.251c-1.194,0.166-2.279,0.492-3.315,1.006c-0.555,0.277-1.091,0.606-1.594,0.988
			c-0.269,0.204-0.529,0.425-0.776,0.658c-0.228,0.217-0.494,0.486-0.758,0.832c-0.03,0.044-0.021,0.104,0.018,0.135
			c0.346,0.268,0.674,0.456,0.948,0.606c0.299,0.162,0.612,0.307,0.923,0.434c0.583,0.236,1.187,0.415,1.796,0.537
			c0.663,0.13,1.346,0.195,2.023,0.195c0.471,0,0.956-0.03,1.441-0.094c1.192-0.157,2.275-0.483,3.315-0.998
			c0.559-0.275,1.094-0.609,1.596-0.988c0.268-0.204,0.529-0.427,0.774-0.663c0.228-0.217,0.494-0.486,0.757-0.835
			c0.031-0.042,0.022-0.102-0.016-0.136c-0.346-0.27-0.675-0.46-0.949-0.611c-0.301-0.16-0.61-0.309-0.923-0.433
			c-0.585-0.234-1.189-0.416-1.798-0.538c-0.654-0.129-1.328-0.195-1.998-0.195C39.693,59.152,39.198,59.187,38.708,59.251z"/>
		<path fill="#FFFFFF" d="M32.859,86.909c1.006-0.569,1.888-1.284,2.69-2.182c0.803-0.896,1.41-1.853,1.862-2.923
			c0.241-0.572,0.43-1.172,0.562-1.789c0.07-0.33,0.122-0.669,0.157-1.008c0.031-0.312,0.056-0.689,0.026-1.127
			c-0.005-0.053-0.048-0.092-0.103-0.09c-0.438,0.021-0.81,0.09-1.118,0.155c-0.33,0.074-0.66,0.165-0.979,0.273
			c-0.598,0.204-1.175,0.459-1.713,0.767c-1.011,0.572-1.889,1.292-2.685,2.188c-0.8,0.903-1.406,1.859-1.857,2.925
			c-0.24,0.571-0.431,1.175-0.563,1.79c-0.071,0.331-0.123,0.669-0.158,1.005c-0.03,0.312-0.057,0.688-0.028,1.127
			c0.002,0.049,0.046,0.091,0.098,0.091c0,0,0.002,0,0.004-0.003c0.434-0.021,0.806-0.092,1.114-0.157
			c0.328-0.073,0.658-0.165,0.979-0.273C31.743,87.475,32.319,87.214,32.859,86.909z"/>
		<path fill="#FDB515" d="M38.951,86.274c-0.429,0.067-0.792,0.178-1.091,0.273c-0.322,0.108-0.642,0.234-0.947,0.377
			c-0.572,0.265-1.116,0.581-1.624,0.944c-0.939,0.678-1.736,1.484-2.435,2.463c-0.697,0.982-1.198,2-1.531,3.109
			c-0.18,0.592-0.304,1.209-0.371,1.838c-0.031,0.334-0.047,0.676-0.047,1.019c0.005,0.312,0.018,0.688,0.09,1.118
			c0.009,0.047,0.048,0.082,0.096,0.082c0.004,0,0.008,0,0.016-0.002c0.43-0.069,0.792-0.18,1.089-0.277
			c0.319-0.107,0.639-0.236,0.944-0.377c0.572-0.266,1.119-0.586,1.621-0.945c0.939-0.678,1.739-1.48,2.444-2.459
			c0.697-0.977,1.199-1.994,1.537-3.105c0.178-0.592,0.305-1.209,0.368-1.839c0.031-0.335,0.051-0.679,0.048-1.018
			c-0.004-0.312-0.019-0.691-0.095-1.122C39.056,86.3,39.005,86.265,38.951,86.274z"/>
		<path fill="#FFFFFF" d="M48.064,95.634c-0.026-0.336-0.067-0.676-0.129-1.012c-0.057-0.307-0.136-0.679-0.282-1.09
			c-0.018-0.051-0.074-0.076-0.124-0.061c-0.414,0.143-0.751,0.31-1.03,0.459c-0.3,0.16-0.593,0.338-0.869,0.533
			c-0.517,0.355-1.002,0.764-1.436,1.205c-0.813,0.83-1.462,1.759-1.979,2.842c-0.522,1.088-0.842,2.177-0.983,3.324
			c-0.075,0.615-0.092,1.246-0.048,1.876c0.021,0.334,0.062,0.671,0.121,1.01c0.058,0.308,0.135,0.679,0.281,1.088
			c0.015,0.039,0.052,0.065,0.091,0.065c0.014,0,0.022-0.002,0.033-0.005c0.414-0.144,0.752-0.312,1.028-0.459
			c0.295-0.161,0.588-0.343,0.867-0.533c0.516-0.359,1.001-0.769,1.435-1.21c0.811-0.825,1.461-1.752,1.986-2.838
			c0.522-1.08,0.849-2.166,0.988-3.318C48.09,96.892,48.108,96.263,48.064,95.634z"/>
		<path fill="#FFFFFF" d="M24.58,89.22c0.904-0.793,1.625-1.666,2.206-2.673c0.31-0.538,0.569-1.113,0.774-1.707
			c0.111-0.321,0.204-0.651,0.28-0.983c0.065-0.305,0.139-0.677,0.16-1.114c0.005-0.052-0.033-0.101-0.086-0.104
			c-0.144-0.008-0.282-0.014-0.429-0.014c-0.21,0-0.434,0.012-0.7,0.035c-0.338,0.031-0.678,0.083-1.008,0.152
			c-0.615,0.126-1.222,0.312-1.794,0.551c-1.07,0.446-2.03,1.048-2.932,1.844c-0.903,0.799-1.623,1.675-2.198,2.678
			c-0.311,0.535-0.573,1.111-0.779,1.707c-0.109,0.318-0.205,0.648-0.279,0.977c-0.068,0.309-0.141,0.679-0.166,1.114
			c-0.003,0.052,0.036,0.099,0.089,0.103c0.136,0.01,0.271,0.016,0.409,0.016c0.219,0,0.44-0.014,0.718-0.038
			c0.337-0.032,0.676-0.085,1.004-0.153c0.619-0.129,1.223-0.314,1.794-0.553C22.712,90.612,23.672,90.013,24.58,89.22z"/>
		<path fill="#FFFFFF" d="M12.438,76.75c-0.169,0.265-0.366,0.588-0.54,0.988c-0.021,0.048,0,0.104,0.05,0.125
			c0.397,0.179,0.761,0.287,1.064,0.369c0.329,0.086,0.663,0.151,0.996,0.203c0.486,0.07,0.976,0.105,1.459,0.105
			c0.138,0,0.277-0.002,0.413-0.008c1.157-0.047,2.268-0.281,3.392-0.715c1.12-0.432,2.1-1.003,2.992-1.748
			c0.477-0.398,0.919-0.85,1.317-1.338c0.212-0.262,0.411-0.539,0.597-0.824c0.171-0.262,0.365-0.588,0.538-0.99
			c0.021-0.049,0-0.104-0.05-0.125c-0.396-0.18-0.761-0.289-1.063-0.372c-0.33-0.086-0.663-0.155-1-0.208
			c-0.485-0.068-0.976-0.105-1.459-0.105c-0.138,0-0.275,0.002-0.414,0.01c-1.161,0.049-2.269,0.284-3.39,0.72
			c-1.122,0.438-2.096,1.015-2.984,1.755c-0.478,0.398-0.919,0.85-1.318,1.336C12.825,76.189,12.622,76.464,12.438,76.75z"/>
		<path fill="#FDB515" d="M18.568,82.806c0.125-0.288,0.269-0.64,0.376-1.064c0.013-0.049-0.018-0.102-0.068-0.117
			c-0.421-0.117-0.794-0.168-1.109-0.198c-0.317-0.035-0.643-0.053-0.958-0.053H16.75c-0.63,0.005-1.258,0.069-1.867,0.19
			c-1.139,0.229-2.196,0.633-3.235,1.235c-1.043,0.606-1.921,1.326-2.684,2.197c-0.407,0.468-0.775,0.979-1.094,1.521
			c-0.171,0.295-0.327,0.599-0.466,0.905c-0.125,0.288-0.271,0.637-0.382,1.06c-0.013,0.05,0.018,0.106,0.07,0.119
			c0.42,0.112,0.795,0.164,1.109,0.197c0.311,0.033,0.628,0.048,0.94,0.048c0.025,0,0.051-0.002,0.073-0.002
			c0.631-0.005,1.259-0.07,1.867-0.19c1.136-0.225,2.192-0.629,3.237-1.229c1.044-0.601,1.919-1.315,2.687-2.19
			c0.407-0.466,0.776-0.979,1.096-1.524C18.272,83.421,18.429,83.115,18.568,82.806z"/>
		<path fill="#FFFFFF" d="M28.846,91.054c-0.436,0.043-0.804,0.135-1.108,0.217c-0.326,0.092-0.651,0.199-0.965,0.324
			c-0.584,0.234-1.146,0.52-1.672,0.855c-0.976,0.627-1.815,1.391-2.563,2.33c-0.75,0.945-1.304,1.93-1.695,3.02
			c-0.212,0.584-0.367,1.194-0.468,1.816c-0.053,0.334-0.09,0.674-0.104,1.014c-0.016,0.312-0.021,0.689,0.029,1.123
			c0.004,0.052,0.048,0.086,0.096,0.086c0.004,0,0.009,0,0.011,0c0.434-0.045,0.799-0.137,1.103-0.219
			c0.328-0.091,0.652-0.201,0.967-0.327c0.585-0.233,1.145-0.522,1.665-0.855c0.976-0.624,1.818-1.384,2.573-2.325
			c0.749-0.936,1.308-1.924,1.703-3.016c0.21-0.582,0.368-1.193,0.465-1.816c0.051-0.332,0.088-0.676,0.102-1.016
			c0.015-0.314,0.02-0.691-0.033-1.124C28.946,91.087,28.898,91.049,28.846,91.054z"/>
		<path fill="#E41B4C" d="M38.548,97.953c-0.013-0.053-0.067-0.082-0.117-0.069c-0.425,0.108-0.775,0.247-1.066,0.372
			c-0.311,0.137-0.614,0.291-0.907,0.459c-0.548,0.316-1.06,0.682-1.529,1.089c-0.878,0.763-1.6,1.636-2.204,2.674
			c-0.606,1.039-1.014,2.097-1.248,3.231c-0.123,0.607-0.19,1.236-0.201,1.863c-0.005,0.34,0.011,0.681,0.041,1.02
			c0.033,0.311,0.08,0.688,0.193,1.109c0.011,0.041,0.05,0.069,0.093,0.069c0.008,0,0.017,0,0.025-0.005
			c0.421-0.104,0.771-0.246,1.062-0.373c0.307-0.139,0.613-0.291,0.905-0.459c0.546-0.316,1.057-0.685,1.525-1.088
			c0.877-0.758,1.602-1.632,2.212-2.669c0.609-1.036,1.021-2.093,1.255-3.23c0.123-0.606,0.19-1.233,0.199-1.866
			c0.004-0.337-0.009-0.678-0.044-1.018C38.71,98.75,38.66,98.375,38.548,97.953z"/>
		<path fill="#FDB515" d="M52.258,104.791c-0.125-0.316-0.265-0.629-0.424-0.927c-0.146-0.277-0.333-0.608-0.598-0.956
			c-0.032-0.041-0.091-0.05-0.135-0.02c-0.351,0.258-0.623,0.521-0.845,0.746c-0.238,0.242-0.464,0.502-0.671,0.766
			c-0.386,0.499-0.727,1.032-1.01,1.582c-0.524,1.036-0.865,2.117-1.036,3.307c-0.171,1.193-0.151,2.326,0.062,3.462
			c0.111,0.612,0.283,1.218,0.511,1.807c0.125,0.313,0.266,0.626,0.423,0.927c0.145,0.275,0.331,0.607,0.596,0.955
			c0.017,0.025,0.048,0.039,0.078,0.039c0.018,0,0.039-0.008,0.057-0.02c0.351-0.259,0.621-0.523,0.84-0.748
			c0.238-0.243,0.462-0.502,0.668-0.768c0.385-0.498,0.728-1.029,1.007-1.58c0.526-1.033,0.87-2.111,1.047-3.304
			c0.176-1.19,0.155-2.322-0.053-3.466C52.663,105.984,52.488,105.377,52.258,104.791z"/>
		<path fill="#E41B4C" d="M10.51,72.806c0.53-0.32,1.037-0.697,1.505-1.121c0.25-0.227,0.49-0.469,0.716-0.725
			c0.208-0.236,0.45-0.529,0.68-0.898c0.028-0.047,0.018-0.103-0.03-0.133c-0.363-0.238-0.707-0.4-0.998-0.528
			c-0.308-0.135-0.632-0.251-0.952-0.352c-0.604-0.187-1.223-0.315-1.838-0.381c-0.373-0.044-0.748-0.062-1.119-0.062
			c-0.771,0-1.56,0.088-2.339,0.261c-1.177,0.265-2.228,0.685-3.22,1.286c-0.529,0.322-1.035,0.698-1.503,1.121
			c-0.25,0.227-0.49,0.47-0.718,0.721c-0.206,0.236-0.448,0.527-0.681,0.896C-0.013,72.937,0,72.998,0.043,73.025
			c0.365,0.236,0.71,0.396,0.995,0.524c0.313,0.132,0.634,0.251,0.958,0.349c0.601,0.188,1.218,0.312,1.833,0.381
			c0.377,0.043,0.759,0.064,1.136,0.064c0.763,0,1.547-0.088,2.327-0.258C8.464,73.828,9.517,73.41,10.51,72.806z"/>
		<path fill="#FFFFFF" d="M5.7,63.98c0.544,0.32,1.114,0.589,1.696,0.797c1.091,0.392,2.206,0.594,3.41,0.619
			c0.071,0,0.144,0,0.217,0c1.104,0,2.187-0.164,3.211-0.49c0.595-0.189,1.172-0.441,1.728-0.739
			c0.294-0.165,0.587-0.343,0.864-0.538c0.256-0.182,0.559-0.407,0.871-0.715c0.039-0.039,0.039-0.098,0.004-0.139
			c-0.302-0.316-0.598-0.553-0.849-0.743c-0.269-0.204-0.556-0.395-0.846-0.565c-0.541-0.325-1.114-0.594-1.696-0.802
			c-1.094-0.392-2.208-0.591-3.413-0.61c-0.054,0-0.113,0-0.166,0c-1.142,0-2.211,0.162-3.261,0.498
			c-0.589,0.19-1.171,0.438-1.725,0.738c-0.295,0.163-0.586,0.34-0.865,0.535c-0.255,0.182-0.561,0.407-0.873,0.711
			c-0.037,0.037-0.039,0.098,0,0.136c0.299,0.315,0.595,0.554,0.846,0.741C5.125,63.616,5.41,63.806,5.7,63.98z"/>
		<path fill="#FDB515" d="M92.218,67.568c0.976,0.626,2.02,1.07,3.186,1.359c0.861,0.209,1.726,0.316,2.573,0.316
			c0.292,0,0.589-0.015,0.88-0.037c0.619-0.053,1.238-0.166,1.847-0.334c0.324-0.092,0.649-0.204,0.963-0.33
			c0.288-0.117,0.639-0.272,1.007-0.498c0.046-0.025,0.062-0.086,0.036-0.133c-0.226-0.374-0.46-0.669-0.661-0.912
			c-0.219-0.26-0.455-0.506-0.7-0.738c-0.454-0.434-0.953-0.821-1.476-1.156c-0.973-0.627-2.017-1.074-3.186-1.365
			c-0.859-0.215-1.73-0.324-2.584-0.324c-0.286,0-0.581,0.014-0.867,0.035c-0.619,0.053-1.239,0.165-1.845,0.338
			c-0.325,0.092-0.65,0.203-0.964,0.33c-0.291,0.118-0.638,0.273-1.011,0.502c-0.045,0.027-0.06,0.086-0.032,0.133
			c0.222,0.377,0.457,0.673,0.659,0.916c0.219,0.258,0.455,0.508,0.697,0.741C91.195,66.844,91.693,67.234,92.218,67.568z"/>
		<path fill="#FDB515" d="M79.147,59.251c-0.489-0.064-0.983-0.1-1.465-0.1c-0.667,0-1.341,0.066-1.997,0.195
			c-0.609,0.122-1.215,0.304-1.799,0.538c-0.312,0.124-0.622,0.272-0.923,0.433c-0.273,0.151-0.603,0.342-0.947,0.611
			c-0.041,0.034-0.05,0.094-0.017,0.136c0.262,0.349,0.528,0.618,0.756,0.837c0.245,0.234,0.507,0.457,0.773,0.661
			c0.502,0.379,1.038,0.713,1.596,0.988c1.041,0.515,2.125,0.841,3.316,0.998c0.485,0.063,0.97,0.094,1.442,0.094
			c0.676,0,1.359-0.065,2.022-0.195c0.609-0.122,1.214-0.301,1.797-0.537c0.313-0.127,0.622-0.271,0.922-0.434
			c0.275-0.15,0.604-0.339,0.946-0.606c0.044-0.03,0.053-0.091,0.018-0.135c-0.262-0.346-0.527-0.615-0.753-0.832
			c-0.247-0.233-0.507-0.454-0.776-0.658c-0.504-0.382-1.041-0.711-1.596-0.988C81.426,59.744,80.34,59.417,79.147,59.251z"/>
		<path fill="#FFFFFF" d="M109.985,86.517c-0.318-0.541-0.687-1.053-1.097-1.521c-0.762-0.871-1.638-1.591-2.678-2.197
			c-1.04-0.603-2.101-1.006-3.236-1.235c-0.612-0.121-1.24-0.186-1.868-0.19h-0.057c-0.321,0-0.641,0.018-0.961,0.053
			c-0.312,0.03-0.689,0.081-1.109,0.198c-0.053,0.016-0.083,0.068-0.067,0.117c0.108,0.425,0.253,0.776,0.38,1.064
			c0.136,0.309,0.294,0.617,0.463,0.904c0.318,0.545,0.688,1.059,1.097,1.524c0.763,0.875,1.643,1.59,2.683,2.19
			c1.046,0.6,2.105,1.004,3.241,1.229c0.606,0.12,1.234,0.186,1.864,0.19c0.024,0,0.051,0.002,0.072,0.002
			c0.314,0,0.63-0.015,0.945-0.048c0.312-0.033,0.687-0.085,1.106-0.197c0.05-0.013,0.081-0.069,0.067-0.119
			c-0.109-0.423-0.251-0.771-0.38-1.06C110.312,87.116,110.154,86.81,109.985,86.517z"/>
		<path fill="#FFFFFF" d="M97.015,97.8c-0.394-1.09-0.949-2.074-1.699-3.02c-0.746-0.939-1.586-1.703-2.564-2.33
			c-0.522-0.336-1.084-0.621-1.669-0.855c-0.314-0.125-0.639-0.232-0.967-0.324c-0.302-0.082-0.671-0.174-1.104-0.217
			c-0.055-0.005-0.099,0.033-0.107,0.087c-0.053,0.433-0.048,0.81-0.035,1.126c0.018,0.338,0.053,0.682,0.104,1.014
			c0.1,0.623,0.256,1.234,0.468,1.816c0.395,1.092,0.949,2.08,1.704,3.016c0.753,0.941,1.595,1.701,2.568,2.325
			c0.522,0.333,1.084,0.622,1.669,0.855c0.312,0.126,0.637,0.236,0.965,0.327c0.3,0.082,0.669,0.174,1.103,0.219
			c0.004,0,0.006,0,0.006,0c0.053,0,0.093-0.034,0.1-0.086c0.052-0.432,0.046-0.812,0.033-1.125
			c-0.018-0.338-0.052-0.678-0.104-1.012C97.383,98.998,97.225,98.386,97.015,97.8z"/>
		<path fill="#FFFFFF" d="M85.132,102.477c-0.605-1.038-1.327-1.911-2.205-2.674c-0.47-0.407-0.983-0.772-1.527-1.089
			c-0.295-0.168-0.603-0.322-0.91-0.459c-0.29-0.125-0.641-0.264-1.066-0.372c-0.049-0.013-0.103,0.017-0.116,0.069
			c-0.113,0.422-0.162,0.797-0.194,1.109c-0.033,0.338-0.049,0.681-0.044,1.018c0.009,0.633,0.076,1.26,0.199,1.866
			c0.233,1.138,0.646,2.194,1.255,3.23c0.61,1.037,1.335,1.911,2.212,2.669c0.468,0.403,0.981,0.771,1.527,1.088
			c0.29,0.166,0.598,0.32,0.905,0.459c0.289,0.127,0.637,0.27,1.062,0.373c0.009,0.005,0.016,0.005,0.024,0.005
			c0.041,0,0.08-0.028,0.094-0.069c0.111-0.422,0.159-0.799,0.19-1.109c0.034-0.339,0.048-0.68,0.043-1.02
			c-0.009-0.63-0.078-1.256-0.201-1.863C86.148,104.574,85.74,103.516,85.132,102.477z"/>
		<path fill="#FFFFFF" d="M69.279,105.982c-0.283-0.55-0.623-1.083-1.009-1.582c-0.207-0.264-0.433-0.523-0.671-0.766
			c-0.221-0.226-0.494-0.488-0.846-0.746c-0.043-0.03-0.102-0.021-0.134,0.02c-0.265,0.348-0.451,0.679-0.598,0.956
			c-0.159,0.3-0.3,0.61-0.426,0.927c-0.229,0.585-0.402,1.193-0.515,1.803c-0.208,1.144-0.226,2.275-0.053,3.466
			c0.178,1.19,0.52,2.271,1.046,3.304c0.28,0.551,0.623,1.082,1.008,1.58c0.206,0.266,0.432,0.524,0.667,0.77
			c0.22,0.223,0.49,0.487,0.841,0.746c0.018,0.012,0.04,0.02,0.057,0.02c0.031,0,0.062-0.014,0.079-0.039
			c0.264-0.35,0.45-0.68,0.595-0.957c0.155-0.299,0.298-0.611,0.423-0.925c0.228-0.589,0.398-1.194,0.512-1.807
			c0.212-1.136,0.231-2.269,0.061-3.462C70.144,108.099,69.804,107.018,69.279,105.982z"/>
		<path fill="#FFFFFF" d="M116.443,71.275c-0.468-0.423-0.976-0.799-1.503-1.121c-0.99-0.602-2.043-1.021-3.218-1.286
			c-0.785-0.173-1.568-0.261-2.341-0.261c-0.372,0-0.749,0.018-1.117,0.062c-0.619,0.065-1.234,0.194-1.838,0.381
			c-0.323,0.101-0.645,0.217-0.958,0.352c-0.285,0.128-0.628,0.29-0.995,0.528c-0.044,0.03-0.058,0.086-0.028,0.133
			c0.231,0.369,0.475,0.664,0.68,0.898c0.226,0.256,0.466,0.498,0.718,0.725c0.466,0.424,0.973,0.801,1.503,1.121
			c0.993,0.604,2.046,1.021,3.221,1.279c0.779,0.17,1.56,0.258,2.325,0.258c0.374,0,0.759-0.021,1.132-0.064
			c0.617-0.068,1.235-0.193,1.838-0.381c0.322-0.098,0.644-0.217,0.957-0.352c0.286-0.125,0.629-0.285,0.994-0.521
			c0.045-0.027,0.06-0.088,0.029-0.133c-0.23-0.367-0.472-0.66-0.68-0.896C116.933,71.745,116.693,71.501,116.443,71.275z"/>
		<path fill="#E41B4C" d="M107.051,65.396c1.202-0.025,2.317-0.228,3.407-0.619c0.584-0.208,1.154-0.479,1.697-0.797
			c0.29-0.174,0.573-0.364,0.847-0.568c0.249-0.186,0.546-0.424,0.849-0.739c0.033-0.038,0.033-0.099-0.005-0.136
			c-0.312-0.304-0.616-0.529-0.872-0.711c-0.278-0.195-0.569-0.372-0.866-0.535c-0.552-0.301-1.134-0.548-1.725-0.738
			c-1.049-0.336-2.114-0.498-3.258-0.498c-0.057,0-0.112,0-0.169,0c-1.2,0.02-2.316,0.219-3.41,0.61
			c-0.584,0.208-1.155,0.477-1.697,0.802c-0.291,0.169-0.573,0.361-0.847,0.565c-0.252,0.19-0.545,0.427-0.845,0.743
			c-0.037,0.041-0.037,0.1,0.002,0.139c0.311,0.308,0.613,0.533,0.871,0.715c0.28,0.195,0.57,0.373,0.864,0.538
			c0.556,0.298,1.135,0.55,1.726,0.739c1.026,0.326,2.104,0.49,3.214,0.49C106.906,65.396,106.978,65.396,107.051,65.396z"/>
		<path fill="#FDB515" d="M32.724,14.001c0.604,1.039,1.326,1.911,2.204,2.671c0.47,0.408,0.982,0.771,1.529,1.088
			c0.293,0.168,0.597,0.324,0.909,0.459c0.289,0.125,0.64,0.263,1.064,0.372c0.008,0.002,0.015,0.004,0.021,0.004
			c0.043,0,0.083-0.03,0.096-0.074c0.111-0.422,0.162-0.796,0.194-1.109c0.035-0.337,0.048-0.681,0.044-1.018
			c-0.009-0.631-0.076-1.259-0.199-1.865c-0.234-1.138-0.646-2.195-1.255-3.231c-0.61-1.035-1.335-1.91-2.212-2.669
			c-0.469-0.403-0.979-0.77-1.525-1.085c-0.292-0.17-0.599-0.324-0.907-0.462c-0.289-0.126-0.64-0.269-1.061-0.374
			c-0.051-0.013-0.104,0.018-0.118,0.068c-0.113,0.422-0.16,0.798-0.193,1.109c-0.03,0.338-0.046,0.678-0.041,1.017
			c0.011,0.63,0.078,1.256,0.201,1.862C31.71,11.902,32.118,12.96,32.724,14.001z"/>
		<path fill="#E41B4C" d="M55.381,57.157c-0.477-0.28-0.979-0.512-1.493-0.691c-0.965-0.339-1.95-0.507-3.01-0.514
			c-1.064-0.009-2.056,0.145-3.033,0.466c-0.521,0.171-1.032,0.396-1.522,0.667c-0.263,0.143-0.521,0.304-0.768,0.479
			c-0.208,0.146-0.45,0.329-0.704,0.569c0.24,0.24,0.475,0.43,0.678,0.579c0.238,0.178,0.486,0.344,0.744,0.492
			c0.475,0.279,0.976,0.51,1.492,0.693c0.962,0.338,1.946,0.506,3.012,0.52c1.059,0.01,2.052-0.141,3.029-0.464
			c0.523-0.169,1.037-0.394,1.525-0.667c0.265-0.143,0.52-0.305,0.764-0.479c0.21-0.148,0.453-0.331,0.704-0.571
			c-0.24-0.245-0.476-0.431-0.675-0.582C55.885,57.473,55.634,57.309,55.381,57.157z"/>
		<path fill="#FFFFFF" d="M63.568,59.231c0.488,0.29,1.006,0.53,1.533,0.718c0.984,0.354,1.992,0.536,3.078,0.561
			c1.083,0.021,2.096-0.127,3.089-0.445c0.534-0.168,1.058-0.391,1.553-0.664c0.268-0.148,0.527-0.309,0.777-0.482
			c0.212-0.15,0.459-0.335,0.713-0.576c-0.247-0.25-0.49-0.447-0.696-0.602c-0.245-0.184-0.505-0.355-0.763-0.512
			c-0.488-0.285-1.004-0.53-1.532-0.718c-0.986-0.354-1.994-0.534-3.075-0.551c-1.088-0.018-2.101,0.129-3.095,0.448
			c-0.527,0.169-1.051,0.392-1.549,0.665c-0.267,0.143-0.526,0.306-0.777,0.481c-0.212,0.146-0.459,0.331-0.715,0.571
			c0.249,0.249,0.489,0.443,0.697,0.599C63.051,58.906,63.307,59.078,63.568,59.231z"/>
	</g>
</g>
</svg>
