<?xml version="1.0" standalone="no"?>
<!DOCTYPE svg PUBLIC "-//W3C//DTD SVG 20010904//EN"
 "http://www.w3.org/TR/2001/REC-SVG-20010904/DTD/svg10.dtd">
<svg version="1.0" xmlns="http://www.w3.org/2000/svg"
 width="1061.000000pt" height="1061.000000pt" viewBox="0 0 1061.000000 1061.000000"
 preserveAspectRatio="xMidYMid meet">
<metadata>
Created by potrace 1.11, written by Peter Selinger 2001-2013
</metadata>
<g transform="translate(0.000000,1061.000000) scale(0.100000,-0.100000)"
fill="#000000" stroke="none">
<path d="M6108 10489 c-76 -76 -124 -141 -167 -226 -37 -75 -76 -190 -85 -256
-4 -27 -10 -59 -12 -70 -6 -29 -5 -194 1 -232 3 -16 7 -45 11 -63 17 -105 115
-322 145 -322 18 0 120 105 166 172 63 92 86 136 119 235 59 176 65 371 18
558 -17 66 -81 206 -112 244 l-20 24 -64 -64z"/>
<path d="M4402 10520 c-200 -321 -177 -764 56 -1060 39 -49 132 -140 143 -140
22 0 94 137 121 230 25 86 27 96 34 155 35 291 -56 571 -249 772 -64 67 -85
75 -105 43z"/>
<path d="M2825 9903 c-22 -113 -10 -277 30 -418 53 -183 231 -425 378 -512 47
-27 183 -91 208 -97 24 -5 28 -2 37 37 12 44 10 265 -3 327 -42 212 -200 454
-381 583 -59 42 -185 104 -230 113 -30 6 -32 4 -39 -33z"/>
<path d="M7699 9925 c-291 -107 -532 -414 -578 -737 -9 -63 -7 -232 3 -277 9
-40 20 -43 80 -20 278 103 500 370 567 679 14 67 19 272 7 325 -3 17 -7 33 -7
38 -1 10 -31 8 -72 -8z"/>
<path d="M5283 9626 c-273 -307 -303 -818 -67 -1140 l36 -48 45 43 c184 181
283 515 233 789 -22 117 -42 178 -86 264 -37 72 -89 146 -104 146 -5 0 -30
-24 -57 -54z"/>
<path d="M3729 9548 c-19 -71 -23 -108 -23 -218 0 -153 31 -284 102 -425 60
-122 182 -264 285 -334 63 -43 179 -101 189 -95 7 4 22 52 35 109 2 11 6 65 8
120 9 263 -100 524 -298 711 -80 76 -202 156 -259 169 -25 6 -28 4 -39 -37z"/>
<path d="M6776 9556 c-209 -109 -373 -310 -449 -552 -30 -96 -41 -170 -41
-279 1 -109 22 -237 42 -248 11 -7 111 42 177 86 173 117 337 354 371 536 3
14 7 27 9 31 11 18 20 118 19 225 0 129 -22 235 -49 235 -7 0 -43 -15 -79 -34z"/>
<path d="M1827 9217 c-11 -29 1 -174 22 -260 53 -223 201 -435 393 -564 98
-66 240 -122 318 -126 l45 -2 1 82 c5 310 -196 631 -496 791 -123 66 -272 107
-283 79z"/>
<path d="M8671 9210 c-375 -99 -668 -468 -674 -850 l-2 -95 35 -1 c113 -2 332
111 458 235 124 122 199 242 251 399 27 84 34 131 35 237 1 105 4 103 -103 75z"/>
<path d="M4624 9002 c-23 -15 -86 -170 -99 -245 -32 -175 -24 -325 26 -486 53
-170 159 -326 292 -433 27 -21 53 -38 59 -38 13 0 73 133 92 205 58 228 33
463 -74 675 -21 41 -58 102 -83 135 -74 97 -192 201 -213 187z"/>
<path d="M5912 8959 c-254 -205 -378 -586 -302 -923 13 -58 65 -193 85 -220
14 -18 15 -18 45 1 53 34 156 141 204 213 84 124 135 264 154 415 7 59 7 206
-1 255 -17 117 -83 292 -113 304 -6 2 -39 -18 -72 -45z"/>
<path d="M2784 8804 c-17 -93 13 -294 64 -420 80 -199 256 -391 447 -486 66
-33 169 -68 200 -68 27 0 28 6 28 125 1 272 -151 560 -387 734 -90 67 -228
130 -315 146 -28 5 -31 3 -37 -31z"/>
<path d="M7735 8821 c-189 -56 -370 -196 -493 -380 -53 -79 -114 -212 -126
-272 -2 -13 -9 -46 -15 -72 -6 -26 -12 -93 -12 -148 0 -106 9 -136 40 -120 9
5 21 9 26 10 28 3 117 37 175 67 229 120 406 344 474 604 19 70 33 262 22 304
-7 30 -11 30 -91 7z"/>
<path d="M3772 8563 c-5 -10 -13 -31 -17 -48 -4 -16 -9 -39 -12 -50 -3 -11 -7
-74 -9 -140 -3 -94 1 -141 17 -215 50 -226 176 -427 354 -560 54 -41 161 -100
180 -100 7 0 21 30 31 68 15 53 19 98 18 217 -1 131 -4 161 -27 235 -80 264
-246 473 -459 581 -68 34 -65 34 -76 12z"/>
<path d="M6765 8553 c-123 -64 -257 -187 -338 -310 -26 -40 -47 -74 -47 -77 0
-3 -13 -33 -29 -68 -52 -112 -72 -201 -76 -338 -4 -124 11 -245 35 -291 14
-26 33 -20 134 39 223 133 393 400 431 677 7 55 8 185 1 225 -3 14 -7 42 -10
63 -7 45 -32 107 -43 107 -4 -1 -30 -13 -58 -27z"/>
<path d="M1599 8323 c-13 -3 -15 -12 -7 -61 11 -76 52 -192 94 -271 155 -284
462 -481 766 -490 l70 -2 -5 53 c-29 265 -239 546 -509 680 -58 29 -127 56
-158 63 -8 1 -33 8 -55 14 -43 11 -170 20 -196 14z"/>
<path d="M8895 8322 c-124 -13 -305 -85 -420 -166 -204 -146 -352 -380 -381
-604 l-7 -53 76 2 c153 4 355 77 486 175 176 132 323 347 357 519 20 105 21
116 10 123 -11 7 -69 9 -121 4z"/>
<path d="M5271 8252 c-74 -83 -142 -216 -182 -353 -24 -85 -35 -311 -18 -394
5 -27 12 -63 15 -79 16 -91 103 -265 174 -347 l38 -44 27 25 c37 34 108 143
138 211 111 252 104 569 -19 811 -40 80 -127 199 -143 197 -3 0 -17 -12 -30
-27z"/>
<path d="M687 8050 c-56 -10 -59 -19 -36 -80 53 -141 158 -282 278 -373 31
-23 58 -44 61 -47 18 -18 147 -84 211 -108 152 -57 411 -73 491 -31 16 9 16
13 -4 67 -97 260 -345 475 -636 554 -82 22 -292 33 -365 18z"/>
<path d="M9680 8057 c-3 -3 -28 -7 -57 -11 -157 -18 -365 -125 -507 -261 -93
-90 -206 -277 -210 -347 -1 -31 1 -33 49 -41 55 -9 197 -10 260 -2 237 33 492
187 630 380 49 69 109 186 119 231 7 30 6 31 -41 41 -47 11 -234 18 -243 10z"/>
<path d="M2617 7988 c-13 -7 -15 -22 -11 -81 23 -345 281 -682 614 -799 30
-11 66 -22 80 -24 14 -3 42 -9 63 -14 63 -14 74 -6 72 53 -14 369 -279 716
-640 836 -82 27 -160 40 -178 29z"/>
<path d="M7945 7989 c-306 -46 -590 -279 -710 -583 -46 -117 -77 -315 -52
-333 7 -5 17 -9 22 -8 338 37 645 295 759 636 14 42 28 93 31 115 11 75 15
173 8 177 -5 2 -30 0 -58 -4z"/>
<path d="M3479 7660 c-3 -33 -1 -74 5 -138 23 -232 172 -480 380 -637 99 -73
266 -144 379 -159 53 -7 51 -11 47 94 -12 353 -302 716 -655 818 -87 25 -155
35 -156 22z"/>
<path d="M4512 7633 c-68 -133 -86 -369 -43 -554 26 -115 90 -255 161 -353 56
-77 241 -236 275 -236 21 0 69 132 82 230 4 30 7 105 7 165 -3 235 -102 472
-269 640 -58 58 -120 106 -172 134 -20 10 -24 8 -41 -26z"/>
<path d="M6014 7631 c-298 -200 -456 -598 -381 -956 20 -93 55 -185 72 -185
25 0 131 79 196 147 123 127 211 294 245 463 3 14 7 33 10 43 13 42 12 226 -2
302 -15 89 -52 201 -70 216 -8 6 -30 -3 -70 -30z"/>
<path d="M7035 7653 c-318 -68 -606 -348 -689 -671 -29 -110 -38 -234 -19
-253 15 -15 128 10 229 51 242 97 459 332 538 585 21 68 42 192 40 235 -3 81
7 76 -99 53z"/>
<path d="M1995 7384 c-45 -12 -45 -10 -29 -66 90 -305 391 -561 734 -624 85
-15 278 -10 296 9 13 13 -56 179 -108 259 -126 193 -324 336 -553 398 -78 22
-290 36 -340 24z"/>
<path d="M8335 7375 c-299 -67 -533 -243 -663 -500 -29 -58 -65 -165 -59 -172
19 -18 209 -24 297 -8 130 23 268 79 381 156 91 61 216 192 272 286 59 98 104
220 87 237 -16 16 -242 17 -315 1z"/>
<path d="M1315 7132 c-57 -5 -174 -31 -211 -47 -41 -17 -41 -19 9 -105 45 -77
207 -236 292 -286 149 -87 321 -137 480 -138 120 -1 180 7 269 34 82 26 83 36
21 130 -88 133 -206 237 -350 308 -67 33 -183 76 -237 86 -79 16 -211 24 -273
18z"/>
<path d="M9168 7135 c-2 -2 -31 -6 -65 -9 -117 -12 -277 -68 -388 -136 -115
-69 -235 -191 -299 -301 -39 -68 -36 -75 42 -99 212 -63 438 -44 651 56 148
70 274 171 360 290 28 40 71 117 71 129 0 7 -64 35 -94 41 -85 19 -268 38
-278 29z"/>
<path d="M3257 6872 c-22 -2 -41 -10 -44 -18 -3 -8 5 -47 17 -87 46 -143 111
-248 224 -362 141 -141 297 -227 484 -265 95 -19 244 -23 269 -7 9 5 7 25 -8
79 -88 316 -377 576 -714 642 -85 17 -166 23 -228 18z"/>
<path d="M5253 6836 c-76 -87 -159 -271 -180 -401 -10 -64 -10 -264 0 -334 20
-140 125 -363 205 -434 28 -26 49 -10 111 84 102 154 150 313 153 504 2 153
-28 287 -92 420 -43 90 -125 205 -145 205 -7 0 -31 -20 -52 -44z"/>
<path d="M7257 6874 c-1 -1 -29 -4 -62 -8 -234 -24 -471 -158 -627 -354 -100
-126 -196 -359 -157 -382 25 -16 228 -3 314 20 288 77 543 306 642 577 31 86
38 132 21 137 -14 5 -127 14 -131 10z"/>
<path d="M368 6755 c-2 -1 -24 -5 -49 -8 -77 -9 -171 -37 -246 -73 -40 -19
-73 -39 -73 -43 0 -16 75 -104 128 -153 124 -111 310 -201 457 -223 23 -3 52
-8 65 -10 46 -9 185 -7 255 5 113 18 281 79 300 110 15 24 -129 176 -222 236
-112 71 -249 128 -342 140 -25 3 -50 8 -55 11 -8 6 -213 13 -218 8z"/>
<path d="M10079 6756 c-2 -2 -26 -6 -54 -9 -189 -22 -387 -115 -523 -248 -63
-60 -114 -128 -106 -140 10 -16 131 -68 206 -88 311 -84 658 4 894 227 43 41
104 119 104 133 0 23 -186 95 -295 114 -44 8 -220 16 -226 11z"/>
<path d="M2688 6556 c-1 -2 -34 -6 -73 -10 -105 -10 -245 -51 -245 -72 0 -12
36 -73 70 -119 139 -186 347 -313 587 -359 76 -15 260 -16 328 -2 76 16 166
48 172 62 16 42 -161 250 -285 333 -125 84 -303 147 -446 157 -44 3 -86 7 -93
9 -6 2 -13 2 -15 1z"/>
<path d="M7888 6555 c-2 -2 -37 -5 -79 -9 -205 -16 -427 -121 -574 -270 -75
-76 -157 -192 -153 -216 3 -15 105 -54 178 -66 57 -10 241 -11 300 -2 261 41
499 191 638 402 54 82 51 93 -34 119 -70 21 -266 51 -276 42z"/>
<path d="M4297 6502 c-2 -4 -3 -32 -2 -62 10 -254 130 -497 331 -671 54 -46
153 -109 218 -138 72 -33 232 -75 253 -67 11 5 14 23 12 78 -12 358 -275 706
-624 826 -79 27 -182 45 -188 34z"/>
<path d="M6203 6490 c-326 -85 -590 -346 -674 -668 -25 -94 -37 -246 -20 -256
36 -23 275 62 388 137 240 160 410 453 416 716 2 100 2 100 -110 71z"/>
<path d="M1626 6283 c-85 -15 -227 -65 -251 -89 -13 -14 -12 -19 10 -52 41
-60 145 -161 215 -207 88 -59 185 -101 299 -132 130 -36 334 -38 456 -5 99 26
194 67 201 87 8 19 -61 110 -130 172 -209 189 -516 276 -800 226z"/>
<path d="M8696 6293 c-2 -2 -21 -6 -42 -9 -132 -15 -309 -92 -424 -183 -84
-66 -190 -185 -190 -212 0 -20 162 -84 265 -105 65 -12 244 -11 323 2 193 34
373 126 506 259 50 50 106 122 106 137 0 15 -119 66 -205 89 -56 14 -118 22
-207 24 -70 1 -129 1 -132 -2z"/>
<path d="M906 5948 c-182 -17 -388 -99 -496 -198 l-55 -50 45 -40 c58 -53 223
-135 325 -161 158 -42 390 -34 545 18 113 38 308 157 324 198 4 11 -14 30 -57
61 -129 96 -297 159 -451 170 -44 3 -85 7 -91 8 -5 1 -46 -1 -89 -6z"/>
<path d="M9587 5954 c-1 -1 -33 -4 -72 -8 -94 -8 -112 -12 -210 -45 -132 -44
-295 -146 -295 -184 1 -19 120 -107 201 -148 129 -66 233 -91 394 -94 193 -5
298 17 451 92 74 36 160 97 177 124 12 20 6 27 -73 86 -107 80 -250 138 -395
162 -62 10 -172 19 -178 15z"/>
<path d="M3315 5878 c-108 -11 -260 -60 -345 -111 -39 -23 -70 -45 -70 -50 0
-14 83 -98 144 -144 98 -74 269 -148 391 -168 152 -26 264 -22 405 12 112 27
290 114 290 142 0 10 -127 130 -165 157 -186 128 -416 185 -650 162z"/>
<path d="M7148 5885 c-2 -1 -37 -5 -78 -9 -192 -16 -393 -111 -538 -252 l-64
-62 26 -23 c25 -24 78 -53 146 -82 268 -115 612 -83 865 80 87 56 200 166 192
187 -3 8 -52 38 -109 65 -94 46 -171 70 -272 87 -39 6 -164 12 -168 9z"/>
<path d="M2150 5625 c-83 -17 -149 -39 -225 -76 -69 -34 -153 -89 -159 -104
-14 -36 169 -170 304 -223 214 -84 457 -89 669 -13 88 31 193 88 235 127 l28
27 -56 51 c-107 99 -277 182 -431 210 -97 18 -277 18 -365 1z"/>
<path d="M8070 5621 c-108 -23 -221 -70 -313 -130 -76 -50 -147 -115 -147
-134 0 -28 172 -124 285 -160 159 -51 371 -54 543 -8 75 21 196 76 258 118 70
48 144 114 144 130 0 18 -119 94 -199 128 -124 53 -201 68 -351 71 -100 2
-157 -2 -220 -15z"/>
<path d="M4480 5509 c-163 -21 -277 -64 -398 -152 -30 -22 -50 -42 -45 -46 96
-83 199 -138 319 -173 67 -19 102 -23 229 -22 143 0 154 2 248 33 94 33 176
75 244 127 41 31 35 44 -53 102 -156 105 -362 155 -544 131z"/>
<path d="M6087 5514 c-1 -1 -33 -4 -71 -8 -128 -12 -296 -80 -402 -163 l-29
-23 36 -33 c43 -41 134 -95 209 -125 103 -41 172 -53 305 -57 109 -2 144 1
218 20 105 27 236 89 292 139 l40 36 -26 22 c-51 44 -65 54 -121 86 -108 62
-256 102 -386 105 -35 1 -64 1 -65 1z"/>
<path d="M3548 5225 c-2 -1 -28 -5 -58 -9 -147 -16 -281 -65 -408 -150 -65
-43 -182 -151 -182 -167 0 -26 171 -110 285 -140 119 -31 300 -35 430 -8 178
37 338 121 458 240 59 59 59 60 41 80 -45 50 -226 124 -354 144 -39 6 -207 14
-212 10z"/>
<path d="M6849 5214 c-47 -7 -115 -22 -150 -34 -77 -26 -191 -85 -214 -110
-16 -17 -13 -22 47 -80 125 -123 279 -203 463 -241 121 -25 305 -20 425 11
120 32 280 111 280 139 0 4 -17 25 -37 47 -118 128 -302 226 -493 264 -84 16
-225 18 -321 4z"/>
<path d="M908 5145 c-2 -1 -30 -5 -63 -8 -82 -8 -222 -50 -303 -91 -77 -39
-182 -114 -182 -130 1 -43 223 -178 355 -216 120 -34 324 -46 445 -25 143 24
258 77 409 187 35 25 23 48 -54 105 -106 80 -241 139 -373 163 -53 9 -228 21
-234 15z"/>
<path d="M9520 5138 c-169 -18 -354 -97 -479 -206 -41 -37 -38 -49 26 -96 108
-79 243 -136 383 -161 73 -14 262 -13 325 0 94 20 124 28 194 55 109 42 271
153 271 185 0 26 -146 122 -250 163 -138 55 -311 77 -470 60z"/>
<path d="M5039 5046 c-2 -2 -17 -6 -34 -9 -39 -7 -93 -24 -125 -38 -142 -65
-220 -118 -318 -217 -168 -171 -263 -388 -266 -612 l-1 -55 51 1 c136 4 351
113 482 246 174 176 266 371 279 591 l6 97 -35 0 c-19 0 -37 -2 -39 -4z"/>
<path d="M5500 4994 c0 -83 16 -173 45 -259 93 -271 319 -500 584 -590 39 -13
99 -27 132 -31 l60 -7 -6 88 c-14 225 -108 428 -275 595 -142 142 -323 237
-487 257 l-53 6 0 -59z"/>
<path d="M5244 4908 c-79 -103 -132 -220 -165 -368 -15 -67 -18 -114 -15 -220
5 -161 26 -253 91 -385 46 -93 126 -205 148 -205 6 0 34 30 60 66 199 268 236
633 96 942 -48 106 -130 222 -157 222 -10 0 -36 -24 -58 -52z"/>
<path d="M2117 4844 c-1 -1 -37 -4 -79 -8 -150 -13 -344 -86 -463 -175 -105
-79 -223 -211 -209 -233 18 -28 167 -80 294 -103 72 -13 226 -6 327 14 220 45
400 154 538 324 44 55 42 70 -16 99 -34 17 -132 50 -180 62 -48 11 -205 26
-212 20z"/>
<path d="M8390 4839 c-129 -14 -187 -29 -282 -71 -37 -17 -68 -36 -68 -42 0
-18 44 -74 112 -144 216 -219 575 -316 881 -238 103 26 207 72 207 91 0 19
-107 141 -166 189 -145 118 -322 193 -504 211 -103 11 -111 11 -180 4z"/>
<path d="M3188 4635 c-2 -1 -37 -5 -78 -8 -89 -7 -107 -11 -196 -38 -143 -43
-316 -149 -404 -246 -82 -89 -145 -185 -137 -208 6 -14 120 -51 202 -64 215
-35 497 34 683 166 116 82 250 235 267 306 7 25 4 27 -77 51 -45 14 -108 28
-138 31 -30 3 -69 7 -87 9 -18 2 -34 2 -35 1z"/>
<path d="M7408 4635 c-2 -1 -37 -5 -78 -9 -86 -7 -102 -10 -187 -39 -35 -11
-63 -26 -63 -32 0 -27 80 -142 146 -209 174 -178 410 -278 659 -280 117 -1
169 5 250 28 78 22 105 34 105 49 0 21 -73 128 -130 190 -119 130 -311 238
-501 281 -38 8 -196 25 -201 21z"/>
<path d="M4108 4496 c-1 -2 -37 -6 -79 -9 -298 -20 -603 -228 -744 -507 -31
-62 -75 -185 -75 -211 0 -23 15 -27 107 -27 352 0 694 224 842 550 29 64 64
179 56 186 -2 2 -21 6 -42 9 -21 2 -43 6 -50 8 -6 2 -13 2 -15 1z"/>
<path d="M6455 4490 l-50 -5 1 -40 c1 -58 55 -188 115 -278 138 -208 363 -359
614 -412 17 -4 81 -9 143 -11 91 -3 114 -2 118 10 9 24 -24 135 -65 217 -141
281 -425 482 -731 515 -82 9 -95 10 -145 4z"/>
<path d="M611 4363 c-132 -22 -266 -73 -368 -139 -107 -70 -253 -220 -237
-245 11 -19 143 -75 218 -94 194 -47 427 -28 611 52 88 39 212 123 278 190 53
54 97 110 97 124 0 21 -198 97 -300 114 -73 13 -220 12 -299 -2z"/>
<path d="M9745 4372 c-101 -10 -270 -64 -328 -104 l-27 -19 29 -43 c37 -53
140 -149 206 -191 235 -150 501 -193 771 -125 81 21 204 78 204 94 0 16 -64
95 -118 145 -129 120 -320 210 -502 237 -51 7 -190 11 -235 6z"/>
<path d="M4842 4089 c-183 -121 -323 -335 -377 -574 -23 -102 -24 -293 -2
-386 23 -94 56 -179 71 -179 27 0 140 87 209 160 161 172 249 392 251 625 1
136 -7 197 -40 294 -36 109 -38 110 -112 60z"/>
<path d="M5681 4092 c-19 -37 -43 -119 -57 -192 -11 -64 -11 -223 2 -295 36
-206 135 -397 277 -533 58 -54 153 -122 173 -122 15 0 49 87 72 183 18 79 23
261 8 337 -27 142 -83 283 -155 388 -40 60 -185 212 -201 212 -5 0 -15 6 -22
14 -8 7 -28 21 -46 30 l-31 16 -20 -38z"/>
<path d="M1788 4055 c-1 -1 -19 -5 -38 -8 -236 -33 -498 -200 -625 -396 -59
-92 -62 -106 -28 -120 105 -42 308 -59 452 -38 108 15 356 115 369 149 2 4 8
8 14 8 17 0 130 100 179 158 65 78 121 173 109 187 -11 13 -101 41 -175 54
-47 9 -249 13 -257 6z"/>
<path d="M8578 4055 c-2 -3 -21 -7 -41 -10 -68 -11 -142 -40 -145 -56 -10 -55
172 -268 298 -348 114 -72 249 -128 360 -148 70 -12 281 -11 341 3 90 20 149
43 149 59 0 21 -93 156 -146 212 -125 131 -321 239 -509 279 -35 7 -301 15
-307 9z"/>
<path d="M2715 3923 c-64 -9 -183 -47 -255 -80 -227 -107 -408 -302 -486 -524
-14 -39 -24 -72 -22 -74 18 -14 81 -21 163 -20 156 4 249 26 390 95 214 103
371 265 455 468 43 103 44 124 3 133 -36 7 -201 9 -248 2z"/>
<path d="M7642 3919 c-29 -9 -32 -13 -26 -37 31 -128 135 -294 251 -403 114
-107 307 -209 439 -233 16 -3 40 -8 54 -11 73 -16 277 -11 295 7 8 7 -25 108
-52 163 -121 241 -350 427 -608 496 -89 23 -297 34 -353 18z"/>
<path d="M4160 3869 c-150 -39 -290 -121 -409 -240 -64 -64 -141 -170 -178
-244 -27 -54 -70 -173 -77 -216 -3 -18 -8 -45 -11 -59 -8 -37 -9 -146 -1 -159
4 -6 11 -9 14 -7 4 2 28 7 52 11 90 13 252 80 332 137 262 187 418 482 409
771 -1 34 -22 35 -131 6z"/>
<path d="M6319 3874 c-17 -327 198 -682 506 -836 133 -68 287 -107 305 -79 11
19 1 128 -21 226 -50 216 -189 420 -376 553 -104 74 -255 136 -359 148 -48 6
-54 5 -55 -12z"/>
<path d="M5275 3557 c-77 -92 -143 -216 -181 -343 -24 -79 -27 -106 -28 -239
-1 -156 0 -169 29 -275 35 -128 153 -338 200 -357 29 -11 128 133 180 262 116
289 77 650 -97 884 -59 81 -81 95 -103 68z"/>
<path d="M3350 3542 c-49 -7 -206 -64 -266 -98 -278 -154 -475 -471 -478 -769
l-1 -50 40 -1 c85 -1 252 63 370 141 252 168 407 436 420 725 3 62 0 63 -85
52z"/>
<path d="M7178 3538 c-8 -22 -1 -109 17 -202 48 -247 255 -507 502 -631 82
-41 222 -82 272 -81 l36 1 1 52 c4 196 -105 438 -275 609 -77 79 -178 150
-265 189 -127 56 -279 89 -288 63z"/>
<path d="M1340 3210 c-233 -47 -451 -187 -585 -375 -70 -99 -134 -240 -117
-257 21 -21 206 -29 323 -15 61 8 176 43 249 76 114 52 201 114 291 208 79 83
119 140 164 236 46 99 48 118 10 129 -58 17 -245 16 -335 -2z"/>
<path d="M8990 3223 c-14 -3 -42 -9 -62 -14 l-37 -10 21 -56 c112 -299 416
-538 738 -581 78 -10 260 -6 293 7 24 9 27 15 21 38 -30 123 -159 307 -287
408 -114 91 -304 179 -432 200 -48 8 -220 13 -255 8z"/>
<path d="M4225 3138 c-381 -194 -578 -655 -459 -1075 8 -30 23 -29 92 6 238
120 426 392 472 684 21 127 -2 371 -38 409 -4 4 -34 -7 -67 -24z"/>
<path d="M6302 3123 c-22 -75 -27 -120 -26 -253 1 -115 5 -148 28 -225 78
-263 244 -472 463 -584 70 -35 73 -32 97 79 25 113 23 239 -5 375 -27 128
-110 297 -200 405 -85 102 -244 222 -315 236 -28 5 -31 3 -42 -33z"/>
<path d="M2390 3110 c-211 -27 -397 -123 -557 -288 -77 -79 -123 -147 -173
-255 -58 -125 -89 -275 -57 -278 47 -5 118 3 236 27 13 3 58 18 100 34 206 80
407 268 503 470 38 79 82 235 76 272 -3 25 -34 30 -128 18z"/>
<path d="M8094 3108 c-17 -27 29 -196 80 -298 55 -110 90 -157 191 -255 121
-119 294 -219 415 -240 18 -3 36 -7 39 -9 23 -14 189 -22 201 -10 6 6 3 38 -6
84 -82 400 -447 713 -857 734 -32 2 -60 -1 -63 -6z"/>
<path d="M4840 2774 c-298 -235 -416 -692 -273 -1054 14 -36 35 -78 45 -93
l20 -28 46 38 c96 77 169 163 228 269 36 65 88 203 98 265 3 19 9 48 12 64 4
17 6 82 6 145 0 89 -6 137 -25 211 -27 103 -80 219 -100 219 -6 0 -32 -16 -57
-36z"/>
<path d="M5680 2770 c-96 -188 -118 -398 -65 -625 31 -136 100 -279 180 -374
33 -40 135 -135 160 -150 33 -20 47 -6 84 87 48 122 64 211 64 352 -1 193 -55
368 -159 526 -60 90 -199 224 -232 224 -6 0 -21 -18 -32 -40z"/>
<path d="M3445 2773 c-127 -29 -296 -132 -400 -244 -167 -179 -253 -378 -261
-609 -6 -157 -5 -158 106 -121 101 34 158 64 243 124 238 170 387 456 390 745
1 56 -3 106 -9 111 -5 5 -35 2 -69 -6z"/>
<path d="M7094 2778 c-10 -16 -6 -196 6 -255 63 -320 280 -589 567 -704 43
-18 97 -34 121 -37 l43 -5 -5 134 c-4 144 -17 205 -68 327 -94 227 -308 436
-524 514 -77 27 -133 38 -140 26z"/>
<path d="M2510 2341 c-250 -68 -448 -229 -584 -475 -31 -55 -81 -200 -91 -261
-11 -69 -14 -199 -4 -211 11 -14 67 -4 152 25 351 122 603 453 624 819 5 83 3
106 -8 113 -17 10 -9 11 -89 -10z"/>
<path d="M8002 2351 c-12 -7 -10 -158 2 -211 4 -14 8 -37 11 -53 15 -81 68
-202 134 -302 43 -65 203 -235 221 -235 5 0 15 -7 24 -15 40 -41 232 -128 311
-141 75 -12 70 -17 71 74 3 175 -74 397 -189 540 -60 75 -191 192 -264 235
-110 66 -291 127 -321 108z"/>
<path d="M5221 2133 c-69 -84 -142 -272 -158 -408 -32 -281 58 -571 234 -749
l47 -48 24 28 c67 83 144 261 157 365 4 30 9 58 12 62 6 9 5 177 -1 227 -18
159 -80 320 -169 440 -34 47 -103 120 -113 120 -1 0 -16 -17 -33 -37z"/>
<path d="M4209 2111 c-232 -115 -409 -342 -480 -613 -35 -135 -29 -404 11
-469 14 -21 161 59 256 140 216 184 341 465 329 741 -2 52 -6 106 -9 120 -14
67 -30 110 -40 110 -6 0 -36 -13 -67 -29z"/>
<path d="M6321 2122 c-30 -57 -45 -243 -28 -367 26 -200 143 -426 291 -562 73
-68 198 -147 263 -167 18 -6 23 -1 32 26 32 100 37 287 11 409 -47 224 -176
431 -354 568 -46 36 -181 111 -198 111 -4 0 -12 -8 -17 -18z"/>
<path d="M3399 1725 c-187 -69 -360 -224 -472 -425 -39 -71 -91 -218 -102
-290 -18 -117 -10 -308 14 -333 5 -5 42 5 84 21 246 95 460 344 537 623 27 97
37 305 19 377 -12 46 -21 49 -80 27z"/>
<path d="M7130 1734 c-1 -5 -4 -27 -8 -49 -9 -54 -8 -218 1 -280 12 -74 63
-222 102 -291 102 -181 242 -316 416 -399 103 -48 118 -49 134 -4 21 58 12
276 -14 374 -57 210 -199 418 -367 538 -91 65 -263 137 -264 111z"/>
<path d="M4541 1244 c-137 -123 -235 -321 -267 -539 -13 -88 -6 -246 16 -341
23 -98 113 -294 136 -294 20 0 133 116 177 182 46 70 100 185 121 259 67 230
49 472 -48 667 -43 89 -59 112 -72 112 -7 0 -35 -21 -63 -46z"/>
<path d="M5964 1249 c-99 -157 -144 -380 -118 -589 9 -76 49 -210 84 -283 29
-61 60 -117 70 -127 3 -3 17 -21 32 -41 36 -48 129 -139 143 -139 15 0 68 90
99 169 67 166 79 404 31 585 -24 92 -74 203 -126 280 -50 76 -155 186 -176
186 -7 0 -24 -19 -39 -41z"/>
</g>
</svg>
